<svg width="27" height="22" viewBox="0 0 27 22" fill="none" xmlns="http://www.w3.org/2000/svg">
<path d="M20.4939 7.09502V12.6929C20.4939 13.5617 17.3247 14.7904 13.4151 14.7904C9.50567 14.7904 6.33643 13.5617 6.33643 12.6929V7.09502" stroke="#286140" stroke-width="1.2" stroke-miterlimit="10" stroke-linecap="round" stroke-linejoin="round"/>
<path d="M13.4149 9.547L0.829834 5.07287L13.4149 0.632583L26 5.07287L13.4149 9.547Z" stroke="#286140" stroke-width="1.2" stroke-miterlimit="10" stroke-linecap="round" stroke-linejoin="round"/>
<path d="M24.1193 5.89855V14.5807" stroke="#286140" stroke-width="1.2" stroke-miterlimit="10" stroke-linecap="round" stroke-linejoin="round"/>
<path d="M25.6914 16.1539C25.6914 17.0228 24.9871 17.7271 24.1183 17.7271C23.2495 17.7271 22.5452 17.0228 22.5452 16.1539C22.5452 15.2851 23.2495 14.5808 24.1183 14.5808C24.9871 14.5808 25.6914 15.2851 25.6914 16.1539Z" stroke="#286140" stroke-width="1.2" stroke-miterlimit="10" stroke-linecap="round" stroke-linejoin="round"/>
<path d="M24.1193 17.7269V21.3673" stroke="#286140" stroke-width="1.2" stroke-miterlimit="10" stroke-linecap="round" stroke-linejoin="round"/>
</svg>
