<svg width="48" height="48" viewBox="0 0 48 48" fill="none" xmlns="http://www.w3.org/2000/svg">
<g clip-path="url(#clip0_413_10818)">
<path d="M39.164 35.2957L34.1094 24.6339L39.4538 22.0705L38.8025 20.6698L32.7938 23.5691C32.7034 23.6131 32.6225 23.6748 32.5555 23.7507C32.4886 23.8266 32.4371 23.9152 32.4038 24.0115C32.3706 24.1078 32.3563 24.2098 32.3619 24.3117C32.3674 24.4136 32.3926 24.5133 32.4361 24.6053L32.8182 25.3836C31.722 25.4758 29.8371 25.2595 26.7432 23.956C25.609 23.4324 24.3622 23.2136 23.1216 23.3207C21.881 23.4277 20.6879 23.8569 19.6563 24.5674C18.6607 25.2644 17.7854 26.1248 17.0659 27.1135C16.3312 26.8907 15.6317 26.5614 14.9889 26.1358L15.1738 25.8194C15.2246 25.7315 15.2578 25.6343 15.2716 25.5333C15.2854 25.4323 15.2796 25.3295 15.2543 25.2308C15.2291 25.1316 15.1848 25.0384 15.1241 24.9568C15.0633 24.8751 14.9873 24.8066 14.9004 24.755L9.31878 21.4472L8.54801 22.7825L13.4783 25.7053L7.5285 35.9399L2.59822 33.0171L1.82746 34.3524L7.38617 37.6678C7.56008 37.7703 7.76667 37.7985 7.96089 37.7462C8.1551 37.694 8.32117 37.5656 8.42285 37.3891L8.6078 37.0726L10.0525 38.1772L9.89091 38.4163C9.73738 38.6389 9.62843 38.8903 9.5703 39.1559C9.51217 39.4215 9.506 39.6962 9.55215 39.9643C9.59712 40.2389 9.6954 40.5017 9.84123 40.7371C9.98706 40.9726 10.1775 41.176 10.4014 41.3356L10.7571 41.5864C11.0975 41.83 11.5022 41.9629 11.9181 41.9677C11.9763 41.9719 12.0348 41.9724 12.0931 41.9691C12.2016 42.4322 12.4682 42.841 12.8451 43.1225L13.2007 43.3811C13.539 43.6222 13.9414 43.7524 14.3542 43.7545C14.4806 43.7673 14.6079 43.7683 14.7345 43.7575C14.8814 43.7286 15.0247 43.6829 15.1615 43.6213C15.3119 43.8852 15.5149 44.1139 15.7575 44.2927L16.1131 44.5436C16.4508 44.787 16.853 44.9199 17.2665 44.9248L17.4491 44.9262C17.5702 45.3919 17.8504 45.7982 18.2392 46.0722L18.5873 46.323C18.9256 46.5641 19.328 46.6943 19.7407 46.6964C20.0756 46.6997 20.4062 46.62 20.7041 46.4644C21.0021 46.3087 21.2586 46.0816 21.4515 45.8027L21.6669 45.4865L23.7112 46.7663C24.061 46.9848 24.4622 47.1031 24.8725 47.1087C25.2658 47.112 25.6532 47.0116 25.9972 46.8173C26.3412 46.6231 26.6301 46.3415 26.8359 45.9998C26.9782 45.7627 27.0756 45.5005 27.1232 45.2267C27.3252 45.2895 27.535 45.3225 27.7462 45.3247C28.1395 45.3279 28.5269 45.2275 28.8709 45.0333C29.2149 44.839 29.5038 44.5574 29.7096 44.2158C29.8557 43.9657 29.9558 43.6906 30.0048 43.4039C30.204 43.4678 30.4114 43.5008 30.6202 43.5018C31.0122 43.5037 31.3981 43.4027 31.7407 43.2085C32.0832 43.0142 32.3709 42.7333 32.576 42.3928C32.7098 42.169 32.8044 41.9231 32.8554 41.6662L32.9689 41.7369C33.321 41.9567 33.725 42.0751 34.1379 42.0794C34.5311 42.0827 34.9186 41.9823 35.2626 41.788C35.6066 41.5937 35.8955 41.3121 36.1013 40.9705C36.3143 40.6109 36.4278 40.1991 36.4297 39.779C36.4337 39.45 36.3691 39.1238 36.2403 38.8221C36.1114 38.5204 35.9212 38.2499 35.6822 38.0287C36.1977 37.1834 36.8699 36.4486 37.6611 35.8654L38.088 36.7604C38.1497 36.8914 38.2464 37.002 38.3668 37.0797C38.4873 37.1575 38.6268 37.1991 38.7693 37.1999C38.8827 37.2001 38.9946 37.1745 39.097 37.1249L45.1057 34.2256L44.4544 32.8249L39.164 35.2957ZM12.4032 40.1804C12.3624 40.2409 12.3101 40.2924 12.2494 40.332C12.1888 40.3715 12.1209 40.3983 12.05 40.4108C11.979 40.4232 11.9063 40.4211 11.8361 40.4045C11.766 40.3878 11.6998 40.3571 11.6415 40.314L11.2858 40.0631C11.2265 40.0215 11.176 39.9682 11.1372 39.9064C11.0984 39.8446 11.0721 39.7754 11.0599 39.7031C11.0476 39.6308 11.0497 39.5567 11.066 39.4852C11.0823 39.4137 11.1125 39.3462 11.1548 39.2868L12.2854 37.6441C12.3666 37.5265 12.4904 37.4466 12.6294 37.422C12.6994 37.4103 12.7709 37.4128 12.84 37.4293C12.909 37.4458 12.9742 37.476 13.0318 37.5182L13.3799 37.769C13.4392 37.8075 13.4895 37.8589 13.5272 37.9195C13.5649 37.9801 13.589 38.0484 13.5978 38.1196C13.6122 38.1904 13.6119 38.2634 13.5969 38.334C13.582 38.4047 13.5527 38.4714 13.5111 38.5299L12.4032 40.1804ZM14.8774 41.9521C14.7962 42.0696 14.6725 42.1496 14.5334 42.1742C14.3932 42.1961 14.2499 42.1646 14.1309 42.0858L13.7753 41.8349C13.716 41.7933 13.6654 41.74 13.6266 41.6781C13.5878 41.6163 13.5615 41.5472 13.5493 41.4748C13.5371 41.4025 13.5392 41.3284 13.5555 41.2569C13.5718 41.1854 13.6019 41.118 13.6442 41.0585L15.1826 38.7988C15.2219 38.7396 15.2727 38.6894 15.3319 38.6512C15.3911 38.6129 15.4574 38.5876 15.5266 38.5766L15.6255 38.5774C15.7337 38.5779 15.8394 38.6111 15.9291 38.6728L16.2771 38.9236C16.3936 39.0068 16.4743 39.1323 16.5027 39.2743C16.5146 39.3456 16.5124 39.4187 16.4962 39.4891C16.48 39.5596 16.4501 39.626 16.4083 39.6845L14.8774 41.9521ZM17.7898 43.1146C17.749 43.1751 17.6967 43.2266 17.636 43.2661C17.5754 43.3057 17.5076 43.3325 17.4366 43.3449C17.3656 43.3574 17.2929 43.3552 17.2228 43.3386C17.1526 43.322 17.0864 43.2913 17.0281 43.2482L16.6725 42.9973C16.5589 42.9128 16.481 42.7875 16.4545 42.6467C16.433 42.5037 16.4639 42.3577 16.5413 42.2364L17.6565 40.6169C17.7392 40.4953 17.8658 40.412 18.0087 40.3855C18.1515 40.359 18.2989 40.3914 18.4183 40.4756L18.7739 40.7342C18.8332 40.7758 18.8837 40.8291 18.9225 40.891C18.9614 40.9528 18.9876 41.0219 18.9999 41.0943C19.0121 41.1666 19.01 41.2407 18.9937 41.3122C18.9774 41.3837 18.9472 41.4512 18.905 41.5106L17.7898 43.1146ZM20.9484 43.9146L20.2643 44.8552C20.1792 44.974 20.0521 45.0543 19.91 45.0793C19.7678 45.1042 19.6217 45.0718 19.5026 44.9888L19.1469 44.7379C19.0876 44.6963 19.037 44.643 18.9982 44.5812C18.9594 44.5193 18.9331 44.4502 18.9209 44.3779C18.9087 44.3055 18.9108 44.2315 18.9271 44.16C18.9434 44.0885 18.9736 44.021 19.0158 43.9616L19.7004 42.9667C19.7412 42.9063 19.7935 42.8547 19.8542 42.8152C19.9148 42.7756 19.9826 42.7488 20.0536 42.7364C20.1246 42.7239 20.1973 42.7261 20.2674 42.7427C20.3376 42.7593 20.4038 42.79 20.4621 42.8331L20.8101 43.0839C20.87 43.125 20.9213 43.1778 20.9608 43.2394C21.0004 43.3009 21.0274 43.3699 21.0403 43.4423C21.0533 43.5147 21.0518 43.589 21.0361 43.6608C21.0204 43.7326 20.9907 43.8005 20.9488 43.8604L20.9484 43.9146ZM34.8675 40.1467C34.7624 40.3198 34.5948 40.4438 34.4009 40.492C34.2067 40.5395 34.002 40.5072 33.831 40.4023L29.2879 37.5832L28.5172 38.9031L31.0995 40.4739C31.2692 40.581 31.3909 40.7518 31.4382 40.9496C31.4848 41.1474 31.4532 41.356 31.3502 41.5304C31.2451 41.7034 31.0775 41.8274 30.8835 41.8756C30.6894 41.9231 30.4847 41.8909 30.3137 41.7859L27.0882 39.768L26.3175 41.0878L28.2559 42.297C28.4224 42.4076 28.5431 42.577 28.5946 42.7726C28.6261 42.9195 28.615 43.0726 28.5627 43.2132C28.5103 43.3538 28.419 43.4758 28.2998 43.5645C28.1807 43.6531 28.0388 43.7045 27.8914 43.7124C27.7441 43.7203 27.5977 43.6844 27.4701 43.609L24.2446 41.5911L23.4739 42.9109L25.4198 44.1357C25.5462 44.2574 25.6279 44.4196 25.6512 44.5952C25.6746 44.7709 25.6382 44.9494 25.5481 45.101C25.458 45.2526 25.3196 45.3682 25.1561 45.4285C24.9926 45.4887 24.8137 45.4901 24.6493 45.4322L22.499 44.0818C22.5842 43.7798 22.6047 43.4627 22.5593 43.1519C22.5133 42.8806 22.4153 42.6212 22.2708 42.3886C22.1264 42.156 21.9383 41.9547 21.7175 41.7962L21.3386 41.5917C21.0938 41.4178 20.814 41.3017 20.5196 41.2518C20.5359 41.1025 20.537 40.9518 20.523 40.8022C20.4782 40.5296 20.3798 40.269 20.2339 40.0361C20.0879 39.8031 19.8974 39.6026 19.6736 39.4464L19.3256 39.1956C18.9355 38.9188 18.4631 38.789 17.9895 38.8285C17.857 38.3598 17.5664 37.9539 17.1689 37.6823L16.8133 37.4314C16.3717 37.1162 15.8256 36.992 15.2944 37.0861C15.1484 37.115 15.0054 37.158 14.8674 37.2146C14.7168 36.9531 14.5137 36.7269 14.2715 36.5509L13.9158 36.3C13.4689 35.9823 12.9167 35.8578 12.38 35.9539C11.8432 36.0499 11.3657 36.3587 11.0517 36.8126L10.9747 36.9283L9.46213 35.7535L14.2255 27.4945C14.8409 27.8957 15.4996 28.2235 16.1884 28.4713C15.4346 29.6059 14.9198 30.8876 14.6767 32.2354C14.6928 32.6358 14.8431 33.0184 15.1024 33.3195C15.3618 33.6207 15.7146 33.8221 16.102 33.8903C17.4836 34.2732 20.1046 33.7277 22.0434 30.8353L34.6098 39.005C34.7218 39.0738 34.8144 39.1709 34.8788 39.2868C34.9433 39.4027 34.9773 39.5336 34.9776 39.6669C34.9765 39.806 34.9387 39.9423 34.8681 40.0615L34.8675 40.1467ZM34.4496 37.0421L28.878 33.4242C29.7053 32.9462 30.4112 32.2772 30.939 31.4709L29.6213 30.6853C29.0621 31.4824 28.2849 32.0939 27.3868 32.4433L22.2163 29.0844C22.1292 29.028 22.0317 28.9903 21.9299 28.9735C21.828 28.9567 21.7238 28.9612 21.6237 28.9867C21.525 29.0115 21.4322 29.0562 21.3507 29.1181C21.2692 29.1801 21.2008 29.2581 21.1493 29.3474C19.8618 31.6246 18.0833 32.4248 16.9651 32.4161C16.6958 32.4421 16.4263 32.3685 16.206 32.2086C16.869 29.652 18.367 27.402 20.4531 25.8297C21.2746 25.2546 22.2289 24.9077 23.222 24.823C24.2151 24.7383 25.2127 24.9188 26.1165 25.3467C29.2255 26.6659 31.6942 27.1504 33.4692 26.8153L37.0261 34.3253C35.9952 35.0432 35.1186 35.9676 34.4496 37.0421Z" fill="#6E6259"/>
<path d="M39.6841 31.9893L41.2048 31.2419L41.8654 32.6383L40.3446 33.3856L39.6841 31.9893Z" fill="#6E6259"/>
<path d="M38.5623 19.9524L38.6531 7.8928C38.6543 7.79944 38.6374 7.70676 38.6035 7.62006C38.5695 7.53336 38.519 7.45435 38.455 7.38756L33.6204 2.38375C33.5559 2.3175 33.4791 2.26488 33.3946 2.22891C33.31 2.19295 33.2194 2.17434 33.1278 2.17417L12.2477 2.0109C11.8785 2.00801 11.5233 2.15472 11.2603 2.41875C10.9972 2.68278 10.8479 3.0425 10.845 3.41878L10.7169 20.4441L12.1089 20.4549L12.237 3.42967L32.4211 3.5875L32.3944 7.13443C32.3916 7.51071 32.5355 7.87273 32.7946 8.14084C33.0536 8.40896 33.4065 8.5612 33.7757 8.56409L37.2557 8.5913L37.1703 19.9415L38.5623 19.9524ZM33.7864 7.14532L33.8056 4.59862L36.2851 7.16485L33.7864 7.14532Z" fill="#6E6259"/>
<path d="M17.1521 13.7531C17.1405 15.2865 17.5754 16.7889 18.4016 18.0704C19.2279 19.352 20.4084 20.355 21.7939 20.9527C23.1795 21.5503 24.7078 21.7158 26.1856 21.4282C27.6634 21.1406 29.0244 20.4128 30.0963 19.3368C31.1683 18.2609 31.9032 16.8851 32.208 15.3834C32.5128 13.8818 32.3739 12.3217 31.8089 10.9006C31.2438 9.47938 30.2779 8.2609 29.0334 7.39921C27.7889 6.53751 26.3217 6.07131 24.8172 6.05954C22.7998 6.04377 20.8588 6.84547 19.4213 8.28829C17.9838 9.73111 17.1676 11.6969 17.1521 13.7531ZM30.8442 13.8601C30.835 15.0869 30.4691 16.2832 29.7927 17.298C29.1164 18.3128 28.16 19.1003 27.0445 19.5611C25.929 20.0218 24.7045 20.1351 23.5258 19.8865C22.3472 19.638 21.2673 19.0388 20.4228 18.1647C19.5783 17.2906 19.007 16.1809 18.7813 14.9759C18.5555 13.7709 18.6854 12.5248 19.1545 11.395C19.6236 10.2653 20.4109 9.30271 21.4168 8.629C22.4227 7.9553 23.6019 7.60073 24.8055 7.61015C26.4195 7.62277 27.9624 8.28834 29.0949 9.46044C30.2273 10.6325 30.8566 12.2152 30.8442 13.8601Z" fill="#6E6259"/>
<path d="M21.9373 13.6741L20.8489 14.7666L22.7209 16.6964C22.8624 16.8419 23.0546 16.9244 23.2555 16.926C23.4565 16.9276 23.6499 16.848 23.7935 16.7048L28.6761 11.8117L27.604 10.7334L23.2732 15.088L21.9373 13.6741Z" fill="#6E6259"/>
</g>
<defs>
<clipPath id="clip0_413_10818">
<rect width="47.0943" height="48" fill="white" transform="translate(0.905762)"/>
</clipPath>
</defs>
</svg>
