<svg width="29" height="31" viewBox="0 0 29 31" fill="none" xmlns="http://www.w3.org/2000/svg">
<path d="M23.5584 22.3538L20.4458 15.6902L23.7368 14.0881L23.3357 13.2127L19.6357 15.0247C19.58 15.0522 19.5302 15.0908 19.489 15.1382C19.4478 15.1857 19.416 15.2411 19.3956 15.3012C19.3751 15.3614 19.3663 15.4252 19.3697 15.4888C19.3731 15.5525 19.3887 15.6149 19.4154 15.6724L19.6507 16.1588C18.9757 16.2164 17.815 16.0812 15.9098 15.2665C15.2114 14.9393 14.4436 14.8026 13.6797 14.8695C12.9157 14.9364 12.1811 15.2046 11.5458 15.6487C10.9328 16.0843 10.3938 16.622 9.95068 17.24C9.49826 17.1007 9.06753 16.895 8.67169 16.629L8.78558 16.4312C8.81683 16.3762 8.83729 16.3155 8.8458 16.2523C8.8543 16.1892 8.85068 16.125 8.83515 16.0633C8.81962 16.0013 8.79236 15.9431 8.75495 15.892C8.71753 15.841 8.67071 15.7981 8.61719 15.7659L5.18013 13.6985L4.7055 14.5331L7.74149 16.3599L4.0777 22.7565L1.04171 20.9297L0.567079 21.7643L3.99005 23.8365C4.09714 23.9005 4.22436 23.9181 4.34396 23.8855C4.46355 23.8528 4.56581 23.7726 4.62842 23.6622L4.74232 23.4644L5.63192 24.1548L5.53244 24.3042C5.43789 24.4434 5.3708 24.6005 5.33501 24.7665C5.29921 24.9325 5.29541 25.1042 5.32383 25.2717C5.35152 25.4434 5.41204 25.6076 5.50184 25.7548C5.59164 25.9019 5.70892 26.0291 5.84681 26.1288L6.06582 26.2856C6.27544 26.4378 6.52467 26.5209 6.78076 26.5239C6.81662 26.5265 6.8526 26.5268 6.88849 26.5247C6.95535 26.8142 7.11948 27.0697 7.35159 27.2456L7.57056 27.4072C7.77889 27.5579 8.02666 27.6393 8.28085 27.6406C8.3587 27.6486 8.4371 27.6493 8.51506 27.6425C8.60552 27.6244 8.69373 27.5959 8.77802 27.5574C8.87058 27.7223 8.99559 27.8653 9.14497 27.977L9.36397 28.1338C9.57189 28.2859 9.8196 28.369 10.0742 28.3721L10.1867 28.373C10.2613 28.664 10.4338 28.918 10.6732 29.0892L10.8875 29.2459C11.0959 29.3966 11.3436 29.478 11.5978 29.4793C11.804 29.4814 12.0076 29.4316 12.1911 29.3343C12.3746 29.237 12.5325 29.0951 12.6513 28.9207L12.7839 28.7231L14.0427 29.523C14.2582 29.6595 14.5052 29.7335 14.7579 29.737C15 29.7391 15.2386 29.6763 15.4505 29.5549C15.6623 29.4335 15.8402 29.2575 15.9669 29.044C16.0545 28.8957 16.1145 28.7318 16.1438 28.5608C16.2682 28.6 16.3974 28.6206 16.5275 28.622C16.7696 28.624 17.0082 28.5613 17.2201 28.4398C17.4319 28.3184 17.6098 28.1424 17.7365 27.9289C17.8265 27.7726 17.8881 27.6007 17.9183 27.4215C18.0409 27.4614 18.1687 27.482 18.2973 27.4827C18.5386 27.4839 18.7763 27.4207 18.9872 27.2993C19.1981 27.1779 19.3753 27.0024 19.5016 26.7896C19.584 26.6497 19.6422 26.496 19.6736 26.3354L19.7435 26.3796C19.9603 26.517 20.2091 26.591 20.4634 26.5937C20.7055 26.5957 20.9441 26.533 21.1559 26.4116C21.3678 26.2901 21.5457 26.1141 21.6724 25.9006C21.8036 25.6758 21.8735 25.4185 21.8746 25.156C21.8771 24.9503 21.8373 24.7464 21.758 24.5579C21.6786 24.3693 21.5615 24.2003 21.4143 24.062C21.7318 23.5337 22.1457 23.0744 22.6329 22.7099L22.8958 23.2693C22.9338 23.3512 22.9933 23.4203 23.0675 23.4689C23.1417 23.5175 23.2276 23.5435 23.3153 23.544C23.3851 23.5441 23.4541 23.5281 23.5171 23.4971L27.2172 21.6851L26.8161 20.8096L23.5584 22.3538ZM7.07948 25.4068C7.05433 25.4446 7.02213 25.4768 6.98477 25.5015C6.94741 25.5263 6.90565 25.543 6.86195 25.5508C6.81824 25.5586 6.77348 25.5572 6.73028 25.5468C6.68708 25.5365 6.64633 25.5172 6.61042 25.4903L6.39141 25.3335C6.35489 25.3075 6.32376 25.2742 6.29986 25.2355C6.27596 25.1969 6.25978 25.1537 6.25226 25.1085C6.24473 25.0633 6.24603 25.017 6.25607 24.9723C6.2661 24.9276 6.28468 24.8854 6.31069 24.8483L7.00691 23.8216C7.05695 23.7481 7.13314 23.6982 7.21874 23.6828C7.26184 23.6755 7.30591 23.677 7.34843 23.6873C7.39096 23.6977 7.4311 23.7165 7.46657 23.7429L7.68089 23.8997C7.71744 23.9238 7.74842 23.9559 7.77162 23.9938C7.79482 24.0316 7.80966 24.0743 7.81511 24.1188C7.82393 24.163 7.82374 24.2087 7.81454 24.2528C7.80534 24.297 7.78734 24.3387 7.76168 24.3752L7.07948 25.4068ZM8.60306 26.5141C8.55302 26.5876 8.47684 26.6375 8.39123 26.6529C8.30486 26.6666 8.21663 26.6469 8.14337 26.5977L7.92437 26.4409C7.88784 26.4148 7.85671 26.3815 7.83281 26.3429C7.80892 26.3042 7.79273 26.261 7.78521 26.2158C7.77769 26.1706 7.77898 26.1243 7.78902 26.0796C7.79905 26.0349 7.81763 25.9928 7.84365 25.9556L8.791 24.5433C8.81518 24.5063 8.84648 24.4749 8.88292 24.451C8.91937 24.4271 8.96019 24.4113 9.00283 24.4044L9.06372 24.4049C9.13036 24.4053 9.19541 24.426 9.25065 24.4646L9.46497 24.6213C9.53669 24.6733 9.58641 24.7517 9.60388 24.8405C9.6112 24.8851 9.60983 24.9307 9.59985 24.9748C9.58987 25.0188 9.57148 25.0603 9.54577 25.0969L8.60306 26.5141ZM10.3965 27.2407C10.3713 27.2785 10.3391 27.3107 10.3018 27.3354C10.2644 27.3601 10.2227 27.3769 10.179 27.3846C10.1352 27.3924 10.0905 27.3911 10.0473 27.3807C10.0041 27.3703 9.96333 27.3511 9.92742 27.3242L9.70842 27.1674C9.63847 27.1145 9.5905 27.0362 9.57419 26.9482C9.56098 26.8589 9.58 26.7676 9.62762 26.6918L10.3144 25.6796C10.3653 25.6036 10.4433 25.5516 10.5312 25.535C10.6192 25.5184 10.7099 25.5387 10.7835 25.5913L11.0024 25.7529C11.039 25.779 11.0701 25.8123 11.094 25.8509C11.1179 25.8896 11.1341 25.9328 11.1416 25.978C11.1491 26.0232 11.1478 26.0695 11.1378 26.1142C11.1277 26.1589 11.1092 26.201 11.0832 26.2382L10.3965 27.2407ZM12.3415 27.7407L11.9202 28.3286C11.8678 28.4028 11.7896 28.453 11.702 28.4686C11.6145 28.4842 11.5245 28.4639 11.4511 28.4121L11.2321 28.2553C11.1956 28.2292 11.1645 28.1959 11.1406 28.1573C11.1167 28.1186 11.1005 28.0754 11.093 28.0302C11.0855 27.985 11.0868 27.9387 11.0968 27.894C11.1068 27.8493 11.1254 27.8072 11.1514 27.77L11.5729 27.1482C11.5981 27.1105 11.6303 27.0783 11.6677 27.0535C11.705 27.0288 11.7468 27.0121 11.7905 27.0043C11.8342 26.9965 11.8789 26.9979 11.9221 27.0082C11.9653 27.0186 12.0061 27.0378 12.042 27.0647L12.2563 27.2215C12.2932 27.2472 12.3248 27.2802 12.3491 27.3187C12.3735 27.3571 12.3901 27.4003 12.3981 27.4455C12.406 27.4907 12.4052 27.5372 12.3955 27.582C12.3858 27.6269 12.3675 27.6693 12.3417 27.7068L12.3415 27.7407ZM20.9126 25.3858C20.8479 25.4939 20.7447 25.5714 20.6253 25.6016C20.5057 25.6312 20.3797 25.6111 20.2744 25.5455L17.4768 23.7836L17.0023 24.6085L18.5924 25.5903C18.6969 25.6572 18.7718 25.764 18.8009 25.8875C18.8296 26.0112 18.8101 26.1416 18.7467 26.2505C18.682 26.3587 18.5788 26.4362 18.4594 26.4663C18.3398 26.496 18.2138 26.4758 18.1085 26.4102L16.1223 25.1491L15.6477 25.974L16.8413 26.7297C16.9439 26.7988 17.0182 26.9047 17.0499 27.027C17.0693 27.1188 17.0625 27.2144 17.0302 27.3023C16.998 27.3902 16.9418 27.4664 16.8684 27.5218C16.795 27.5772 16.7076 27.6094 16.6169 27.6143C16.5262 27.6192 16.436 27.5968 16.3574 27.5497L14.3712 26.2885L13.8967 27.1134L15.0949 27.8789C15.1727 27.9549 15.223 28.0563 15.2374 28.1661C15.2518 28.2759 15.2294 28.3874 15.1739 28.4822C15.1184 28.5769 15.0332 28.6492 14.9325 28.6868C14.8318 28.7245 14.7217 28.7253 14.6204 28.6892L13.2963 27.8452C13.3488 27.6564 13.3614 27.4582 13.3334 27.264C13.3051 27.0944 13.2448 26.9323 13.1558 26.7869C13.0669 26.6415 12.9511 26.5157 12.8151 26.4167L12.5818 26.2888C12.431 26.1802 12.2587 26.1076 12.0774 26.0765C12.0874 25.9831 12.0881 25.8889 12.0795 25.7954C12.0519 25.625 11.9914 25.4622 11.9015 25.3166C11.8116 25.171 11.6943 25.0456 11.5565 24.9481L11.3422 24.7913C11.102 24.6183 10.8111 24.5372 10.5194 24.5619C10.4378 24.269 10.2589 24.0153 10.0141 23.8455L9.79511 23.6887C9.5232 23.4917 9.18691 23.4141 8.85983 23.4729C8.76992 23.4909 8.68187 23.5178 8.59691 23.5532C8.50415 23.3897 8.3791 23.2484 8.22992 23.1384L8.01092 22.9816C7.73569 22.783 7.39566 22.7052 7.06516 22.7652C6.73465 22.8253 6.44057 23.0182 6.24721 23.3019L6.19983 23.3742L5.2684 22.64L8.20163 17.4781C8.58058 17.7289 8.98615 17.9337 9.41036 18.0886C8.94615 18.7978 8.62917 19.5988 8.47946 20.4412C8.48938 20.6914 8.58191 20.9306 8.74162 21.1188C8.90133 21.307 9.11858 21.4329 9.35714 21.4755C10.2079 21.7148 11.8219 21.3739 13.0158 19.5661L20.754 24.6722C20.8229 24.7152 20.88 24.7758 20.9196 24.8483C20.9593 24.9208 20.9802 25.0026 20.9804 25.0859C20.9798 25.1728 20.9565 25.258 20.913 25.3325L20.9126 25.3858ZM20.6553 23.4454L17.2244 21.1842C17.7338 20.8854 18.1685 20.4673 18.4936 19.9634L17.6821 19.4723C17.3378 19.9705 16.8592 20.3527 16.3061 20.5711L13.1222 18.4718C13.0686 18.4366 13.0086 18.413 12.9458 18.4025C12.8831 18.392 12.819 18.3948 12.7573 18.4108C12.6965 18.4262 12.6394 18.4542 12.5892 18.4929C12.539 18.5316 12.4969 18.5803 12.4652 18.6362C11.6724 20.0595 10.5772 20.5596 9.88863 20.5541C9.7228 20.5704 9.55685 20.5243 9.42115 20.4244C9.82942 18.8265 10.7519 17.4203 12.0365 16.4376C12.5424 16.0782 13.13 15.8614 13.7415 15.8084C14.3531 15.7555 14.9674 15.8683 15.5239 16.1357C17.4384 16.9602 18.9586 17.263 20.0516 17.0536L22.2419 21.7473C21.6071 22.1961 21.0673 22.7738 20.6553 23.4454Z" fill="white"/>
<path d="M23.8789 20.2874L24.8154 19.8203L25.2221 20.693L24.2857 21.1601L23.8789 20.2874Z" fill="white"/>
<path d="M23.1883 12.7643L23.2442 5.22707C23.2449 5.16872 23.2345 5.11079 23.2136 5.0566C23.1927 5.00242 23.1616 4.95303 23.1222 4.91129L20.1451 1.78391C20.1054 1.7425 20.0581 1.70962 20.0061 1.68714C19.954 1.66466 19.8982 1.65303 19.8418 1.65292L6.98413 1.55088C6.75679 1.54907 6.53807 1.64077 6.37609 1.80579C6.2141 1.9708 6.12212 2.19563 6.12038 2.43081L6.04146 13.0716L6.89864 13.0784L6.97755 2.43761L19.4066 2.53625L19.3902 4.75309C19.3884 4.98826 19.477 5.21452 19.6366 5.38209C19.7961 5.54967 20.0134 5.64482 20.2408 5.64662L22.3837 5.66363L22.3311 12.7575L23.1883 12.7643ZM20.2473 4.75989L20.2591 3.1682L21.786 4.7721L20.2473 4.75989Z" fill="white"/>
<path d="M10.0041 8.8897C9.997 9.84808 10.2648 10.7871 10.7736 11.5881C11.2823 12.389 12.0093 13.0159 12.8625 13.3894C13.7157 13.763 14.6568 13.8664 15.5668 13.6867C16.4768 13.5069 17.3149 13.052 17.975 12.3795C18.6351 11.7071 19.0876 10.8472 19.2753 9.90868C19.463 8.97015 19.3775 7.99512 19.0295 7.10688C18.6816 6.21864 18.0868 5.45709 17.3205 4.91853C16.5541 4.37997 15.6506 4.0886 14.7242 4.08124C13.4819 4.07138 12.2866 4.57245 11.4015 5.47421C10.5163 6.37597 10.0136 7.60456 10.0041 8.8897ZM18.4355 8.95662C18.4298 9.72332 18.2045 10.4711 17.788 11.1053C17.3715 11.7395 16.7826 12.2317 16.0957 12.5197C15.4088 12.8077 14.6548 12.8784 13.929 12.7231C13.2032 12.5678 12.5382 12.1933 12.0182 11.647C11.4981 11.1007 11.1463 10.4071 11.0073 9.65398C10.8683 8.90086 10.9483 8.12202 11.2372 7.41593C11.5261 6.70984 12.0108 6.10822 12.6302 5.68716C13.2496 5.26609 13.9758 5.04449 14.717 5.05037C15.7108 5.05826 16.6609 5.47424 17.3583 6.2068C18.0556 6.93937 18.4431 7.92851 18.4355 8.95662Z" fill="white"/>
<path d="M12.9511 8.84045L12.2809 9.52326L13.4337 10.7293C13.5207 10.8203 13.6391 10.8719 13.7628 10.8729C13.8866 10.8739 14.0057 10.8241 14.0941 10.7346L17.1007 7.67644L16.4406 7.00247L13.7737 9.72409L12.9511 8.84045Z" fill="white"/>
</svg>
