<svg width="26" height="26" viewBox="0 0 26 26" fill="none" xmlns="http://www.w3.org/2000/svg">
<path d="M22.359 23.6242L19.4224 16.4971C19.7125 16.337 19.9647 16.1245 20.1639 15.8724C20.3778 15.6009 20.5243 15.2893 20.5928 14.9596C20.6613 14.6299 20.6502 14.2903 20.5602 13.9651C20.4842 13.6807 20.4969 13.3822 20.5971 13.1043C20.6972 12.8263 20.8806 12.5802 21.1259 12.3944C21.41 12.1795 21.6387 11.909 21.7957 11.6025C21.9526 11.296 22.0337 10.9611 22.0333 10.6221C22.0328 10.2831 21.9507 9.94839 21.793 9.64223C21.6353 9.33608 21.4058 9.06611 21.1212 8.85185C20.8767 8.66537 20.6944 8.41882 20.5953 8.1407C20.4963 7.86258 20.4846 7.56426 20.5615 7.28025C20.6508 6.95556 20.6614 6.61671 20.5927 6.28779C20.524 5.95888 20.3776 5.64797 20.164 5.37718C19.945 5.09903 19.6622 4.86889 19.3358 4.70314C19.0094 4.53739 18.6474 4.44013 18.2756 4.41826C17.9558 4.39839 17.6482 4.29678 17.3874 4.12478C17.1265 3.95278 16.9227 3.71719 16.7986 3.44434C16.6597 3.132 16.4486 2.8514 16.1801 2.62211C15.9116 2.39283 15.5921 2.22038 15.244 2.11679C14.8909 2.01022 14.5169 1.97601 14.148 2.01655C13.7791 2.05709 13.4242 2.17142 13.108 2.35155C12.8324 2.507 12.5156 2.58926 12.1926 2.58926C11.8696 2.58926 11.5528 2.507 11.2771 2.35155C10.961 2.17141 10.6061 2.05708 10.2372 2.01654C9.86832 1.976 9.49428 2.01021 9.14117 2.11679C8.79315 2.22046 8.47382 2.39294 8.20544 2.62222C7.93705 2.85149 7.72606 3.13204 7.58718 3.44431C7.46272 3.71766 7.25824 3.9536 6.99665 4.12568C6.73507 4.29777 6.42672 4.39918 6.10619 4.41856C5.73505 4.44077 5.37377 4.53821 5.04806 4.70395C4.72235 4.86969 4.44021 5.09965 4.22172 5.37748C4.00777 5.64892 3.86132 5.96059 3.79281 6.29026C3.7243 6.61994 3.73543 6.9595 3.82538 7.28475C3.90142 7.56916 3.88863 7.86762 3.78851 8.1456C3.68839 8.42358 3.50502 8.66969 3.25964 8.85545C2.9756 9.07036 2.74685 9.34086 2.58994 9.64737C2.43302 9.95388 2.35186 10.2888 2.35231 10.6278C2.35277 10.9668 2.43484 11.3015 2.59259 11.6076C2.75034 11.9138 2.97982 12.1837 3.26443 12.398C3.5089 12.5845 3.69119 12.831 3.79022 13.1091C3.88925 13.3872 3.90098 13.6855 3.82404 13.9695C3.73481 14.2942 3.72417 14.633 3.79287 14.9619C3.86158 15.2909 4.00794 15.6018 4.22156 15.8726C4.42078 16.1246 4.67299 16.3369 4.96313 16.4969L2.02663 23.6242C1.99896 23.6912 1.99269 23.7641 2.00858 23.8343C2.02447 23.9045 2.06184 23.9691 2.11626 24.0202C2.17068 24.0714 2.23986 24.1071 2.3156 24.1231C2.39134 24.139 2.47045 24.1346 2.54354 24.1103L5.74199 23.0491L7.3674 25.8042C7.40228 25.8635 7.45382 25.9129 7.51658 25.9474C7.57935 25.9818 7.65102 26 7.72404 26C7.73318 26 7.74228 25.9996 7.75142 25.9991C7.82894 25.9943 7.90333 25.969 7.96578 25.9263C8.02822 25.8837 8.07609 25.8253 8.10372 25.7583L10.853 19.0893C11.0006 19.0377 11.1427 18.9737 11.2776 18.898C11.5532 18.7426 11.8699 18.6604 12.1928 18.6604C12.5157 18.6604 12.8324 18.7426 13.108 18.898L13.1084 18.8982C13.2429 18.9729 13.3845 19.036 13.5315 19.0867L16.2819 25.758C16.3095 25.825 16.3574 25.8833 16.4198 25.926C16.4823 25.9687 16.5566 25.9939 16.6342 25.9988C16.6433 25.9993 16.6524 25.9997 16.6615 25.9997C16.7346 25.9997 16.8062 25.9815 16.869 25.947C16.9318 25.9126 16.9833 25.8631 17.0182 25.8039L18.6436 23.0487L21.842 24.11C21.9151 24.1343 21.9942 24.1387 22.07 24.1227C22.1457 24.1068 22.2149 24.0711 22.2693 24.0199C22.3237 23.9687 22.3611 23.9042 22.377 23.834C22.3929 23.7638 22.3866 23.6912 22.359 23.6242ZM7.6586 24.7296L6.28909 22.4083C6.24269 22.3298 6.16743 22.2691 6.07687 22.2373C5.9863 22.2055 5.8864 22.2046 5.79517 22.2347L3.09978 23.1289L5.7177 16.7755C5.84677 16.8034 5.97796 16.8221 6.11013 16.8315C6.42998 16.8513 6.73752 16.953 6.99837 17.125C7.25922 17.297 7.46309 17.5325 7.58718 17.8054C7.72608 18.1177 7.93712 18.3983 8.20559 18.6276C8.47405 18.8569 8.79347 19.0293 9.14157 19.1329C9.39262 19.2077 9.65467 19.2464 9.91848 19.2476L7.6586 24.7296ZM10.8503 18.2599C10.6346 18.3829 10.3925 18.4609 10.1408 18.4885C9.88911 18.5161 9.63393 18.4926 9.39308 18.4198C9.15724 18.3498 8.94078 18.2331 8.75879 18.078C8.5768 17.9228 8.43366 17.7329 8.33935 17.5214C8.15685 17.1186 7.85642 16.7706 7.47172 16.5166C7.08702 16.2625 6.63327 16.1124 6.16132 16.083C5.90898 16.068 5.6633 16.002 5.44175 15.8894C5.22021 15.7769 5.02823 15.6207 4.87948 15.432C4.73559 15.2495 4.63713 15.0399 4.59112 14.8182C4.54511 14.5965 4.55268 14.3682 4.61331 14.1495C4.72657 13.7273 4.70814 13.2842 4.56016 12.8714C4.41217 12.4585 4.14066 12.0927 3.777 11.8162C3.58528 11.6716 3.43086 11.4894 3.32496 11.2829C3.21907 11.0763 3.16436 10.8506 3.16482 10.6221C3.16527 10.3936 3.22088 10.168 3.3276 9.96185C3.43431 9.75566 3.58946 9.57401 3.78175 9.43011C4.14453 9.15295 4.41501 8.78674 4.56194 8.37375C4.70888 7.96075 4.72629 7.51782 4.61217 7.09609C4.55225 6.87795 4.54514 6.6503 4.59136 6.42934C4.63758 6.20838 4.73598 5.99953 4.87956 5.81766C5.02889 5.6285 5.22158 5.47206 5.44391 5.35951C5.66623 5.24696 5.91272 5.18106 6.16579 5.16651C6.637 5.13655 7.08987 4.98615 7.47375 4.73214C7.85764 4.47813 8.15737 4.13052 8.33943 3.72822C8.43366 3.51674 8.57678 3.3268 8.75878 3.17167C8.94078 3.01654 9.15729 2.89997 9.39316 2.83009C9.63409 2.75729 9.88933 2.73388 10.1411 2.76148C10.3928 2.78909 10.635 2.86704 10.8507 2.98991C11.255 3.21777 11.7194 3.33833 12.1931 3.33833C12.6667 3.33833 13.1312 3.21777 13.5354 2.98991C13.7511 2.86707 13.9932 2.78914 14.2449 2.76153C14.4966 2.73393 14.7517 2.75732 14.9926 2.83009C15.2284 2.90009 15.4449 3.01673 15.6269 3.17188C15.8089 3.32703 15.952 3.51695 16.0463 3.72841C16.2288 4.13124 16.5293 4.4792 16.9139 4.73327C17.2986 4.98734 17.7524 5.13749 18.2243 5.16688C18.4767 5.18183 18.7224 5.24791 18.9439 5.36042C19.1655 5.47293 19.3574 5.62911 19.5062 5.81785C19.6501 6.00036 19.7485 6.20995 19.7946 6.43165C19.8406 6.65334 19.833 6.88168 19.7724 7.10036C19.6591 7.5225 19.6775 7.96561 19.8255 8.37849C19.9735 8.79137 20.245 9.15719 20.6087 9.43367C20.8004 9.57823 20.9548 9.7604 21.0607 9.96695C21.1666 10.1735 21.2213 10.3992 21.2208 10.6277C21.2204 10.8563 21.1648 11.0818 21.0581 11.288C20.9514 11.4942 20.7962 11.6758 20.6039 11.8197C20.2411 12.0969 19.9707 12.4631 19.8237 12.876C19.6768 13.289 19.6593 13.7319 19.7734 14.1536C19.8333 14.3718 19.8405 14.5994 19.7942 14.8204C19.748 15.0414 19.6496 15.2502 19.506 15.4321C19.3567 15.6212 19.164 15.7777 18.9417 15.8902C18.7194 16.0028 18.4729 16.0687 18.2198 16.0832C17.7486 16.1132 17.2957 16.2636 16.9118 16.5176C16.528 16.7716 16.2282 17.1192 16.0462 17.5215C15.9519 17.733 15.8088 17.9229 15.6268 18.0781C15.4448 18.2332 15.2283 18.3498 14.9924 18.4196C14.7515 18.4927 14.4963 18.5162 14.2445 18.4886C13.9927 18.461 13.7505 18.3829 13.5348 18.2598C13.1306 18.032 12.6662 17.9115 12.1925 17.9115C11.7189 17.9115 11.2545 18.0321 10.8503 18.2599ZM18.5904 22.2346C18.4992 22.2044 18.3993 22.2053 18.3087 22.2371C18.2181 22.2689 18.1429 22.3296 18.0965 22.4082L16.727 24.7295L14.4674 19.2484C14.7312 19.247 14.9931 19.2081 15.244 19.1331C15.5922 19.0295 15.9116 18.857 16.1802 18.6277C16.4487 18.3984 16.6598 18.1177 16.7988 17.8054C16.9231 17.532 17.1275 17.296 17.389 17.1239C17.6506 16.9519 17.9589 16.8505 18.2794 16.8312C18.4103 16.8219 18.5402 16.8034 18.6681 16.7757L21.2858 23.1288L18.5904 22.2346Z" fill="#286140"/>
<path d="M18.2866 10.6248C18.2866 9.51228 17.9292 8.42473 17.2596 7.4997C16.5901 6.57466 15.6383 5.85369 14.5248 5.42794C13.4114 5.00219 12.1861 4.8908 11.004 5.10784C9.82197 5.32489 8.73617 5.86062 7.88394 6.6473C7.03172 7.43397 6.45134 8.43626 6.21621 9.52741C5.98108 10.6186 6.10176 11.7496 6.56298 12.7774C7.0242 13.8053 7.80526 14.6838 8.80737 15.3019C9.80948 15.92 10.9876 16.2499 12.1929 16.2499C13.8085 16.2482 15.3574 15.655 16.4998 14.6005C17.6422 13.5459 18.2848 12.1162 18.2866 10.6248ZM12.1929 15.4998C11.1483 15.4998 10.1273 15.2139 9.25877 14.6783C8.39027 14.1426 7.71336 13.3812 7.31364 12.4904C6.91391 11.5996 6.80932 10.6194 7.0131 9.67373C7.21688 8.72807 7.71987 7.85942 8.45847 7.17763C9.19706 6.49584 10.1381 6.03154 11.1626 5.84344C12.187 5.65533 13.2489 5.75188 14.2139 6.12086C15.1789 6.48984 16.0038 7.11468 16.5841 7.91638C17.1644 8.71808 17.4741 9.66061 17.4741 10.6248C17.4725 11.9173 16.9156 13.1564 15.9255 14.0704C14.9355 14.9843 13.5931 15.4984 12.1929 15.4998Z" fill="#286140"/>
<path d="M15.4238 9.38129L13.4429 9.1156L12.557 7.45884C12.5197 7.40036 12.4664 7.3519 12.4025 7.31823C12.3387 7.28456 12.2664 7.26685 12.1928 7.26685C12.1193 7.26685 12.047 7.28456 11.9831 7.31823C11.9193 7.3519 11.866 7.40036 11.8286 7.45884L10.9428 9.1156L8.96188 9.38129C8.88683 9.39131 8.81631 9.42052 8.7583 9.46562C8.7003 9.51072 8.65713 9.56991 8.63368 9.63648C8.61023 9.70305 8.60743 9.77436 8.62561 9.84232C8.64379 9.91029 8.68222 9.9722 8.73654 10.021L10.1703 11.3107L9.83191 13.1317C9.81915 13.2006 9.82751 13.2715 9.85605 13.3362C9.8846 13.401 9.93219 13.4571 9.99346 13.4982C10.0547 13.5393 10.1272 13.5638 10.2028 13.5689C10.2783 13.574 10.3539 13.5595 10.421 13.527L12.1928 12.6673L13.9646 13.527C14.0317 13.5595 14.1073 13.574 14.1828 13.5689C14.2584 13.5638 14.3309 13.5393 14.3921 13.4982C14.4534 13.4571 14.501 13.401 14.5295 13.3362C14.5581 13.2715 14.5664 13.2006 14.5537 13.1317L14.2153 11.3107L15.649 10.021C15.7034 9.9722 15.7418 9.91029 15.76 9.84232C15.7781 9.77436 15.7754 9.70305 15.7519 9.63648C15.7285 9.56991 15.6853 9.51072 15.6273 9.46562C15.5693 9.42052 15.4988 9.39131 15.4238 9.38129ZM13.4953 10.9113C13.4482 10.9538 13.413 11.0062 13.3927 11.064C13.3723 11.1218 13.3675 11.1833 13.3786 11.2433L13.6139 12.5096L12.3817 11.9118C12.3234 11.8835 12.2586 11.8687 12.1928 11.8687C12.1269 11.8687 12.0621 11.8835 12.0038 11.9118L10.7718 12.5095L11.007 11.2431C11.0181 11.1832 11.0133 11.1217 10.993 11.0639C10.9727 11.006 10.9375 10.9536 10.8904 10.9112L9.89346 10.0143L11.2709 9.82953C11.3361 9.82081 11.3981 9.79755 11.4513 9.76179C11.5046 9.72602 11.5477 9.67882 11.5768 9.62426L12.1928 8.47225L12.809 9.62433C12.8381 9.6789 12.8811 9.7261 12.9344 9.76186C12.9877 9.79763 13.0496 9.82088 13.1148 9.82961L14.4923 10.0144L13.4953 10.9113Z" fill="#286140"/>
</svg>
