<?xml version="1.0" encoding="UTF-8"?>
<svg xmlns="http://www.w3.org/2000/svg" version="1.1" viewBox="0 0 64 64">
  <!-- Generator: Adobe Illustrator 28.7.1, SVG Export Plug-In . SVG Version: 1.2.0 Build 142)  -->
  <g>
    <g id="Layer_2">
      <g>
        <polygon points="29.1 40 29.1 40 29.1 40.1 43.9 25.3 42.5 23.9 29.1 37.3 21.5 29.7 20.1 31.1 28.7 39.7 29.1 40"/>
        <path d="M32,14.2c-9.8,0-17.8,8-17.8,17.8s8,17.8,17.8,17.8,17.8-8,17.8-17.8-8-17.8-17.8-17.8ZM16.2,32c0-8.7,7.1-15.8,15.8-15.8s15.8,7.1,15.8,15.8-7.1,15.8-15.8,15.8-15.8-7.1-15.8-15.8Z"/>
      </g>
    </g>
  </g>
</svg>