<svg width="29" height="29" viewBox="0 0 29 29" fill="none" xmlns="http://www.w3.org/2000/svg">
<path d="M10.5898 24.8228C12.8392 24.8228 14.6628 22.9992 14.6628 20.7498C14.6611 17.8459 12.9456 15.2168 10.2884 14.0456C12.4378 12.4125 12.8562 9.34626 11.2231 7.19693C9.59 5.0476 6.52374 4.6292 4.37441 6.26228C2.22509 7.89535 1.80669 10.9616 3.43976 13.1109C3.70756 13.4634 4.022 13.7778 4.37441 14.0456C1.71728 15.2168 0.00173103 17.8459 0 20.7498C0 22.9992 1.82359 24.8228 4.07301 24.8228H10.5898ZM4.07301 10.1599C4.07301 8.36039 5.53186 6.90153 7.33142 6.90153C9.13098 6.90153 10.5898 8.36039 10.5898 10.1599C10.5898 11.9595 9.13098 13.4184 7.33142 13.4184C5.53186 13.4184 4.07301 11.9595 4.07301 10.1599ZM1.6292 20.7498C1.6292 17.6005 4.18217 15.0476 7.33142 15.0476C10.4807 15.0476 13.0336 17.6005 13.0336 20.7498C13.0336 22.0995 11.9395 23.1936 10.5898 23.1936H4.07301C2.72332 23.1936 1.6292 22.0995 1.6292 20.7498Z" fill="white"/>
<path fill-rule="evenodd" clip-rule="evenodd" d="M18.0967 3.51714C18.2177 2.83404 18.8457 2.33337 19.5815 2.33337H21.4189C22.1547 2.33337 22.7826 2.83404 22.9036 3.51714L23.0548 4.37117C23.058 4.38893 23.0784 4.43687 23.1554 4.47701C23.2157 4.50845 23.2754 4.54092 23.3343 4.5744C23.4095 4.61716 23.4638 4.60984 23.4818 4.60352L24.3437 4.2996C25.0327 4.05664 25.8074 4.31815 26.1753 4.91789L27.094 6.41552C27.4619 7.01526 27.3152 7.77743 26.7471 8.21758L26.0357 8.76879C26.0208 8.78033 25.9872 8.82075 25.9888 8.90271C25.9894 8.93509 25.9898 8.96753 25.9898 9.00004C25.9898 9.03254 25.9894 9.06498 25.9888 9.09735C25.9872 9.17933 26.0208 9.21974 26.0357 9.23129L26.7471 9.7825C27.3152 10.2226 27.4619 10.9848 27.094 11.5846L26.1753 13.0822C25.8074 13.6819 25.0327 13.9434 24.3437 13.7005L23.4818 13.3966C23.4638 13.3902 23.4096 13.3829 23.3343 13.4257C23.2754 13.4592 23.2157 13.4916 23.1554 13.5231C23.0784 13.5632 23.058 13.6111 23.0548 13.6289L22.9036 14.4829C22.7826 15.166 22.1547 15.6667 21.4189 15.6667H19.5815C18.8457 15.6667 18.2177 15.166 18.0967 14.4829L17.9455 13.6289C17.9424 13.6111 17.922 13.5632 17.8449 13.5231C17.7846 13.4916 17.725 13.4592 17.6661 13.4257C17.5908 13.3829 17.5365 13.3902 17.5186 13.3966L16.6566 13.7005C15.9676 13.9434 15.1929 13.6819 14.825 13.0822L13.9063 11.5846C13.5384 10.9848 13.6851 10.2227 14.2532 9.78251L14.9646 9.2313C14.9795 9.21975 15.0132 9.17934 15.0115 9.09737C15.0109 9.06499 15.0106 9.03254 15.0106 9.00004C15.0106 8.96754 15.0109 8.9351 15.0115 8.90273C15.0132 8.82075 14.9795 8.78034 14.9646 8.7688L14.2532 8.21759C13.6851 7.77744 13.5384 7.01527 13.9063 6.41552L14.825 4.9179C15.1929 4.31816 15.9676 4.05665 16.6566 4.29961L17.5186 4.60352C17.5365 4.60985 17.5908 4.61717 17.666 4.5744C17.725 4.54092 17.7846 4.50845 17.8449 4.47701C17.922 4.43688 17.9424 4.38893 17.9455 4.37117L18.0967 3.51714ZM19.5815 3.66671C19.5382 3.66671 19.5013 3.69616 19.4941 3.73634L19.3429 4.59037C19.2577 5.07134 18.924 5.43882 18.531 5.64355C18.4863 5.66686 18.442 5.69095 18.3983 5.71578C18.0131 5.93471 17.5073 6.02339 17.0216 5.85211L16.1596 5.5482C16.1191 5.5339 16.0735 5.54929 16.0519 5.58457L15.1332 7.08219C15.1116 7.11747 15.1202 7.1623 15.1536 7.1882L15.865 7.73941C16.2645 8.04893 16.4363 8.5043 16.428 8.92741C16.4275 8.95156 16.4273 8.97577 16.4273 9.00004C16.4273 9.02431 16.4275 9.04853 16.428 9.07268C16.4363 9.49579 16.2645 9.95116 15.865 10.2607L15.1536 10.8119C15.1202 10.8378 15.1116 10.8826 15.1332 10.9179L16.0519 12.4155C16.0735 12.4508 16.1191 12.4662 16.1596 12.4519L17.0216 12.148C17.5074 11.9767 18.0131 12.0654 18.3984 12.2843C18.4421 12.3091 18.4863 12.3332 18.531 12.3565C18.924 12.5613 19.2577 12.9287 19.3429 13.4097L19.4941 14.2637C19.5013 14.3039 19.5382 14.3334 19.5815 14.3334H21.4189C21.4622 14.3334 21.4991 14.3039 21.5062 14.2637L21.6574 13.4097C21.7426 12.9287 22.0764 12.5613 22.4693 12.3565C22.5141 12.3332 22.5583 12.3091 22.602 12.2843C22.9872 12.0654 23.493 11.9767 23.9788 12.148L24.8407 12.4519C24.8812 12.4662 24.9268 12.4508 24.9484 12.4155L25.8671 10.9179C25.8888 10.8826 25.8802 10.8378 25.8467 10.8119L25.1353 10.2607C24.7358 9.95115 24.5641 9.49578 24.5724 9.07267C24.5729 9.04853 24.5731 9.02432 24.5731 9.00004C24.5731 8.97577 24.5729 8.95156 24.5724 8.9274C24.564 8.50429 24.7358 8.04892 25.1353 7.7394L25.8467 7.18819C25.8802 7.16229 25.8888 7.11746 25.8671 7.08218L24.9484 5.58456C24.9268 5.54928 24.8812 5.53389 24.8407 5.54819L23.9788 5.85211C23.493 6.02339 22.9872 5.93471 22.602 5.71578C22.5583 5.69094 22.5141 5.66686 22.4693 5.64355C22.0764 5.43882 21.7426 5.07134 21.6574 4.59037L21.5062 3.73634C21.4991 3.69616 21.4622 3.66671 21.4189 3.66671H19.5815ZM20.5 7.66665C19.7176 7.66665 19.0833 8.26361 19.0833 8.99999C19.0833 9.73637 19.7176 10.3333 20.5 10.3333C21.2824 10.3333 21.9167 9.73637 21.9167 8.99999C21.9167 8.26361 21.2824 7.66665 20.5 7.66665ZM17.6667 8.99999C17.6667 7.52723 18.9352 6.33332 20.5 6.33332C22.0648 6.33332 23.3333 7.52723 23.3333 8.99999C23.3333 10.4727 22.0648 11.6667 20.5 11.6667C18.9352 11.6667 17.6667 10.4727 17.6667 8.99999Z" fill="white"/>
</svg>
