<svg width="29" height="30" viewBox="0 0 29 30" fill="none" xmlns="http://www.w3.org/2000/svg">
<path d="M12.4972 5.05496C12.6065 4.39949 13.1736 3.91907 13.8381 3.91907H15.16C15.8245 3.91907 16.3916 4.39949 16.5008 5.05496L16.6808 6.13498C16.7663 6.64764 17.1444 7.05878 17.6244 7.25808C18.1046 7.45746 18.656 7.43083 19.0791 7.12861L19.9704 6.49201C20.5111 6.10577 21.2518 6.16708 21.7217 6.63696L22.6564 7.57166C23.1263 8.04155 23.1876 8.78227 22.8014 9.32301L22.1646 10.2146C21.8624 10.6375 21.8358 11.1888 22.0351 11.6689C22.2343 12.1488 22.6454 12.5268 23.1579 12.6122L24.2381 12.7923C24.8936 12.9015 25.374 13.4686 25.374 14.1331V15.455C25.374 16.1195 24.8936 16.6866 24.2381 16.7959L23.1581 16.9759C22.6454 17.0613 22.2343 17.4394 22.035 17.9194C21.8356 18.3996 21.8623 18.951 22.1645 19.3741L22.801 20.2652C23.1872 20.8059 23.1259 21.5467 22.656 22.0165L21.7213 22.9513C21.2514 23.4211 20.5107 23.4824 19.97 23.0962L19.0787 22.4596C18.6557 22.1574 18.1044 22.1308 17.6243 22.3301C17.1443 22.5294 16.7663 22.9404 16.6809 23.453L16.5008 24.5332C16.3916 25.1886 15.8245 25.6691 15.16 25.6691H13.8381C13.1736 25.6691 12.6065 25.1886 12.4972 24.5332L12.3172 23.4531C12.2318 22.9405 11.8536 22.5294 11.3737 22.3301C10.8935 22.1307 10.3421 22.1573 9.91896 22.4595L9.02767 23.0962C8.48693 23.4824 7.7462 23.4211 7.27632 22.9512L6.34162 22.0165C5.87173 21.5466 5.81043 20.8059 6.19667 20.2652L6.8335 19.3736C7.13563 18.9506 7.16227 18.3994 6.96296 17.9193C6.76372 17.4394 6.35267 17.0613 5.84013 16.9759L4.75992 16.7959C4.10444 16.6866 3.62402 16.1195 3.62402 15.455V14.1331C3.62402 13.4686 4.10444 12.9015 4.75992 12.7923L5.83993 12.6122C6.3526 12.5268 6.76374 12.1487 6.96303 11.6687C7.16242 11.1885 7.13579 10.637 6.83357 10.2139L6.19714 9.32293C5.8109 8.78219 5.87221 8.04147 6.34209 7.57159L7.2768 6.63688C7.74668 6.167 8.4874 6.10569 9.02814 6.49194L9.9194 7.12855C10.3424 7.4307 10.8937 7.45734 11.3738 7.25801C11.8537 7.05877 12.2317 6.64771 12.3172 6.13515L12.4972 5.05496Z" stroke="white" stroke-linecap="round" stroke-linejoin="round"/>
<path d="M18.1249 14.7941C18.1249 16.7961 16.5019 18.4191 14.4999 18.4191C12.4978 18.4191 10.8749 16.7961 10.8749 14.7941C10.8749 12.7921 12.4978 11.1691 14.4999 11.1691C16.5019 11.1691 18.1249 12.7921 18.1249 14.7941Z" stroke="white" stroke-linecap="round" stroke-linejoin="round"/>
</svg>
