<svg enable-background="new 0 0 64 64" height="512" viewBox="0 0 64 64" width="512" xmlns="http://www.w3.org/2000/svg"><g id="Layer_17"><path d="m37.081 2.417c-.552 0-1 .447-1 1v57.166c0 .553.448 1 1 1s1-.447 1-1v-57.166c0-.553-.448-1-1-1z"/><path d="m45.541 16.615c-.23 0-.46.005-.694.016-.833.039-1.674.146-2.499.32-.389.082-.693.388-.773.777-.08.391.079.791.405 1.02 4.002 2.812 6.423 7.229 6.64 12.118.255 5.729-2.638 11.135-7.549 14.105-.339.205-.525.591-.474.984s.33.719.71.831c1.35.396 2.765.597 4.207.597.233 0 .467-.005.702-.016 4.105-.183 7.894-1.952 10.669-4.984 2.775-3.031 4.203-6.961 4.02-11.063-.367-8.245-7.116-14.705-15.364-14.705zm9.868 24.418c-2.415 2.638-5.711 4.179-9.283 4.337-.206.009-.41.014-.613.014 0 0 0 0-.001 0-.485 0-.967-.026-1.443-.078 4.333-3.499 6.8-8.873 6.548-14.528-.208-4.702-2.224-9.017-5.612-12.151 7.417-.292 13.574 5.431 13.901 12.783.158 3.569-1.084 6.986-3.497 9.623z"/><path d="m19.038 22.205c-5.401 0-9.795 4.394-9.795 9.795 0 5.402 4.394 9.797 9.795 9.797s9.795-4.395 9.795-9.797c0-5.401-4.394-9.795-9.795-9.795zm0 17.592c-4.298 0-7.795-3.498-7.795-7.797 0-4.298 3.497-7.795 7.795-7.795s7.795 3.497 7.795 7.795c0 4.299-3.497 7.797-7.795 7.797z"/><path d="m19.038 21.994c.552 0 1-.447 1-1v-3.951c0-.553-.448-1-1-1s-1 .447-1 1v3.951c0 .553.447 1 1 1z"/><path d="m19.038 42.006c-.552 0-1 .447-1 1v3.951c0 .553.448 1 1 1s1-.447 1-1v-3.951c0-.553-.448-1-1-1z"/><path d="m33.994 31h-3.951c-.552 0-1 .447-1 1s.448 1 1 1h3.951c.552 0 1-.447 1-1s-.448-1-1-1z"/><path d="m9.032 32c0-.553-.448-1-1-1h-3.951c-.552 0-1 .447-1 1s.448 1 1 1h3.951c.552 0 1-.447 1-1z"/><path d="m10.727 24.715c.196.206.46.311.725.311.248 0 .496-.092.689-.275.4-.381.417-1.014.036-1.414l-2.723-2.863c-.38-.399-1.014-.414-1.414-.035-.4.381-.417 1.014-.036 1.414z"/><path d="m27.348 39.285c-.38-.398-1.013-.414-1.414-.035-.4.381-.417 1.014-.036 1.414l2.723 2.863c.196.206.46.311.725.311.248 0 .496-.092.689-.275.4-.381.417-1.014.036-1.414z"/><path d="m10.727 39.287-2.723 2.861c-.38.4-.365 1.033.035 1.414.194.184.442.275.689.275.264 0 .528-.104.725-.311l2.723-2.861c.38-.4.365-1.033-.035-1.414-.4-.378-1.032-.362-1.414.036z"/><path d="m26.624 25.025c.264 0 .528-.104.725-.311l2.723-2.863c.381-.4.365-1.033-.036-1.414-.399-.381-1.032-.364-1.414.035l-2.723 2.863c-.381.4-.365 1.033.036 1.414.193.186.441.276.689.276z"/></g></svg>