<?xml version="1.0" encoding="UTF-8"?>
<svg xmlns="http://www.w3.org/2000/svg" xmlns:xlink="http://www.w3.org/1999/xlink" version="1.1" viewBox="0 0 489.9 70">
  <defs>
    <style>
      .cls-1, .cls-2 {
        fill: none;
      }

      .cls-2 {
        stroke: #8e8d8d;
        stroke-miterlimit: 10;
        stroke-width: .5px;
      }

      .cls-3 {
        clip-path: url(#clippath);
      }
    </style>
    <clipPath id="clippath">
      <rect class="cls-1" x="2.9" width="487" height="70"/>
    </clipPath>
  </defs>
  <!-- Generator: Adobe Illustrator 28.7.1, SVG Export Plug-In . SVG Version: 1.2.0 Build 142)  -->
  <g>
    <g id="Layer_1">
      <g class="cls-3">
        <g id="Layer_1-2" data-name="Layer_1">
          <g id="Mask_Group_1">
            <g id="Group_47092">
              <g id="Group_47091">
                <g id="Group_47110">
                  <path id="Path_50562" class="cls-2" d="M501.5,296.1l-19.6-11.3-19.6,11.3-36.3-20.9-36.3,20.9-19.6-11.3-19.6,11.3-36.3-20.9-36.3,20.9-19.6-11.3-19.6,11.3-36.3-20.9-36.3,20.9-19.6-11.3-19.6,11.3-36.3-20.9-36.3,20.9-19.6-11.3-19.6,11.3-36.3-20.9-36.3,20.9M501.5,269.7l-19.6-11.3-19.6,11.3M389.7,269.7l-19.6-11.3-19.6,11.3M278,269.7l-19.6-11.3-19.6,11.3M166.3,269.7l-19.6-11.3-19.6,11.3M54.6,269.7l-19.6-11.3-19.6,11.3M391.2,304.3l34.8-20.3,35,19.9M279.5,304.3l34.8-20.3,35,19.9M167.8,304.3l34.8-20.3,35,19.9M56.1,304.3l34.8-20.3,35,19.9M-55.7,304.3l34.8-20.3,35,19.9M501.5,287.3l-19.6-11.3-19.6,11.3-36.3-20.9-36.3,20.9-19.6-11.3-19.6,11.3-36.3-20.9-36.3,20.9-19.6-11.3-19.6,11.3-36.3-20.9-36.3,20.9-19.6-11.3-19.6,11.3-36.3-20.9-36.3,20.9-19.6-11.3-19.6,11.3-36.3-20.9-36.3,20.9M501.5,278.5l-19.6-11.3-19.6,11.3-36.3-20.9-36.3,20.9-19.6-11.3-19.6,11.3-36.3-20.9-36.3,20.9-19.6-11.3-19.6,11.3-36.3-20.9-36.3,20.9-19.6-11.3-19.6,11.3-36.3-20.9-36.3,20.9-19.6-11.3-19.6,11.3-36.3-20.9-36.3,20.9M557.4,330.6l-19.6-11.3-19.6,11.3-36.3-20.9-36.3,20.9-19.6-11.3-19.6,11.3-36.3-20.9-36.3,20.9-19.6-11.3-19.6,11.3-36.3-20.9-36.3,20.9-19.6-11.3-19.6,11.3-36.3-20.9-36.3,20.9-19.6-11.3-19.6,11.3-36.3-20.9L-1.3,330.6M557.4,304.1l-19.6-11.3-19.6,11.3M445.6,304.1l-19.6-11.3-19.6,11.3M333.9,304.1l-19.6-11.3-19.6,11.3M222.2,304.1l-19.6-11.3-19.6,11.3M110.4,304.1l-19.6-11.3-19.6,11.3M447.1,338.8l34.8-20.3,35,19.9M335.4,338.8l34.8-20.3,35,19.9M223.7,338.8l34.8-20.3,35,19.9M111.9,338.8l34.8-20.3,35,19.9M.2,338.8l34.8-20.3,35,19.9M557.3,321.8l-19.6-11.3-19.6,11.3-36.3-20.9-36.3,20.9-19.6-11.3-19.6,11.3-36.3-20.9-36.3,20.9-19.6-11.3-19.6,11.3-36.3-20.9-36.3,20.9-19.6-11.3-19.6,11.3-36.3-20.9-36.3,20.9-19.6-11.3-19.6,11.3-36.3-20.9L-1.3,321.8M557.4,313l-19.6-11.3-19.6,11.3-36.3-20.9-36.3,20.9-19.6-11.3-19.6,11.3-36.3-20.9-36.3,20.9-19.6-11.3-19.6,11.3-36.3-20.9-36.3,20.9-19.6-11.3-19.6,11.3-36.3-20.9-36.3,20.9-19.6-11.3-19.6,11.3-36.3-20.9L-1.3,313M501.5,227l-19.6-11.3-19.6,11.3-36.3-20.9-36.3,20.9-19.6-11.3-19.6,11.3-36.3-20.9-36.3,20.9-19.6-11.3-19.6,11.3-36.3-20.9-36.3,20.9-19.6-11.3-19.6,11.3-36.3-20.9-36.3,20.9-19.6-11.3-19.6,11.3-36.3-20.9-36.3,20.9M501.5,200.6l-19.6-11.3-19.6,11.3M389.8,200.6l-19.6-11.3-19.6,11.3M278,200.6l-19.6-11.3-19.6,11.3M166.3,200.6l-19.6-11.3-19.6,11.3M54.6,200.6l-19.6-11.3-19.6,11.3M391.2,235.2l34.8-20.3,35,19.9M279.5,235.2l34.8-20.3,35,19.9M167.8,235.2l34.8-20.3,35,19.9M56.1,235.2l34.8-20.3,35,19.9M-55.7,235.2l34.8-20.3,35,19.9M501.5,218.2l-19.6-11.3-19.6,11.3-36.3-20.9-36.3,20.9-19.6-11.3-19.6,11.3-36.3-20.9-36.3,20.9-19.6-11.3-19.6,11.3-36.3-20.9-36.3,20.9-19.6-11.3-19.6,11.3-36.3-20.9-36.3,20.9-19.6-11.3-19.6,11.3-36.3-20.9-36.3,20.9M501.5,209.4l-19.6-11.3-19.6,11.3-36.3-20.9-36.3,20.9-19.6-11.3-19.6,11.3-36.3-20.9-36.3,20.9-19.6-11.3-19.6,11.3-36.3-20.9-36.3,20.9-19.6-11.3-19.6,11.3-36.3-20.9-36.3,20.9-19.6-11.3-19.6,11.3-36.3-20.9-36.3,20.9M557.4,261.5l-19.6-11.3-19.6,11.3-36.3-20.9-36.3,20.9-19.6-11.3-19.6,11.3-36.3-20.9-36.3,20.9-19.6-11.3-19.6,11.3-36.3-20.9-36.3,20.9-19.6-11.3-19.6,11.3-36.3-20.9-36.3,20.9-19.6-11.3-19.6,11.3-36.3-20.9L-1.3,261.5M557.4,235l-19.6-11.3-19.6,11.3M445.6,235l-19.6-11.3-19.6,11.3M333.9,235l-19.6-11.3-19.6,11.3M222.2,235l-19.6-11.3-19.6,11.3M110.4,235l-19.6-11.3-19.6,11.3M447.1,269.7l34.8-20.3,35,19.9M335.4,269.7l34.8-20.3,35,19.9M223.7,269.7l34.8-20.3,35,19.9M111.9,269.7l34.8-20.3,35,19.9M.2,269.7l34.8-20.3,35,19.9M557.4,252.7l-19.6-11.3-19.6,11.3-36.3-20.9-36.3,20.9-19.6-11.3-19.6,11.3-36.3-20.9-36.3,20.9-19.6-11.3-19.6,11.3-36.3-20.9-36.3,20.9-19.6-11.3-19.6,11.3-36.3-20.9-36.3,20.9-19.6-11.3-19.6,11.3-36.3-20.9L-1.3,252.7M557.4,243.9l-19.6-11.3-19.6,11.3-36.3-20.9-36.3,20.9-19.6-11.3-19.6,11.3-36.3-20.9-36.3,20.9-19.6-11.3-19.6,11.3-36.3-20.9-36.3,20.9-19.6-11.3-19.6,11.3-36.3-20.9-36.3,20.9-19.6-11.3-19.6,11.3-36.3-20.9L-1.3,243.9M501.5,157.9l-19.6-11.3-19.6,11.3-36.3-20.9-36.3,20.9-19.6-11.3-19.6,11.3-36.3-20.9-36.3,20.9-19.6-11.3-19.6,11.3-36.3-20.9-36.3,20.9-19.6-11.3-19.6,11.3-36.3-20.9-36.3,20.9-19.6-11.3-19.6,11.3-36.3-20.9-36.3,20.9M501.5,131.5l-19.6-11.3-19.6,11.3M389.8,131.5l-19.6-11.3-19.6,11.3M278,131.5l-19.6-11.3-19.6,11.3M166.3,131.5l-19.6-11.3-19.6,11.3M54.6,131.5l-19.6-11.3-19.6,11.3M391.2,166.2l34.8-20.3,35,19.9M279.5,166.2l34.8-20.3,35,19.9M167.8,166.2l34.8-20.3,35,19.9M56.1,166.2l34.8-20.3,35,19.9M-55.7,166.2l34.8-20.3,35,19.9M501.5,149.1l-19.6-11.3-19.6,11.3-36.3-20.9-36.3,20.9-19.6-11.3-19.6,11.3-36.3-20.9-36.3,20.9-19.6-11.3-19.6,11.3-36.3-20.9-36.3,20.9-19.6-11.3-19.6,11.3-36.3-20.9-36.3,20.9-19.6-11.3-19.6,11.3-36.3-20.9-36.3,20.9M501.5,140.3l-19.6-11.3-19.6,11.3-36.3-20.9-36.3,20.9-19.6-11.3-19.6,11.3-36.3-20.9-36.3,20.9-19.6-11.3-19.6,11.3-36.3-20.9-36.3,20.9-19.6-11.3-19.6,11.3-36.3-20.9-36.3,20.9-19.6-11.3-19.6,11.3-36.3-20.9-36.3,20.9M557.4,192.4l-19.6-11.3-19.6,11.3-36.3-20.9-36.3,20.9-19.6-11.3-19.6,11.3-36.3-20.9-36.3,20.9-19.6-11.3-19.6,11.3-36.3-20.9-36.3,20.9-19.6-11.3-19.6,11.3-36.3-20.9-36.3,20.9-19.6-11.3-19.6,11.3-36.3-20.9L-1.3,192.4M557.4,165.9l-19.6-11.3-19.6,11.3M445.6,165.9l-19.6-11.3-19.6,11.3M333.9,165.9l-19.6-11.3-19.6,11.3M222.2,165.9l-19.6-11.3-19.6,11.3M110.4,165.9l-19.6-11.3-19.6,11.3M447.1,200.6l34.8-20.3,35,19.9M335.4,200.6l34.8-20.3,35,19.9M223.7,200.6l34.8-20.3,35,19.9M111.9,200.6l34.8-20.3,35,19.9M.2,200.6l34.8-20.3,35,19.9M557.3,183.6l-19.6-11.3-19.6,11.3-36.3-20.9-36.3,20.9-19.6-11.3-19.6,11.3-36.3-20.9-36.3,20.9-19.6-11.3-19.6,11.3-36.3-20.9-36.3,20.9-19.6-11.3-19.6,11.3-36.3-20.9-36.3,20.9-19.6-11.3-19.6,11.3-36.3-20.9L-1.3,183.6M557.4,174.8l-19.6-11.3-19.6,11.3-36.3-20.9-36.3,20.9-19.6-11.3-19.6,11.3-36.3-20.9-36.3,20.9-19.6-11.3-19.6,11.3-36.3-20.9-36.3,20.9-19.6-11.3-19.6,11.3-36.3-20.9-36.3,20.9-19.6-11.3-19.6,11.3-36.3-20.9L-1.3,174.8M501.5,88.8l-19.6-11.3-19.6,11.3-36.3-20.9-36.3,20.9-19.6-11.3-19.6,11.3-36.3-20.9-36.3,20.9-19.6-11.3-19.6,11.3-36.3-20.9-36.3,20.9-19.6-11.3-19.6,11.3-36.3-20.9-36.3,20.9-19.6-11.3-19.6,11.3-36.3-20.9-36.3,20.9M501.5,62.4l-19.6-11.3-19.6,11.3M389.8,62.4l-19.6-11.3-19.6,11.3M278,62.4l-19.6-11.3-19.6,11.3M166.3,62.4l-19.6-11.3-19.6,11.3M54.6,62.4l-19.6-11.3-19.6,11.3M391.2,97.1l34.8-20.3,35,19.9M279.5,97.1l34.8-20.3,35,19.9M167.8,97.1l34.8-20.3,35,19.9M56.1,97.1l34.8-20.3,35,19.9M-55.7,97.1l34.8-20.3,35,19.9M501.5,80l-19.6-11.3-19.6,11.3-36.3-20.9-36.3,20.9-19.6-11.3-19.6,11.3-36.3-20.9-36.3,20.9-19.6-11.3-19.6,11.3-36.3-20.9-36.3,20.9-19.6-11.3-19.6,11.3-36.3-20.9-36.3,20.9-19.6-11.3-19.6,11.3-36.3-20.9-36.3,20.9M501.5,71.2l-19.6-11.3-19.6,11.3-36.3-20.9-36.3,20.9-19.6-11.3-19.6,11.3-36.3-20.9-36.3,20.9-19.6-11.3-19.6,11.3-36.3-20.9-36.3,20.9-19.6-11.3-19.6,11.3-36.3-20.9-36.3,20.9-19.6-11.3-19.6,11.3-36.3-20.9-36.3,20.9M557.4,123.3l-19.6-11.3-19.6,11.3-36.3-20.9-36.3,20.9-19.6-11.3-19.6,11.3-36.3-20.9-36.3,20.9-19.6-11.3-19.6,11.3-36.3-20.9-36.3,20.9-19.6-11.3-19.6,11.3-36.3-20.9-36.3,20.9-19.6-11.3-19.6,11.3-36.3-20.9L-1.3,123.3M557.4,96.8l-19.6-11.3-19.6,11.3M445.6,96.8l-19.6-11.3-19.6,11.3M333.9,96.8l-19.6-11.3-19.6,11.3M222.2,96.8l-19.6-11.3-19.6,11.3M110.4,96.8l-19.6-11.3-19.6,11.3M447.1,131.5l34.8-20.3,35,19.9M335.4,131.5l34.8-20.3,35,19.9M223.7,131.5l34.8-20.3,35,19.9M111.9,131.5l34.8-20.3,35,19.9M.2,131.5l34.8-20.3,35,19.9M557.4,114.5l-19.6-11.3-19.6,11.3-36.3-20.9-36.3,20.9-19.6-11.3-19.6,11.3-36.3-20.9-36.3,20.9-19.6-11.3-19.6,11.3-36.3-20.9-36.3,20.9-19.6-11.3-19.6,11.3-36.3-20.9-36.3,20.9-19.6-11.3-19.6,11.3-36.3-20.9L-1.3,114.5M557.4,105.7l-19.6-11.3-19.6,11.3-36.3-20.9-36.3,20.9-19.6-11.3-19.6,11.3-36.3-20.9-36.3,20.9-19.6-11.3-19.6,11.3-36.3-20.9-36.3,20.9-19.6-11.3-19.6,11.3-36.3-20.9-36.3,20.9-19.6-11.3-19.6,11.3-36.3-20.9L-1.3,105.7M501.5,19.8l-19.6-11.3-19.6,11.3L426-1.2l-36.3,20.9-19.6-11.3-19.6,11.3L314.3-1.2l-36.3,20.9-19.6-11.3-19.6,11.3L202.6-1.2l-36.3,20.9-19.6-11.3-19.6,11.3L90.9-1.2l-36.3,20.9-19.6-11.3-19.6,11.3L-20.9-1.2l-36.3,20.9M501.5-6.7l-19.6-11.3-19.6,11.3M389.7-6.7l-19.6-11.3-19.6,11.3M278-6.7l-19.6-11.3-19.6,11.3M166.3-6.7l-19.6-11.3-19.6,11.3M54.6-6.7l-19.6-11.3L15.4-6.7M391.2,28l34.8-20.3,35,19.9M279.5,28l34.8-20.3,35,19.9M167.8,28l34.8-20.3,35,19.9M56.1,28L90.8,7.7l35,19.9M-55.7,28L-20.9,7.7,14.1,27.5M501.5,10.9L481.9-.4l-19.6,11.3-36.3-20.9-36.3,20.9L370.2-.4l-19.6,11.3-36.3-20.9-36.3,20.9L258.4-.4l-19.6,11.3-36.3-20.9-36.3,20.9L146.7-.4l-19.6,11.3-36.3-20.9L54.6,10.9,35-.4,15.4,10.9-20.9-10-57.1,10.9M501.5,2.1l-19.6-11.3-19.6,11.3-36.3-20.9-36.3,20.9-19.6-11.3-19.6,11.3-36.3-20.9-36.3,20.9-19.6-11.3-19.6,11.3-36.3-20.9L166.3,2.1l-19.6-11.3-19.6,11.3-36.3-20.9L54.6,2.1l-19.6-11.3L15.4,2.1-20.9-18.8-57.1,2.1M557.4,54.2l-19.6-11.3-19.6,11.3-36.3-20.9-36.3,20.9-19.6-11.3-19.6,11.3-36.3-20.9-36.3,20.9-19.6-11.3-19.6,11.3-36.3-20.9-36.3,20.9-19.6-11.3-19.6,11.3-36.3-20.9-36.3,20.9-19.6-11.3-19.6,11.3-36.3-20.9L-1.3,54.2M557.4,27.8l-19.6-11.3-19.6,11.3M445.6,27.8l-19.6-11.3-19.6,11.3M333.9,27.8l-19.6-11.3-19.6,11.3M222.2,27.8l-19.6-11.3-19.6,11.3M110.4,27.8l-19.6-11.3-19.6,11.3M447.1,62.4l34.8-20.3,35,19.9M335.4,62.4l34.8-20.3,35,19.9M223.7,62.4l34.8-20.3,35,19.9M111.9,62.4l34.8-20.3,35,19.9M.2,62.4l34.8-20.3,35,19.9M557.4,45.4l-19.6-11.3-19.6,11.3-36.3-20.9-36.3,20.9-19.6-11.3-19.6,11.3-36.3-20.9-36.3,20.9-19.6-11.3-19.6,11.3-36.3-20.9-36.3,20.9-19.6-11.3-19.6,11.3-36.3-20.9-36.3,20.9-19.6-11.3-19.6,11.3-36.3-20.9L-1.3,45.4M557.4,36.6l-19.6-11.3-19.6,11.3-36.3-20.9-36.3,20.9-19.6-11.3-19.6,11.3-36.3-20.9-36.3,20.9-19.6-11.3-19.6,11.3-36.3-20.9-36.3,20.9-19.6-11.3-19.6,11.3-36.3-20.9-36.3,20.9-19.6-11.3-19.6,11.3L35,15.7-1.3,36.6M501.5-49.3l-19.6-11.3-19.6,11.3-36.3-20.9-36.3,20.9-19.6-11.3-19.6,11.3-36.3-20.9-36.3,20.9-19.6-11.3-19.6,11.3-36.3-20.9-36.3,20.9-19.6-11.3-19.6,11.3-36.3-20.9-36.3,20.9-19.6-11.3-19.6,11.3-36.3-20.9-36.3,20.9M501.5-75.8l-19.6-11.3-19.6,11.3M389.7-75.8l-19.6-11.3-19.6,11.3M278-75.8l-19.6-11.3-19.6,11.3M166.3-75.8l-19.6-11.3-19.6,11.3M54.6-75.8l-19.6-11.3-19.6,11.3M391.2-41.1l34.8-20.3,35,19.9M279.5-41.1l34.8-20.3,35,19.9M167.8-41.1l34.8-20.3,35,19.9M56.1-41.1l34.8-20.3,35,19.9M-55.7-41.1l34.8-20.3L14.1-41.5M501.5-58.2l-19.6-11.3-19.6,11.3-36.3-20.9-36.3,20.9-19.6-11.3-19.6,11.3-36.3-20.9-36.3,20.9-19.6-11.3-19.6,11.3-36.3-20.9-36.3,20.9-19.6-11.3-19.6,11.3-36.3-20.9-36.3,20.9-19.6-11.3-19.6,11.3-36.3-20.9-36.3,20.9M501.5-67l-19.6-11.3-19.6,11.3-36.3-20.9-36.3,20.9-19.6-11.3-19.6,11.3-36.3-20.9-36.3,20.9-19.6-11.3-19.6,11.3-36.3-20.9-36.3,20.9-19.6-11.3-19.6,11.3-36.3-20.9-36.3,20.9-19.6-11.3-19.6,11.3-36.3-20.9-36.3,20.9M557.4-14.9l-19.6-11.3-19.6,11.3-36.3-20.9-36.3,20.9-19.6-11.3-19.6,11.3-36.3-20.9-36.3,20.9-19.6-11.3-19.6,11.3-36.3-20.9-36.3,20.9-19.6-11.3-19.6,11.3-36.3-20.9-36.3,20.9-19.6-11.3-19.6,11.3-36.3-20.9L-1.3-14.9M557.4-41.3l-19.6-11.3-19.6,11.3M445.6-41.3l-19.6-11.3-19.6,11.3M333.9-41.3l-19.6-11.3-19.6,11.3M222.2-41.3l-19.6-11.3-19.6,11.3M110.4-41.3l-19.6-11.3-19.6,11.3M447.1-6.7l34.8-20.3,35,19.9M335.4-6.7l34.8-20.3,35,19.9M223.7-6.7l34.8-20.3,35,19.9M111.9-6.7l34.8-20.3,35,19.9M.2-6.7l34.8-20.3L70-7.1M557.4-23.7l-19.6-11.3-19.6,11.3-36.3-20.9-36.3,20.9-19.6-11.3-19.6,11.3-36.3-20.9-36.3,20.9-19.6-11.3-19.6,11.3-36.3-20.9-36.3,20.9-19.6-11.3-19.6,11.3-36.3-20.9-36.3,20.9-19.6-11.3-19.6,11.3-36.3-20.9L-1.3-23.7M557.4-32.5l-19.6-11.3-19.6,11.3-36.3-20.9-36.3,20.9-19.6-11.3-19.6,11.3-36.3-20.9-36.3,20.9-19.6-11.3-19.6,11.3-36.3-20.9-36.3,20.9-19.6-11.3-19.6,11.3-36.3-20.9-36.3,20.9-19.6-11.3-19.6,11.3-36.3-20.9L-1.3-32.5"/>
                </g>
              </g>
            </g>
          </g>
        </g>
      </g>
    </g>
  </g>
</svg>