<svg width="29" height="31" viewBox="0 0 29 31" fill="none" xmlns="http://www.w3.org/2000/svg">
<path d="M4.17045 13.4788C3.50608 13.2396 2.95197 12.7896 2.60431 12.207C2.25665 11.6243 2.13741 10.9459 2.26726 10.2894C2.39712 9.63285 2.76789 9.03972 3.3152 8.61296C3.8625 8.1862 4.5518 7.95276 5.26341 7.95314C5.97503 7.95353 6.66403 8.18773 7.21081 8.61509C7.75759 9.04244 8.12762 9.63597 8.25666 10.2926C8.38571 10.9493 8.26562 11.6276 7.91724 12.2099C7.56886 12.7921 7.0142 13.2415 6.34953 13.48C7.05577 13.5825 7.72987 13.8277 8.32524 14.1986C8.9206 14.5695 9.42305 15.0573 9.79783 15.6282C10.5238 15.2911 11.3058 15.0728 12.1101 14.9829C11.1277 14.6735 10.2947 14.0464 9.75972 13.2137C9.22477 12.3809 9.02279 11.3969 9.18987 10.4373C9.35695 9.47769 9.8822 8.60511 10.6718 7.97544C11.4614 7.34578 12.4638 7.00006 13.5 7.00006C14.5362 7.00006 15.5387 7.34578 16.3283 7.97544C17.1178 8.60511 17.6431 9.47769 17.8102 10.4373C17.9773 11.3969 17.7753 12.3809 17.2403 13.2137C16.7054 14.0464 15.8723 14.6735 14.89 14.9829C15.6942 15.0728 16.4761 15.2911 17.202 15.6282C17.5768 15.0573 18.0792 14.5696 18.6746 14.1987C19.27 13.8278 19.944 13.5826 20.6503 13.48C19.9856 13.2415 19.4309 12.7921 19.0825 12.2098C18.7341 11.6276 18.6139 10.9492 18.743 10.2925C18.872 9.63584 19.2421 9.04228 19.7889 8.61491C20.3357 8.18753 21.0247 7.95332 21.7364 7.95293C22.448 7.95254 23.1373 8.186 23.6846 8.61278C24.232 9.03956 24.6028 9.63272 24.7326 10.2893C24.8625 10.9458 24.7432 11.6243 24.3955 12.2069C24.0478 12.7896 23.4937 13.2396 22.8293 13.4788C23.9891 13.6451 25.0472 14.1954 25.8121 15.0301C26.5771 15.8648 26.9985 16.9288 27 18.0297V19.9896C27 20.0946 26.9556 20.1953 26.8764 20.2695C26.7973 20.3438 26.69 20.3855 26.5781 20.3855H21.0708C21.1567 20.8045 21.1999 21.2302 21.1999 21.6569V24.6042C21.1999 24.7092 21.1555 24.8099 21.0763 24.8841C20.9972 24.9584 20.8899 25.0001 20.778 25.0001H6.22197C6.11008 25.0001 6.00278 24.9584 5.92366 24.8841C5.84454 24.8099 5.80009 24.7092 5.80009 24.6042V21.6569C5.80007 21.2302 5.8433 20.8045 5.92919 20.3855H0.421873C0.309986 20.3855 0.202679 20.3438 0.123562 20.2695C0.044445 20.1953 -1.90735e-06 20.0946 -1.90735e-06 19.9896V18.0297C0.0015049 16.9289 0.422825 15.8648 1.18775 15.0301C1.95267 14.1954 3.0107 13.6452 4.17045 13.4788ZM5.49598 14.2191H5.02727L4.57945 17.248L5.26157 18.0114L5.94374 17.248L5.49598 14.2191ZM7.46339 10.8117C7.4634 10.4031 7.33427 10.0036 7.09234 9.66388C6.85041 9.32412 6.50654 9.0593 6.10421 8.90292C5.70188 8.74654 5.25916 8.70562 4.83205 8.78533C4.40494 8.86504 4.0126 9.06181 3.70467 9.35075C3.39673 9.63969 3.18703 10.0078 3.10206 10.4086C3.0171 10.8094 3.0607 11.2248 3.22735 11.6023C3.394 11.9798 3.67621 12.3025 4.0383 12.5295C4.40039 12.7565 4.82609 12.8777 5.26157 12.8777C5.84536 12.8771 6.40504 12.6592 6.81783 12.2719C7.23061 11.8845 7.46278 11.3595 7.46339 10.8117ZM12.2507 20.5412L13.5 21.9393L14.7493 20.5412L14.0374 15.7266H12.9624L12.2507 20.5412ZM17.0236 11.099C17.0236 10.4451 16.8169 9.80582 16.4297 9.26211C16.0426 8.7184 15.4923 8.29462 14.8484 8.04438C14.2046 7.79414 13.4961 7.72866 12.8126 7.85624C12.1291 7.98381 11.5012 8.2987 11.0085 8.76109C10.5157 9.22348 10.1801 9.8126 10.0441 10.454C9.90819 11.0953 9.97797 11.7601 10.2447 12.3642C10.5114 12.9684 10.963 13.4847 11.5424 13.848C12.1219 14.2113 12.8031 14.4052 13.5 14.4052C14.4342 14.4042 15.3298 14.0556 15.9903 13.4357C16.6509 12.8159 17.0225 11.9755 17.0236 11.099ZM21.9728 14.2191H21.504L21.0563 17.248L21.7384 18.0112L22.4205 17.2478L21.9728 14.2191ZM23.9402 10.8115C23.9402 10.4029 23.8111 10.0034 23.5691 9.66368C23.3272 9.32391 22.9833 9.0591 22.581 8.90272C22.1787 8.74634 21.7359 8.70542 21.3088 8.78514C20.8817 8.86485 20.4894 9.06163 20.1815 9.35057C19.8735 9.63951 19.6638 10.0077 19.5789 10.4084C19.4939 10.8092 19.5375 11.2246 19.7042 11.6021C19.8708 11.9797 20.153 12.3023 20.5151 12.5293C20.8772 12.7564 21.3029 12.8775 21.7384 12.8775C22.3222 12.8769 22.8818 12.659 23.2946 12.2717C23.7073 11.8844 23.9395 11.3593 23.9402 10.8115ZM24.1459 19.5938C24.1448 19.5824 24.144 19.5711 24.144 19.5594V17.5756C24.144 17.4706 24.1885 17.3699 24.2676 17.2957C24.3467 17.2215 24.454 17.1798 24.5659 17.1798C24.6778 17.1798 24.7851 17.2215 24.8642 17.2957C24.9433 17.3699 24.9878 17.4706 24.9878 17.5756V19.5594C24.9878 19.5711 24.987 19.5824 24.9859 19.5938H26.1562V18.0297C26.1549 17.1398 25.8221 16.2783 25.2154 15.5942C24.6088 14.9101 23.7664 14.4465 22.834 14.2835L23.2822 17.313C23.2903 17.3678 23.2861 17.4236 23.2698 17.4768C23.2535 17.53 23.2256 17.5794 23.1877 17.6218L22.0619 18.8816C22.0223 18.9259 21.9728 18.9616 21.917 18.986C21.8611 19.0105 21.8002 19.0231 21.7386 19.0231C21.677 19.0231 21.6161 19.0105 21.5602 18.986C21.5044 18.9616 21.4549 18.9259 21.4153 18.8816L20.2896 17.6218C20.2517 17.5794 20.2237 17.53 20.2074 17.4768C20.1911 17.4236 20.1868 17.3678 20.1949 17.313L20.6428 14.2841C20.0883 14.3828 19.5616 14.588 19.0957 14.8869C18.6299 15.1858 18.2349 15.5719 17.9357 16.0209C19.3155 16.8636 20.3457 18.1247 20.8544 19.594L24.1459 19.5938ZM6.6439 24.2083H8.92202C8.86 24.1376 8.82616 24.0488 8.82631 23.9572V20.9739C8.82631 20.8689 8.87076 20.7682 8.94987 20.694C9.02899 20.6198 9.1363 20.5781 9.24818 20.5781C9.36007 20.5781 9.46738 20.6198 9.5465 20.694C9.62561 20.7682 9.67006 20.8689 9.67006 20.9739V23.9573C9.67019 24.0489 9.63633 24.1377 9.57429 24.2084H17.4258C17.3638 24.1377 17.3299 24.0489 17.33 23.9573V20.974C17.33 20.869 17.3745 20.7683 17.4536 20.6941C17.5327 20.6198 17.64 20.5781 17.7519 20.5781C17.8638 20.5781 17.9711 20.6198 18.0502 20.6941C18.1293 20.7683 18.1738 20.869 18.1738 20.974V23.9573C18.1739 24.0489 18.1401 24.1377 18.078 24.2084H20.3562V21.6569C20.3542 20.2246 19.8007 18.8412 18.7976 17.7617C17.7945 16.6821 16.4094 15.979 14.8975 15.782L15.6107 20.6066C15.6189 20.6614 15.6146 20.7172 15.5983 20.7704C15.582 20.8235 15.554 20.8729 15.5161 20.9153L13.8234 22.8099C13.7838 22.8542 13.7343 22.8898 13.6785 22.9143C13.6226 22.9387 13.5617 22.9514 13.5001 22.9514C13.4384 22.9514 13.3776 22.9387 13.3217 22.9143C13.2659 22.8898 13.2164 22.8542 13.1768 22.8099L11.484 20.9153C11.4461 20.8729 11.4181 20.8235 11.4018 20.7704C11.3855 20.7172 11.3813 20.6614 11.3894 20.6066L12.1027 15.782C10.5908 15.979 9.20565 16.682 8.2025 17.7616C7.19935 18.8412 6.6458 20.2246 6.64384 21.6569L6.6439 24.2083ZM0.843748 19.5938H2.01414C2.01313 19.5824 2.01229 19.5711 2.01229 19.5594V17.5756C2.01229 17.4706 2.05674 17.3699 2.13585 17.2957C2.21497 17.2215 2.32228 17.1798 2.43416 17.1798C2.54605 17.1798 2.65336 17.2215 2.73248 17.2957C2.81159 17.3699 2.85604 17.4706 2.85604 17.5756V19.5594C2.85604 19.5711 2.85525 19.5824 2.85419 19.5938H6.14577C6.6545 18.1246 7.68467 16.8634 9.06446 16.0207C8.76528 15.5717 8.37034 15.1856 7.90447 14.8867C7.4386 14.5878 6.91187 14.3826 6.35739 14.2839L6.80527 17.3128C6.81337 17.3676 6.80914 17.4234 6.79285 17.4766C6.77655 17.5298 6.74855 17.5792 6.71066 17.6216L5.58489 18.8814C5.54529 18.9257 5.49582 18.9614 5.43997 18.9858C5.38412 19.0103 5.32323 19.0229 5.2616 19.0229C5.19996 19.0229 5.13908 19.0103 5.08323 18.9858C5.02737 18.9614 4.97791 18.9257 4.93831 18.8814L3.81254 17.6216C3.77465 17.5792 3.74667 17.5298 3.73038 17.4766C3.71409 17.4234 3.70987 17.3676 3.71798 17.3128L4.16602 14.2835C3.23359 14.4465 2.3912 14.9101 1.78454 15.5942C1.17788 16.2783 0.845095 17.1399 0.843748 18.0299V19.5938Z" fill="white"/>
</svg>
