<svg width="28" height="31" viewBox="0 0 28 31" fill="none" xmlns="http://www.w3.org/2000/svg">
<path d="M19.652 13.384C19.652 12.7368 19.1273 12.2122 18.4801 12.2122H6.40979C5.76256 12.2122 5.23792 12.7368 5.23792 13.384C5.23792 14.0313 5.76256 14.5559 6.40979 14.5559H18.4801C19.1273 14.5559 19.652 14.0313 19.652 13.384Z" fill="#B5B1A8"/>
<path d="M6.40979 16.8997C5.76256 16.8997 5.23792 17.4243 5.23792 18.0715C5.23792 18.7188 5.76256 19.2434 6.40979 19.2434H13.7405C14.3877 19.2434 14.9124 18.7188 14.9124 18.0715C14.9124 17.4243 14.3877 16.8997 13.7405 16.8997H6.40979Z" fill="#B5B1A8"/>
<path d="M9.16366 28.1497H5.24438C3.95204 28.1497 2.90063 27.0983 2.90063 25.8059V5.18091C2.90063 3.88856 3.95204 2.83716 5.24438 2.83716H19.6519C20.9443 2.83716 21.9957 3.88856 21.9957 5.18091V12.3879C21.9957 13.0352 22.5203 13.5598 23.1676 13.5598C23.8148 13.5598 24.3394 13.0352 24.3394 12.3879V5.18091C24.3394 2.59622 22.2366 0.493408 19.6519 0.493408H5.24438C2.6597 0.493408 0.556885 2.59622 0.556885 5.18091V25.8059C0.556885 28.3906 2.6597 30.4934 5.24438 30.4934H9.16366C9.81089 30.4934 10.3355 29.9688 10.3355 29.3215C10.3355 28.6743 9.81089 28.1497 9.16366 28.1497Z" fill="#B5B1A8"/>
<path d="M26.4152 17.4606C25.0444 16.0898 22.8141 16.0898 21.4442 17.4596L15.0105 23.8792C14.8738 24.0155 14.773 24.1834 14.7169 24.3681L13.3158 28.9809C13.1915 29.3899 13.2998 29.834 13.5982 30.1399C13.8218 30.3691 14.1256 30.4935 14.4371 30.4935C14.5414 30.4935 14.6466 30.4795 14.7499 30.4509L19.4799 29.1406C19.6745 29.0867 19.852 28.9834 19.9949 28.8407L26.4152 22.4325C27.786 21.0617 27.786 18.8314 26.4152 17.4606ZM18.5573 26.9642L16.1777 27.6234L16.874 25.3307L21.2152 20.9992L22.8728 22.6568L18.5573 26.9642ZM24.7588 20.7745L24.5317 21.0011L22.8744 19.3438L23.1007 19.118C23.5576 18.661 24.301 18.661 24.7579 19.118C25.2149 19.5749 25.2149 20.3183 24.7588 20.7745Z" fill="#B5B1A8"/>
<path d="M18.4801 7.52466H6.40979C5.76256 7.52466 5.23792 8.04931 5.23792 8.69653C5.23792 9.34376 5.76256 9.86841 6.40979 9.86841H18.4801C19.1273 9.86841 19.652 9.34376 19.652 8.69653C19.652 8.04931 19.1273 7.52466 18.4801 7.52466Z" fill="#B5B1A8"/>
</svg>
