<svg width="32" height="33" viewBox="0 0 32 33" fill="none" xmlns="http://www.w3.org/2000/svg">
<path d="M20.6059 17.2089H17.3693L15.7119 18.6212C15.1411 19.1097 14.4391 19.3506 13.7395 19.3506C12.9297 19.3506 12.1225 19.0276 11.5274 18.3927C11.083 17.9185 11.1266 17.1678 11.6239 16.749L15.3926 13.4147C15.9951 12.9068 16.7507 12.6367 17.5212 12.6367C17.7957 12.6367 18.0714 12.671 18.3434 12.7407L19.6909 13.0873C21.1729 13.4683 22.6971 13.6612 24.2276 13.6612H25.4606H31V24.4288H27.0166C27.0166 24.4288 24.6078 27.3368 18.6985 26.3886" stroke="#B5B1A8" stroke-width="2" stroke-miterlimit="10" stroke-linecap="round" stroke-linejoin="round"/>
<path d="M14.6307 13.8673H1V23.6198H2.25602C3.31473 23.6198 4.31992 24.086 5.00332 24.8945L9.10125 29.7365L10.1112 30.9369" stroke="#B5B1A8" stroke-width="2" stroke-miterlimit="10" stroke-linecap="round" stroke-linejoin="round"/>
<path d="M12.0795 27.7032L12.7932 28.546C13.4362 29.3022 13.3441 30.4362 12.5878 31.0786C11.831 31.7215 10.697 31.6294 10.0546 30.8732L9.09631 29.7406" stroke="#B5B1A8" stroke-width="2" stroke-miterlimit="10" stroke-linecap="round" stroke-linejoin="round"/>
<path d="M14.8181 25.3761L15.6422 26.3368C16.2845 27.093 16.1924 28.227 15.4362 28.87C14.6799 29.5123 13.5459 29.4202 12.903 28.664L12.0795 27.7033" stroke="#B5B1A8" stroke-width="2" stroke-miterlimit="10" stroke-linecap="round" stroke-linejoin="round"/>
<path d="M17.5572 23.049L18.5674 24.2356C19.2103 24.9918 19.1182 26.1258 18.362 26.7688C17.6051 27.4111 16.4711 27.319 15.8288 26.5627L14.818 25.3761" stroke="#B5B1A8" stroke-width="2" stroke-miterlimit="10" stroke-linecap="round" stroke-linejoin="round"/>
<path d="M17.5573 23.049L18.8114 24.5253C19.4543 25.2816 20.5884 25.3737 21.3446 24.7313C22.1008 24.0884 22.1929 22.9544 21.5506 22.1982L20.2958 20.7218" stroke="#B5B1A8" stroke-width="2" stroke-miterlimit="10" stroke-linecap="round" stroke-linejoin="round"/>
<path d="M21.5905 22.2455L17.3724 17.209" stroke="#B5B1A8" stroke-width="2" stroke-miterlimit="10" stroke-linecap="round" stroke-linejoin="round"/>
<path d="M11.5709 1.50659H26.2859V13.3715" stroke="#B5B1A8" stroke-width="2" stroke-miterlimit="10" stroke-linecap="round" stroke-linejoin="round"/>
<path d="M5.71411 13.5775V7.3634" stroke="#B5B1A8" stroke-width="2" stroke-miterlimit="10" stroke-linecap="round" stroke-linejoin="round"/>
<path d="M5.71411 7.36344H11.571V1.50659L5.71411 7.36344Z" stroke="#B5B1A8" stroke-width="2" stroke-miterlimit="10" stroke-linecap="round" stroke-linejoin="round"/>
<path d="M15.3054 5.24109H22.5515" stroke="#B5B1A8" stroke-width="2" stroke-miterlimit="10" stroke-linecap="round" stroke-linejoin="round"/>
<path d="M15.3054 8.97546H22.5515" stroke="#B5B1A8" stroke-width="2" stroke-miterlimit="10" stroke-linecap="round" stroke-linejoin="round"/>
</svg>
