<svg width="19" height="20" viewBox="0 0 19 20" fill="none" xmlns="http://www.w3.org/2000/svg">
<path d="M13.0795 8.66406C13.0795 8.25415 12.7472 7.92188 12.3373 7.92188H4.69275C4.28284 7.92188 3.95056 8.25415 3.95056 8.66406C3.95056 9.07397 4.28284 9.40625 4.69275 9.40625H12.3373C12.7472 9.40625 13.0795 9.07397 13.0795 8.66406Z" fill="#286140"/>
<path d="M4.69275 10.8906C4.28284 10.8906 3.95056 11.2229 3.95056 11.6328C3.95056 12.0427 4.28284 12.375 4.69275 12.375H9.33554C9.74545 12.375 10.0777 12.0427 10.0777 11.6328C10.0777 11.2229 9.74545 10.8906 9.33554 10.8906H4.69275Z" fill="#286140"/>
<path d="M6.43692 18.0156H3.95471C3.13623 18.0156 2.47034 17.3497 2.47034 16.5312V3.46875C2.47034 2.65027 3.13623 1.98438 3.95471 1.98438H13.0795C13.898 1.98438 14.5639 2.65027 14.5639 3.46875V8.0332C14.5639 8.44311 14.8962 8.77539 15.3061 8.77539C15.716 8.77539 16.0482 8.44311 16.0482 8.0332V3.46875C16.0482 1.83178 14.7165 0.5 13.0795 0.5H3.95471C2.31774 0.5 0.985962 1.83178 0.985962 3.46875V16.5312C0.985962 18.1682 2.31774 19.5 3.95471 19.5H6.43692C6.84683 19.5 7.17911 19.1677 7.17911 18.7578C7.17911 18.3479 6.84683 18.0156 6.43692 18.0156Z" fill="#286140"/>
<path d="M17.3629 11.2458C16.4948 10.3777 15.0822 10.3776 14.2146 11.2452L10.1399 15.3109C10.0534 15.3973 9.98956 15.5036 9.954 15.6206L9.06661 18.542C8.98794 18.801 9.05648 19.0823 9.24551 19.276C9.38712 19.4212 9.5795 19.5 9.77681 19.5C9.84282 19.5 9.90947 19.4911 9.9749 19.473L12.9706 18.6432C13.0938 18.609 13.2062 18.5436 13.2967 18.4532L17.3629 14.3947C18.2311 13.5265 18.2311 12.114 17.3629 11.2458ZM12.3862 17.2648L10.8791 17.6823L11.3202 16.2302L14.0696 13.4869L15.1194 14.5367L12.3862 17.2648ZM16.3138 13.3446L16.17 13.4881L15.1204 12.4385L15.2637 12.2955C15.5531 12.0061 16.0239 12.0061 16.3133 12.2955C16.6027 12.5849 16.6027 13.0557 16.3138 13.3446Z" fill="#286140"/>
<path d="M12.3373 4.95312H4.69275C4.28284 4.95312 3.95056 5.2854 3.95056 5.69531C3.95056 6.10522 4.28284 6.4375 4.69275 6.4375H12.3373C12.7472 6.4375 13.0795 6.10522 13.0795 5.69531C13.0795 5.2854 12.7472 4.95312 12.3373 4.95312Z" fill="#286140"/>
</svg>
