<svg width="38" height="45" viewBox="0 0 38 45" fill="none" xmlns="http://www.w3.org/2000/svg">
<path d="M19.9397 24.2406C19.7106 24.0008 19.5053 23.735 19.3253 23.4447L19.0026 23.7746C19.0696 23.8117 19.1379 23.8473 19.2074 23.8815L19.9397 24.2406ZM19.9397 24.2406L19.2078 23.8817L19.9397 24.2406ZM16.5036 18.8683L16.3194 18.869C16.3194 18.8689 16.3194 18.8688 16.3194 18.8687C16.3194 18.8685 16.3194 18.8684 16.3194 18.8683C16.3194 18.8682 16.3194 18.8681 16.3194 18.868C16.3092 16.2401 17.397 13.3677 19.1195 10.8481C20.8243 8.35465 23.1816 6.1607 25.8085 4.85694C25.8086 4.85692 25.8086 4.8569 25.8086 4.85688C25.8402 4.84123 25.8718 4.82571 25.9034 4.81031C26.0187 4.75403 26.1339 4.69982 26.2488 4.6477C26.3271 4.61218 26.4053 4.57763 26.4833 4.54405L26.4836 4.46614L26.4846 4.13116L26.4892 2.66349L16.5036 18.8683ZM16.5036 18.8683L16.8194 18.867M16.5036 18.8683C16.5105 20.8779 17.1846 22.4113 18.3762 23.3575M16.8194 18.867L16.5036 18.868C16.5036 18.8679 16.5036 18.8678 16.5036 18.8676L16.5036 18.8673C16.4933 16.39 17.5275 13.5908 19.2477 11.0746C20.9654 8.56205 23.3356 6.37844 25.9335 5.1137L25.9338 5.11357C25.9672 5.09726 25.9987 5.08265 26.0295 5.06884L19.0613 23.5518C18.7051 23.3359 18.3885 23.0728 18.1136 22.7665C18.1942 22.9753 18.2822 23.1725 18.3762 23.3575M16.8194 18.867C16.7995 13.8715 20.9726 7.76719 26.1226 5.25969L16.8194 18.867ZM18.3762 23.3575C18.4596 23.5216 18.5478 23.676 18.6395 23.8202L18.8499 23.6863C18.684 23.5861 18.526 23.4764 18.3762 23.3575ZM33.1459 29.3017H33.1507L33.3301 29.3023V29.3017L31.1745 25.067L31.2689 25.2595L31.3576 25.216L31.3628 25.2134L31.3628 25.2135C31.5372 25.1304 31.7145 25.1449 31.8197 25.1632C31.94 25.1841 32.06 25.227 32.1706 25.2818C32.2021 25.2971 32.2332 25.3134 32.2638 25.3307C32.2643 25.3309 32.2648 25.3312 32.2652 25.3315C32.5553 25.4955 32.8033 25.7449 32.9832 26.0075C33.1799 26.2944 33.3366 26.6582 33.3373 27.0231L33.3373 27.0247L33.6488 27.0256L33.3373 27.0256L33.3301 29.3007H33.3257H33.1459M33.1459 29.3017V29.3007M33.1459 29.3017C33.1459 30.4301 32.6823 31.1981 31.91 31.5744L31.909 31.5748C31.8775 31.5903 31.846 31.6057 31.8146 31.6211L33.1531 27.0256L33.1459 29.3001V29.3007M33.1459 29.3017L32.8301 29.3007H33.1459M18.4187 19.8969C18.4187 19.8969 18.4187 19.897 18.4187 19.8971L18.1021 19.8982L18.4187 19.8969ZM33.1711 4.78659C32.8526 4.74365 32.5305 4.72627 32.2075 4.73102L32.271 4.36971C32.4158 4.42456 32.557 4.4857 32.6943 4.55307L32.6946 4.55323L33.1711 4.78659ZM0.817531 11.723C0.848772 11.7957 0.86412 11.8697 0.869888 11.9389C0.813184 11.9598 0.758294 11.9886 0.707185 12.0261L0.606528 11.8262C0.610943 11.8241 0.68373 11.7885 0.817531 11.723ZM0.606524 11.8262L0.381639 11.3797C-0.128076 11.6364 -0.406076 12.1378 -0.408347 12.7046L-0.408347 12.7047L-0.499969 36.6624L-0.499969 36.6625C-0.50481 38.0407 0.0649378 39.5248 0.946392 40.8118C1.83041 42.1026 3.05964 43.2424 4.43791 43.9135L4.43806 43.9135C5.60171 44.4797 7.07096 44.8088 8.37922 44.211C8.38648 44.2087 8.39405 44.206 8.40186 44.2031C8.40577 44.2049 8.40969 44.2068 8.41367 44.2086C8.44361 44.1987 8.47729 44.185 8.48174 44.1829L8.48748 44.1802L8.49768 44.1752L8.49785 44.1751L8.49833 44.1749L8.51503 44.1667L0.606524 11.8262ZM8.34402 43.9776L8.22686 43.7347L8.34402 43.9776ZM32.0422 25.5408L31.9505 25.7308L32.0422 25.5408Z" fill="#6E6259" stroke="black"/>
<path d="M6.01365 18.5718C6.08376 18.5718 6.15387 18.5567 6.21841 18.5251L13.3537 15.0294C13.5489 14.934 13.6151 14.7237 13.5019 14.5594C13.388 14.3938 13.137 14.3394 12.9442 14.4348L5.8089 17.9305C5.6137 18.0259 5.54758 18.2362 5.66071 18.4005C5.7364 18.5106 5.87343 18.5718 6.01365 18.5718Z" fill="#6E6259"/>
<path d="M5.9951 23.3993C6.06521 23.3993 6.13532 23.3842 6.19985 23.3526L13.3352 19.8566C13.5304 19.7612 13.5965 19.5509 13.4834 19.3867C13.3695 19.2211 13.1185 19.1673 12.9257 19.262L5.79034 22.7581C5.59515 22.8535 5.52902 23.0638 5.64216 23.228C5.71784 23.3382 5.85488 23.3993 5.9951 23.3993Z" fill="#6E6259"/>
<path d="M5.9785 28.2264C6.04861 28.2264 6.11872 28.2113 6.18325 28.1797L13.3178 24.684C13.513 24.5886 13.5791 24.3784 13.466 24.2141C13.3521 24.0485 13.1011 23.9941 12.9083 24.0895L5.77374 27.5852C5.57855 27.6806 5.51242 27.8909 5.62555 28.0551C5.70124 28.1653 5.83828 28.2264 5.9785 28.2264Z" fill="#6E6259"/>
<path d="M14.8847 27.94L5.75519 32.4125C5.55999 32.5079 5.49387 32.7181 5.607 32.8824C5.68269 32.9926 5.81972 33.0537 5.95994 33.0537C6.03005 33.0537 6.10016 33.0386 6.1647 33.007L15.2942 28.5345C15.4894 28.4391 15.5555 28.2288 15.4424 28.0646C15.3285 27.899 15.0775 27.8446 14.8847 27.94Z" fill="#6E6259"/>
<path d="M27.8252 8.62372C24.1189 10.4305 21.1129 14.8274 21.1241 18.4256C21.1373 22.1896 24.4136 23.7539 28.2761 21.8713C31.9848 20.0631 34.9916 15.6655 34.9797 12.068C34.9664 8.30629 31.6938 6.73976 27.8252 8.62372ZM27.8682 21.2757C24.5482 22.8933 21.9515 21.6515 21.9399 18.4236C21.9287 15.0451 24.7523 10.9162 28.2331 9.2196C31.5561 7.59986 34.1522 8.84232 34.1638 12.07C34.1758 15.4479 31.3514 19.5777 27.8682 21.2757Z" fill="#6E6259"/>
<path d="M28.316 14.7824L28.3089 12.6802C28.7823 12.4674 29.2273 12.329 29.6412 12.2688C29.921 12.2504 30.1504 11.9295 30.1499 11.6853C30.1493 11.5089 30.0656 11.431 29.8937 11.4566C29.4302 11.5106 28.902 11.6719 28.3065 11.9367L28.3045 11.3267C28.3037 11.1714 28.1827 11.1132 28.0227 11.1912C27.8543 11.2733 27.7474 11.451 27.7478 11.5977L27.75 12.2178C26.3884 12.993 25.7221 14.1309 25.7249 15.0091C25.7279 16.0603 26.6005 16.0197 27.7617 15.7517L27.7687 17.7832C27.2275 18.024 26.7123 18.1563 26.2201 18.1839C26.101 18.1868 25.8972 18.2828 25.7781 18.4748C25.5529 18.8204 25.7168 19.0403 25.9285 19.0252C26.5015 18.981 27.1156 18.8207 27.7711 18.5419L27.7733 19.1696C27.7737 19.3354 27.8889 19.3783 28.0499 19.2999C28.2251 19.2146 28.3302 19.0494 28.3298 18.8985L28.3276 18.2709C29.4371 17.6704 30.4319 16.6039 30.4285 15.5311C30.4244 14.4167 29.5814 14.4585 28.316 14.7824ZM26.5543 14.5421C26.552 13.9174 27.1589 13.3437 27.7524 12.9765L27.7589 14.9199C27.0952 15.0779 26.5561 15.1211 26.5543 14.5421ZM28.3252 17.5122L28.3188 15.6117C28.9371 15.4751 29.6046 15.3369 29.6065 15.8783C29.6085 16.4909 29.1833 17.0363 28.3252 17.5122Z" fill="#6E6259"/>
</svg>
