<?xml version="1.0" encoding="UTF-8"?>
<svg xmlns="http://www.w3.org/2000/svg" id="Layer_1" data-name="Layer 1" viewBox="0 0 512 512" width="512" height="512"><path d="M432.916,205.039a57.752,57.752,0,1,0-41.322.024,93.605,93.605,0,0,0-65.39,43.414,134.744,134.744,0,0,0-43.847-13.041,82.817,82.817,0,1,0-52.715,0A134.738,134.738,0,0,0,185.8,248.477a93.619,93.619,0,0,0-65.39-43.414,57.754,57.754,0,1,0-41.321-.024A93.159,93.159,0,0,0,0,297.009v39.608a8,8,0,0,0,8,8H112.435a135.994,135.994,0,0,0-2.448,25.694v59.563a8,8,0,0,0,8,8H394.013a8,8,0,0,0,8-8V370.311a135.994,135.994,0,0,0-2.448-25.694H504a8,8,0,0,0,8-8V297.009A93.159,93.159,0,0,0,432.916,205.039ZM407.78,220h8.888l8.492,61.21-12.935,15.428-12.936-15.428Zm-37.308-68.861a41.753,41.753,0,1,1,41.753,41.752A41.8,41.8,0,0,1,370.472,151.135ZM279.69,347.764,256,376.019l-23.691-28.255,13.5-97.3h20.385Zm-90.507-190.82A66.817,66.817,0,1,1,256,223.761,66.894,66.894,0,0,1,189.183,156.944ZM95.331,220h8.889l8.491,61.21L99.775,296.634,86.84,281.206ZM58.023,151.135a41.753,41.753,0,1,1,41.752,41.752A41.8,41.8,0,0,1,58.023,151.135Zm-3.9,177.482c.02-.229.035-.459.035-.694V287.832a8,8,0,0,0-16,0v40.091c0,.235.015.465.035.694H16V297.009A77.126,77.126,0,0,1,79,221.3L70.5,282.525a8,8,0,0,0,1.793,6.24l21.348,25.46a8,8,0,0,0,12.261,0l21.348-25.46a8,8,0,0,0,1.794-6.24l-8.493-61.212a77.6,77.6,0,0,1,51.335,35.1,136.469,136.469,0,0,0-55.348,72.208Zm331.889,93.257h-43.2a7.969,7.969,0,0,0,1.815-5.075v-60.29a8,8,0,0,0-16,0V416.8a7.97,7.97,0,0,0,1.816,5.075H181.555a7.964,7.964,0,0,0,1.816-5.075v-60.29a8,8,0,0,0-16,0V416.8a7.97,7.97,0,0,0,1.816,5.075h-43.2V370.311A120.02,120.02,0,0,1,229.5,251.585l-13.526,97.5a8,8,0,0,0,1.794,6.24l32.1,38.287a8,8,0,0,0,12.261,0l32.1-38.287a8,8,0,0,0,1.794-6.24l-13.527-97.5A120.02,120.02,0,0,1,386.013,370.311ZM496,328.617H473.806c.019-.229.035-.459.035-.694V287.832a8,8,0,0,0-16,0v40.091c0,.235.015.465.035.694H395.458a136.475,136.475,0,0,0-55.347-72.208,77.592,77.592,0,0,1,51.334-35.1l-8.493,61.212a8,8,0,0,0,1.794,6.24l21.348,25.46a8,8,0,0,0,12.261,0l21.348-25.46a8,8,0,0,0,1.793-6.24L433,221.3a77.126,77.126,0,0,1,63,75.712Z"/></svg>
