<svg width="50" height="48" viewBox="0 0 50 48" fill="none" xmlns="http://www.w3.org/2000/svg">
<g clip-path="url(#clip0_413_10834)">
<path d="M7.72316 19.2224C6.49284 18.7691 5.46672 17.9166 4.82291 16.8127C4.17911 15.7089 3.95828 14.4235 4.19875 13.1796C4.43923 11.9358 5.12583 10.8121 6.13936 10.0035C7.15289 9.19497 8.42936 8.75268 9.74716 8.75341C11.065 8.75415 12.3409 9.19786 13.3534 10.0075C14.366 10.8172 15.0512 11.9417 15.2902 13.1858C15.5292 14.4299 15.3068 15.7151 14.6616 16.8182C14.0165 17.9213 12.9894 18.7728 11.7585 19.2247C13.0663 19.4189 14.3147 19.8834 15.4172 20.5861C16.5197 21.2888 17.4502 22.213 18.1442 23.2947C19.4885 22.6559 20.9367 22.2424 22.4261 22.0721C20.607 21.4858 19.0643 20.2977 18.0736 18.72C17.083 17.1424 16.709 15.2779 17.0184 13.4599C17.3278 11.6418 18.3005 9.98863 19.7626 8.79566C21.2248 7.60269 23.0812 6.94769 25.0001 6.94769C26.919 6.94769 28.7754 7.60269 30.2376 8.79566C31.6998 9.98863 32.6725 11.6418 32.9819 13.4599C33.2913 15.2779 32.9172 17.1424 31.9266 18.72C30.9359 20.2977 29.3932 21.4858 27.5741 22.0721C29.0634 22.2424 30.5114 22.6559 31.8555 23.2947C32.5496 22.2131 33.4801 21.2889 34.5826 20.5862C35.6851 19.8835 36.9334 19.419 38.2412 19.2247C37.0103 18.7728 35.9831 17.9213 35.3379 16.8182C34.6927 15.715 34.4703 14.4298 34.7093 13.1856C34.9482 11.9415 35.6335 10.8169 36.6461 10.0072C37.6587 9.19748 38.9347 8.75374 40.2525 8.753C41.5704 8.75227 42.8469 9.19459 43.8605 10.0032C44.874 10.8118 45.5607 11.9355 45.8011 13.1794C46.0416 14.4233 45.8207 15.7088 45.1769 16.8127C44.533 17.9166 43.5069 18.7692 42.2765 19.2224C44.4242 19.5374 46.3837 20.58 47.8003 22.1614C49.2169 23.7429 49.9972 25.7588 50 27.8446V31.5578C50 31.7567 49.9177 31.9475 49.7712 32.0882C49.6247 32.2288 49.426 32.3078 49.2188 32.3078H39.02C39.1791 33.1017 39.2592 33.9082 39.2591 34.7166V40.3007C39.2591 40.4996 39.1768 40.6903 39.0303 40.831C38.8838 40.9716 38.6851 41.0506 38.4779 41.0506H11.5223C11.3151 41.0506 11.1164 40.9716 10.9698 40.831C10.8233 40.6903 10.741 40.4996 10.741 40.3007V34.7166C10.741 33.9082 10.821 33.1017 10.9801 32.3078H0.781372C0.574173 32.3078 0.375458 32.2288 0.228947 32.0882C0.0824318 31.9475 0.000125885 31.7567 0.000125885 31.5578V27.8446C0.00291443 25.7589 0.783134 23.743 2.19966 22.1615C3.61618 20.5801 5.57548 19.5375 7.72316 19.2224ZM10.1778 20.625H9.30987L8.48057 26.3634L9.74375 27.8098L11.007 26.3634L10.1778 20.625ZM13.8212 14.1693C13.8212 13.3951 13.5821 12.6383 13.1341 11.9946C12.686 11.3509 12.0492 10.8491 11.3042 10.5529C10.5591 10.2566 9.7393 10.1791 8.94835 10.3301C8.15739 10.4811 7.43086 10.8539 6.86061 11.4013C6.29036 11.9488 5.90201 12.6462 5.74467 13.4055C5.58734 14.1648 5.66808 14.9519 5.97669 15.6671C6.2853 16.3824 6.80791 16.9937 7.47845 17.4239C8.14898 17.854 8.93731 18.0835 9.74375 18.0835C10.8248 18.0824 11.8613 17.6696 12.6257 16.9357C13.3901 16.2018 13.82 15.2071 13.8212 14.1693ZM22.6866 32.6029L25.0001 35.2518L27.3136 32.6029L25.9953 23.481H24.0046L22.6866 32.6029ZM31.5251 14.7135C31.5251 13.4746 31.1425 12.2635 30.4255 11.2334C29.7085 10.2033 28.6894 9.40038 27.4971 8.92627C26.3048 8.45216 24.9928 8.32811 23.7271 8.56981C22.4613 8.81151 21.2987 9.40811 20.3861 10.2842C19.4736 11.1602 18.8521 12.2764 18.6004 13.4915C18.3486 14.7066 18.4778 15.9661 18.9717 17.1107C19.4655 18.2553 20.3019 19.2336 21.3749 19.9219C22.448 20.6102 23.7095 20.9776 25.0001 20.9776C26.73 20.9757 28.3885 20.3151 29.6118 19.1408C30.8351 17.9665 31.5232 16.3743 31.5251 14.7135ZM40.6904 20.625H39.8223L38.9931 26.3634L40.2564 27.8094L41.5196 26.3631L40.6904 20.625ZM44.3337 14.1689C44.3337 13.3947 44.0946 12.6379 43.6466 11.9942C43.1985 11.3505 42.5617 10.8488 41.8167 10.5525C41.0716 10.2562 40.2518 10.1787 39.4608 10.3297C38.6699 10.4807 37.9433 10.8536 37.3731 11.401C36.8028 11.9484 36.4145 12.6459 36.2572 13.4052C36.0999 14.1645 36.1806 14.9516 36.4892 15.6668C36.7979 16.3821 37.3205 16.9934 37.991 17.4235C38.6616 17.8536 39.4499 18.0832 40.2564 18.0832C41.3374 18.082 42.3737 17.6692 43.1381 16.9354C43.9025 16.2016 44.3325 15.2067 44.3337 14.1689ZM44.7146 30.8078C44.7126 30.7864 44.7111 30.7648 44.7111 30.7428V26.9842C44.7111 26.7853 44.7935 26.5946 44.94 26.4539C45.0865 26.3133 45.2852 26.2342 45.4924 26.2342C45.6996 26.2342 45.8983 26.3133 46.0448 26.4539C46.1913 26.5946 46.2736 26.7853 46.2736 26.9842V30.7428C46.2736 30.7648 46.2722 30.7864 46.2702 30.8078H48.4375V27.8446C48.4349 26.1585 47.8187 24.5262 46.6952 23.2302C45.5718 21.9341 44.0118 21.0557 42.2852 20.7469L43.1153 26.4867C43.1303 26.5906 43.1225 26.6963 43.0923 26.797C43.0621 26.8978 43.0103 26.9914 42.9402 27.0717L40.8554 29.4586C40.7821 29.5425 40.6905 29.6101 40.587 29.6564C40.4836 29.7027 40.3708 29.7267 40.2567 29.7267C40.1426 29.7267 40.0298 29.7027 39.9264 29.6564C39.823 29.6101 39.7314 29.5425 39.658 29.4586L37.5733 27.0717C37.5031 26.9914 37.4513 26.8978 37.4211 26.797C37.3909 26.6963 37.3831 26.5906 37.3981 26.4867L38.2275 20.7481C37.2007 20.9351 36.2252 21.3239 35.3625 21.8902C34.4998 22.4565 33.7684 23.188 33.2143 24.0387C35.7695 25.6353 37.6773 28.0246 38.6194 30.8082L44.7146 30.8078ZM12.3036 39.5507H16.5223C16.4075 39.4166 16.3448 39.2484 16.3451 39.0749V33.4227C16.3451 33.2238 16.4274 33.033 16.5739 32.8924C16.7204 32.7517 16.9191 32.6727 17.1264 32.6727C17.3335 32.6727 17.5323 32.7517 17.6788 32.8924C17.8253 33.033 17.9076 33.2238 17.9076 33.4227V39.075C17.9078 39.2485 17.8451 39.4167 17.7303 39.5507H32.2701C32.1551 39.4168 32.0924 39.2485 32.0927 39.075V33.4228C32.0927 33.2239 32.175 33.0331 32.3215 32.8925C32.4681 32.7518 32.6668 32.6728 32.874 32.6728C33.0812 32.6728 33.2799 32.7518 33.4264 32.8925C33.5729 33.0331 33.6552 33.2239 33.6552 33.4228V39.075C33.6555 39.2485 33.5928 39.4167 33.4779 39.5507H37.6966V34.7166C37.693 32.003 36.668 29.3821 34.8104 27.3367C32.9528 25.2913 30.3878 23.9593 27.5879 23.5861L28.9088 32.7267C28.9239 32.8305 28.916 32.9363 28.8858 33.037C28.8557 33.1378 28.8038 33.2314 28.7336 33.3117L25.5989 36.9011C25.5256 36.9851 25.434 37.0526 25.3305 37.0989C25.2271 37.1452 25.1143 37.1692 25.0002 37.1692C24.8861 37.1692 24.7733 37.1452 24.6699 37.0989C24.5665 37.0526 24.4749 36.9851 24.4015 36.9011L21.2668 33.3117C21.1966 33.2314 21.1448 33.1378 21.1146 33.037C21.0844 32.9363 21.0766 32.8305 21.0916 32.7267L22.4126 23.5861C19.6127 23.9592 17.0476 25.2912 15.1899 27.3366C13.3322 29.382 12.3071 32.003 12.3035 34.7166L12.3036 39.5507ZM1.56262 30.8078H3.73C3.72814 30.7864 3.72658 30.7648 3.72658 30.7428V26.9842C3.72658 26.7853 3.80889 26.5946 3.9554 26.4539C4.10192 26.3133 4.30063 26.2342 4.50783 26.2342C4.71503 26.2342 4.91374 26.3133 5.06025 26.4539C5.20677 26.5946 5.28907 26.7853 5.28907 26.9842V30.7428C5.28907 30.7648 5.28761 30.7864 5.28566 30.8078H11.3811C12.3232 28.0243 14.231 25.6349 16.7861 24.0383C16.2321 23.1876 15.5007 22.4561 14.638 21.8898C13.7753 21.3235 12.7999 20.9347 11.773 20.7477L12.6024 26.4863C12.6175 26.5902 12.6096 26.6959 12.5794 26.7967C12.5493 26.8974 12.4974 26.991 12.4272 27.0713L10.3425 29.4582C10.2692 29.5422 10.1776 29.6097 10.0741 29.656C9.97069 29.7024 9.85794 29.7264 9.7438 29.7264C9.62967 29.7264 9.51692 29.7024 9.41349 29.656C9.31005 29.6097 9.21845 29.5422 9.14512 29.4582L7.06036 27.0713C6.9902 26.991 6.93838 26.8974 6.90822 26.7967C6.87806 26.6959 6.87024 26.5902 6.88526 26.4863L7.71495 20.7469C5.98825 21.0557 4.42826 21.9342 3.30482 23.2303C2.18137 24.5264 1.56511 26.1587 1.56262 27.8449V30.8078Z" fill="#6E6259"/>
</g>
<defs>
<clipPath id="clip0_413_10834">
<rect width="49.9999" height="47.9999" fill="white" transform="matrix(-1 0 0 1 50 6.10352e-05)"/>
</clipPath>
</defs>
</svg>
