<svg width="28" height="29" viewBox="0 0 28 29" fill="none" xmlns="http://www.w3.org/2000/svg">
<g clip-path="url(#clip0_75_3449)">
<path d="M2.22013 28.3936C2.34908 28.4718 2.49362 28.5165 2.64189 28.5244V28.5434L2.69184 28.5434C2.90233 28.5436 3.10659 28.47 3.27282 28.3346C3.43899 28.1993 3.55775 28.01 3.61117 27.7965C3.6646 27.583 3.64984 27.3568 3.5691 27.153C3.48836 26.9492 3.34599 26.7788 3.16359 26.6689C2.76297 26.4249 2.42969 26.0734 2.19754 25.6492C1.96535 25.2251 1.84259 24.7434 1.84179 24.2528V5.24174C1.84179 4.49803 2.12078 3.78532 2.61658 3.26026C3.11228 2.7353 3.78396 2.44096 4.48367 2.44096H22.4352C23.1349 2.44096 23.8066 2.7353 24.3023 3.26026C24.7981 3.78532 25.0771 4.49803 25.0771 5.24174V20.4466C25.0647 20.5847 25.0796 20.7241 25.1209 20.8559C25.1624 20.9884 25.2297 21.1104 25.3185 21.2141C25.4074 21.3178 25.5159 21.4009 25.6373 21.4578C25.7586 21.5147 25.89 21.5441 26.023 21.5441C26.1559 21.5441 26.2873 21.5147 26.4087 21.4578C26.53 21.4009 26.6386 21.3178 26.7274 21.2141C26.8163 21.1104 26.8836 20.9884 26.9251 20.8559C26.9663 20.7241 26.9812 20.5847 26.9689 20.4466V5.24174V5.24165C26.9666 3.9707 26.4889 2.75195 25.6395 1.85243C24.7901 0.952819 23.6379 0.445791 22.4353 0.443408H22.4352L4.48367 0.443408L4.48357 0.443408C3.28093 0.445791 2.12881 0.952819 1.27934 1.85243C0.429956 2.75195 -0.0477546 3.9707 -0.05 5.24165V5.24174L-0.0500003 24.2529L-0.0499997 24.253C-0.0472002 25.0928 0.163779 25.9172 0.562014 26.6438C0.960257 27.3704 1.53189 27.9739 2.22001 28.3936L2.22013 28.3936Z" fill="#B5B1A8" stroke="#B5B1A8" stroke-width="0.1"/>
<path d="M19.3854 27.8485H7.89661C7.23058 27.8485 6.59184 27.5839 6.12089 27.1129C5.64994 26.642 5.38536 26.0033 5.38536 25.3372C5.35912 23.3003 6.05597 21.32 7.35204 19.7484C8.64811 18.1768 10.4594 17.1156 12.4641 16.7535C13.7738 16.5432 15.1147 16.646 16.377 17.0536C17.6394 17.4612 18.7872 18.1619 19.7266 19.0985C19.8579 19.2297 19.9804 19.361 20.0941 19.501C20.1893 19.5914 20.2644 19.7008 20.3145 19.8221C20.3647 19.9434 20.3888 20.0739 20.3852 20.2051C20.3817 20.3364 20.3505 20.4654 20.2939 20.5838C20.2373 20.7022 20.1564 20.8074 20.0564 20.8925C19.9565 20.9776 19.8398 21.0408 19.7139 21.0779C19.588 21.115 19.4556 21.1252 19.3255 21.1078C19.1954 21.0905 19.0704 21.0459 18.9586 20.9771C18.8468 20.9084 18.7507 20.8168 18.6766 20.7085L18.4141 20.4197C17.682 19.6893 16.7873 19.1428 15.8033 18.8249C14.8192 18.5071 13.7739 18.4269 12.7529 18.591C11.188 18.8826 9.77717 19.7195 8.77109 20.9531C7.76502 22.1866 7.22885 23.7369 7.25786 25.3285C7.25786 25.5002 7.32608 25.6649 7.44751 25.7863C7.56894 25.9078 7.73363 25.976 7.90536 25.976H19.3854C19.5153 25.9634 19.6465 25.9781 19.7704 26.0192C19.8944 26.0603 20.0083 26.1268 20.105 26.2146C20.2017 26.3024 20.279 26.4094 20.3318 26.5288C20.3847 26.6481 20.412 26.7773 20.412 26.9079C20.412 27.0384 20.3847 27.1676 20.3318 27.2869C20.279 27.4063 20.2017 27.5133 20.105 27.6011C20.0083 27.6889 19.8944 27.7554 19.7704 27.7965C19.6465 27.8376 19.5153 27.8523 19.3854 27.8397V27.8485Z" fill="#B5B1A8"/>
<path d="M14 15.4296C12.8925 15.4296 11.8097 15.1012 10.8888 14.4858C9.96792 13.8705 9.25015 12.9959 8.8263 11.9726C8.40245 10.9494 8.29155 9.8234 8.50763 8.73711C8.72371 7.65082 9.25706 6.65299 10.0402 5.86982C10.8234 5.08664 11.8212 4.5533 12.9075 4.33722C13.9938 4.12114 15.1198 4.23204 16.1431 4.65589C17.1663 5.07974 18.0409 5.79751 18.6563 6.71842C19.2716 7.63934 19.6 8.72204 19.6 9.82962C19.5977 11.3141 19.007 12.7372 17.9573 13.7869C16.9076 14.8366 15.4845 15.4273 14 15.4296ZM14 6.09337C13.2611 6.09337 12.5387 6.31249 11.9243 6.72304C11.3099 7.13358 10.831 7.71711 10.5482 8.39982C10.2654 9.08253 10.1914 9.83376 10.3356 10.5585C10.4797 11.2833 10.8356 11.949 11.3581 12.4715C11.8806 12.9941 12.5464 13.3499 13.2711 13.4941C13.9959 13.6382 14.7471 13.5642 15.4298 13.2815C16.1125 12.9987 16.6961 12.5198 17.1066 11.9054C17.5171 11.2909 17.7363 10.5686 17.7363 9.82962C17.7363 8.8387 17.3426 7.88837 16.642 7.18769C15.9413 6.48701 14.9909 6.09337 14 6.09337Z" fill="#B5B1A8"/>
<path d="M25.2001 22.8934H24.2638V21.9659C24.2764 21.8359 24.2617 21.7047 24.2206 21.5808C24.1795 21.4569 24.1129 21.3429 24.0252 21.2462C23.9374 21.1495 23.8304 21.0723 23.711 21.0194C23.5916 20.9665 23.4625 20.9392 23.3319 20.9392C23.2014 20.9392 23.0722 20.9665 22.9528 21.0194C22.8334 21.0723 22.7264 21.1495 22.6387 21.2462C22.5509 21.3429 22.4844 21.4569 22.4433 21.5808C22.4022 21.7047 22.3874 21.8359 22.4001 21.9659V22.8934H21.4726C21.241 22.9158 21.0261 23.0237 20.8697 23.196C20.7133 23.3683 20.6267 23.5926 20.6267 23.8252C20.6267 24.0579 20.7133 24.2822 20.8697 24.4545C21.0261 24.6268 21.241 24.7346 21.4726 24.7571H22.4001V25.6934C22.3874 25.8233 22.4022 25.9545 22.4433 26.0784C22.4844 26.2024 22.5509 26.3163 22.6387 26.413C22.7264 26.5097 22.8334 26.587 22.9528 26.6398C23.0722 26.6927 23.2014 26.72 23.3319 26.72C23.4625 26.72 23.5916 26.6927 23.711 26.6398C23.8304 26.587 23.9374 26.5097 24.0252 26.413C24.1129 26.3163 24.1795 26.2024 24.2206 26.0784C24.2617 25.9545 24.2764 25.8233 24.2638 25.6934V24.7571H25.2001C25.4316 24.7346 25.6465 24.6268 25.8029 24.4545C25.9593 24.2822 26.0459 24.0579 26.0459 23.8252C26.0459 23.5926 25.9593 23.3683 25.8029 23.196C25.6465 23.0237 25.4316 22.9158 25.2001 22.8934Z" fill="#B5B1A8"/>
</g>
<defs>
<clipPath id="clip0_75_3449">
<rect width="28" height="28" fill="white" transform="translate(0 0.493408)"/>
</clipPath>
</defs>
</svg>
