<svg width="44" height="44" viewBox="0 0 44 44" fill="none" xmlns="http://www.w3.org/2000/svg">
<g clip-path="url(#clip0_413_10802)">
<path d="M43.9999 4.3692C44.0026 3.77165 43.7647 3.19813 43.3399 2.77788L41.2221 0.660028C40.8038 0.237168 40.2336 -0.000505958 39.6388 8.08734e-07H39.6315C39.0403 0.000362785 38.4741 0.238181 38.0599 0.660028L28.4534 10.2666H9.53354V2.20002C9.53354 0.984938 8.54853 8.08734e-07 7.33352 8.08734e-07H5.86686C2.62834 0.00362057 0.0038639 2.62809 0.000244141 5.86662V38.3171C0.183766 41.531 2.86065 44.0331 6.07956 43.9996H41.7999C43.0149 43.9996 43.9999 43.0147 43.9999 41.7997V12.4666C43.9999 11.2516 43.0149 10.2666 41.7999 10.2666H39.0133L43.3399 5.93996C43.7609 5.52557 43.9986 4.95994 43.9999 4.3692ZM26.2387 18.3332C26.0835 18.3544 25.9275 18.2998 25.8193 18.1865C25.7101 18.0781 25.6562 17.9259 25.6726 17.773L25.9505 15.2797C25.9622 15.2275 25.9769 15.1761 25.9945 15.1257L28.8831 18.0142C28.8355 18.0245 28.7922 18.048 28.7423 18.0538L26.2387 18.3332ZM30.0806 17.1357L26.8715 13.9259L34.8648 5.93264L38.0724 9.13946L30.0806 17.1357ZM35.8989 4.89493L36.9864 3.80813L40.1925 7.01495L39.1057 8.10247L35.8989 4.89493ZM1.4669 5.86662C1.46936 3.43762 3.43786 1.46904 5.86686 1.46666H7.33352C7.7385 1.46666 8.06688 1.79497 8.06688 2.19995V31.533C8.06688 31.938 7.73857 32.2663 7.33352 32.2663H5.86686C4.18215 32.2658 2.57889 32.991 1.4669 34.2565V5.86662ZM41.7999 11.7332C42.2049 11.7332 42.5333 12.0616 42.5333 12.4666V41.7997C42.5333 42.2047 42.205 42.5331 41.7999 42.5331H6.07956C3.65866 42.5737 1.63058 40.7101 1.4669 38.2944V38.133C1.46936 35.704 3.43786 33.7355 5.86686 33.7331H7.33352C8.54853 33.7331 9.53346 32.7481 9.53346 31.5331V11.7332H26.9866L25.3213 13.3986C24.8563 13.8567 24.5639 14.4613 24.4934 15.1102L24.2154 17.6086C24.1926 17.8523 24.2157 18.098 24.2836 18.3331H11.7335C11.3285 18.3331 11.0001 18.6615 11.0001 19.0665C11.0001 19.4715 11.3284 19.7998 11.7335 19.7998H13.9335V39.5997C13.9335 40.0047 14.2618 40.333 14.6669 40.333C15.0719 40.333 15.4002 40.0047 15.4002 39.5997V29.3331H23.4668V35.1997H18.3335C17.9285 35.1997 17.6002 35.528 17.6002 35.933C17.6002 36.338 17.9285 36.6664 18.3335 36.6664H33C33.81 36.6664 34.4667 36.0097 34.4667 35.1997V24.1998C34.4667 23.7949 34.1384 23.4665 33.7334 23.4665C33.3284 23.4665 33 23.7948 33 24.1998V27.8664H15.4002V19.7999H26.186C26.2575 19.8 26.329 19.7961 26.4001 19.7881L28.9058 19.5029C29.5418 19.4307 30.1355 19.1481 30.5925 18.6999L37.5503 11.7333L41.7999 11.7332ZM33 29.3331V35.1997H24.9334V29.3331H33ZM42.3059 4.90007L41.2294 5.97731L38.0233 2.77122L39.1005 1.69398C39.2415 1.54933 39.4346 1.46738 39.6366 1.46666C39.8422 1.46716 40.039 1.55013 40.1829 1.69694L42.3037 3.81335C42.4512 3.95857 42.534 4.15708 42.5333 4.36406C42.5326 4.56604 42.4507 4.75926 42.3059 4.90007Z" fill="#6E6259"/>
</g>
<defs>
<clipPath id="clip0_413_10802">
<rect width="44" height="44" fill="white"/>
</clipPath>
</defs>
</svg>
