<svg width="29" height="30" viewBox="0 0 29 30" fill="none" xmlns="http://www.w3.org/2000/svg">
<path d="M10.875 17.5128L18.125 10.2628M23.5625 6.04209V26.5753L19.0312 24.7628L14.5 26.5753L9.96875 24.7628L5.4375 26.5753V6.04209C5.4375 4.70328 6.41151 3.55673 7.74141 3.4024C9.95855 3.14509 12.2138 3.01282 14.5 3.01282C16.7862 3.01282 19.0414 3.14509 21.2586 3.4024C22.5885 3.55673 23.5625 4.70328 23.5625 6.04209ZM11.7812 11.1691H11.7903V11.1781H11.7812V11.1691ZM12.2344 11.1691C12.2344 11.4193 12.0315 11.6222 11.7812 11.6222C11.531 11.6222 11.3281 11.4193 11.3281 11.1691C11.3281 10.9188 11.531 10.7159 11.7812 10.7159C12.0315 10.7159 12.2344 10.9188 12.2344 11.1691ZM17.2188 16.6066H17.2278V16.6156H17.2188V16.6066ZM17.6719 16.6066C17.6719 16.8568 17.469 17.0597 17.2188 17.0597C16.9685 17.0597 16.7656 16.8568 16.7656 16.6066C16.7656 16.3563 16.9685 16.1534 17.2188 16.1534C17.469 16.1534 17.6719 16.3563 17.6719 16.6066Z" stroke="white" stroke-linecap="round" stroke-linejoin="round"/>
</svg>
