<svg width="48" height="48" viewBox="0 0 48 48" fill="none" xmlns="http://www.w3.org/2000/svg">
<path d="M44.5625 18.8594C44.9681 18.8594 45.2969 18.5306 45.2969 18.125V12.25C45.2969 11.8444 44.9681 11.5156 44.5625 11.5156H25.4688C25.0632 11.5156 24.7344 11.8444 24.7344 12.25V18.125C24.7344 18.5306 25.0632 18.8594 25.4688 18.8594H26.2031V20.3281H25.4688C25.0632 20.3281 24.7344 20.6569 24.7344 21.0625V26.9375C24.7344 27.3431 25.0632 27.6719 25.4688 27.6719H26.2031V29.1406H25.4688C25.0632 29.1406 24.7344 29.4694 24.7344 29.875V35.75C24.7344 36.1556 25.0632 36.4844 25.4688 36.4844H44.5625C44.9681 36.4844 45.2969 36.1556 45.2969 35.75V29.875C45.2969 29.4694 44.9681 29.1406 44.5625 29.1406H43.8281V27.6719H44.5625C44.9681 27.6719 45.2969 27.3431 45.2969 26.9375V21.0625C45.2969 20.6569 44.9681 20.3281 44.5625 20.3281H43.8281V18.8594H44.5625ZM26.2031 12.9844H43.8281V17.3906H26.2031V12.9844ZM43.8281 35.0156H26.2031V30.6094H43.8281V35.0156ZM42.3594 29.1406H27.6719V27.6719H42.3594V29.1406ZM43.8281 26.2031H26.2031V21.7969H43.8281V26.2031ZM42.3594 20.3281H27.6719V18.8594H42.3594V20.3281Z" fill="#6E6259"/>
<path d="M28.4062 15.9219H34.2812C34.6868 15.9219 35.0156 15.5931 35.0156 15.1875C35.0156 14.7819 34.6868 14.4531 34.2812 14.4531H28.4062C28.0007 14.4531 27.6719 14.7819 27.6719 15.1875C27.6719 15.5931 28.0007 15.9219 28.4062 15.9219Z" fill="#6E6259"/>
<path d="M41.625 15.9219C42.0306 15.9219 42.3594 15.5931 42.3594 15.1875C42.3594 14.7819 42.0306 14.4531 41.625 14.4531C41.2194 14.4531 40.8906 14.7819 40.8906 15.1875C40.8906 15.5931 41.2194 15.9219 41.625 15.9219Z" fill="#6E6259"/>
<path d="M34.2812 23.2656H28.4062C28.0007 23.2656 27.6719 23.5944 27.6719 24C27.6719 24.4056 28.0007 24.7344 28.4062 24.7344H34.2812C34.6868 24.7344 35.0156 24.4056 35.0156 24C35.0156 23.5944 34.6868 23.2656 34.2812 23.2656Z" fill="#6E6259"/>
<path d="M41.625 24.7344C42.0306 24.7344 42.3594 24.4056 42.3594 24C42.3594 23.5944 42.0306 23.2656 41.625 23.2656C41.2194 23.2656 40.8906 23.5944 40.8906 24C40.8906 24.4056 41.2194 24.7344 41.625 24.7344Z" fill="#6E6259"/>
<path d="M34.2812 32.0781H28.4062C28.0007 32.0781 27.6719 32.4069 27.6719 32.8125C27.6719 33.2181 28.0007 33.5469 28.4062 33.5469H34.2812C34.6868 33.5469 35.0156 33.2181 35.0156 32.8125C35.0156 32.4069 34.6868 32.0781 34.2812 32.0781Z" fill="#6E6259"/>
<path d="M41.625 33.5469C42.0306 33.5469 42.3594 33.2181 42.3594 32.8125C42.3594 32.4069 42.0306 32.0781 41.625 32.0781C41.2194 32.0781 40.8906 32.4069 40.8906 32.8125C40.8906 33.2181 41.2194 33.5469 41.625 33.5469Z" fill="#6E6259"/>
<path d="M12.25 32.8123C14.2779 32.8123 15.9219 31.1683 15.9219 29.1404C15.9203 26.5226 14.3737 24.1524 11.9783 23.0965C13.9159 21.6243 14.2931 18.86 12.8209 16.9224C11.3486 14.9847 8.58437 14.6075 6.64672 16.0797C4.70907 17.552 4.33188 20.3163 5.80412 22.2539C6.04554 22.5716 6.32901 22.8551 6.64672 23.0965C4.25128 24.1524 2.70469 26.5226 2.70312 29.1404C2.70312 31.1683 4.34712 32.8123 6.375 32.8123H12.25ZM6.375 19.5936C6.375 17.9712 7.69017 16.6561 9.3125 16.6561C10.9348 16.6561 12.25 17.9712 12.25 19.5936C12.25 21.2159 10.9348 22.5311 9.3125 22.5311C7.69017 22.5311 6.375 21.2159 6.375 19.5936ZM4.17188 29.1404C4.17188 26.3013 6.47341 23.9998 9.3125 23.9998C12.1516 23.9998 14.4531 26.3013 14.4531 29.1404C14.4531 30.3572 13.4668 31.3435 12.25 31.3435H6.375C5.15823 31.3435 4.17188 30.3572 4.17188 29.1404Z" fill="#6E6259"/>
<path d="M39.1281 9.9L42.0656 7.69688C42.3901 7.45352 42.4559 6.99325 42.2125 6.66875C41.9691 6.34425 41.5089 6.27852 41.1844 6.52187L39.4219 7.84375V6.375C39.4219 4.34712 37.7779 2.70312 35.75 2.70312H12.25C10.2221 2.70312 8.57812 4.34712 8.57812 6.375V10.7812C8.57812 11.1868 8.90694 11.5156 9.3125 11.5156C9.71806 11.5156 10.0469 11.1868 10.0469 10.7812V6.375C10.0469 5.15823 11.0332 4.17188 12.25 4.17188H35.75C36.9668 4.17188 37.9531 5.15823 37.9531 6.375V7.84375L36.1906 6.52187C35.8661 6.27852 35.4059 6.34425 35.1625 6.66875C34.9191 6.99325 34.9849 7.45352 35.3094 7.69688L38.2469 9.9C38.3017 9.93837 38.4647 10.0418 38.6967 10.0391C38.9176 10.0364 39.0725 9.93892 39.1281 9.9Z" fill="#6E6259"/>
<path d="M8.87945 36.6316L5.94195 38.8347C5.61717 39.0777 5.5509 39.5378 5.79388 39.8626C6.03687 40.1874 6.49705 40.2537 6.82182 40.0107C6.82228 40.0103 6.82274 40.01 6.8232 40.0097L8.57836 38.6878V41.6253C8.57836 43.6532 10.2223 45.2972 12.2502 45.2972H35.7502C37.7781 45.2972 39.4221 43.6532 39.4221 41.6253V38.6878C39.4221 38.2822 39.0933 37.9534 38.6877 37.9534C38.2822 37.9534 37.9534 38.2822 37.9534 38.6878V41.6253C37.9534 42.8421 36.967 43.8284 35.7502 43.8284H12.2502C11.0335 43.8284 10.0471 42.8421 10.0471 41.6253V38.6878L11.8096 40.0097C11.9367 40.1051 12.0913 40.1566 12.2502 40.1566C12.4814 40.1566 12.699 40.0477 12.8377 39.8628C13.0811 39.5383 13.0154 39.078 12.6909 38.8347L9.75336 36.6316C9.7103 36.5964 9.55058 36.4744 9.3131 36.4756C9.07975 36.4767 8.92296 36.5959 8.87945 36.6316Z" fill="#6E6259"/>
</svg>
