<?xml version="1.0" encoding="UTF-8" standalone="no"?>
<!-- Created with Inkscape (http://www.inkscape.org/) -->

<svg
   version="1.1"
   id="svg2463"
   xml:space="preserve"
   width="682.66669"
   height="682.66669"
   viewBox="0 0 682.66669 682.66669"
   xmlns="http://www.w3.org/2000/svg"
   xmlns:svg="http://www.w3.org/2000/svg"><defs
     id="defs2467"><clipPath
       clipPathUnits="userSpaceOnUse"
       id="clipPath2493"><path
         d="M 0,512 H 512 V 0 H 0 Z"
         id="path2491" /></clipPath></defs><g
     id="g2469"
     transform="matrix(1.3333333,0,0,-1.3333333,0,682.66667)"><g
       id="g2471"
       transform="translate(170,259)"><path
         d="M 0,0 H -90"
         style="fill:none;stroke:#000000;stroke-width:40;stroke-linecap:butt;stroke-linejoin:miter;stroke-miterlimit:10;stroke-dasharray:none;stroke-opacity:1"
         id="path2473" /></g><g
       id="g2475"
       transform="translate(80,338.8779)"><path
         d="M 0,0 H 90"
         style="fill:none;stroke:#000000;stroke-width:40;stroke-linecap:butt;stroke-linejoin:miter;stroke-miterlimit:10;stroke-dasharray:none;stroke-opacity:1"
         id="path2477" /></g><g
       id="g2479"
       transform="translate(80,415.8779)"><path
         d="M 0,0 H 90"
         style="fill:none;stroke:#000000;stroke-width:40;stroke-linecap:butt;stroke-linejoin:miter;stroke-miterlimit:10;stroke-dasharray:none;stroke-opacity:1"
         id="path2481" /></g><g
       id="g2483"
       transform="translate(80,182)"><path
         d="M 0,0 H 90"
         style="fill:none;stroke:#000000;stroke-width:40;stroke-linecap:butt;stroke-linejoin:miter;stroke-miterlimit:10;stroke-dasharray:none;stroke-opacity:1"
         id="path2485" /></g><g
       id="g2487"><g
         id="g2489"
         clip-path="url(#clipPath2493)"><g
           id="g2495"
           transform="translate(452,20)"><path
             d="m 0,0 h -392 c -22.092,0 -40,17.908 -40,40 v 392 c 0,22.092 17.908,40 40,40 H 0 c 22.092,0 40,-17.908 40,-40 V 40 C 40,17.908 22.092,0 0,0 Z"
             style="fill:none;stroke:#000000;stroke-width:40;stroke-linecap:butt;stroke-linejoin:miter;stroke-miterlimit:10;stroke-dasharray:none;stroke-opacity:1"
             id="path2497" /></g><g
           id="g2499"
           transform="translate(230,20)"><path
             d="M 0,0 V 472"
             style="fill:none;stroke:#000000;stroke-width:40;stroke-linecap:butt;stroke-linejoin:miter;stroke-miterlimit:10;stroke-dasharray:none;stroke-opacity:1"
             id="path2501" /></g><g
           id="g2503"
           transform="translate(340,193)"><path
             d="M 0,0 66,66 0,132"
             style="fill:none;stroke:#000000;stroke-width:40;stroke-linecap:square;stroke-linejoin:miter;stroke-miterlimit:10;stroke-dasharray:none;stroke-opacity:1"
             id="path2505" /></g><g
           id="g2507"
           transform="translate(390,259)"><path
             d="M 0,0 H -160"
             style="fill:none;stroke:#000000;stroke-width:40;stroke-linecap:square;stroke-linejoin:round;stroke-miterlimit:10;stroke-dasharray:none;stroke-opacity:1"
             id="path2509" /></g></g></g></g></svg>
