<svg width="21" height="21" viewBox="0 0 21 21" fill="none" xmlns="http://www.w3.org/2000/svg">
<g clip-path="url(#clip0_1359_7340)">
<path d="M0.499996 8C0.800005 8 0.999981 8.23799 0.999981 8.5949V16.3289C0.999981 16.6858 1.2 16.9238 1.49997 16.9238H19.5C19.8001 16.9238 20 16.6858 20 16.3289V8.5949C20 8.23794 20.2 8 20.5 8C20.8 8 21 8.23799 21 8.5949V16.3289C21 17.3402 20.35 18.1136 19.5 18.1136H1.49997C0.649958 18.1136 -3.24249e-05 17.3402 -3.24249e-05 16.3289V8.5949C-3.24249e-05 8.23794 0.199987 8 0.499996 8Z" fill="#286140"/>
<path d="M1.43181 3H19.5682C20.3796 3 21 3.73567 21 4.69772V8.31955C21 9.11178 20.5227 9.79088 19.9023 9.96066L12.4091 11.9413V13.7522C12.4091 14.0918 12.2181 14.3181 11.9318 14.3181H9.06819C8.78181 14.3181 8.59093 14.0917 8.59093 13.7522V11.9413L1.09774 9.96066C0.477259 9.79088 0 9.11178 0 8.3195V4.69767C0 3.73567 0.620443 3 1.43181 3ZM9.54544 13.1863H11.4545V10.9227H9.54544V13.1863ZM0.954557 8.3195C0.954557 8.60245 1.09774 8.82883 1.33637 8.88539L8.59093 10.8095V10.3568C8.59093 10.0172 8.78186 9.79088 9.06819 9.79088H11.9318C12.2182 9.79088 12.4091 10.0173 12.4091 10.3568V10.8095L19.6636 8.88544C19.9023 8.82883 20.0454 8.60249 20.0454 8.31955V4.69772C20.0454 4.35817 19.8545 4.13183 19.5682 4.13183H1.43181C1.14544 4.13183 0.954557 4.35822 0.954557 4.69772V8.3195Z" fill="#286140"/>
<path d="M8.11368 1.43188H12.8864C13.6978 1.43188 14.3182 2.05233 14.3182 2.8637V3.34096C14.3182 3.62733 14.1273 3.81821 13.841 3.81821C13.5546 3.81821 13.3637 3.62729 13.3637 3.34096V2.8637C13.3637 2.57733 13.1728 2.38644 12.8865 2.38644H8.11372C7.82735 2.38644 7.63646 2.57737 7.63646 2.8637V3.34096C7.63646 3.62733 7.44554 3.81821 7.1592 3.81821C6.87283 3.81821 6.68195 3.62729 6.68195 3.34096V2.8637C6.68187 2.05233 7.30231 1.43188 8.11368 1.43188Z" fill="#286140"/>
</g>
<defs>
<clipPath id="clip0_1359_7340">
<rect width="21" height="21" fill="white" transform="matrix(-1 0 0 1 21 0)"/>
</clipPath>
</defs>
</svg>
