<svg width="14" height="19" viewBox="0 0 14 19" fill="none" xmlns="http://www.w3.org/2000/svg">
<path d="M10.1111 18.6C12.2588 18.6 14 16.9215 14 14.8512C13.9983 12.1785 12.3603 9.75863 9.82333 8.68066C11.8755 7.17758 12.275 4.35539 10.7157 2.37715C9.15649 0.398914 6.22883 0.0138192 4.17667 1.5169C2.1245 3.01998 1.72501 5.84217 3.28426 7.82041C3.53996 8.14477 3.84018 8.43418 4.17667 8.68066C1.63965 9.75863 0.00165278 12.1785 0 14.8512C0 16.9215 1.74115 18.6 3.88889 18.6H10.1111ZM3.88889 5.10431C3.88889 3.448 5.28179 2.10527 7 2.10527C8.71821 2.10527 10.1111 3.448 10.1111 5.10431C10.1111 6.76062 8.71821 8.10335 7 8.10335C5.28179 8.10335 3.88889 6.76062 3.88889 5.10431ZM1.55556 14.8512C1.55556 11.9526 3.99311 9.60287 7 9.60287C10.0069 9.60287 12.4444 11.9526 12.4444 14.8512C12.4444 16.0934 11.3998 17.1005 10.1111 17.1005H3.88889C2.60021 17.1005 1.55556 16.0934 1.55556 14.8512Z" fill="#286140"/>
</svg>
