<svg xmlns="http://www.w3.org/2000/svg" width="56.336" height="56.336" viewBox="0 0 56.336 56.336">
  <g id="user-icon" transform="translate(-8.1 -8.1)">
    <g id="Icon-User" transform="translate(8.1 8.1)">
      <path id="Fill-57" d="M-241.732-213.564A28.167,28.167,0,0,1-269.9-241.732,28.167,28.167,0,0,1-241.732-269.9a28.167,28.167,0,0,1,28.168,28.168,28.167,28.167,0,0,1-28.168,28.168Zm0-53.271a25.2,25.2,0,0,0-25.1,25.1,25.2,25.2,0,0,0,25.1,25.1,25.2,25.2,0,0,0,25.1-25.1,25.2,25.2,0,0,0-25.1-25.1Z" transform="translate(269.9 269.9)" fill="#ddd"/>
      <path id="Fill-58" d="M-259.571-222.343l-2.829-1.3c.825-2,3.418-3.064,6.364-4.361,2.829-1.3,6.364-2.829,6.364-4.714v-2.593a7.943,7.943,0,0,1-2.946-5.421,6.366,6.366,0,0,1-2.121-4.243,5.269,5.269,0,0,1,.825-2.711,36.687,36.687,0,0,1-.707-5.893c0-6.482,4.479-10.725,11.55-10.725,2,0,4.479.589,5.775,2,3.182.589,5.775,4.361,5.775,8.721a21.918,21.918,0,0,1-.825,6.246,4.645,4.645,0,0,1,.707,2.357,5.046,5.046,0,0,1-2.121,4.361,8.011,8.011,0,0,1-2.711,5.3v2.593c0,1.65,2.946,2.711,5.657,3.771,3.182,1.179,6.482,2.357,7.543,5.068l-2.946,1.061c-.471-1.414-3.3-2.357-5.657-3.3-3.654-1.3-7.779-2.829-7.779-6.6v-4.243l.707-.471a4.892,4.892,0,0,0,2.121-4.125v-1.061l.943-.354a2.267,2.267,0,0,0,1.061-2,1.781,1.781,0,0,0-.471-1.061l-.589-.707.236-.825a22.269,22.269,0,0,0,.825-6.129c0-2.946-1.65-5.657-3.418-5.657h-.943l-.471-.825c-.354-.589-1.768-1.179-3.654-1.179-5.3,0-8.486,2.829-8.486,7.661a35.112,35.112,0,0,0,.825,5.893l.236.825-.589.589a2.248,2.248,0,0,0-.471,1.179c0,.825,1.061,1.886,1.532,2.357l.589.471v.825a5.1,5.1,0,0,0,2.239,4.007l.707.471v4.243c0,3.889-4.361,5.893-8.25,7.543-1.65.943-4.125,2.121-4.6,2.947" transform="translate(271.239 270.9)" fill="#ddd"/>
    </g>
  </g>
</svg>
