<?xml version="1.0" standalone="no"?>
<!DOCTYPE svg PUBLIC "-//W3C//DTD SVG 1.1//EN" "http://www.w3.org/Graphics/SVG/1.1/DTD/svg11.dtd" >
<svg xmlns="http://www.w3.org/2000/svg" xmlns:xlink="http://www.w3.org/1999/xlink" version="1.1">
<metadata>
Created by FontForge 20201107 at Tue Oct 22 14:07:51 2024
 By 
Copyright (c) 2019 by Tarek Atrissi Design. All rights reserved. Usage only with proper licensing. No distribution or modification allowed.
</metadata>
<defs>
<font id="DSC-Regular" horiz-adv-x="0" >
  <font-face 
    font-family="DSC"
    font-weight="400"
    font-stretch="normal"
    units-per-em="2048"
    panose-1="0 0 0 0 0 0 0 0 0 0"
    ascent="1638"
    descent="-410"
    x-height="1122"
    cap-height="1516"
    bbox="-1151 -1327 3025 2458"
    underline-thickness="102"
    underline-position="-204"
    unicode-range="U+000D-FEFC"
  />
<missing-glyph horiz-adv-x="1892" 
d="M1552 2458v-3785h-1200v3785h1200zM1260 2204h-625v-125h248v-140h-250v-124h627v124h-250v140h250v125zM1010 1716h-377v-393h627v127h-250v266zM883 1587v-137h-125v137h125zM1260 1221h-627v-125h250v-142h-250v-125h377v267h250v125zM1260 993h-125v-250h-502v-129
h627v379zM1260 530h-377v-211h127v87h125v-177h-377v301h-125v-426h627v426zM1260 -123h-627v-428h627v428zM1135 -248v-178h-377v178h377zM1260 -639h-627v-125h264l-264 -178v-123h627v123h-386l265 178h121v125z" />
    <glyph glyph-name="uniFEF5" unicode="&#xfedf;&#xfe82;" horiz-adv-x="1347" arabic-form="isolated" 
d="M182 1573q-38 0 -60.5 -9t-45.5 -32l-15 8q37 93 68.5 127.5t71.5 34.5q35 0 126.5 -12.5t116.5 -12.5q52 0 79 7t57 26l14 -8q-96 -156 -172 -156q-25 0 -111.5 13.5t-128.5 13.5zM1313 1384v-12l-154 -162v-305q0 -155 -18.5 -282.5t-66.5 -246t-124 -199.5t-198 -129
t-281 -48q-53 0 -117.5 18t-102 34t-108 51.5t-82.5 41.5l5 31q214 12 297 18t201.5 21t191.5 37q-12 79 -64 172l-377 657q-81 43 -106 95q-11 19 -12 35t6 49l47 190l10 6l47 -86q72 -60 221 -76l7 -10l-52 -229l238 -428q119 -213 119 -310q0 -6 -4 -34q88 42 133 106
q27 39 39.5 99.5t14 110t1.5 161.5v51l-2 500q-45 65 -45 133q0 39 35 74l137 141h12v-100q18 -50 62.5 -96.5t89.5 -78.5z" />
    <glyph glyph-name="uniFEF6" unicode="&#xfee0;&#xfe82;" horiz-adv-x="1429" arabic-form="final" 
d="M182 1575q-38 0 -60.5 -9t-45.5 -32l-15 8q37 93 68.5 127.5t71.5 34.5q35 0 126.5 -12.5t116.5 -12.5q52 0 79 7t57 26l14 -8q-96 -156 -172 -156q-25 0 -111.5 13.5t-128.5 13.5zM1430 205l40 -4v-197l-40 -4h-76q-146 0 -226 100.5t-86 280.5q-73 -196 -211 -287.5
t-360 -91.5q-53 0 -117.5 18t-102 34t-108 51.5t-82.5 41.5l5 31q210 12 296 18t203 23t191 43q-12 76 -64 164l-377 657q-81 43 -106 95q-11 19 -12 35t6 49l47 190l10 6l47 -86q72 -60 221 -76l7 -10l-52 -229l238 -428q119 -213 119 -310q0 -16 -2 -20q89 52 135 131
q59 100 57 272l-8 611q-45 65 -45 133q0 39 35 74l137 141h12v-100q18 -48 62.5 -95t89.5 -80v-12l-154 -164l-8 -970q106 -35 279 -35z" />
    <glyph glyph-name="uniFEF7" unicode="&#xfedf;&#xfe84;" horiz-adv-x="1347" arabic-form="isolated" 
d="M502 1782l-33 -125q-315 -151 -399 -219q-9 15 -9 51q0 67 111 131q-70 46 -70 102q0 47 46 116t110 121t111 52q26 0 40.5 -14.5t14.5 -38.5q0 -26 -15.5 -67.5t-35.5 -67.5h-4q-15 30 -52 30q-32 0 -75 -30t-43 -51q0 -23 44 -43t99 -25q126 62 156 80zM1313 1384v-12
l-154 -162v-305q0 -155 -18.5 -282.5t-66.5 -246t-124 -199.5t-198 -129t-281 -48q-53 0 -117.5 18t-102 34t-108 51.5t-82.5 41.5l5 31q214 12 297 18t201.5 21t191.5 37q-12 79 -64 172l-377 657q-81 43 -106 95q-11 19 -12 35t6 49l47 190l10 6l47 -86q72 -60 221 -76
l7 -10l-52 -229l238 -428q119 -213 119 -310q0 -6 -4 -34q88 42 133 106q27 39 39.5 99.5t14 110t1.5 161.5v51l-2 500q-45 65 -45 133q0 39 35 74l137 141h12v-100q18 -50 62.5 -96.5t89.5 -78.5z" />
    <glyph glyph-name="uniFEF8" unicode="&#xfee0;&#xfe84;" horiz-adv-x="1429" arabic-form="final" 
d="M502 1784l-33 -125q-315 -151 -399 -219q-9 15 -9 51q0 67 111 131q-70 46 -70 102q0 47 46 116t110 121t111 52q26 0 40.5 -14.5t14.5 -38.5q0 -26 -15.5 -67.5t-35.5 -67.5h-4q-15 30 -52 30q-32 0 -75 -30t-43 -51q0 -23 44 -43t99 -25q126 62 156 80zM1430 205l40 -4
v-197l-40 -4h-76q-146 0 -226 100.5t-86 280.5q-73 -196 -211 -287.5t-360 -91.5q-53 0 -117.5 18t-102 34t-108 51.5t-82.5 41.5l5 31q210 12 296 18t203 23t191 43q-12 76 -64 164l-377 657q-81 43 -106 95q-11 19 -12 35t6 49l47 190l10 6l47 -86q72 -60 221 -76l7 -10
l-52 -229l238 -428q119 -213 119 -310q0 -16 -2 -20q89 52 135 131q59 100 57 272l-8 611q-45 65 -45 133q0 39 35 74l137 141h12v-100q18 -48 62.5 -95t89.5 -80v-12l-154 -164l-8 -970q106 -35 279 -35z" />
    <glyph glyph-name="uniFEF9" unicode="&#xfedf;&#xfe88;" horiz-adv-x="1347" arabic-form="isolated" 
d="M1313 1384v-12l-154 -162v-305q0 -155 -18.5 -282.5t-66.5 -246t-124 -199.5t-198 -129t-281 -48q-53 0 -117.5 18t-102 34t-108 51.5t-82.5 41.5l5 31q214 12 297 18t201.5 21t191.5 37q-12 79 -64 172l-377 657q-81 43 -106 95q-11 19 -12 35t6 49l47 190l10 6l47 -86
q72 -60 221 -76l7 -10l-52 -229l238 -428q119 -213 119 -310q0 -6 -4 -34q88 42 133 106q27 39 39.5 99.5t14 110t1.5 161.5v51l-2 500q-45 65 -45 133q0 39 35 74l137 141h12v-100q18 -50 62.5 -96.5t89.5 -78.5zM752 -346q121 59 155 80l4 -2l-32 -125
q-317 -152 -400 -219q-8 13 -8 51q0 67 111 131q-70 46 -70 102q0 47 45.5 116t109.5 121t111 52q26 0 41 -14.5t15 -38.5q0 -26 -16 -67.5t-36 -67.5h-4q-15 30 -51 30q-32 0 -75.5 -30.5t-43.5 -51.5q0 -23 44 -42.5t100 -24.5z" />
    <glyph glyph-name="uniFEFA" unicode="&#xfee0;&#xfe88;" horiz-adv-x="1429" arabic-form="final" 
d="M1430 205l40 -4v-197l-40 -4h-76q-146 0 -226 100.5t-86 280.5q-73 -196 -211 -287.5t-360 -91.5q-53 0 -117.5 18t-102 34t-108 51.5t-82.5 41.5l5 31q210 12 296 18t203 23t191 43q-12 76 -64 164l-377 657q-81 43 -106 95q-11 19 -12 35t6 49l47 190l10 6l47 -86
q72 -60 221 -76l7 -10l-52 -229l238 -428q119 -213 119 -310q0 -16 -2 -20q89 52 135 131q59 100 57 272l-8 611q-45 65 -45 133q0 39 35 74l137 141h12v-100q18 -48 62.5 -95t89.5 -80v-12l-154 -164l-8 -970q106 -35 279 -35zM877 -346q121 59 155 80l4 -2l-32 -125
q-317 -152 -400 -219q-8 13 -8 51q0 67 111 131q-70 46 -70 102q0 47 45.5 116t109.5 121t111 52q26 0 40.5 -14.5t14.5 -38.5q0 -26 -15.5 -67.5t-35.5 -67.5h-4q-15 30 -51 30q-32 0 -75.5 -30.5t-43.5 -51.5q0 -23 44 -42.5t100 -24.5z" />
    <glyph glyph-name="uniFEFB" unicode="&#xfedf;&#xfe8e;" horiz-adv-x="1347" arabic-form="isolated" 
d="M1313 1384v-12l-154 -162v-305q0 -155 -18.5 -282.5t-66.5 -246t-124 -199.5t-198 -129t-281 -48q-53 0 -117.5 18t-102 34t-108 51.5t-82.5 41.5l5 31q214 12 297 18t201.5 21t191.5 37q-12 79 -64 172l-377 657q-81 43 -106 95q-11 19 -12 35t6 49l47 190l10 6l47 -86
q72 -60 221 -76l7 -10l-52 -229l238 -428q119 -213 119 -310q0 -6 -4 -34q88 42 133 106q27 39 39.5 99.5t14 110t1.5 161.5v51l-2 500q-45 65 -45 133q0 39 35 74l137 141h12v-100q18 -50 62.5 -96.5t89.5 -78.5z" />
    <glyph glyph-name="uniFEFC" unicode="&#xfee0;&#xfe8e;" horiz-adv-x="1429" arabic-form="final" 
d="M1430 205l40 -4v-197l-40 -4h-76q-146 0 -226 100.5t-86 280.5q-73 -196 -211 -287.5t-360 -91.5q-53 0 -117.5 18t-102 34t-108 51.5t-82.5 41.5l5 31q210 12 296 18t203 23t191 43q-12 76 -64 164l-377 657q-81 43 -106 95q-11 19 -12 35t6 49l47 190l10 6l47 -86
q72 -60 221 -76l7 -10l-52 -229l238 -428q119 -213 119 -310q0 -16 -2 -20q89 52 135 131q59 100 57 272l-8 611q-45 65 -45 133q0 39 35 74l137 141h12v-100q18 -48 62.5 -95t89.5 -80v-12l-154 -164l-8 -970q106 -35 279 -35z" />
    <glyph glyph-name="uni06440671" unicode="&#xfedf;&#xfb51;" horiz-adv-x="1271" 
d="M477 1753q0 -86 -62 -154.5t-145 -68.5q-29 0 -113 13t-126 13q-38 0 -61 -8.5t-46 -31.5l-14 8q37 85 68.5 118t70.5 33q23 0 37 -2q47 99 124.5 169.5t145.5 70.5q52 0 86.5 -48t34.5 -112zM328 1784q-44 0 -83.5 -27.5t-90.5 -93.5q78 -12 127 -12q82 0 125 65
q-12 35 -28.5 51.5t-49.5 16.5zM1313 1384v-12l-154 -162v-305q0 -155 -18.5 -282.5t-66.5 -246t-124 -199.5t-198 -129t-281 -48q-53 0 -117.5 18t-102 34t-108 51.5t-82.5 41.5l5 31q214 12 297 18t201.5 21t191.5 37q-12 79 -64 172l-377 657q-81 43 -106 95
q-11 19 -12 35t6 49l47 190l10 6l47 -86q72 -60 221 -76l7 -10l-52 -229l238 -428q119 -213 119 -310q0 -6 -4 -34q88 42 133 106q27 39 39.5 99.5t14 110t1.5 161.5v51l-2 500q-45 65 -45 133q0 39 35 74l137 141h12v-100q18 -50 62.5 -96.5t89.5 -78.5z" />
    <glyph glyph-name="uni06440671.fina" unicode="&#xfee0;&#xfb51;" horiz-adv-x="1429" 
d="M473 1753q0 -86 -62 -154.5t-145 -68.5q-29 0 -113 13t-126 13q-38 0 -61 -8.5t-46 -31.5l-14 8q37 85 68.5 118t70.5 33q23 0 37 -2q47 99 124.5 169.5t145.5 70.5q52 0 86.5 -48t34.5 -112zM324 1784q-44 0 -83.5 -27.5t-90.5 -93.5q78 -12 126 -12q82 0 125 65
q-12 35 -28 51.5t-49 16.5zM1430 203l40 -4v-197l-40 -4h-76q-146 0 -226 100.5t-86 280.5q-73 -196 -211 -287.5t-360 -91.5q-53 0 -117.5 18t-102 34t-108 51.5t-82.5 41.5l5 31q210 12 296 18t203 23t191 43q-12 76 -64 164l-377 657q-81 43 -106 95q-11 19 -12 35t6 49
l47 190l10 6l47 -86q72 -60 221 -76l7 -10l-52 -229l238 -428q119 -213 119 -310q0 -16 -2 -20q89 52 135 131q59 100 57 272l-8 611q-45 65 -45 133q0 39 35 74l137 141h12v-100q18 -48 62.5 -95t89.5 -80v-12l-154 -164l-8 -970q106 -35 279 -35z" />
    <glyph glyph-name="uni066E.init" unicode="&#x66e;" horiz-adv-x="491" 
d="M274 922h13q82 -172 82 -576q0 -132 -45 -240q-61 -50 -153 -78t-171 -28l-41 4v197l41 4q150 0 258 33q-4 164 -34.5 281t-94.5 241z" />
    <glyph glyph-name="uni066E.medi" unicode="&#x66e;" horiz-adv-x="765" 
d="M766 205l41 -4l-2 -197l-41 -4h-37q-127 0 -199 31t-133 92q-79 -123 -317 -123h-78l-41 4v197l41 4h61q139 0 242 39l12 305l164 147h13l-58 -444q96 -47 303 -47h29z" />
    <glyph glyph-name="uni066E.fina" unicode="&#x66e;" horiz-adv-x="1763" 
d="M1763 205l41 -4l-2 -197l-41 -4h-37q-129 0 -199 31.5t-134 95.5q-65 -81 -217 -114t-381 -33q-196 0 -333 27t-214 80t-110.5 122.5t-33.5 163.5q0 103 32.5 207.5t74.5 150.5l29 -12q-33 -90 -33 -201q0 -68 15 -117t55 -92t108 -69t176 -41t258 -15q300 0 483 64
l13 301l164 147h12l-57 -444q96 -47 303 -47h28z" />
    <glyph glyph-name="uni066F.fina" unicode="&#x66f;" horiz-adv-x="1439" 
d="M1440 205l41 -4v-197l-41 -4h-166q-50 -233 -217 -369.5t-416 -136.5q-241 0 -390 131.5t-149 343.5q0 100 31.5 204.5t75.5 154.5l29 -13q-33 -90 -33 -200q0 -191 119 -293.5t342 -102.5q183 0 311.5 70.5t189.5 210.5q-298 2 -439.5 59.5t-141.5 184.5
q0 85 32.5 184.5t84.5 183t124.5 139.5t145.5 56q127 0 218.5 -162t98.5 -440h150zM688 291q83 -83 512 -86q-20 151 -106 269t-174 118q-75 0 -140.5 -88.5t-91.5 -212.5z" />
    <glyph glyph-name="uni06A1.init" unicode="&#x6a1;" horiz-adv-x="946" 
d="M547 1208q134 0 225.5 -177t91.5 -480q0 -156 -47 -261.5t-151 -170t-257.5 -92t-379.5 -27.5h-29l-41 4v197l41 4h31q287 0 428.5 25t236.5 75q39 54 68 152q-95 -56 -234 -56q-67 0 -130.5 14.5t-118.5 42.5t-88 76.5t-33 110.5q0 85 32.5 184.5t84.5 183t124.5 139.5
t145.5 56zM262 692q41 -41 137.5 -63.5t194.5 -22.5q107 0 176 27q-30 145 -110.5 252.5t-165.5 107.5q-77 0 -141.5 -88t-90.5 -213z" />
    <glyph glyph-name="uni06A1.medi" unicode="&#x6a1;" horiz-adv-x="1069" 
d="M1069 205l41 -4v-197l-41 -4q-339 0 -549 96q-235 -96 -520 -96l-41 4v197l41 4q196 0 326 20q-131 121 -131 256q0 69 34.5 142.5t91 133.5t137.5 99t167 39q67 0 120.5 -25.5t86.5 -64t55 -88t30.5 -94.5t8.5 -86q0 -108 -44 -180.5t-124 -129.5q127 -22 311 -22z
M305 545q64 -164 244 -256q178 69 272 194q-19 92 -88 145.5t-166 53.5q-78 0 -146 -36.5t-116 -100.5z" />
    <glyph glyph-name="uni06A1.fina" unicode="&#x6a1;" horiz-adv-x="1869" 
d="M1870 205l41 -4v-197l-41 -4q-337 0 -547 96q-251 -116 -592 -116q-629 0 -629 372q0 93 31 177t76 135l29 -13q-33 -85 -33 -168q0 -149 131 -224t403 -75q249 0 394 37q-138 125 -138 260q0 69 34.5 142.5t91 133.5t137.5 99t167 39q67 0 120.5 -25.5t86.5 -64t55 -88
t30.5 -94.5t8.5 -86q0 -108 -43.5 -180.5t-123.5 -129.5q127 -22 311 -22zM1106 545q64 -164 244 -256q178 69 272 194q-19 92 -88 145.5t-166 53.5q-78 0 -146 -36.5t-116 -100.5z" />
    <glyph glyph-name="uniFB51" unicode="&#x671;" horiz-adv-x="641" arabic-form="final" 
d="M600 1774q0 -86 -62 -155t-145 -69q-29 0 -113 13.5t-126 13.5q-38 0 -61 -9t-46 -32l-14 8q37 86 68.5 119t70.5 33q23 0 37 -2q47 98 124 168.5t146 70.5q52 0 86.5 -47.5t34.5 -111.5zM451 1804q-44 0 -84 -27.5t-91 -93.5q78 -12 127 -12q82 0 125 66q-12 35 -28 51
t-49 16zM641 205l41 -4v-197l-41 -4h-76q-81 0 -143 34t-98.5 93.5t-56 131t-23.5 155.5l-43 852l176 188h18q0 -249 -4 -369l-14 -849q109 -31 264 -31z" />
    <glyph glyph-name="uniFB57" unicode="&#x67e;" horiz-adv-x="1763" arabic-form="final" 
d="M1763 205l41 -4l-2 -197l-41 -4h-37q-129 0 -199 31.5t-134 95.5q-65 -81 -217 -114t-381 -33q-196 0 -333 27t-214 80t-110.5 122.5t-33.5 163.5q0 103 32.5 207.5t74.5 150.5l29 -12q-33 -90 -33 -201q0 -68 15 -117t55 -92t108 -69t176 -41t258 -15q300 0 483 64
l13 301l164 147h12l-57 -444q96 -47 303 -47h28zM782 -332l152 88l108 -188l-188 -109l-51 88l-152 -88l-108 189l188 108zM610 -647l189 108l108 -186l-188 -109z" />
    <glyph glyph-name="uniFB58" unicode="&#x67e;" horiz-adv-x="491" arabic-form="initial" 
d="M324 106q-61 -50 -153 -78t-171 -28l-41 4v197l41 4q150 0 258 33q-4 164 -34.5 281t-94.5 241l145 162h13q82 -172 82 -576q0 -132 -45 -240zM145 -432l-151 -88l-109 188l189 109l51 -88l151 88l109 -189l-188 -108zM-47 -627l188 109l109 -187l-189 -108z" />
    <glyph glyph-name="uniFB59" unicode="&#x67e;" horiz-adv-x="765" arabic-form="medial" 
d="M766 205l41 -4l-2 -197l-41 -4h-37q-127 0 -199 31t-133 92q-79 -123 -317 -123h-78l-41 4v197l41 4h61q139 0 242 39l12 305l164 147h13l-58 -444q96 -47 303 -47h29zM301 -311l152 88l108 -189l-188 -108l-51 88l-152 -88l-109 188l189 109zM129 -627l188 109l109 -187
l-188 -108z" />
    <glyph glyph-name="uniFB6B" unicode="&#x6a4;" horiz-adv-x="1869" arabic-form="final" 
d="M1577 1511l-188 -108l-109 186l188 109zM1405 1196l-152 -88l-108 186l188 109l51 -88l152 88l109 -186l-189 -109zM1870 205l41 -4v-197l-41 -4q-337 0 -547 96q-251 -116 -592 -116q-629 0 -629 372q0 93 31 177t76 135l29 -13q-33 -85 -33 -168q0 -149 131 -224
t403 -75q249 0 394 37q-138 125 -138 260q0 69 34.5 142.5t91 133.5t137.5 99t167 39q67 0 120.5 -25.5t86.5 -64t55 -88t30.5 -94.5t8.5 -86q0 -108 -43.5 -180.5t-123.5 -129.5q127 -22 311 -22zM1106 545q64 -164 244 -256q178 69 272 194q-19 92 -88 145.5t-166 53.5
q-78 0 -146 -36.5t-116 -100.5z" />
    <glyph glyph-name="uniFB6C" unicode="&#x6a4;" horiz-adv-x="946" arabic-form="initial" 
d="M729 1825l-188 -109l-109 187l189 108zM557 1509l-151 -88l-109 187l188 108l52 -88l151 88l109 -186l-189 -109zM547 1208q134 0 225.5 -177t91.5 -480q0 -156 -47 -261.5t-151 -170t-257.5 -92t-379.5 -27.5h-29l-41 4v197l41 4h31q287 0 428.5 25t236.5 75
q39 54 68 152q-95 -56 -234 -56q-67 0 -130.5 14.5t-118.5 42.5t-88 76.5t-33 110.5q0 85 32.5 184.5t84.5 183t124.5 139.5t145.5 56zM262 692q41 -41 137.5 -63.5t194.5 -22.5q107 0 176 27q-30 145 -110.5 252.5t-165.5 107.5q-77 0 -141.5 -88t-90.5 -213z" />
    <glyph glyph-name="uniFB6D" unicode="&#x6a4;" horiz-adv-x="1069" arabic-form="medial" 
d="M776 1511l-188 -108l-109 186l189 109zM604 1196l-151 -88l-109 186l188 109l52 -88l151 88l109 -186l-189 -109zM1069 205l41 -4v-197l-41 -4q-339 0 -549 96q-235 -96 -520 -96l-41 4v197l41 4q196 0 326 20q-131 121 -131 256q0 69 34.5 142.5t91 133.5t137.5 99
t167 39q67 0 120.5 -25.5t86.5 -64t55 -88t30.5 -94.5t8.5 -86q0 -108 -44 -180.5t-124 -129.5q127 -22 311 -22zM305 545q64 -164 244 -256q178 69 272 194q-19 92 -88 145.5t-166 53.5q-78 0 -146 -36.5t-116 -100.5z" />
    <glyph glyph-name="uniFB7B" unicode="&#x686;" horiz-adv-x="1613" arabic-form="final" 
d="M1614 205l41 -4v-197l-41 -4h-103q-187 0 -294 104.5t-117 301.5q-105 -24 -214 -62t-226 -99t-207 -132.5t-148.5 -168t-58.5 -200.5q0 -73 28 -143t91 -134.5t153 -112.5t224 -77t296 -29q229 0 392 58l14 -27q-149 -116 -290 -169.5t-304 -53.5q-179 0 -317.5 49.5
t-225 139t-130.5 208t-44 262.5q0 109 24.5 203t81 183.5t145 163.5t220.5 138.5t303 112.5q-21 7 -87 29.5t-93.5 31t-83.5 25t-90.5 24t-79 13.5t-82.5 6q-138 0 -231 -61l-27 26q120 246 293 246q76 0 153 -27.5t174 -75t158 -69.5q147 -50 234 -66t225 -16l6 -6
l-100 -168q-16 0 -62 -4q13 -97 102.5 -158t215.5 -61h82zM967 45l108 -188l-188 -109l-51 88l-152 -88l-109 189l189 108l51 -88zM643 -358l188 108l109 -186l-188 -109z" />
    <glyph glyph-name="uniFB7C" unicode="&#x686;" horiz-adv-x="1415" arabic-form="initial" 
d="M1348 479l6 -6l-101 -168q-122 -9 -237 -44t-208.5 -78t-195 -85t-239.5 -70t-299 -28h-74l-41 4v197l41 4h94q132 0 256.5 20.5t207 46.5t193 55.5t205.5 41.5q-22 7 -114.5 39.5t-131.5 44.5t-110.5 32.5t-126 28.5t-104.5 8q-139 0 -232 -61l-26 26
q58 119 128.5 182.5t163.5 63.5q76 0 153 -27.5t174.5 -75t158.5 -69.5q147 -50 234 -66t225 -16zM817 -270l152 88l108 -189l-188 -108l-51 88l-152 -88l-108 188l188 109zM645 -586l189 109l108 -187l-188 -108z" />
    <glyph glyph-name="uniFB7D" unicode="&#x686;" horiz-adv-x="1654" arabic-form="medial" 
d="M1655 205l41 -4v-197l-41 -4h-283q-153 0 -229.5 57t-93.5 205q-90 -17 -180 -52t-164 -69.5t-160.5 -67t-206 -53t-264.5 -20.5h-74l-41 4v197l41 4h94q132 0 256.5 20.5t207 46.5t193 55.5t205.5 41.5q-22 7 -114.5 39.5t-131.5 44.5t-110.5 32.5t-126 28.5t-104.5 8
q-139 0 -232 -61l-26 26q58 119 128.5 182.5t163.5 63.5q76 0 153 -27.5t174.5 -75t158.5 -69.5q147 -50 234 -66t225 -16l6 -6l-101 -168q-11 0 -57 4q7 -56 63.5 -80t133.5 -24h262zM817 -270l152 88l108 -189l-188 -108l-51 88l-152 -88l-108 188l188 109zM645 -586
l189 109l108 -187l-188 -108z" />
    <glyph glyph-name="uniFB8B" unicode="&#x698;" horiz-adv-x="1327" arabic-form="final" 
d="M786 1321l-188 -109l-109 187l189 108zM614 1006l-151 -88l-109 186l189 108l51 -88l151 88l109 -186l-188 -108zM1327 205l41 -4v-197l-41 -4q-248 0 -412 127q-13 -160 -79 -307t-164 -237.5t-199 -90.5q-194 0 -551 86v41q83 -18 275 -18q100 0 229 72t232.5 172.5
t150.5 191.5q-28 101 -55.5 177t-65.5 146t-56.5 100.5t-70.5 108.5l139 150h13q70 -155 129 -249.5t131 -156t154.5 -85t199.5 -23.5zM836 115v-9v9z" />
    <glyph glyph-name="uniFB8F" unicode="&#x6a9;" horiz-adv-x="1970" arabic-form="final" 
d="M1970 205l41 -4v-197l-41 -4q-147 0 -234.5 41t-162.5 152q-37 -58 -123 -101.5t-196 -67t-219.5 -34t-217.5 -10.5q-165 0 -289 18t-204.5 50.5t-130.5 82.5t-70.5 108.5t-20.5 133.5q0 103 32.5 207.5t74.5 150.5l29 -12q-33 -90 -33 -201q0 -68 15 -117t55 -92
t108 -69t176 -41t258 -15q254 0 426 24t258 91l-506 758q0 43 24.5 106t53.5 107l883 368h18l-67 -204l-748 -301l529 -803q52 -74 123 -99.5t159 -25.5z" />
    <glyph glyph-name="uniFB90" unicode="&#x6a9;" horiz-adv-x="1034" arabic-form="initial" 
d="M1096 1638l-68 -204l-739 -299q278 -328 395 -513t117 -337q0 -125 -117.5 -205t-286.5 -80h-397l-41 4v197l41 4h371q192 0 202 1q106 5 119 45q2 7 2 15q0 38 -96 178q-88 139 -235.5 324.5t-245.5 288.5q0 43 24.5 106t53.5 107l882 368h19z" />
    <glyph glyph-name="uniFB91" unicode="&#x6a9;" horiz-adv-x="1132" arabic-form="medial" 
d="M1133 205l41 -4v-197l-41 -4q-151 0 -239.5 42t-164.5 159l-2 4q-51 -78 -163.5 -141.5t-227.5 -63.5h-336l-41 4v197l41 4h330q227 0 336 92l-508 760q0 43 24.5 106t53.5 107l882 368h19l-68 -204l-747 -301l528 -803q36 -51 87.5 -80.5t95.5 -37t100 -7.5z" />
    <glyph glyph-name="uniFB93" unicode="&#x6af;" horiz-adv-x="1970" arabic-form="final" 
d="M1968 1999l-33 -131l-911 -381l16 117l924 397zM1970 205l41 -4v-197l-41 -4q-147 0 -234.5 41t-162.5 152q-37 -58 -123 -101.5t-196 -67t-219.5 -34t-217.5 -10.5q-165 0 -289 18t-204.5 50.5t-130.5 82.5t-70.5 108.5t-20.5 133.5q0 103 32.5 207.5t74.5 150.5l29 -12
q-33 -90 -33 -201q0 -68 15 -117t55 -92t108 -69t176 -41t258 -15q254 0 426 24t258 91l-506 758q0 43 24.5 106t53.5 107l883 368h18l-67 -204l-748 -301l529 -803q52 -74 123 -99.5t159 -25.5z" />
    <glyph glyph-name="uniFB94" unicode="&#x6af;" horiz-adv-x="1034" arabic-form="initial" 
d="M1090 1999l-33 -131l-912 -381l17 117l923 397zM1096 1638l-68 -204l-739 -299q278 -328 395 -513t117 -337q0 -125 -117.5 -205t-286.5 -80h-397l-41 4v197l41 4h371q192 0 202 1q106 5 119 45q2 7 2 15q0 38 -96 178q-88 139 -235.5 324.5t-245.5 288.5q0 43 24.5 106
t53.5 107l882 368h19z" />
    <glyph glyph-name="uniFB95" unicode="&#x6af;" horiz-adv-x="1132" arabic-form="medial" 
d="M1130 1999l-32 -131l-912 -381l17 117l923 397zM1133 205l41 -4v-197l-41 -4q-151 0 -239.5 42t-164.5 159l-2 4q-51 -78 -163.5 -141.5t-227.5 -63.5h-336l-41 4v197l41 4h330q227 0 336 92l-508 760q0 43 24.5 106t53.5 107l882 368h19l-68 -204l-747 -301l528 -803
q36 -51 87.5 -80.5t95.5 -37t100 -7.5z" />
    <glyph glyph-name="uniFB9F" unicode="&#x6ba;" horiz-adv-x="1544" arabic-form="final" 
d="M1544 205l41 -4v-197l-41 -4h-18q-128 0 -244 72v-4q-4 -116 -50.5 -220t-128 -183t-201.5 -125t-261 -46q-241 0 -390 131.5t-149 343.5q0 100 31.5 204.5t75.5 154.5l29 -13q-33 -90 -33 -200q0 -191 119 -293.5t342 -102.5q179 0 308.5 70.5t192.5 200.5
q-11 93 -39 183.5t-52.5 142.5t-74.5 149l146 162h12q81 -118 115 -385q82 -37 252 -37h18z" />
    <glyph glyph-name="uniFBFD" unicode="&#x6cc;" horiz-adv-x="1544" arabic-form="final" 
d="M1544 205l41 -4v-197l-41 -4h-59q-86 0 -162 14q0 -126 -99.5 -246.5t-268.5 -197t-355 -76.5q-237 0 -367.5 129t-130.5 346q0 100 31.5 204.5t75.5 154.5l29 -13q-33 -90 -33 -200q0 -396 420 -396q185 0 342.5 54.5t249.5 160.5q-14 70 -79.5 104.5t-259.5 93.5
q-7 2 -10 3l70 180q316 -110 547 -110h59z" />
    <glyph glyph-name="uniFBFE" unicode="&#x6cc;" horiz-adv-x="491" arabic-form="initial" 
d="M324 106q-61 -50 -153 -78t-171 -28l-41 4v197l41 4q150 0 258 33q-4 164 -34.5 281t-94.5 241l145 162h13q82 -172 82 -576q0 -132 -45 -240zM385 -412l-188 -108l-52 88l-151 -88l-109 188l189 109l51 -88l151 88z" />
    <glyph glyph-name="uniFBFF" unicode="&#x6cc;" horiz-adv-x="765" arabic-form="medial" 
d="M766 205l41 -4l-2 -197l-41 -4h-37q-127 0 -199 31t-133 92q-79 -123 -317 -123h-78l-41 4v197l41 4h61q139 0 242 39l12 305l164 147h13l-58 -444q96 -47 303 -47h29zM301 -311l152 88l108 -189l-188 -108l-51 88l-152 -88l-109 188l189 109z" />
    <glyph glyph-name="uniFE82" unicode="&#x622;" horiz-adv-x="641" arabic-form="final" 
d="M551 1735l14 -9q-96 -155 -172 -155q-25 0 -111 13t-128 13q-38 0 -61 -9t-46 -32l-14 9q37 93 68 127t71 34q35 0 127 -12t117 -12q52 0 78.5 6.5t56.5 26.5zM641 205l41 -4v-197l-41 -4h-76q-81 0 -143 34t-98.5 93.5t-56 131t-23.5 155.5l-43 852l176 188h18
q0 -249 -4 -369l-14 -849q109 -31 264 -31z" />
    <glyph glyph-name="uniFE84" unicode="&#x623;" horiz-adv-x="641" arabic-form="final" 
d="M504 1800l-33 -125q-315 -151 -399 -219q-9 15 -9 51q0 67 111 131q-70 46 -70 103q0 47 46 116t110 121t111 52q26 0 40.5 -15t14.5 -39q0 -26 -15.5 -67.5t-35.5 -67.5h-4q-15 31 -52 31q-32 0 -75 -30.5t-43 -51.5q0 -23 44 -43t99 -25q126 62 156 80zM641 205l41 -4
v-197l-41 -4h-76q-81 0 -143 34t-98.5 93.5t-56 131t-23.5 155.5l-43 852l176 188h18q0 -249 -4 -369l-14 -849q109 -31 264 -31z" />
    <glyph glyph-name="uniFE86" unicode="&#x624;" horiz-adv-x="1069" arabic-form="final" 
d="M762 1214l-33 -124q-312 -150 -399 -220q-8 13 -8 52q0 68 110 131q-70 46 -70 102q0 47 46 116t110 121t111 52q26 0 40.5 -14.5t14.5 -38.5q0 -27 -15.5 -68.5t-35.5 -67.5h-4q-15 31 -51 31q-32 0 -75.5 -30.5t-43.5 -51.5q0 -23 44 -42.5t99 -24.5q126 62 156 80z
M1069 205l41 -4v-197l-41 -4h-162q-24 -149 -89.5 -279t-157.5 -210t-187 -80q-194 0 -551 86v41q88 -19 275 -19q81 0 181 46.5t186.5 115.5t157 150t99.5 149q-229 0 -363 26t-190.5 78.5t-56.5 139.5q0 85 32.5 184.5t84.5 183t124.5 139.5t145.5 56q128 0 216.5 -160.5
t100.5 -441.5h154zM313 289q39 -43 159 -63.5t353 -20.5q-20 151 -106 269t-174 118q-76 0 -141 -88.5t-91 -214.5z" />
    <glyph glyph-name="uniFE88" unicode="&#x625;" horiz-adv-x="641" arabic-form="final" 
d="M641 205l41 -4v-197l-41 -4q-203 0 -295 95.5t-102 318.5l-43 1056l176 189h18q0 -249 -4 -369l-14 -1054q97 -31 264 -31zM420 -430q121 59 155 80l5 -2l-33 -125q-317 -152 -400 -219q-8 13 -8 51q0 67 111 131q-70 46 -70 102q0 47 45.5 116t109.5 121t111 52
q26 0 41 -14.5t15 -38.5q0 -26 -15.5 -67.5t-35.5 -67.5h-5q-15 30 -51 30q-32 0 -75.5 -30t-43.5 -51q0 -23 44.5 -43t99.5 -25z" />
    <glyph glyph-name="uniFE8A" unicode="&#x626;" horiz-adv-x="1544" arabic-form="final" 
d="M422 713l-33 -125q-315 -151 -399 -219q-8 13 -8 51q0 68 110 131q-69 46 -69 102q0 47 45.5 116t109.5 121t111 52q26 0 40.5 -14.5t14.5 -38.5q0 -27 -15.5 -68t-35.5 -67h-4q-15 30 -51 30q-32 0 -75.5 -30.5t-43.5 -51.5q0 -23 44 -42.5t99 -24.5q126 62 156 80z
M1544 205l41 -4v-197l-41 -4h-59q-86 0 -162 14q0 -126 -99.5 -246.5t-268.5 -197t-355 -76.5q-237 0 -367.5 129t-130.5 346q0 100 31.5 204.5t75.5 154.5l29 -13q-33 -90 -33 -200q0 -396 420 -396q185 0 342.5 54.5t249.5 160.5q-14 70 -79.5 104.5t-259.5 93.5
q-7 2 -10 3l70 180q316 -110 547 -110h59z" />
    <glyph glyph-name="uniFE8B" unicode="&#x626;" horiz-adv-x="491" arabic-form="initial" 
d="M397 1311l4 -2l-32 -125q-317 -152 -400 -219q-8 13 -8 51q0 67 111 131q-70 46 -70 102q0 47 45.5 116t109.5 121t111 52q26 0 41 -14.5t15 -38.5q0 -26 -16 -67.5t-36 -67.5h-4q-15 30 -51 30q-32 0 -75.5 -30.5t-43.5 -51.5q0 -23 44 -42.5t100 -24.5q121 59 155 80z
M274 922h13q82 -172 82 -576q0 -132 -45 -240q-61 -50 -153 -78t-171 -28l-41 4v197l41 4q150 0 258 33q-4 164 -34.5 281t-94.5 241z" />
    <glyph glyph-name="uniFE8C" unicode="&#x626;" horiz-adv-x="765" arabic-form="medial" 
d="M602 1063l-33 -125q-315 -151 -399 -219q-8 13 -8 51q0 68 110 131q-69 46 -69 103q0 47 45.5 116t109.5 120.5t111 51.5q26 0 40.5 -14.5t14.5 -38.5q0 -27 -15.5 -68t-35.5 -67h-4q-15 31 -51 31q-32 0 -75.5 -30.5t-43.5 -51.5q0 -23 44 -43t99 -25q126 62 156 80z
M766 205l41 -4l-2 -197l-41 -4h-37q-127 0 -199 31t-133 92q-79 -123 -317 -123h-78l-41 4v197l41 4h61q139 0 242 39l12 305l164 147h13l-58 -444q96 -47 303 -47h29z" />
    <glyph glyph-name="uniFE8E" unicode="&#x627;" horiz-adv-x="641" arabic-form="final" 
d="M641 205l41 -4v-197l-41 -4q-203 0 -295 95.5t-102 318.5l-43 1056l176 189h18q0 -249 -4 -369l-14 -1054q97 -31 264 -31z" />
    <glyph glyph-name="uniFE90" unicode="&#x628;" horiz-adv-x="1763" arabic-form="final" 
d="M1763 205l41 -4l-2 -197l-41 -4h-37q-129 0 -199 31.5t-134 95.5q-65 -81 -217 -114t-381 -33q-196 0 -333 27t-214 80t-110.5 122.5t-33.5 163.5q0 103 32.5 207.5t74.5 150.5l29 -12q-33 -90 -33 -201q0 -68 15 -117t55 -92t108 -69t176 -41t258 -15q300 0 483 64
l13 301l164 147h12l-57 -444q96 -47 303 -47h28zM643 -352l188 108l109 -188l-188 -109z" />
    <glyph glyph-name="uniFE91" unicode="&#x628;" horiz-adv-x="491" arabic-form="initial" 
d="M274 922h13q82 -172 82 -576q0 -132 -45 -240q-61 -50 -153 -78t-171 -28l-41 4v197l41 4q150 0 258 33q-4 164 -34.5 281t-94.5 241zM-14 -332l188 109l109 -189l-189 -108z" />
    <glyph glyph-name="uniFE92" unicode="&#x628;" horiz-adv-x="765" arabic-form="medial" 
d="M766 205l41 -4l-2 -197l-41 -4h-37q-127 0 -199 31t-133 92q-79 -123 -317 -123h-78l-41 4v197l41 4h61q139 0 242 39l12 305l164 147h13l-58 -444q96 -47 303 -47h29zM162 -332l188 109l109 -189l-189 -108z" />
    <glyph glyph-name="uniFE94" unicode="&#x629;" horiz-adv-x="1046" arabic-form="final" 
d="M756 1372l-152 -88l-108 189l188 108l51 -88l152 88l108 -188l-188 -109zM1047 205l40 -4v-195l-40 -6q-179 0 -266 69.5t-105 206.5l-76 -139q-177 16 -315 72t-183 115q-5 68 16 150t64 128q70 72 195.5 152.5t294.5 156.5v129l116 101h17v-697q0 -137 57 -188t185 -51
zM248 481q38 -45 163 -82t261 -45v342q-145 -35 -265.5 -93t-158.5 -122z" />
    <glyph glyph-name="uniFE96" unicode="&#x62a;" horiz-adv-x="1763" arabic-form="final" 
d="M848 864l-152 -88l-108 189l188 108l51 -88l152 88l108 -188l-188 -109zM1763 205l41 -4l-2 -197l-41 -4h-37q-129 0 -199 31.5t-134 95.5q-65 -81 -217 -114t-381 -33q-196 0 -333 27t-214 80t-110.5 122.5t-33.5 163.5q0 103 32.5 207.5t74.5 150.5l29 -12
q-33 -90 -33 -201q0 -68 15 -117t55 -92t108 -69t176 -41t258 -15q300 0 483 64l13 301l164 147h12l-57 -444q96 -47 303 -47h28z" />
    <glyph glyph-name="uniFE97" unicode="&#x62a;" horiz-adv-x="491" arabic-form="initial" 
d="M207 1192l-152 -88l-108 188l188 109l51 -88l152 88l108 -189l-188 -108zM274 922h13q82 -172 82 -576q0 -132 -45 -240q-61 -50 -153 -78t-171 -28l-41 4v197l41 4q150 0 258 33q-4 164 -34.5 281t-94.5 241z" />
    <glyph glyph-name="uniFE98" unicode="&#x62a;" horiz-adv-x="765" arabic-form="medial" 
d="M408 946l-152 -88l-109 189l189 108l51 -88l152 88l108 -188l-188 -109zM766 205l41 -4l-2 -197l-41 -4h-37q-127 0 -199 31t-133 92q-79 -123 -317 -123h-78l-41 4v197l41 4h61q139 0 242 39l12 305l164 147h13l-58 -444q96 -47 303 -47h29z" />
    <glyph glyph-name="uniFE9A" unicode="&#x62b;" horiz-adv-x="1763" arabic-form="final" 
d="M1020 1190l-189 -109l-108 187l188 108zM848 874l-152 -88l-108 187l188 108l51 -88l152 88l108 -186l-188 -109zM1763 205l41 -4l-2 -197l-41 -4h-37q-129 0 -199 31.5t-134 95.5q-65 -81 -217 -114t-381 -33q-196 0 -333 27t-214 80t-110.5 122.5t-33.5 163.5
q0 103 32.5 207.5t74.5 150.5l29 -12q-33 -90 -33 -201q0 -68 15 -117t55 -92t108 -69t176 -41t258 -15q300 0 483 64l13 301l164 147h12l-57 -444q96 -47 303 -47h28z" />
    <glyph glyph-name="uniFE9B" unicode="&#x62b;" horiz-adv-x="491" arabic-form="initial" 
d="M379 1518l-189 -109l-108 186l188 109zM207 1202l-152 -88l-108 186l188 109l51 -88l152 88l108 -186l-188 -109zM274 922h13q82 -172 82 -576q0 -132 -45 -240q-61 -50 -153 -78t-171 -28l-41 4v197l41 4q150 0 258 33q-4 164 -34.5 281t-94.5 241z" />
    <glyph glyph-name="uniFE9C" unicode="&#x62b;" horiz-adv-x="765" arabic-form="medial" 
d="M580 1272l-189 -109l-108 187l188 108zM408 956l-152 -88l-109 187l189 108l51 -88l152 88l108 -186l-188 -109zM766 205l41 -4l-2 -197l-41 -4h-37q-127 0 -199 31t-133 92q-79 -123 -317 -123h-78l-41 4v197l41 4h61q139 0 242 39l12 305l164 147h13l-58 -444
q96 -47 303 -47h29z" />
    <glyph glyph-name="uniFE9E" unicode="&#x62c;" horiz-adv-x="1613" arabic-form="final" 
d="M1614 205l41 -4v-197l-41 -4h-103q-187 0 -294 104.5t-117 301.5q-105 -24 -214 -62t-226 -99t-207 -132.5t-148.5 -168t-58.5 -200.5q0 -73 28 -143t91 -134.5t153 -112.5t224 -77t296 -29q229 0 392 58l14 -27q-149 -116 -290 -169.5t-304 -53.5q-179 0 -317.5 49.5
t-225 139t-130.5 208t-44 262.5q0 109 24.5 203t81 183.5t145 163.5t220.5 138.5t303 112.5q-21 7 -87 29.5t-93.5 31t-83.5 25t-90.5 24t-79 13.5t-82.5 6q-138 0 -231 -61l-27 26q120 246 293 246q76 0 153 -27.5t174 -75t158 -69.5q147 -50 234 -66t225 -16l6 -6
l-100 -168q-16 0 -62 -4q13 -97 102.5 -158t215.5 -61h82zM809 -313l-109 188l189 109l108 -189z" />
    <glyph glyph-name="uniFE9F" unicode="&#x62c;" horiz-adv-x="1415" arabic-form="initial" 
d="M1348 479l6 -6l-101 -168q-122 -9 -237 -44t-208.5 -78t-195 -85t-239.5 -70t-299 -28h-74l-41 4v197l41 4h94q132 0 256.5 20.5t207 46.5t193 55.5t205.5 41.5q-22 7 -114.5 39.5t-131.5 44.5t-110.5 32.5t-126 28.5t-104.5 8q-139 0 -232 -61l-26 26
q58 119 128.5 182.5t163.5 63.5q76 0 153 -27.5t174.5 -75t158.5 -69.5q147 -50 234 -66t225 -16zM678 -291l188 109l109 -189l-189 -108z" />
    <glyph glyph-name="uniFEA0" unicode="&#x62c;" horiz-adv-x="1654" arabic-form="medial" 
d="M1655 205l41 -4v-197l-41 -4h-283q-153 0 -229.5 57t-93.5 205q-90 -17 -180 -52t-164 -69.5t-160.5 -67t-206 -53t-264.5 -20.5h-74l-41 4v197l41 4h94q132 0 256.5 20.5t207 46.5t193 55.5t205.5 41.5q-22 7 -114.5 39.5t-131.5 44.5t-110.5 32.5t-126 28.5t-104.5 8
q-139 0 -232 -61l-26 26q58 119 128.5 182.5t163.5 63.5q76 0 153 -27.5t174.5 -75t158.5 -69.5q147 -50 234 -66t225 -16l6 -6l-101 -168q-11 0 -57 4q7 -56 63.5 -80t133.5 -24h262zM678 -291l188 109l109 -189l-189 -108z" />
    <glyph glyph-name="uniFEA2" unicode="&#x62d;" horiz-adv-x="1613" arabic-form="final" 
d="M1614 205l41 -4v-197l-41 -4h-103q-187 0 -294 104.5t-117 301.5q-105 -24 -214 -62t-226 -99t-207 -132.5t-148.5 -168t-58.5 -200.5q0 -73 28 -143t91 -134.5t153 -112.5t224 -77t296 -29q229 0 392 58l14 -27q-149 -116 -290 -169.5t-304 -53.5q-179 0 -317.5 49.5
t-225 139t-130.5 208t-44 262.5q0 109 24.5 203t81 183.5t145 163.5t220.5 138.5t303 112.5q-21 7 -87 29.5t-93.5 31t-83.5 25t-90.5 24t-79 13.5t-82.5 6q-138 0 -231 -61l-27 26q120 246 293 246q76 0 153 -27.5t174 -75t158 -69.5q147 -50 234 -66t225 -16l6 -6
l-100 -168q-16 0 -62 -4q13 -97 102.5 -158t215.5 -61h82z" />
    <glyph glyph-name="uniFEA3" unicode="&#x62d;" horiz-adv-x="1415" arabic-form="initial" 
d="M1348 479l6 -6l-101 -168q-122 -9 -237 -44t-208.5 -78t-195 -85t-239.5 -70t-299 -28h-74l-41 4v197l41 4h94q132 0 256.5 20.5t207 46.5t193 55.5t205.5 41.5q-22 7 -114.5 39.5t-131.5 44.5t-110.5 32.5t-126 28.5t-104.5 8q-139 0 -232 -61l-26 26
q58 119 128.5 182.5t163.5 63.5q76 0 153 -27.5t174.5 -75t158.5 -69.5q147 -50 234 -66t225 -16z" />
    <glyph glyph-name="uniFEA4" unicode="&#x62d;" horiz-adv-x="1654" arabic-form="medial" 
d="M1655 205l41 -4v-197l-41 -4h-283q-153 0 -229.5 57t-93.5 205q-90 -17 -180 -52t-164 -69.5t-160.5 -67t-206 -53t-264.5 -20.5h-74l-41 4v197l41 4h94q132 0 256.5 20.5t207 46.5t193 55.5t205.5 41.5q-22 7 -114.5 39.5t-131.5 44.5t-110.5 32.5t-126 28.5t-104.5 8
q-139 0 -232 -61l-26 26q58 119 128.5 182.5t163.5 63.5q76 0 153 -27.5t174.5 -75t158.5 -69.5q147 -50 234 -66t225 -16l6 -6l-101 -168q-11 0 -57 4q7 -56 63.5 -80t133.5 -24h262z" />
    <glyph glyph-name="uniFEA6" unicode="&#x62e;" horiz-adv-x="1613" arabic-form="final" 
d="M711 1186l-189 -109l-108 189l188 108zM1614 205l41 -4v-197l-41 -4h-103q-187 0 -294 104.5t-117 301.5q-105 -24 -214 -62t-226 -99t-207 -132.5t-148.5 -168t-58.5 -200.5q0 -73 28 -143t91 -134.5t153 -112.5t224 -77t296 -29q229 0 392 58l14 -27
q-149 -116 -290 -169.5t-304 -53.5q-179 0 -317.5 49.5t-225 139t-130.5 208t-44 262.5q0 109 24.5 203t81 183.5t145 163.5t220.5 138.5t303 112.5q-21 7 -87 29.5t-93.5 31t-83.5 25t-90.5 24t-79 13.5t-82.5 6q-138 0 -231 -61l-27 26q120 246 293 246q76 0 153 -27.5
t174 -75t158 -69.5q147 -50 234 -66t225 -16l6 -6l-100 -168q-16 0 -62 -4q13 -97 102.5 -158t215.5 -61h82z" />
    <glyph glyph-name="uniFEA7" unicode="&#x62e;" horiz-adv-x="1415" arabic-form="initial" 
d="M688 1063l-188 -109l-109 189l189 108zM1348 479l6 -6l-101 -168q-122 -9 -237 -44t-208.5 -78t-195 -85t-239.5 -70t-299 -28h-74l-41 4v197l41 4h94q132 0 256.5 20.5t207 46.5t193 55.5t205.5 41.5q-22 7 -114.5 39.5t-131.5 44.5t-110.5 32.5t-126 28.5t-104.5 8
q-139 0 -232 -61l-26 26q58 119 128.5 182.5t163.5 63.5q76 0 153 -27.5t174.5 -75t158.5 -69.5q147 -50 234 -66t225 -16z" />
    <glyph glyph-name="uniFEA8" unicode="&#x62e;" horiz-adv-x="1654" arabic-form="medial" 
d="M688 1063l-188 -109l-109 189l189 108zM1655 205l41 -4v-197l-41 -4h-283q-153 0 -229.5 57t-93.5 205q-90 -17 -180 -52t-164 -69.5t-160.5 -67t-206 -53t-264.5 -20.5h-74l-41 4v197l41 4h94q132 0 256.5 20.5t207 46.5t193 55.5t205.5 41.5q-22 7 -114.5 39.5
t-131.5 44.5t-110.5 32.5t-126 28.5t-104.5 8q-139 0 -232 -61l-26 26q58 119 128.5 182.5t163.5 63.5q76 0 153 -27.5t174.5 -75t158.5 -69.5q147 -50 234 -66t225 -16l6 -6l-101 -168q-11 0 -57 4q7 -56 63.5 -80t133.5 -24h262z" />
    <glyph glyph-name="uniFEAA" unicode="&#x62f;" horiz-adv-x="1118" arabic-form="final" 
d="M1118 205l41 -4v-197l-41 -4h-37q-133 0 -254 139q-81 -84 -164 -116.5t-206 -32.5q-193 0 -294.5 61.5t-101.5 184.5q0 153 107 276l29 -12q-33 -85 -33 -140q0 -155 338 -155q138 0 252 35q-32 48 -76 135q-50 100 -121.5 273.5t-89.5 211.5l151 164h11q25 -74 69 -207
q45 -137 66 -198.5t55.5 -150t57 -123t57 -75t70.5 -53t83 -12.5h31z" />
    <glyph glyph-name="uniFEAC" unicode="&#x630;" horiz-adv-x="1118" arabic-form="final" 
d="M649 1333l-188 -108l-109 188l189 109zM1118 205l41 -4v-197l-41 -4h-37q-133 0 -254 139q-81 -84 -164 -116.5t-206 -32.5q-193 0 -294.5 61.5t-101.5 184.5q0 153 107 276l29 -12q-33 -85 -33 -140q0 -155 338 -155q138 0 252 35q-32 48 -76 135q-50 100 -121.5 273.5
t-89.5 211.5l151 164h11q25 -74 69 -207q45 -137 66 -198.5t55.5 -150t57 -123t57 -75t70.5 -53t83 -12.5h31z" />
    <glyph glyph-name="uniFEAE" unicode="&#x631;" horiz-adv-x="1327" arabic-form="final" 
d="M1327 205l41 -4v-197l-41 -4q-248 0 -412 127q-13 -160 -79 -307t-164 -237.5t-199 -90.5q-194 0 -551 86v41q83 -18 275 -18q100 0 229 72t232.5 172.5t150.5 191.5q-28 101 -55.5 177t-65.5 146t-56.5 100.5t-70.5 108.5l139 150h13q70 -155 129 -249.5t131 -156
t154.5 -85t199.5 -23.5zM836 115v-9v9z" />
    <glyph glyph-name="uniFEB0" unicode="&#x632;" horiz-adv-x="1327" arabic-form="final" 
d="M752 1034l-189 -108l-108 188l188 109zM1327 205l41 -4v-197l-41 -4q-248 0 -412 127q-13 -160 -79 -307t-164 -237.5t-199 -90.5q-194 0 -551 86v41q83 -18 275 -18q100 0 229 72t232.5 172.5t150.5 191.5q-28 101 -55.5 177t-65.5 146t-56.5 100.5t-70.5 108.5l139 150
h13q70 -155 129 -249.5t131 -156t154.5 -85t199.5 -23.5zM836 115v-9v9z" />
    <glyph glyph-name="uniFEB2" unicode="&#x633;" horiz-adv-x="2455" arabic-form="final" 
d="M2456 205l41 -4v-197l-41 -4q-164 0 -293 82q-35 -44 -87.5 -63t-140.5 -19q-103 0 -163 18.5t-107 65.5q-61 -84 -215 -84q-94 0 -174 39q-45 -254 -212 -399.5t-423 -145.5q-241 0 -390 131.5t-149 343.5q0 100 31.5 204.5t75.5 154.5l29 -13q-33 -90 -33 -200
q0 -191 119 -293.5t342 -102.5q192 0 327 81t191 229q-15 58 -27 102t-26 83.5t-21.5 61.5t-23.5 56t-22 46.5t-28 53.5t-30 57l122 138h13q69 -139 139 -391q48 -31 154 -31h18h19.5t18.5 0.5t20.5 2t19.5 4.5t22.5 8t22.5 11l14 293l164 148h12l-57 -439
q44 -19 78.5 -23.5t97.5 -4.5q78 0 116.5 5t67.5 21l-34 437l161 147h13l-8 -579q87 -31 256 -31z" />
    <glyph glyph-name="uniFEB3" unicode="&#x633;" horiz-adv-x="1490" arabic-form="initial" 
d="M1397 815h12l-10 -647q0 -29 -21 -64q-39 -63 -96 -83.5t-145 -20.5q-100 0 -160 18t-113 66q-34 -46 -95.5 -65t-158.5 -19q-126 0 -187.5 16t-107.5 62q-94 -78 -288 -78h-27l-41 4v197l41 4h16q150 0 242 35l18 186l164 147h13l-62 -340q77 -28 244 -28q88 0 139 18
l17 301l163 148h13l-58 -434q85 -33 197 -33q105 0 164 22l-35 441z" />
    <glyph glyph-name="uniFEB4" unicode="&#x633;" horiz-adv-x="1656" arabic-form="medial" 
d="M1657 205l41 -4v-197l-41 -4q-164 0 -293 82q-39 -51 -92 -66.5t-135 -15.5q-100 0 -160 18t-113 66q-34 -46 -95.5 -65t-158.5 -19q-126 0 -187.5 16t-107.5 62q-94 -78 -288 -78h-27l-41 4v197l41 4h16q160 0 240 28l20 193l164 147h13l-64 -344q44 -16 93 -20t153 -4
q84 0 139 14l17 305l163 148h13l-58 -441q29 -13 63 -19t53 -6.5t60 -0.5q113 0 185 22l-35 441l162 147h12l-10 -586q34 -12 81 -17.5t77.5 -6t99.5 -0.5z" />
    <glyph glyph-name="uniFEB6" unicode="&#x634;" horiz-adv-x="2455" arabic-form="final" 
d="M1872 1227l-189 -109l-108 187l188 108zM1700 911l-152 -88l-108 187l188 108l51 -88l152 88l108 -186l-188 -109zM2456 205l41 -4v-197l-41 -4q-164 0 -293 82q-35 -44 -87.5 -63t-140.5 -19q-103 0 -163 18.5t-107 65.5q-61 -84 -215 -84q-94 0 -174 39
q-45 -254 -212 -399.5t-423 -145.5q-241 0 -390 131.5t-149 343.5q0 100 31.5 204.5t75.5 154.5l29 -13q-33 -90 -33 -200q0 -191 119 -293.5t342 -102.5q192 0 327 81t191 229q-15 58 -27 102t-26 83.5t-21.5 61.5t-23.5 56t-22 46.5t-28 53.5t-30 57l122 138h13
q69 -139 139 -391q48 -31 154 -31h18h19.5t18.5 0.5t20.5 2t19.5 4.5t22.5 8t22.5 11l14 293l164 148h12l-57 -439q44 -19 78.5 -23.5t97.5 -4.5q78 0 116.5 5t67.5 21l-34 437l161 147h13l-8 -579q87 -31 256 -31z" />
    <glyph glyph-name="uniFEB7" unicode="&#x634;" horiz-adv-x="1490" arabic-form="initial" 
d="M1073 1227l-188 -109l-109 187l189 108zM901 911l-151 -88l-109 187l188 108l52 -88l151 88l109 -186l-189 -109zM1397 815h12l-10 -647q0 -29 -21 -64q-39 -63 -96 -83.5t-145 -20.5q-100 0 -160 18t-113 66q-34 -46 -95.5 -65t-158.5 -19q-126 0 -187.5 16t-107.5 62
q-94 -78 -288 -78h-27l-41 4v197l41 4h16q150 0 242 35l18 186l164 147h13l-62 -340q77 -28 244 -28q88 0 139 18l17 301l163 148h13l-58 -434q85 -33 197 -33q105 0 164 22l-35 441z" />
    <glyph glyph-name="uniFEB8" unicode="&#x634;" horiz-adv-x="1656" arabic-form="medial" 
d="M1073 1227l-188 -109l-109 187l189 108zM901 911l-151 -88l-109 187l188 108l52 -88l151 88l109 -186l-189 -109zM1657 205l41 -4v-197l-41 -4q-164 0 -293 82q-39 -51 -92 -66.5t-135 -15.5q-100 0 -160 18t-113 66q-34 -46 -95.5 -65t-158.5 -19q-126 0 -187.5 16
t-107.5 62q-94 -78 -288 -78h-27l-41 4v197l41 4h16q160 0 240 28l20 193l164 147h13l-64 -344q44 -16 93 -20t153 -4q84 0 139 14l17 305l163 148h13l-58 -441q29 -13 63 -19t53 -6.5t60 -0.5q113 0 185 22l-35 441l162 147h12l-10 -586q34 -12 81 -17.5t77.5 -6t99.5 -0.5
z" />
    <glyph glyph-name="uniFEBA" unicode="&#x635;" horiz-adv-x="2875" arabic-form="final" 
d="M2875 205l41 -4v-197l-41 -4h-26q-172 0 -230 147q-71 -69 -175.5 -108t-231.5 -39h-381q-198 0 -324.5 29.5t-218.5 97.5q-25 -294 -197.5 -463.5t-449.5 -169.5q-241 0 -390 131.5t-149 343.5q0 100 31.5 204.5t75.5 154.5l29 -13q-33 -90 -33 -200q0 -191 119 -293.5
t342 -102.5q192 0 326 80t190 226q-22 140 -60.5 243.5t-103.5 214.5l129 144h12q77 -179 152.5 -266t191.5 -123q71 53 167 140t171 153.5t162 132t178 101.5t182 36q163 0 267 -112.5t104 -274.5q0 -91 -41 -168q65 -41 166 -41h16zM1831 205h311q348 0 463 96
q-19 136 -90 209.5t-223 73.5q-82 0 -152.5 -19.5t-135.5 -60t-115.5 -80.5t-128 -103.5t-136.5 -105.5q74 -10 207 -10z" />
    <glyph glyph-name="uniFEBB" unicode="&#x635;" horiz-adv-x="1990" arabic-form="initial" 
d="M1538 801q163 0 267 -112.5t104 -274.5q0 -174 -147 -294t-376 -120h-659q-127 0 -199 31t-133 92q-79 -123 -317 -123h-78l-41 4v197l41 4h61q139 0 242 39l12 305l164 147h13l-58 -444q60 -34 205 -45q76 55 175 143.5t178.5 160.5t169.5 141.5t185.5 109t190.5 39.5z
M784 205h533q348 0 463 96q-19 135 -90 209t-224 74q-83 0 -154.5 -20.5t-137 -61.5t-118 -82.5t-131 -106t-141.5 -108.5z" />
    <glyph glyph-name="uniFEBC" unicode="&#x635;" horiz-adv-x="2050" arabic-form="medial" 
d="M2050 205l41 -4v-197l-41 -4h-27q-171 0 -229 147q-71 -69 -175.5 -108t-232.5 -39h-659q-127 0 -199 31t-133 92q-79 -123 -317 -123h-78l-41 4v197l41 4h61q139 0 242 39l12 305l164 147h13l-58 -444q60 -34 205 -45q76 55 175 143.5t178.5 160.5t169.5 141.5
t185.5 109t190.5 39.5q163 0 267 -112.5t104 -274.5q0 -91 -41 -168q65 -41 166 -41h16zM784 205h533q348 0 463 96q-19 135 -90 209t-224 74q-83 0 -154.5 -20.5t-137 -61.5t-118 -82.5t-131 -106t-141.5 -108.5z" />
    <glyph glyph-name="uniFEBE" unicode="&#x636;" horiz-adv-x="2875" arabic-form="final" 
d="M2511 1130l-189 -108l-108 188l188 109zM2875 205l41 -4v-197l-41 -4h-26q-172 0 -230 147q-71 -69 -175.5 -108t-231.5 -39h-381q-198 0 -324.5 29.5t-218.5 97.5q-25 -294 -197.5 -463.5t-449.5 -169.5q-241 0 -390 131.5t-149 343.5q0 100 31.5 204.5t75.5 154.5
l29 -13q-33 -90 -33 -200q0 -191 119 -293.5t342 -102.5q192 0 326 80t190 226q-22 140 -60.5 243.5t-103.5 214.5l129 144h12q77 -179 152.5 -266t191.5 -123q71 53 167 140t171 153.5t162 132t178 101.5t182 36q163 0 267 -112.5t104 -274.5q0 -91 -41 -168
q65 -41 166 -41h16zM1831 205h311q348 0 463 96q-19 136 -90 209.5t-223 73.5q-82 0 -152.5 -19.5t-135.5 -60t-115.5 -80.5t-128 -103.5t-136.5 -105.5q74 -10 207 -10z" />
    <glyph glyph-name="uniFEBF" unicode="&#x636;" horiz-adv-x="1990" arabic-form="initial" 
d="M1686 1130l-189 -108l-108 188l188 109zM1538 801q163 0 267 -112.5t104 -274.5q0 -174 -147 -294t-376 -120h-659q-127 0 -199 31t-133 92q-79 -123 -317 -123h-78l-41 4v197l41 4h61q139 0 242 39l12 305l164 147h13l-58 -444q60 -34 205 -45q76 55 175 143.5
t178.5 160.5t169.5 141.5t185.5 109t190.5 39.5zM784 205h533q348 0 463 96q-19 135 -90 209t-224 74q-83 0 -154.5 -20.5t-137 -61.5t-118 -82.5t-131 -106t-141.5 -108.5z" />
    <glyph glyph-name="uniFEC0" unicode="&#x636;" horiz-adv-x="2050" arabic-form="medial" 
d="M1686 1130l-189 -108l-108 188l188 109zM2050 205l41 -4v-197l-41 -4h-27q-171 0 -229 147q-71 -69 -175.5 -108t-232.5 -39h-659q-127 0 -199 31t-133 92q-79 -123 -317 -123h-78l-41 4v197l41 4h61q139 0 242 39l12 305l164 147h13l-58 -444q60 -34 205 -45
q76 55 175 143.5t178.5 160.5t169.5 141.5t185.5 109t190.5 39.5q163 0 267 -112.5t104 -274.5q0 -91 -41 -168q65 -41 166 -41h16zM784 205h533q348 0 463 96q-19 135 -90 209t-224 74q-83 0 -154.5 -20.5t-137 -61.5t-118 -82.5t-131 -106t-141.5 -108.5z" />
    <glyph glyph-name="uniFEC2" unicode="&#x637;" horiz-adv-x="1894" arabic-form="final" 
d="M1894 205l41 -4v-197l-41 -4h-26q-172 0 -230 147q-71 -69 -175.5 -108t-231.5 -39h-381q-469 0 -563 35l-236 184l12 37q200 -48 394 -51q25 73 35 148.5t10 201.5v748q-51 73 -51 141q0 21 6.5 37t27.5 37l138 141h12v-103q21 -49 64.5 -95.5t86.5 -76.5v-12l-151 -162
v-520q0 -98 -3 -150.5t-21 -126.5t-54 -149q62 51 158.5 140t165.5 148.5t155 122t172.5 94.5t173.5 32q163 0 267 -112.5t104 -274.5q0 -91 -41 -168q65 -41 166 -41h16zM629 205h532q348 0 463 96q-19 136 -90 209.5t-223 73.5q-83 0 -154.5 -20.5t-137 -61.5t-118 -82.5
t-131 -106t-141.5 -108.5z" />
    <glyph glyph-name="uniFEC3" unicode="&#x637;" horiz-adv-x="1626" arabic-form="initial" 
d="M1174 801q162 0 266 -112.5t104 -274.5q0 -174 -146.5 -294t-375.5 -120h-1022l-41 4v197l41 4h252q25 73 35 148.5t10 201.5v748q-51 73 -51 141q0 39 35 74l137 141h12v-103q21 -49 65 -95.5t87 -76.5v-12l-152 -162v-520q0 -136 -13.5 -223t-62.5 -197q63 50 158 137
t164 146.5t154 121.5t171.5 94t172.5 32zM420 205h532q348 0 463 96q-19 136 -90 209.5t-223 73.5q-83 0 -154.5 -20.5t-137 -61.5t-118 -82.5t-131 -106t-141.5 -108.5z" />
    <glyph glyph-name="uniFEC4" unicode="&#x637;" horiz-adv-x="1685" arabic-form="medial" 
d="M1686 205l40 -4v-197l-40 -4h-27q-171 0 -229 147q-71 -69 -175.5 -108t-232.5 -39h-1022l-41 4v197l41 4h252q25 73 35 148.5t10 201.5v748q-51 73 -51 141q0 39 35 74l137 141h12v-103q21 -49 65 -95.5t87 -76.5v-12l-152 -162v-520q0 -136 -13.5 -223t-62.5 -197
q63 50 158 137t164 146.5t154 121.5t171.5 94t172.5 32q162 0 266 -112.5t104 -274.5q0 -91 -41 -168q65 -41 166 -41h17zM420 205h532q348 0 463 96q-19 136 -90 209.5t-223 73.5q-83 0 -154.5 -20.5t-137 -61.5t-118 -82.5t-131 -106t-141.5 -108.5z" />
    <glyph glyph-name="uniFEC6" unicode="&#x638;" horiz-adv-x="1894" arabic-form="final" 
d="M1894 205l41 -4v-197l-41 -4h-26q-172 0 -230 147q-71 -69 -175.5 -108t-231.5 -39h-381q-469 0 -563 35l-236 184l12 37q200 -48 394 -51q25 73 35 148.5t10 201.5v748q-51 73 -51 141q0 21 6.5 37t27.5 37l138 141h12v-103q21 -49 64.5 -95.5t86.5 -76.5v-12l-151 -162
v-520q0 -98 -3 -150.5t-21 -126.5t-54 -149q62 51 158.5 140t165.5 148.5t155 122t172.5 94.5t173.5 32q163 0 267 -112.5t104 -274.5q0 -91 -41 -168q65 -41 166 -41h16zM1530 1130l-189 -108l-108 188l188 109zM629 205h532q348 0 463 96q-19 136 -90 209.5t-223 73.5
q-83 0 -154.5 -20.5t-137 -61.5t-118 -82.5t-131 -106t-141.5 -108.5z" />
    <glyph glyph-name="uniFEC7" unicode="&#x638;" horiz-adv-x="1626" arabic-form="initial" 
d="M1174 801q162 0 266 -112.5t104 -274.5q0 -174 -146.5 -294t-375.5 -120h-1022l-41 4v197l41 4h252q25 73 35 148.5t10 201.5v748q-51 73 -51 141q0 39 35 74l137 141h12v-103q21 -49 65 -95.5t87 -76.5v-12l-152 -162v-520q0 -136 -13.5 -223t-62.5 -197q63 50 158 137
t164 146.5t154 121.5t171.5 94t172.5 32zM1321 1130l-188 -108l-109 188l188 109zM420 205h532q348 0 463 96q-19 136 -90 209.5t-223 73.5q-83 0 -154.5 -20.5t-137 -61.5t-118 -82.5t-131 -106t-141.5 -108.5z" />
    <glyph glyph-name="uniFEC8" unicode="&#x638;" horiz-adv-x="1685" arabic-form="medial" 
d="M1686 205l40 -4v-197l-40 -4h-27q-171 0 -229 147q-71 -69 -175.5 -108t-232.5 -39h-1022l-41 4v197l41 4h252q25 73 35 148.5t10 201.5v748q-51 73 -51 141q0 39 35 74l137 141h12v-103q21 -49 65 -95.5t87 -76.5v-12l-152 -162v-520q0 -136 -13.5 -223t-62.5 -197
q63 50 158 137t164 146.5t154 121.5t171.5 94t172.5 32q162 0 266 -112.5t104 -274.5q0 -91 -41 -168q65 -41 166 -41h17zM1321 1130l-188 -108l-109 188l188 109zM420 205h532q348 0 463 96q-19 136 -90 209.5t-223 73.5q-83 0 -154.5 -20.5t-137 -61.5t-118 -82.5
t-131 -106t-141.5 -108.5z" />
    <glyph glyph-name="uniFECA" unicode="&#x639;" horiz-adv-x="1259" arabic-form="final" 
d="M1317 -694l14 -27q-83 -65 -138 -101t-125.5 -67t-148.5 -43t-182 -12q-250 0 -401.5 131t-151.5 364q0 240 119 402t344 276q-28 32 -77.5 97t-95.5 112t-116 97l39 157q31 9 86.5 35t103.5 47.5t125.5 39t161.5 17.5q133 0 207 -59t74 -174q0 -202 -205 -377
q72 -16 244 -16h66l40 -4v-197l-40 -4h-70q-233 0 -397 104q-191 -114 -264 -168q-211 -158 -230 -321q-2 -17 -2 -35q0 -139 172 -235.5t457 -96.5q228 0 391 58zM543 575q41 -35 95 -106.5t93 -112.5q29 -34 72 -65q223 90 223 209q0 49 -34.5 80.5t-77.5 42t-93 10.5
q-59 0 -107.5 -9.5t-99.5 -26.5t-71 -22z" />
    <glyph glyph-name="uniFECB" unicode="&#x639;" horiz-adv-x="1071" arabic-form="initial" 
d="M997 305l11 -8l-39 -195q-196 -62 -354 -82t-330 -20h-285l-41 4v197l41 4h307q-112 145 -112 276q0 69 34.5 142.5t91 133.5t137.5 99t167 39q106 0 186 -81.5t111 -205.5l-11 -8q-55 36 -141 59t-170 23q-90 0 -167 -37.5t-128 -101.5q40 -104 117 -193t192 -127
q181 22 383 82z" />
    <glyph glyph-name="uniFECC" unicode="&#x639;" horiz-adv-x="987" arabic-form="medial" 
d="M987 205l41 -4v-197l-41 -4h-69q-240 0 -414 115q-109 -55 -229.5 -85t-225.5 -30h-49l-41 6v195l41 4h74q166 0 295 33q-21 25 -60.5 74.5t-62 76t-65.5 67.5t-95 79l39 157q32 9 87 36t103 50t126 41.5t161 18.5q132 0 206.5 -62t74.5 -178q0 -210 -207 -375
q72 -18 246 -18h65zM465 356q30 -35 70 -63q100 43 156.5 101t56.5 120q0 119 -199 119q-56 0 -103 -8.5t-102 -26t-68 -20.5q42 -36 97 -109.5t92 -112.5z" />
    <glyph glyph-name="uniFECE" unicode="&#x63a;" horiz-adv-x="1259" arabic-form="final" 
d="M981 1161l-188 -108l-109 188l188 109zM1317 -694l14 -27q-83 -65 -138 -101t-125.5 -67t-148.5 -43t-182 -12q-250 0 -401.5 131t-151.5 364q0 240 119 402t344 276q-28 32 -77.5 97t-95.5 112t-116 97l39 157q31 9 86.5 35t103.5 47.5t125.5 39t161.5 17.5
q133 0 207 -59t74 -174q0 -202 -205 -377q72 -16 244 -16h66l40 -4v-197l-40 -4h-70q-233 0 -397 104q-191 -114 -264 -168q-211 -158 -230 -321q-2 -17 -2 -35q0 -139 172 -235.5t457 -96.5q228 0 391 58zM543 575q41 -35 95 -106.5t93 -112.5q29 -34 72 -65
q223 90 223 209q0 49 -34.5 80.5t-77.5 42t-93 10.5q-59 0 -107.5 -9.5t-99.5 -26.5t-71 -22z" />
    <glyph glyph-name="uniFECF" unicode="&#x63a;" horiz-adv-x="1071" arabic-form="initial" 
d="M702 1225l-188 -109l-108 189l188 108zM997 305l11 -8l-39 -195q-196 -62 -354 -82t-330 -20h-285l-41 4v197l41 4h307q-112 145 -112 276q0 69 34.5 142.5t91 133.5t137.5 99t167 39q106 0 186 -81.5t111 -205.5l-11 -8q-55 36 -141 59t-170 23q-90 0 -167 -37.5
t-128 -101.5q40 -104 117 -193t192 -127q181 22 383 82z" />
    <glyph glyph-name="uniFED0" unicode="&#x63a;" horiz-adv-x="987" arabic-form="medial" 
d="M709 1167l-189 -108l-108 188l188 109zM987 205l41 -4v-197l-41 -4h-69q-240 0 -414 115q-109 -55 -229.5 -85t-225.5 -30h-49l-41 6v195l41 4h74q166 0 295 33q-21 25 -60.5 74.5t-62 76t-65.5 67.5t-95 79l39 157q32 9 87 36t103 50t126 41.5t161 18.5q132 0 206.5 -62
t74.5 -178q0 -210 -207 -375q72 -18 246 -18h65zM465 356q30 -35 70 -63q100 43 156.5 101t56.5 120q0 119 -199 119q-56 0 -103 -8.5t-102 -26t-68 -20.5q42 -36 97 -109.5t92 -112.5z" />
    <glyph glyph-name="uniFED2" unicode="&#x641;" horiz-adv-x="1869" arabic-form="final" 
d="M1542 1225l-188 -109l-109 189l189 108zM1870 205l41 -4v-197l-41 -4q-337 0 -547 96q-251 -116 -592 -116q-629 0 -629 372q0 93 31 177t76 135l29 -13q-33 -85 -33 -168q0 -149 131 -224t403 -75q249 0 394 37q-138 125 -138 260q0 69 34.5 142.5t91 133.5t137.5 99
t167 39q67 0 120.5 -25.5t86.5 -64t55 -88t30.5 -94.5t8.5 -86q0 -108 -43.5 -180.5t-123.5 -129.5q127 -22 311 -22zM1106 545q64 -164 244 -256q178 69 272 194q-19 92 -88 145.5t-166 53.5q-78 0 -146 -36.5t-116 -100.5z" />
    <glyph glyph-name="uniFED3" unicode="&#x641;" horiz-adv-x="946" arabic-form="initial" 
d="M694 1538l-188 -108l-109 188l189 108zM547 1208q134 0 225.5 -177t91.5 -480q0 -156 -47 -261.5t-151 -170t-257.5 -92t-379.5 -27.5h-29l-41 4v197l41 4h31q287 0 428.5 25t236.5 75q39 54 68 152q-95 -56 -234 -56q-67 0 -130.5 14.5t-118.5 42.5t-88 76.5t-33 110.5
q0 85 32.5 184.5t84.5 183t124.5 139.5t145.5 56zM262 692q41 -41 137.5 -63.5t194.5 -22.5q107 0 176 27q-30 145 -110.5 252.5t-165.5 107.5q-77 0 -141.5 -88t-90.5 -213z" />
    <glyph glyph-name="uniFED4" unicode="&#x641;" horiz-adv-x="1069" arabic-form="medial" 
d="M741 1225l-188 -109l-109 189l189 108zM1069 205l41 -4v-197l-41 -4q-339 0 -549 96q-235 -96 -520 -96l-41 4v197l41 4q196 0 326 20q-131 121 -131 256q0 69 34.5 142.5t91 133.5t137.5 99t167 39q67 0 120.5 -25.5t86.5 -64t55 -88t30.5 -94.5t8.5 -86
q0 -108 -44 -180.5t-124 -129.5q127 -22 311 -22zM305 545q64 -164 244 -256q178 69 272 194q-19 92 -88 145.5t-166 53.5q-78 0 -146 -36.5t-116 -100.5z" />
    <glyph glyph-name="uniFED6" unicode="&#x642;" horiz-adv-x="1439" arabic-form="final" 
d="M983 1098l-152 -88l-108 188l188 109l52 -88l151 88l109 -189l-189 -108zM1440 205l41 -4v-197l-41 -4h-166q-50 -233 -217 -369.5t-416 -136.5q-241 0 -390 131.5t-149 343.5q0 100 31.5 204.5t75.5 154.5l29 -13q-33 -90 -33 -200q0 -191 119 -293.5t342 -102.5
q183 0 311.5 70.5t189.5 210.5q-298 2 -439.5 59.5t-141.5 184.5q0 85 32.5 184.5t84.5 183t124.5 139.5t145.5 56q127 0 218.5 -162t98.5 -440h150zM688 291q83 -83 512 -86q-20 151 -106 269t-174 118q-75 0 -140.5 -88.5t-91.5 -212.5z" />
    <glyph glyph-name="uniFED7" unicode="&#x642;" horiz-adv-x="946" arabic-form="initial" 
d="M557 1499l-151 -88l-109 188l188 109l52 -88l151 88l109 -188l-189 -109zM547 1208q134 0 225.5 -177t91.5 -480q0 -156 -47 -261.5t-151 -170t-257.5 -92t-379.5 -27.5h-29l-41 4v197l41 4h31q287 0 428.5 25t236.5 75q39 54 68 152q-95 -56 -234 -56q-67 0 -130.5 14.5
t-118.5 42.5t-88 76.5t-33 110.5q0 85 32.5 184.5t84.5 183t124.5 139.5t145.5 56zM262 692q41 -41 137.5 -63.5t194.5 -22.5q107 0 176 27q-30 145 -110.5 252.5t-165.5 107.5q-77 0 -141.5 -88t-90.5 -213z" />
    <glyph glyph-name="uniFED8" unicode="&#x642;" horiz-adv-x="1069" arabic-form="medial" 
d="M604 1186l-151 -88l-109 188l188 109l52 -88l151 88l109 -189l-189 -108zM1069 205l41 -4v-197l-41 -4q-339 0 -549 96q-235 -96 -520 -96l-41 4v197l41 4q196 0 326 20q-131 121 -131 256q0 69 34.5 142.5t91 133.5t137.5 99t167 39q67 0 120.5 -25.5t86.5 -64t55 -88
t30.5 -94.5t8.5 -86q0 -108 -44 -180.5t-124 -129.5q127 -22 311 -22zM305 545q64 -164 244 -256q178 69 272 194q-19 92 -88 145.5t-166 53.5q-78 0 -146 -36.5t-116 -100.5z" />
    <glyph glyph-name="uniFEDA" unicode="&#x643;" horiz-adv-x="1763" arabic-form="final" 
d="M1763 205l41 -4l-2 -197l-41 -4h-10q-203 0 -346 137q-84 -72 -268.5 -114.5t-388.5 -42.5q-144 0 -254.5 18t-184.5 51t-120.5 82.5t-66.5 108.5t-20 133q0 103 32.5 207.5t74.5 150.5l29 -12q-33 -90 -33 -201q0 -67 14.5 -117t52.5 -92.5t101.5 -69t163 -41
t235.5 -14.5q328 0 537 62l-29 1224l176 189h19q0 -41 -2.5 -155t-2.5 -214l-16 -1030q120 -55 303 -55h6zM1001 885l-32 -125q-317 -152 -400 -219q-8 13 -8 51q0 67 111 131q-70 46 -70 102q0 47 45.5 116t109.5 121t111 52q26 0 41 -14.5t15 -38.5q0 -26 -16 -67.5
t-36 -67.5h-4q-15 30 -51 30q-32 0 -75.5 -30.5t-43.5 -51.5q0 -23 44 -42.5t100 -24.5q121 59 155 80z" />
    <glyph glyph-name="uniFEDB" unicode="&#x643;" horiz-adv-x="1034" arabic-form="initial" 
d="M1096 1638l-68 -204l-739 -299q278 -328 395 -513t117 -337q0 -125 -117.5 -205t-286.5 -80h-397l-41 4v197l41 4h371q192 0 202 1q106 5 119 45q2 7 2 15q0 38 -96 178q-88 139 -235.5 324.5t-245.5 288.5q0 43 24.5 106t53.5 107l882 368h19z" />
    <glyph glyph-name="uniFEDC" unicode="&#x643;" horiz-adv-x="1132" arabic-form="medial" 
d="M1133 205l41 -4v-197l-41 -4q-151 0 -239.5 42t-164.5 159l-2 4q-51 -78 -163.5 -141.5t-227.5 -63.5h-336l-41 4v197l41 4h330q227 0 336 92l-508 760q0 43 24.5 106t53.5 107l882 368h19l-68 -204l-747 -301l528 -803q36 -51 87.5 -80.5t95.5 -37t100 -7.5z" />
    <glyph glyph-name="uniFEDE" unicode="&#x644;" horiz-adv-x="1572" arabic-form="final" 
d="M1573 205l41 -4l-2 -197l-41 -4q-158 0 -285 104q-99 -610 -657 -610q-233 0 -380 132t-147 343q0 103 32.5 208t74.5 151l29 -13q-33 -90 -33 -200q0 -191 118 -293.5t330 -102.5q165 0 301 61.5t203 176.5l-35 1513l176 189h19q0 -41 -2 -155t-2 -214l-17 -1048
q93 -37 277 -37z" />
    <glyph glyph-name="uniFEDF" unicode="&#x644;" horiz-adv-x="626" arabic-form="initial" 
d="M551 1384v-12l-152 -162l-2 -796q0 -212 -99.5 -313t-297.5 -101l-41 4v197l41 4q158 0 266 31l-6 1075q-45 65 -45 133q0 39 35 74l137 141h12v-103q21 -49 65 -95.5t87 -76.5z" />
    <glyph glyph-name="uniFEE0" unicode="&#x644;" horiz-adv-x="765" arabic-form="medial" 
d="M766 205l41 -4l-2 -197l-41 -4q-140 0 -217.5 26.5t-147.5 96.5q-55 -73 -142 -98t-257 -25l-41 4v197l41 4q206 0 307 39l-24 1226l176 189h18q0 -41 -2 -155t-2 -214l-16 -1048q99 -37 309 -37z" />
    <glyph glyph-name="uniFEE2" unicode="&#x645;" horiz-adv-x="1429" arabic-form="final" 
d="M1430 205l40 -4v-197l-40 -4q-225 0 -322 92l-43 -153q-122 12 -212.5 27.5t-171 40t-130.5 57t-78.5 79.5t-28.5 107q0 62 39 149q-47 -54 -94.5 -105t-90.5 -95t-58 -60q37 -189 80 -381t60 -277t17 -136q0 -65 -28 -110t-113 -120h-18q6 39 6 121q0 92 -40.5 267.5
t-81 347.5t-40.5 258q0 56 127.5 198t294.5 295q118 111 190.5 158t143.5 47q47 0 89.5 -21t73 -51.5t58.5 -76.5t45 -85t32.5 -87.5t22 -73.5t12.5 -54q8 -30 13.5 -45.5t15 -35.5t21 -29t29 -19.5t42.5 -14t58.5 -6.5t79.5 -3zM821 592q-79 0 -146.5 -88.5t-111.5 -220.5
q92 -50 502 -133q-14 24 -29 73q-15 63 -32.5 118.5t-44 117t-62.5 97.5t-76 36z" />
    <glyph glyph-name="uniFEE3" unicode="&#x645;" horiz-adv-x="1097" arabic-form="initial" 
d="M680 797q83 0 161.5 -78.5t126.5 -203t48 -253.5q0 -98 -23.5 -172.5t-64.5 -150.5q-267 36 -412.5 82t-204.5 118q-35 -75 -106.5 -107t-204.5 -32l-41 6v195l41 4h82q70 0 110 11.5t80 45.5q0 84 39.5 180.5t99 174t133 129t136.5 51.5zM664 592q-65 0 -143.5 -91
t-135.5 -214q118 -57 477 -129v16q0 108 -25 203.5t-71 155t-102 59.5z" />
    <glyph glyph-name="uniFEE4" unicode="&#x645;" horiz-adv-x="1271" arabic-form="medial" 
d="M1272 205l41 -4v-197l-41 -4q-230 0 -322 92l-43 -153q-242 25 -389.5 70t-206.5 128q-37 -74 -109 -105.5t-202 -31.5l-41 6v195l41 4h82q70 0 110 11.5t80 45.5q0 100 58.5 227t156 222.5t193.5 95.5q47 0 89.5 -21t73.5 -51.5t58.5 -76.5t44.5 -85t33 -87.5t22.5 -74
t12.5 -53.5q10 -35 16 -52.5t18.5 -38.5t28 -30t42 -18t63.5 -11.5t90 -2.5zM664 592q-66 0 -146.5 -92.5t-132.5 -214.5q82 -48 522 -135q-18 33 -28 73q-15 63 -32.5 118.5t-44 117t-62.5 97.5t-76 36z" />
    <glyph glyph-name="uniFEE6" unicode="&#x646;" horiz-adv-x="1544" arabic-form="final" 
d="M739 705l-188 -109l-109 188l189 109zM1544 205l41 -4v-197l-41 -4h-18q-128 0 -244 72v-4q-4 -116 -50.5 -220t-128 -183t-201.5 -125t-261 -46q-241 0 -390 131.5t-149 343.5q0 100 31.5 204.5t75.5 154.5l29 -13q-33 -90 -33 -200q0 -191 119 -293.5t342 -102.5
q179 0 308.5 70.5t192.5 200.5q-11 93 -39 183.5t-52.5 142.5t-74.5 149l146 162h12q81 -118 115 -385q82 -37 252 -37h18z" />
    <glyph glyph-name="uniFEE7" unicode="&#x646;" horiz-adv-x="491" arabic-form="initial" 
d="M344 1231l-188 -109l-109 189l189 108zM274 922h13q82 -172 82 -576q0 -132 -45 -240q-61 -50 -153 -78t-171 -28l-41 4v197l41 4q150 0 258 33q-4 164 -34.5 281t-94.5 241z" />
    <glyph glyph-name="uniFEE8" unicode="&#x646;" horiz-adv-x="765" arabic-form="medial" 
d="M545 985l-189 -108l-108 188l188 109zM766 205l41 -4l-2 -197l-41 -4h-37q-127 0 -199 31t-133 92q-79 -123 -317 -123h-78l-41 4v197l41 4h61q139 0 242 39l12 305l164 147h13l-58 -444q96 -47 303 -47h29z" />
    <glyph glyph-name="uniFEEA" unicode="&#x647;" horiz-adv-x="1046" arabic-form="final" 
d="M1047 205l40 -4v-195l-40 -6q-179 0 -266 69.5t-105 206.5l-76 -139q-177 16 -315 72t-183 115q-5 68 16 150t64 128q70 72 195.5 152.5t294.5 156.5v129l116 101h17v-697q0 -137 57 -188t185 -51zM248 481q38 -45 163 -82t261 -45v342q-145 -35 -265.5 -93t-158.5 -122z
" />
    <glyph glyph-name="uniFEEB" unicode="&#x647;" horiz-adv-x="1386" arabic-form="initial" 
d="M414 915h16q80 -30 178.5 -51.5t180 -32t166 -22t148.5 -28.5t116 -45t79 -77t27 -120q0 -99 -49.5 -196t-134.5 -173t-209.5 -123t-263.5 -47q-182 0 -269 61q-143 -61 -399 -61l-41 4v197l41 4h201q-70 90 -70 198q0 126 82 235t201 146v131zM678 205h57
q86 0 165.5 22.5t136.5 57.5t100 77t64.5 83t21.5 73q0 22 -15.5 40.5t-48 33t-66.5 25.5t-89.5 22t-97 18t-107.5 17.5t-105 17.5q86 -113 86 -262q0 -130 -102 -225zM479 623q-79 0 -142.5 -51.5t-98.5 -145.5q23 -82 76 -139t128 -80q49 6 116 47.5t120 99.5
q-13 139 -63 204t-136 65z" />
    <glyph glyph-name="uniFEEC" unicode="&#x647;" horiz-adv-x="1101" arabic-form="medial" 
d="M1102 205l41 -4v-197l-41 -4h-217q63 -92 63 -309q0 -121 -108.5 -211t-251.5 -90q-186 0 -302 157.5t-112 452.5h-184l-31 4v197l41 4h188q43 206 171.5 395.5t279.5 282.5q120 -36 192 -151.5t72 -291.5q0 -135 -74 -235h273zM604 672q-219 -187 -287 -467h154
q160 18 217 49.5t57 112.5q0 115 -35 195t-106 110zM844 -332q-5 80 -42.5 158t-92 126t-105.5 48h-299q7 -210 97.5 -308t240.5 -98q149 0 201 74z" />
    <glyph glyph-name="uniFEEE" unicode="&#x648;" horiz-adv-x="1069" arabic-form="final" 
d="M1069 205l41 -4v-197l-41 -4h-162q-24 -149 -89.5 -279t-157.5 -210t-187 -80q-194 0 -551 86v41q88 -19 275 -19q81 0 181 46.5t186.5 115.5t157 150t99.5 149q-229 0 -363 26t-190.5 78.5t-56.5 139.5q0 85 32.5 184.5t84.5 183t124.5 139.5t145.5 56
q128 0 216.5 -160.5t100.5 -441.5h154zM313 289q39 -43 159 -63.5t353 -20.5q-20 151 -106 269t-174 118q-76 0 -141 -88.5t-91 -214.5z" />
    <glyph glyph-name="uniFEF0" unicode="&#x649;" horiz-adv-x="1544" arabic-form="final" 
d="M1544 205l41 -4v-197l-41 -4h-59q-86 0 -162 14q0 -126 -99.5 -246.5t-268.5 -197t-355 -76.5q-237 0 -367.5 129t-130.5 346q0 100 31.5 204.5t75.5 154.5l29 -13q-33 -90 -33 -200q0 -396 420 -396q185 0 342.5 54.5t249.5 160.5q-14 70 -79.5 104.5t-259.5 93.5
q-7 2 -10 3l70 180q316 -110 547 -110h59z" />
    <glyph glyph-name="uniFEF2" unicode="&#x64a;" horiz-adv-x="1544" arabic-form="final" 
d="M1544 205l41 -4v-197l-41 -4h-59q-86 0 -162 14q0 -126 -99.5 -246.5t-268.5 -197t-355 -76.5q-237 0 -367.5 129t-130.5 346q0 100 31.5 204.5t75.5 154.5l29 -13q-33 -90 -33 -200q0 -396 420 -396q185 0 342.5 54.5t249.5 160.5q-14 70 -79.5 104.5t-259.5 93.5
q-7 2 -10 3l70 180q316 -110 547 -110h59zM590 -797l151 88l109 -188l-188 -109l-52 88l-151 -88l-109 189l189 108z" />
    <glyph glyph-name="uniFEF3" unicode="&#x64a;" horiz-adv-x="491" arabic-form="initial" 
d="M324 106q-61 -50 -153 -78t-171 -28l-41 4v197l41 4q150 0 258 33q-4 164 -34.5 281t-94.5 241l145 162h13q82 -172 82 -576q0 -132 -45 -240zM385 -412l-188 -108l-52 88l-151 -88l-109 188l189 109l51 -88l151 88z" />
    <glyph glyph-name="uniFEF4" unicode="&#x64a;" horiz-adv-x="765" arabic-form="medial" 
d="M766 205l41 -4l-2 -197l-41 -4h-37q-127 0 -199 31t-133 92q-79 -123 -317 -123h-78l-41 4v197l41 4h61q139 0 242 39l12 305l164 147h13l-58 -444q96 -47 303 -47h29zM301 -311l152 88l108 -189l-188 -108l-51 88l-152 -88l-109 188l189 109z" />
    <glyph glyph-name=".notdef" horiz-adv-x="1892" 
d="M1552 2458v-3785h-1200v3785h1200zM1260 2204h-625v-125h248v-140h-250v-124h627v124h-250v140h250v125zM1010 1716h-377v-393h627v127h-250v266zM883 1587v-137h-125v137h125zM1260 1221h-627v-125h250v-142h-250v-125h377v267h250v125zM1260 993h-125v-250h-502v-129
h627v379zM1260 530h-377v-211h127v87h125v-177h-377v301h-125v-426h627v426zM1260 -123h-627v-428h627v428zM1135 -248v-178h-377v178h377zM1260 -639h-627v-125h264l-264 -178v-123h627v123h-386l265 178h121v125z" />
    <glyph glyph-name="uni0000" 
 />
    <glyph glyph-name="uni0000" 
 />
    <glyph glyph-name="uni000D" unicode="&#xd;" horiz-adv-x="512" 
 />
    <glyph glyph-name="space" unicode=" " horiz-adv-x="512" 
 />
    <glyph glyph-name="exclam" unicode="!" horiz-adv-x="673" 
d="M283 461l-101 981q-5 42 35.5 68t120.5 26q82 0 121.5 -26.5t34.5 -67.5l-101 -981q-21 -21 -55 -21q-28 0 -55 21zM338 -20q-73 0 -119.5 45.5t-46.5 115.5t46.5 116t119.5 46q69 0 116.5 -46.5t47.5 -115.5t-47.5 -115t-116.5 -46z" />
    <glyph glyph-name="quotedbl" unicode="&#x22;" horiz-adv-x="942" 
d="M256 1006q-20 0 -32.5 14.5t-22.5 52.5q-78 328 -78 377q0 86 133 86t133 -86q0 -49 -78 -377q-10 -38 -22.5 -52.5t-32.5 -14.5zM686 1006q-20 0 -32.5 14.5t-22.5 52.5q-78 328 -78 377q0 86 133 86t133 -86q0 -49 -78 -377q-10 -38 -22.5 -52.5t-32.5 -14.5z" />
    <glyph glyph-name="numbersign" unicode="#" horiz-adv-x="1228" 
d="M1212 1016h-249l-84 -508h249l-18 -107h-250l-67 -401h-109l68 401h-445l-67 -401h-109l68 401h-250l18 107h250l84 508h-250l19 106h249l66 394h109l-66 -394h444l66 394h109l-66 -394h250zM770 508l84 508h-444l-84 -508h444z" />
    <glyph glyph-name="percent" unicode="%" horiz-adv-x="1468" 
d="M334 782q-150 0 -235 103t-85 276q0 172 84.5 272.5t235.5 100.5q148 0 232.5 -102.5t84.5 -274.5t-84.5 -273.5t-232.5 -101.5zM1169 1516h150l-1020 -1516h-149zM328 1470q-68 0 -106.5 -69t-39.5 -207q-1 -159 41.5 -253.5t116.5 -94.5q65 0 104 71t39 209
q0 160 -41.5 252t-113.5 92zM1137 -20q-150 0 -235 102.5t-85 275.5q0 172 84.5 272.5t235.5 100.5q148 0 232.5 -102.5t84.5 -274.5t-84.5 -273t-232.5 -101zM1130 668q-68 0 -106 -69.5t-39 -207.5q-1 -159 41.5 -253.5t116.5 -94.5q65 0 104 71.5t39 209.5q0 160 -42 252
t-114 92z" />
    <glyph glyph-name="ampersand" unicode="&#x26;" horiz-adv-x="1560" 
d="M1593 928v-62q-92 0 -131 -23.5t-49 -88.5q-23 -144 -86 -257.5t-160 -217.5l19 -25q52 -66 92 -94.5t96 -28.5q44 0 87 25.5t69 58.5l45 -35q-50 -91 -129 -145.5t-180 -54.5q-85 0 -147 38t-126 111q-100 -82 -210.5 -115.5t-262.5 -33.5q-213 0 -344 100t-131 274
q0 132 92.5 232t265.5 184q-56 51 -92 90t-68.5 87.5t-47.5 101.5t-15 114q0 161 120.5 267t322.5 106q195 0 310.5 -86.5t115.5 -228.5q0 -118 -90.5 -224t-251.5 -182l69 -59q35 -30 66.5 -60t61.5 -64t49.5 -57t47 -61t38.5 -53t39.5 -57t33.5 -50q152 194 152 400
q0 65 -41.5 88.5t-132.5 23.5v62h503zM618 1438q-113 0 -164 -58t-51 -159q0 -53 14.5 -97t49 -87t68 -75t94.5 -83q116 76 163.5 155t47.5 172q0 119 -52.5 175.5t-169.5 56.5zM256 367q0 -135 82 -196.5t262 -61.5q184 0 326 102q-17 23 -58 80.5t-69 95.5t-78.5 94.5
t-106.5 106.5l-137 119q-125 -78 -173 -157t-48 -183z" />
    <glyph glyph-name="quotesingle" unicode="'" horiz-adv-x="512" 
d="M256 1006q-20 0 -32.5 14.5t-22.5 52.5q-78 328 -78 377q0 86 133 86t133 -86q0 -49 -78 -377q-10 -38 -22.5 -52.5t-32.5 -14.5z" />
    <glyph glyph-name="parenleft" unicode="(" horiz-adv-x="679" 
d="M563 -266q-73 42 -140 100.5t-130 141t-109 178t-74 217.5t-28 254q0 138 27.5 264t73.5 223t109 180.5t130 142t141 101.5q37 -21 55 -61q-147 -129 -224 -347t-77 -503q0 -271 77.5 -486.5t223.5 -343.5q-15 -43 -55 -61z" />
    <glyph glyph-name="parenright" unicode=")" horiz-adv-x="679" 
d="M117 -266q-41 18 -56 61q146 128 223.5 343.5t77.5 486.5q0 285 -77 503t-224 347q18 39 56 61q74 -43 141 -101.5t130 -142t109 -180.5t73.5 -223t27.5 -264q0 -132 -28 -254t-74 -217.5t-109 -178t-130 -141t-140 -100.5z" />
    <glyph glyph-name="asterisk" unicode="*" horiz-adv-x="800" 
d="M684 1137q60 -36 14 -115q-35 -53 -69 -53q-18 0 -35 10l-23 14l-127 125l45 -172q3 -12 3 -26q0 -68 -91 -68q-92 0 -92 70q0 18 2 24l45 172l-125 -125q-2 -2 -22 -14q-17 -10 -35 -10q-35 0 -70 53q-46 79 15 115q9 7 22 10l174 47l-172 47q-12 3 -24 12
q-60 36 -15 111q34 57 72 57q17 0 35 -12q12 -6 20 -14l127 -127l-47 174q-2 6 -2 24q0 70 92 70q91 0 91 -68q0 -14 -3 -26l-45 -174l127 127q7 7 21 14q18 12 35 12q37 0 71 -57q46 -76 -14 -111q-12 -9 -25 -12l-172 -47l175 -47q13 -3 22 -10z" />
    <glyph glyph-name="plus" unicode="+" horiz-adv-x="1228" 
d="M1106 639v-129h-420v-426h-141v426h-422v129h422v428h141v-428h420z" />
    <glyph glyph-name="comma" unicode="," horiz-adv-x="681" 
d="M342 303q71 0 117.5 -49t46.5 -133q0 -94 -56 -195.5t-124 -150.5h-144q123 114 146 205q-68 4 -110 49t-42 112q0 70 46.5 116t119.5 46z" />
    <glyph glyph-name="hyphen" unicode="-" horiz-adv-x="874" 
d="M123 684h629v-199h-629v199z" />
    <glyph glyph-name="period" unicode="." horiz-adv-x="681" 
d="M342 -20q-73 0 -119.5 45.5t-46.5 115.5t46.5 116t119.5 46q69 0 116.5 -46.5t47.5 -115.5t-47.5 -115t-116.5 -46z" />
    <glyph glyph-name="slash" unicode="/" horiz-adv-x="657" 
d="M637 1516l-467 -1782h-150l467 1782h150z" />
    <glyph glyph-name="zero" unicode="0" horiz-adv-x="1337" 
d="M668 -20q-115 0 -216 54t-175.5 151t-118 241.5t-43.5 316.5t43.5 320.5t118 251.5t176 162t215.5 59q115 0 216 -53.5t175.5 -150.5t118 -241t43.5 -315q0 -172 -43.5 -321.5t-118 -253t-176 -162.5t-215.5 -59zM668 1432q-139 0 -225.5 -166.5t-86.5 -456.5
q0 -215 39 -380t110 -255t163 -90q139 0 225 168.5t86 458.5q0 326 -85.5 523.5t-225.5 197.5z" />
    <glyph glyph-name="one" unicode="1" horiz-adv-x="970" 
d="M375 231v979q0 45 -7.5 72t-29.5 49t-66 31.5t-114 9.5v62q203 43 438 102v-1305q0 -43 7.5 -71.5t28.5 -52.5t61.5 -35t103.5 -11v-61h-623v61q63 0 103.5 10.5t61.5 34t28.5 52.5t7.5 73z" />
    <glyph glyph-name="two" unicode="2" horiz-adv-x="1228" 
d="M1065 375h61l-65 -375h-963v29l420 460q160 174 238 312t78 278q0 131 -70.5 205t-206.5 74q-220 0 -395 -205l-41 43q114 170 238.5 255t279.5 85q178 0 284.5 -95t106.5 -251q0 -188 -129 -392.5t-493 -592.5h432q81 0 119 28t106 142z" />
    <glyph glyph-name="three" unicode="3" horiz-adv-x="1228" 
d="M684 881q75 -9 141.5 -37.5t123.5 -77.5t90.5 -127t33.5 -176q0 -136 -78.5 -247t-215 -173.5t-302.5 -62.5q-168 0 -261 51t-93 143q0 53 30 85t78 32q10 0 43.5 -35t70 -77.5t81 -77.5t74.5 -35q166 0 258 89.5t92 245.5q0 172 -103.5 264.5t-275.5 92.5
q-52 0 -125 -13v64q201 91 266 127q176 101 176 235q0 94 -62 145.5t-183 51.5q-78 0 -157 -33t-177 -114l-47 43q91 131 221.5 201.5t265.5 70.5q166 0 264.5 -79.5t98.5 -213.5q0 -63 -25 -117.5t-73 -98.5t-102.5 -78.5t-127.5 -67.5z" />
    <glyph glyph-name="four" unicode="4" horiz-adv-x="1228" 
d="M1176 414h-246v-183q0 -45 5.5 -72t24.5 -52t59 -35.5t105 -10.5v-61h-610v61q65 0 104.5 10.5t59 34.5t25.5 51.5t6 73.5v183h-627v123l733 979h115v-965h246v-137zM233 551h476v641z" />
    <glyph glyph-name="five" unicode="5" horiz-adv-x="1228" 
d="M612 936q197 0 319 -120.5t122 -311.5q0 -155 -78 -276t-208.5 -184.5t-289.5 -63.5q-168 0 -261 51t-93 143q0 53 30 85t78 32q12 0 61.5 -50.5t109.5 -101.5t98 -51q158 0 243.5 83t85.5 251q0 175 -82.5 272t-246.5 97q-129 0 -279 -84l82 809h733l11 -13l-27 -192
h-627l-41 -434q115 59 260 59z" />
    <glyph glyph-name="six" unicode="6" horiz-adv-x="1228" 
d="M682 909q178 0 284.5 -123t106.5 -329q0 -204 -139 -340.5t-348 -136.5q-220 0 -356 154t-136 405q0 376 234.5 647.5t623.5 349.5l29 -53q-276 -117 -432.5 -285t-206.5 -412q71 59 161 91t179 32zM582 78q117 0 192.5 83t75.5 251q0 167 -73.5 255.5t-203.5 88.5
q-136 0 -249 -86q-7 -75 -7 -135q0 -210 73.5 -333.5t191.5 -123.5z" />
    <glyph glyph-name="seven" unicode="7" horiz-adv-x="1228" 
d="M164 1516h880v-29l-557 -1487h-211l-12 25l635 1286h-514q-81 0 -119 -28t-106 -142h-62z" />
    <glyph glyph-name="eight" unicode="8" horiz-adv-x="1228" 
d="M780 836q59 -34 103.5 -66t88.5 -75t72 -89t45 -107t17 -130q0 -182 -125.5 -285.5t-359.5 -103.5q-242 0 -377 98.5t-135 275.5q0 58 19 111.5t46.5 94t74 83.5t86 73t97.5 68q-63 39 -105.5 73.5t-81 80t-57 101.5t-18.5 124q0 160 124 266.5t327 106.5
q193 0 317.5 -94.5t124.5 -235.5q0 -113 -78.5 -208t-204.5 -162zM616 1438q-118 0 -181.5 -60t-63.5 -157q0 -27 5 -52.5t11.5 -45.5t22.5 -41t26.5 -35t35 -33t37.5 -28.5t44.5 -28t45.5 -26t51.5 -27.5t51.5 -27q160 123 160 315q0 117 -64 181.5t-182 64.5zM618 78
q287 0 287 229q0 50 -10.5 92.5t-35 79t-48.5 63.5t-67 57t-74.5 49.5t-85.5 49.5l-74 41q-199 -149 -199 -372q0 -142 78.5 -215.5t228.5 -73.5z" />
    <glyph glyph-name="nine" unicode="9" horiz-adv-x="1228" 
d="M582 1536q222 0 356.5 -153.5t134.5 -405.5q0 -247 -106 -456t-300.5 -349t-451.5 -192l-29 53q276 117 432.5 284.5t206.5 411.5q-71 -59 -161 -91t-179 -32q-178 0 -284.5 123.5t-106.5 329.5q0 204 139.5 340.5t348.5 136.5zM594 760q137 0 250 86q6 64 6 135
q0 210 -73 333.5t-191 123.5q-117 0 -193 -83.5t-76 -250.5t73.5 -255.5t203.5 -88.5z" />
    <glyph glyph-name="colon" unicode=":" horiz-adv-x="681" 
d="M342 819q-73 0 -119.5 46t-46.5 116t46.5 116t119.5 46q69 0 116.5 -46.5t47.5 -115.5t-47.5 -115.5t-116.5 -46.5zM342 -20q-73 0 -119.5 45.5t-46.5 115.5t46.5 116t119.5 46q69 0 116.5 -46.5t47.5 -115.5t-47.5 -115t-116.5 -46z" />
    <glyph glyph-name="semicolon" unicode=";" horiz-adv-x="673" 
d="M338 819q-73 0 -119.5 46t-46.5 116t46.5 116t119.5 46q69 0 116.5 -46.5t47.5 -115.5t-47.5 -115.5t-116.5 -46.5zM338 303q71 0 117.5 -49t46.5 -133q0 -94 -56 -195.5t-124 -150.5h-144q123 114 146 205q-68 4 -110 49t-42 112q0 70 46.5 116t119.5 46z" />
    <glyph glyph-name="equal" unicode="=" horiz-adv-x="1228" 
d="M123 844h983v-129h-983v129zM123 434h983v-129h-983v129z" />
    <glyph glyph-name="question" unicode="?" horiz-adv-x="1042" 
d="M307 1536q149 0 278 -83t200 -204.5t71 -242.5q0 -54 -13.5 -91t-49.5 -65t-62.5 -41.5t-88.5 -38.5q-12 -5 -19 -8q-17 -7 -47 -19t-44.5 -18t-38 -17.5t-35 -19.5t-26.5 -21.5t-22 -27t-12 -31.5t-5 -39q0 -65 43 -147q-23 -14 -49 -14q-23 0 -41 14q-44 61 -71 144
t-27 161q0 24 4.5 45.5t16 39t22 31.5t31.5 27.5t34.5 22t42 20t42 16.5t46.5 16.5t45 15.5q16 6 45 16t46 16t40.5 15.5t37 17.5t27.5 18.5t20 21.5t6 24q0 29 -31.5 61t-87 60.5t-144 47.5t-190.5 19q-115 0 -115 129t121 129zM418 -20q-73 0 -119.5 45.5t-46.5 115.5
t46.5 116t119.5 46q69 0 116.5 -46.5t47.5 -115.5t-47.5 -115t-116.5 -46z" />
    <glyph glyph-name="at" unicode="@" horiz-adv-x="1654" 
d="M580 252q0 296 639 375v67q0 169 -74.5 242.5t-241.5 73.5q-278 0 -443 -190t-165 -513q0 -313 174.5 -488t507.5 -175q157 0 316 39t280 118l35 -43q-52 -44 -91 -73t-105.5 -67.5t-132.5 -61t-160.5 -38.5t-200.5 -16q-193 0 -350.5 57.5t-264 161t-164 249.5
t-57.5 321q0 166 48 307t129.5 240t190 169t228.5 103t246 33q233 0 364 -101.5t131 -298.5v-501q0 -144 99 -144q42 0 88 21l22 -35q-99 -104 -213 -104q-74 0 -123.5 36t-66.5 107q-172 -146 -357 -146q-140 0 -214 71.5t-74 203.5zM793 276q0 -78 38.5 -121.5
t131.5 -43.5q145 0 256 106v324q-87 -13 -148.5 -26t-117.5 -34t-89 -48t-52 -66.5t-19 -90.5z" />
    <glyph glyph-name="A" unicode="A" horiz-adv-x="1560" 
d="M821 1516l522 -1317q25 -57 44.5 -83.5t57 -40.5t103.5 -14v-61h-571v61q91 0 122 12.5t31 47.5q0 28 -18 78l-111 282h-630l-103 -282q-18 -49 -18 -82q0 -31 35 -43.5t131 -12.5v-61h-461v61q93 0 127 27t65 111l441 1204q-47 51 -139 51v62h372zM408 588h553l-289 733
z" />
    <glyph glyph-name="B" unicode="B" horiz-adv-x="1538" 
d="M1061 803q381 -71 381 -369q0 -92 -38 -172.5t-112 -144t-193.5 -100.5t-271.5 -37q-61 0 -167 10t-177 10h-340v61q65 0 104.5 10.5t59 34.5t25.5 51.5t6 73.5v1053q0 98 -41 134t-154 36v62h197q91 0 225.5 7t188.5 7q285 0 425 -101t140 -280q0 -240 -258 -346z
M559 1403v-574h277q258 0 258 285q0 150 -81 230.5t-272 80.5q-96 0 -182 -22zM1217 416v6q0 161 -92 231t-302 70h-264v-492q0 -85 10 -112q125 -31 269 -31q379 0 379 328z" />
    <glyph glyph-name="C" unicode="C" horiz-adv-x="1556" 
d="M897 -20q-232 0 -403.5 96t-261 271t-89.5 409t89.5 409t266.5 273t423 98q143 0 273 -33t206 -73l-17 -349h-61q-24 172 -142.5 259t-295.5 87q-240 0 -372 -155.5t-132 -423.5q0 -353 151.5 -546t442.5 -193q228 0 424 96l35 -58q-121 -90 -249.5 -128.5t-287.5 -38.5z
" />
    <glyph glyph-name="D" unicode="D" horiz-adv-x="1835" 
d="M831 1536q402 0 631.5 -210.5t229.5 -565.5q0 -173 -54.5 -318.5t-153 -247t-240.5 -158t-312 -56.5q-72 0 -281 10t-270 10h-238v61q106 0 150.5 44t44.5 133v1040q0 89 -44.5 132.5t-150.5 43.5v62h252q120 0 249.5 10t186.5 10zM1454 678q0 184 -51.5 326.5
t-146.5 233t-226 137t-293 46.5q-97 0 -178 -18v-1247q181 -68 373 -68q239 0 380.5 160.5t141.5 429.5z" />
    <glyph glyph-name="E" unicode="E" horiz-adv-x="1439" 
d="M961 1409h-402v-606h270q35 0 64 4t59 16.5t50.5 33t33.5 56t13 82.5h61v-493h-61q0 194 -220 194h-270v-590h402q44 0 87 14.5t83 44.5t65 84t25 124h61v-373h-1139v59q106 0 150.5 45t44.5 134v1040q0 89 -44.5 133.5t-150.5 44.5v60h1139v-373h-61q0 70 -25 124
t-65 83.5t-83 44t-87 14.5z" />
    <glyph glyph-name="F" unicode="F" horiz-adv-x="1302" 
d="M1282 1516v-373h-61q0 70 -25 124t-65 83.5t-83 44t-87 14.5h-402v-641h270q45 0 80 7.5t69 27t52.5 59.5t18.5 99h61v-494h-61q0 195 -220 195h-270v-431q0 -46 5.5 -72.5t24.5 -51.5t59 -35.5t106 -10.5v-61h-611v61q65 0 104.5 10.5t59 34.5t25.5 51.5t6 73.5v1047
q0 89 -44.5 133.5t-150.5 44.5v60h1139z" />
    <glyph glyph-name="G" unicode="G" horiz-adv-x="1599" 
d="M995 684h576v-61q-43 0 -73 -8t-47 -20.5t-26 -36t-11.5 -46.5t-2.5 -59v-379q-229 -94 -491 -94q-365 0 -571 210t-206 566q0 234 89.5 409t266.5 273t423 98q280 0 487 -106l-16 -349h-62q-45 346 -465 346q-237 0 -361 -154.5t-124 -424.5q0 -351 161.5 -555.5
t448.5 -204.5q100 0 199 18v347q0 46 -6 73.5t-25.5 51.5t-59 34.5t-104.5 10.5v61z" />
    <glyph glyph-name="H" unicode="H" horiz-adv-x="1912" 
d="M1769 1516v-62q-66 0 -106 -10.5t-58.5 -35.5t-24 -51.5t-5.5 -72.5v-1053q0 -46 5.5 -72.5t24 -51.5t58.5 -35.5t106 -10.5v-61h-610v61q65 0 104.5 10.5t59 34.5t25.5 51.5t6 73.5v467h-795v-467q0 -46 5.5 -72.5t24.5 -51.5t59 -35.5t106 -10.5v-61h-611v61
q65 0 104.5 10.5t59 34.5t25.5 51.5t6 73.5v1053q0 46 -6 73.5t-25.5 51.5t-59 34.5t-104.5 10.5v62h611v-62q-66 0 -106 -10.5t-59 -35.5t-24.5 -51.5t-5.5 -72.5v-479h795v479q0 46 -6 73.5t-25.5 51.5t-59 34.5t-104.5 10.5v62h610z" />
    <glyph glyph-name="I" unicode="I" horiz-adv-x="897" 
d="M754 1516v-62q-66 0 -106 -10.5t-59 -35.5t-24.5 -51.5t-5.5 -72.5v-1053q0 -46 5.5 -72.5t24.5 -51.5t59 -35.5t106 -10.5v-61h-611v61q65 0 104.5 10.5t59 34.5t25.5 51.5t6 73.5v1053q0 46 -6 73.5t-25.5 51.5t-59 34.5t-104.5 10.5v62h611z" />
    <glyph glyph-name="J" unicode="J" horiz-adv-x="823" 
d="M106 1516h611v-62q-66 0 -106 -10.5t-59 -35.5t-24.5 -51.5t-5.5 -72.5v-1089q0 -111 -16.5 -203.5t-42 -155t-64.5 -112t-75.5 -78.5t-84 -51.5t-81 -32.5t-73.5 -21q-17 -4 -24 -6l-26 62q99 42 156.5 113.5t83.5 188t26 298.5v1087q0 46 -6 73.5t-25.5 51.5t-59 34.5
t-104.5 10.5v62z" />
    <glyph glyph-name="K" unicode="K" horiz-adv-x="1544" 
d="M559 1284v-1053q0 -46 5.5 -72.5t24.5 -51.5t59 -35.5t106 -10.5v-61h-611v61q65 0 104.5 10.5t59 34.5t25.5 51.5t6 73.5v1053q0 46 -6 73.5t-25.5 51.5t-59 34.5t-104.5 10.5v62h611v-62q-66 0 -106 -10.5t-59 -35.5t-24.5 -51.5t-5.5 -72.5zM856 866l508 -669
q57 -75 113 -105.5t120 -30.5v-61h-553v61q95 0 95 62q0 42 -41 96l-451 588l477 491q26 27 38 41t23 32.5t11 33.5q0 18 -10 27.5t-45.5 15.5t-104.5 6v62h529v-62q-77 0 -120.5 -17.5t-86.5 -60.5z" />
    <glyph glyph-name="L" unicode="L" horiz-adv-x="1349" 
d="M1247 424h62v-424h-1166v59q106 0 150.5 45t44.5 134v1046q0 46 -6 73.5t-25.5 51.5t-59 34.5t-104.5 10.5v62h611v-62q-66 0 -106 -10.5t-59 -35.5t-24.5 -51.5t-5.5 -72.5v-1178h428q35 0 69 9t69.5 32t61.5 57.5t43 91.5t17 128z" />
    <glyph glyph-name="M" unicode="M" horiz-adv-x="2205" 
d="M1862 1284l26 -1053q0 -46 5.5 -72.5t24.5 -51.5t59 -35.5t106 -10.5v-61h-610v61q65 0 104.5 10.5t58.5 34.5t25 51.5t6 73.5l-25 1010l-571 -1241h-51l-561 1260l-25 -1029q0 -46 5.5 -72.5t25.5 -51.5t62.5 -35.5t111.5 -10.5v-61h-533v61q55 0 92 8t58.5 20t33.5 36
t15.5 46t5.5 60l25 1090q0 70 -40.5 101.5t-150.5 31.5v62h443l516 -1149l532 1149h420v-62q-66 0 -106.5 -10.5t-59 -36t-23.5 -51.5t-5 -72z" />
    <glyph glyph-name="N" unicode="N" horiz-adv-x="1816" 
d="M1190 1516h534v-62q-69 0 -111.5 -10.5t-62 -35.5t-25 -51.5t-5.5 -72.5l-9 -1284h-215l-866 1286l-8 -1055q0 -46 5.5 -72.5t25.5 -51.5t62.5 -35.5t111.5 -10.5v-61h-535v61q55 0 92 8t58.5 20t33.5 36t15.5 46t5.5 60l10 1069q0 88 -39.5 121t-152.5 33v62h426
l856 -1266l-2 1034q-2 38 -5.5 60t-15.5 46t-33.5 36t-58.5 20t-92 8v62z" />
    <glyph glyph-name="O" unicode="O" horiz-adv-x="1742" 
d="M870 -20q-332 0 -529.5 211.5t-197.5 564.5q0 355 198 567.5t531 212.5q332 0 529.5 -211.5t197.5 -564.5q0 -235 -89 -411.5t-254 -272.5t-386 -96zM817 1427q-197 0 -316.5 -158t-119.5 -421q0 -227 69 -399.5t195 -266.5t291 -94q190 0 308 160.5t118 423.5
q0 342 -147.5 548.5t-397.5 206.5z" />
    <glyph glyph-name="P" unicode="P" horiz-adv-x="1454" 
d="M705 528h-146v-297q0 -46 5.5 -72.5t24.5 -51.5t59 -35.5t106 -10.5v-61h-611v61q65 0 104.5 10.5t59 34.5t25.5 51.5t6 73.5v1053q0 98 -41 134t-154 36v62h197q91 0 225.5 8t188.5 8q296 0 461 -127.5t165 -364.5q0 -238 -181 -375t-494 -137zM559 1401v-764h162
q223 0 328 85t106 269v8q0 210 -105 316t-309 106q-109 0 -182 -20z" />
    <glyph glyph-name="Q" unicode="Q" horiz-adv-x="1722" 
d="M2159 -168l16 -65q-41 -39 -90 -72.5t-116 -66.5t-152 -52.5t-177 -19.5q-57 0 -113 10t-101 24t-98.5 42.5t-89.5 51t-91.5 65.5t-87.5 69.5t-94.5 80t-96.5 81.5q-330 0 -527.5 213t-197.5 563q0 355 198 567.5t531 212.5q332 0 529.5 -211.5t197.5 -564.5
q0 -311 -151.5 -513.5t-417.5 -252.5q208 -115 277 -144q150 -66 336 -77q57 -4 126 -4q201 0 390 63zM381 848q0 -227 69 -399.5t195 -266.5t291 -94q190 0 308 160.5t118 423.5q0 342 -147.5 548.5t-397.5 206.5q-197 0 -316.5 -158t-119.5 -421z" />
    <glyph glyph-name="R" unicode="R" horiz-adv-x="1544" 
d="M1067 682l246 -453q48 -88 125.5 -128t150.5 -40v-61h-573v61q47 0 68.5 11.5t21.5 40.5q0 9 -2 18t-3.5 15t-7 18t-7.5 15.5t-10.5 19.5t-10.5 20l-219 408q-65 -9 -141 -9h-146v-387q0 -46 5.5 -72.5t24.5 -51.5t59 -35.5t106 -10.5v-61h-611v61q65 0 104.5 10.5
t59 34.5t25.5 51.5t6 73.5v1053q0 98 -41 134t-154 36v62h197q91 0 225.5 7t188.5 7q291 0 448.5 -118t157.5 -325q0 -137 -75.5 -241t-217.5 -164zM559 725h225q181 0 265 78.5t86 234.5v9q0 181 -98 279.5t-296 98.5q-96 0 -182 -22v-678z" />
    <glyph glyph-name="S" unicode="S" horiz-adv-x="1249" 
d="M549 -20q-55 0 -107 4.5t-86.5 10t-78.5 17t-60 16.5t-56 19.5t-44 15.5l16 375h62q26 -182 120.5 -267t262.5 -85q160 0 247.5 60.5t87.5 170.5q0 104 -83 184t-257 163q-228 112 -318.5 216t-90.5 250q0 191 125.5 298.5t357.5 107.5q103 0 187.5 -15t167.5 -42.5
t88 -28.5l-17 -348h-61q-23 162 -119 245t-246 83q-138 0 -214.5 -60.5t-76.5 -165.5q0 -60 21 -107t76 -95t128.5 -91.5t198.5 -107.5q181 -88 258.5 -182t77.5 -218q0 -202 -146.5 -312.5t-420.5 -110.5z" />
    <glyph glyph-name="T" unicode="T" horiz-adv-x="1331" 
d="M1311 1516v-386h-62q-26 97 -49 153.5t-51 84t-54 34.5t-71 7h-248v-1171q0 -46 5.5 -72.5t23.5 -51.5t56.5 -35.5t101.5 -10.5v-68h-596v68q42 0 73.5 4.5t52 15.5t33 24t19 34t8.5 41t2 51v1171h-250q-45 0 -70.5 -7t-53.5 -35t-50.5 -84t-48.5 -153h-62v386h1291z" />
    <glyph glyph-name="U" unicode="U" horiz-adv-x="1665" 
d="M1100 1516h524v-62q-68 0 -109.5 -10.5t-61 -35.5t-25 -51.5t-5.5 -72.5v-745q0 -284 -145 -421.5t-420 -137.5q-273 0 -433.5 138t-160.5 400v766q0 46 -6 73.5t-25 51.5t-58.5 34.5t-104.5 10.5v62h610v-62q-66 0 -106 -10.5t-59 -35.5t-24.5 -51.5t-5.5 -72.5v-725
q0 -205 112 -330t306 -125q204 0 300.5 114.5t96.5 324.5v741q0 46 -6 73.5t-26 51.5t-61 34.5t-107 10.5v62z" />
    <glyph glyph-name="V" unicode="V" horiz-adv-x="1378" 
d="M1012 1516h456v-62q-94 0 -128.5 -26.5t-63.5 -110.5l-485 -1317h-183l-495 1317q-10 28 -13 37t-11.5 28.5t-14 25t-16.5 17t-22.5 14.5t-29 8t-38.5 6t-50 1v62h571v-62q-80 0 -120.5 -13t-40.5 -46q0 -29 18 -78l410 -1098l399 1098q19 52 19 82q0 31 -33.5 43
t-128.5 12v62z" />
    <glyph glyph-name="W" unicode="W" horiz-adv-x="2252" 
d="M1923 1516h420v-62q-88 0 -121.5 -27t-62.5 -110l-459 -1317h-182l-381 1069l-373 -1069h-182l-469 1317q-27 76 -41 95q-27 35 -102 40q-22 2 -52 2v62h571v-62q-79 0 -120 -13t-41 -46q0 -29 18 -78l383 -1086l291 846q37 100 37 191q0 85 -44.5 135.5t-158.5 50.5v62
h571v-62q-82 0 -121.5 -12t-39.5 -47q0 -36 18 -78l383 -1086l373 1086q18 50 18 82q0 31 -29.5 43t-103.5 12v62z" />
    <glyph glyph-name="X" unicode="X" horiz-adv-x="1595" 
d="M922 797l381 -533q35 -47 61 -77.5t61.5 -62.5t74 -47.5t81.5 -15.5v-61h-672v61q84 0 126 35t42 74q0 33 -19.5 69t-66.5 101l-225 313l-320 -385q-57 -69 -57 -114q0 -93 129 -93v-61h-504v61q42 0 78 13t70.5 44.5t56 56t61.5 74.5q10 13 15 19l395 490l-375 520
q-66 95 -122 135.5t-150 40.5v62h700v-62q-200 0 -200 -76q0 -33 15 -64t50 -79l238 -334l287 346q57 68 57 115q0 92 -129 92v62h504v-62q-20 0 -38.5 -2.5t-37 -11t-31.5 -14t-32 -22.5t-27.5 -23.5t-29 -30t-26.5 -31t-29.5 -36.5t-29.5 -36z" />
    <glyph glyph-name="Y" unicode="Y" horiz-adv-x="1337" 
d="M989 1516h400v-62q-19 0 -33.5 -2.5t-29.5 -12.5t-23.5 -16.5t-24.5 -28t-23.5 -33t-29.5 -44.5l-422 -651v-435q0 -46 5.5 -72.5t24 -51.5t58.5 -35.5t106 -10.5v-61h-610v61q65 0 104.5 10.5t59 34.5t25.5 51.5t6 73.5v394l-457 692q-31 43 -47 62.5t-40 40t-48.5 27.5
t-59.5 7v62h572v-62q-164 0 -164 -68q0 -32 41 -94l352 -532l348 536q43 66 43 103q0 30 -32.5 42.5t-100.5 12.5v62z" />
    <glyph glyph-name="Z" unicode="Z" horiz-adv-x="1415" 
d="M1235 434h63v-434h-1153v94l897 1315h-430q-58 0 -104 -8t-91 -30t-77.5 -58t-57.5 -94.5t-36 -137.5h-62v435h1104v-113l-872 -1297h454q74 0 129.5 14t105.5 48.5t83 101t47 164.5z" />
    <glyph glyph-name="bracketleft" unicode="[" horiz-adv-x="665" 
d="M383 1427v-1605h221q15 -45 0 -88h-432v1782h432q15 -43 0 -89h-221z" />
    <glyph glyph-name="backslash" unicode="\" horiz-adv-x="657" 
d="M20 1516h150l467 -1782h-150z" />
    <glyph glyph-name="bracketright" unicode="]" horiz-adv-x="665" 
d="M61 -178h222v1605h-222q-15 46 0 89h433v-1782h-433q-15 43 0 88z" />
    <glyph glyph-name="asciicircum" unicode="^" horiz-adv-x="806" 
d="M336 1516h135l311 -418h-200l-195 278l-197 -278h-165z" />
    <glyph glyph-name="underscore" unicode="_" horiz-adv-x="854" 
d="M-20 0h894v-178h-894v178z" />
    <glyph glyph-name="a" unicode="a" horiz-adv-x="1171" 
d="M1122 119l23 -35q-94 -104 -213 -104q-73 0 -123.5 37.5t-67.5 105.5q-163 -146 -362 -146q-133 0 -208 69t-75 181q0 317 639 400v67q0 164 -66.5 240t-207.5 76q-133 0 -301 -82l-29 45q94 79 209 124.5t229 45.5q174 0 270.5 -105t96.5 -295v-501q0 -144 98 -144
q42 0 88 21zM487 111q151 0 248 104v326q-160 -24 -254 -61t-133 -86.5t-39 -121.5q0 -161 178 -161z" />
    <glyph glyph-name="b" unicode="b" horiz-adv-x="1302" 
d="M842 1143q176 0 267 -131.5t91 -368.5q0 -319 -176.5 -491t-505.5 -172q-39 0 -78 3.5t-75.5 11t-58.5 12.5t-55 14t-38 10v1261q0 91 -36.5 124.5t-121.5 33.5v59q134 34 359 123v-661q126 84 201 118q120 54 227 54zM674 80q90 0 162 66.5t110.5 174.5t38.5 232
q0 104 -13.5 179t-45.5 133t-88.5 87t-137.5 29q-155 0 -286 -94v-715q151 -92 260 -92z" />
    <glyph glyph-name="c" unicode="c" horiz-adv-x="1071" 
d="M102 545q0 284 144.5 441t406.5 157q161 0 272 -61.5t111 -151.5q0 -43 -25.5 -68.5t-68.5 -25.5q-33 0 -61 15.5t-46.5 39t-41.5 51t-45.5 51t-59.5 39t-82 15.5q-126 0 -209.5 -109t-83.5 -289q-4 -243 114 -388.5t318 -145.5q126 0 275 75l35 -43
q-80 -80 -190.5 -123.5t-231.5 -43.5q-240 0 -385.5 154t-145.5 411z" />
    <glyph glyph-name="d" unicode="d" horiz-adv-x="1339" 
d="M1092 1632v-1313q0 -91 36 -124t121 -33v-60q-139 -36 -358 -122v174q-1 -1 -26.5 -18t-32.5 -21.5t-34.5 -22t-40.5 -24t-41.5 -21.5t-47 -22t-47.5 -17.5t-52.5 -15t-52 -8.5t-55.5 -4q-176 0 -267.5 131t-91.5 368q0 319 176.5 491.5t505.5 172.5q53 0 107 -13v162
q0 91 -36.5 124.5t-121.5 33.5v59q134 34 359 123zM602 141q160 0 289 97v712q-152 92 -262 92q-90 0 -162.5 -66.5t-111 -174.5t-38.5 -232q0 -104 13.5 -179t45.5 -133t88.5 -87t137.5 -29z" />
    <glyph glyph-name="e" unicode="e" horiz-adv-x="1150" 
d="M1059 690v-98h-746q2 -115 38 -207t95.5 -150t136 -89t162.5 -31q126 0 275 75l35 -43q-73 -73 -181 -120t-241 -47q-111 0 -207 36.5t-168.5 106t-114 178t-41.5 244.5q0 145 39.5 260t109.5 188.5t164 111.5t206 38q97 0 173.5 -26t125.5 -69t81 -102.5t45 -122.5
t13 -133zM313 686h482q31 0 44 13t13 40q0 145 -66.5 226.5t-199.5 81.5q-118 0 -192 -87t-81 -274z" />
    <glyph glyph-name="f" unicode="f" horiz-adv-x="788" 
d="M678 1632q84 0 158.5 -22.5t122 -66t47.5 -97.5q0 -44 -27 -72t-68 -28q-32 0 -60 19.5t-51 47.5l-46 56t-54 47.5t-67 19.5q-82 0 -122 -82.5t-40 -220.5v-111h348v-121h-348v-804q0 -39 15 -67.5t39.5 -42.5t48.5 -20t49 -6v-61h-504v61q25 0 49 6t48 20t39 42.5
t15 67.5v804h-233v80l233 56v96q0 79 24 149t71.5 127t128 90t184.5 33z" />
    <glyph glyph-name="g" unicode="g" horiz-adv-x="1222" 
d="M1251 1143v-174q-159 20 -276 41q92 -103 92 -244q0 -165 -121 -268t-328 -107q-146 -18 -213 -67t-67 -97q0 -38 46 -60t130 -22h299q171 0 271 -77.5t100 -212.5q0 -169 -169 -260t-460 -91q-506 0 -506 232q0 49 17 88.5t52.5 70.5t72 52t92.5 47q-99 46 -99 153
q0 85 65 155t177 112q-136 37 -212.5 131t-76.5 225q0 168 126.5 270.5t340.5 102.5q156 0 266 -58q60 8 199.5 30.5t181.5 27.5zM610 481q242 0 242 281q0 136 -63.5 214.5t-192.5 78.5q-122 0 -183 -72t-61 -209q0 -138 64 -215.5t194 -77.5zM696 -41h-196q-73 0 -138 10
q-110 -68 -110 -188q0 -86 95.5 -139.5t279.5 -53.5q116 0 213.5 25t158 74t60.5 112q0 75 -89 117.5t-274 42.5z" />
    <glyph glyph-name="h" unicode="h" horiz-adv-x="1413" 
d="M1176 764v-567q0 -39 15 -67.5t39 -42.5t48 -20t49 -6v-61h-504v61q25 0 49 6t48.5 20t39.5 42.5t15 67.5v522q0 141 -46.5 214t-152.5 73q-133 0 -317 -121v-688q0 -39 15 -67.5t39 -42.5t48 -20t49 -6v-61h-504v61q25 0 49 6t48.5 20t39.5 42.5t15 67.5v1075
q0 91 -36.5 124.5t-121.5 33.5v59q134 34 359 123v-641q69 44 109 67.5t96.5 51.5t105 40.5t96.5 12.5q310 0 310 -379z" />
    <glyph glyph-name="i" unicode="i" horiz-adv-x="731" 
d="M358 1315q-69 0 -112 42.5t-43 108.5t43 109t112 43q66 0 110 -43t44 -109t-44 -108.5t-110 -42.5zM483 1143v-946q0 -39 15 -67.5t39.5 -42.5t48.5 -20t49 -6v-61h-504v61q25 0 49 6t48.5 20t39.5 42.5t15 67.5v606q0 91 -36.5 124.5t-121.5 33.5v59q131 34 358 123z
" />
    <glyph glyph-name="j" unicode="j" horiz-adv-x="671" 
d="M334 1315q-69 0 -112.5 42.5t-43.5 108.5t43.5 109t112.5 43q66 0 109.5 -43t43.5 -109t-43.5 -108.5t-109.5 -42.5zM100 961v59q134 34 359 123v-948q0 -365 -164 -529q-32 -31 -68.5 -54t-79.5 -38.5t-64.5 -22t-64.5 -16.5l-26 62q98 42 155.5 113.5t84 188
t26.5 298.5v606q0 91 -36.5 124.5t-121.5 33.5z" />
    <glyph glyph-name="k" unicode="k" horiz-adv-x="1284" 
d="M469 1632v-1435q0 -39 15 -67.5t39.5 -42.5t48.5 -20t49 -6v-61h-504v61q25 0 49 6t48 20t39 42.5t15 67.5v1095q0 91 -36 124.5t-121 33.5v59q131 34 358 123zM727 668l399 -471q59 -69 119.5 -102.5t108.5 -33.5v-61h-537v61q96 0 96 64q0 41 -47 94l-354 402l360 284
q72 57 72 107q0 18 -10 27.5t-45.5 15.5t-104.5 6v61h529v-61q-41 0 -82 -16t-68 -34.5t-69 -52.5z" />
    <glyph glyph-name="l" unicode="l" horiz-adv-x="716" 
d="M459 1632v-1435q0 -39 15 -67.5t39 -42.5t48 -20t49 -6v-61h-504v61q25 0 49 6t48.5 20t39.5 42.5t15 67.5v1095q0 91 -36.5 124.5t-121.5 33.5v59q134 34 359 123z" />
    <glyph glyph-name="m" unicode="m" horiz-adv-x="2162" 
d="M1919 764v-567q0 -38 16 -66t41.5 -42.5t50.5 -21t50 -6.5v-61h-508v61q24 0 48 6.5t47.5 20.5t38.5 41.5t15 65.5v524q0 142 -46 214.5t-152 72.5q-78 0 -172 -39.5t-156 -87.5q8 -47 8 -115v-567q0 -39 15 -67.5t39.5 -42.5t48.5 -20t49 -6v-61h-504v61q25 0 49 6
t48 20t39 42.5t15 67.5v522q0 142 -46 214.5t-152 72.5q-134 0 -318 -121v-688q0 -39 15 -67.5t39.5 -42.5t48.5 -20t49 -6v-61h-504v61q25 0 49 6t48.5 20t39.5 42.5t15 67.5v606q0 91 -36.5 124.5t-121.5 33.5v59q131 34 358 123v-172q68 43 109 67t97 52t105 40.5
t97 12.5q215 0 283 -189q140 95 238.5 142t197.5 47q309 0 309 -379z" />
    <glyph glyph-name="n" unicode="n" horiz-adv-x="1437" 
d="M1200 764v-567q0 -39 15 -67.5t39.5 -42.5t48.5 -20t49 -6v-61h-504v61q25 0 49 6t48 20t39 42.5t15 67.5v522q0 142 -46 214.5t-152 72.5q-134 0 -318 -121v-688q0 -39 15 -67.5t39.5 -42.5t48.5 -20t49 -6v-61h-504v61q25 0 49 6t48.5 20t39.5 42.5t15 67.5v606
q0 91 -36.5 124.5t-121.5 33.5v59q131 34 358 123v-172q68 43 109 67t97 52t105 40.5t97 12.5q309 0 309 -379z" />
    <glyph glyph-name="o" unicode="o" horiz-adv-x="1280" 
d="M639 -20q-238 0 -387.5 161.5t-149.5 423.5q0 261 149 419.5t390 158.5q237 0 387 -161.5t150 -422.5q0 -262 -149 -420.5t-390 -158.5zM608 1047q-264 0 -284 -418q-12 -251 84.5 -402t263.5 -151q264 0 284 420q12 254 -84 402.5t-264 148.5z" />
    <glyph glyph-name="p" unicode="p" horiz-adv-x="1337" 
d="M553 -20q-49 0 -104 10v-203q0 -39 15 -67.5t39 -42t48 -19.5t49 -6v-62h-504v62q25 0 49 6t48.5 19.5t39.5 42t15 67.5v1016q0 91 -36.5 124.5t-121.5 33.5v59q134 34 359 123v-172q126 84 201 118q120 54 227 54q176 0 267 -131.5t91 -368.5q0 -319 -176.5 -491
t-505.5 -172zM449 887v-715q151 -92 260 -92q90 0 162 66.5t110.5 174.5t38.5 232q0 104 -13.5 179t-45.5 133t-88.5 87t-137.5 29q-155 0 -286 -94z" />
    <glyph glyph-name="q" unicode="q" horiz-adv-x="1302" 
d="M1090 1092v-1305q0 -39 15 -67.5t39 -42t48 -19.5t49 -6v-62h-504v62q25 0 49 6t48.5 19.5t39.5 42t15 67.5v365q-126 -84 -201 -118q-120 -54 -227 -54q-176 0 -267.5 131t-91.5 368q0 319 176.5 491.5t505.5 172.5q39 0 78 -3.5t76 -11t59 -12.5t55.5 -14t37.5 -10z
M602 141q154 0 287 95v714q-151 92 -260 92q-90 0 -162.5 -66.5t-111 -174.5t-38.5 -232q0 -104 13.5 -179t45.5 -133t88.5 -87t137.5 -29z" />
    <glyph glyph-name="r" unicode="r" horiz-adv-x="905" 
d="M836 1143q62 0 98.5 -33t36.5 -84q0 -45 -27 -76.5t-72 -31.5q-32 0 -96.5 22.5t-103.5 22.5q-82 0 -189 -76v-690q0 -39 15 -67.5t39.5 -42.5t48.5 -20t49 -6v-61h-504v61q25 0 49 6t48.5 20t39.5 42.5t15 67.5v606q0 91 -36.5 124.5t-121.5 33.5v59q131 34 358 123
v-172q5 4 36 25.5t46.5 32t48 31.5t56 32.5t54 25t58.5 19.5t54 6z" />
    <glyph glyph-name="s" unicode="s" horiz-adv-x="966" 
d="M434 -18q-76 0 -137.5 11t-118 28.5t-76.5 21.5l13 281h61q46 -139 108 -200t173 -61q103 0 164 45.5t61 124.5q0 68 -53 123t-176 115q-171 84 -244.5 171t-73.5 200q0 141 98.5 221t274.5 80q60 0 117.5 -8t89 -16.5t74 -22t51.5 -15.5l-13 -260h-61
q-44 126 -102.5 183t-155.5 57q-88 0 -142.5 -44.5t-54.5 -119.5q0 -74 60 -129.5t237 -146.5q136 -69 198 -146.5t62 -177.5q0 -149 -115 -232t-319 -83z" />
    <glyph glyph-name="t" unicode="t" horiz-adv-x="837" 
d="M840 133l28 -49q-140 -107 -307 -107q-152 0 -235.5 89t-83.5 249v686h-189v66q105 37 198.5 130.5t125.5 195.5h65v-271h373v-121h-373v-667q0 -110 63 -172t175 -62q81 0 160 33z" />
    <glyph glyph-name="u" unicode="u" horiz-adv-x="1368" 
d="M1120 1143v-824q0 -91 36.5 -124t121.5 -33v-60q-139 -36 -358 -122v172q-1 -1 -42 -30t-56.5 -39.5t-59 -35.5t-73 -35.5t-71.5 -21t-81 -10.5q-149 0 -230 92t-80 286l2 445q0 91 -36 124.5t-121 33.5v59q131 34 358 123v-340l-2 -400q0 -286 186 -286q73 0 158.5 37
t147.5 84v565q0 91 -36.5 124.5t-121.5 33.5v59q131 34 358 123z" />
    <glyph glyph-name="v" unicode="v" horiz-adv-x="1069" 
d="M754 1122h391v-61q-76 0 -112 -29.5t-66 -109.5l-346 -922h-158l-342 926q-26 72 -66 103.5t-106 31.5v61h536v-61q-161 0 -161 -72q0 -32 43 -149l227 -641l268 727q19 55 19 71q0 32 -27 48t-100 16v61z" />
    <glyph glyph-name="w" unicode="w" horiz-adv-x="1769" 
d="M1454 1122h391v-61q-77 0 -112.5 -29t-65.5 -110l-332 -922h-157l-283 801l-289 -801h-157l-328 926q-25 72 -65.5 103.5t-106.5 31.5v61h536v-61q-161 0 -161 -72q0 -9 2 -20t7 -27t9 -28t12.5 -36.5t12.5 -37.5l215 -637l260 745q-46 113 -164 113v61h536v-61
q-161 0 -161 -72q0 -9 2 -20t7 -27t9 -28t12.5 -36.5t12.5 -37.5l215 -637l252 723q18 52 18 71q0 32 -27 48t-100 16v61z" />
    <glyph glyph-name="x" unicode="x" horiz-adv-x="1222" 
d="M721 608l330 -411q107 -136 192 -136v-61h-547v61q79 0 113.5 11.5t34.5 40.5q0 19 -7 33.5t-28 41.5l-225 281l-250 -268q-29 -30 -39 -48.5t-10 -37.5q0 -54 112 -54v-61h-417v61q30 0 56.5 8.5t56.5 32.5t48 41t58 58l323 346l-303 379q-53 67 -102 101t-111 34v61
h567v-61q-75 0 -111 -14t-36 -48q0 -7 2 -13.5t7 -14.5t8.5 -13t12.5 -17t13 -17l190 -238l232 246q39 42 39 76q0 53 -113 53v61h418v-61q-22 0 -40 -2.5t-36.5 -11.5t-28.5 -14t-29.5 -23t-25 -23.5t-29.5 -32t-30 -32.5z" />
    <glyph glyph-name="y" unicode="y" horiz-adv-x="1089" 
d="M754 1122h391v-61q-76 0 -112 -29.5t-66 -109.5l-383 -1012q-73 -194 -183.5 -283.5t-271.5 -89.5q-63 0 -102 30t-39 77q0 49 37.5 78.5t97.5 29.5q35 0 93 -7t97 -7q46 0 92 52.5t84 141.5l-368 994q-26 72 -66 103.5t-106 31.5v61h536v-61q-161 0 -161 -72
q0 -32 43 -149l229 -647l266 733q19 55 19 71q0 32 -27 48t-100 16v61z" />
    <glyph glyph-name="z" unicode="z" horiz-adv-x="1079" 
d="M1008 1122v-84l-693 -956h361q53 0 90.5 9.5t73 35t61.5 73.5t45 122h62v-322h-947v70l713 970h-336q-55 0 -92 -9t-71 -34.5t-59.5 -73t-47.5 -122.5h-62v321h902z" />
    <glyph glyph-name="braceleft" unicode="{" horiz-adv-x="665" 
d="M61 563q-15 61 0 123q82 0 113 34t31 97q0 11 -6 115t-6 147q0 120 8 165q32 197 235 251q81 21 189 21q15 -41 0 -82q-35 0 -63.5 -5.5t-50 -14.5t-38 -25t-28 -32.5t-19.5 -42.5t-12.5 -49t-7 -58t-3 -63.5t-0.5 -70.5q0 -181 -3 -220q-14 -164 -95 -208
q-22 -12 -49 -16v-8q36 -2 63 -18.5t42 -42.5t25 -61.5t13 -75.5t4.5 -84.5t-0.5 -88.5v-49q0 -89 2 -132t13 -102t33.5 -85t65.5 -46t108 -20q15 -41 0 -82q-90 0 -160.5 17t-115.5 40.5t-76.5 64.5t-46.5 72.5t-23 82.5t-9 76t-1 71v16q0 43 6 147t6 115q0 63 -30.5 95
t-113.5 32z" />
    <glyph glyph-name="braceright" unicode="}" horiz-adv-x="665" 
d="M604 563q-82 0 -112.5 -32t-30.5 -95q0 -11 6 -115t6 -147v-16q0 -35 -0.5 -54.5t-4 -58t-10.5 -63.5t-22 -61t-36 -59.5t-54 -50t-75 -41.5t-101 -25.5t-129 -10.5q-15 41 0 82q65 0 108 20t65.5 46t33.5 85.5t12.5 101.5t1.5 132q0 175 4 218q15 161 101 193q19 8 43 9
v8q-37 6 -63.5 25t-42 47.5t-25.5 65.5t-13 78.5t-4.5 87t0.5 91.5v49q0 48 -1 79.5t-4 70t-9.5 62.5t-17 51t-27 42.5t-39 29.5t-53.5 20t-70 6q-15 41 0 82q64 0 118 -7.5t94 -20.5t73.5 -32t55 -41t39 -47.5t26.5 -52.5t16 -55t7.5 -55.5t2.5 -53.5t0 -49v-23
q0 -43 -6 -147t-6 -115q0 -64 30.5 -97.5t112.5 -33.5q15 -62 0 -123z" />
    <glyph glyph-name="exclamdown" unicode="&#xa1;" horiz-adv-x="673" 
d="M338 1143q69 0 116.5 -46.5t47.5 -115.5t-47.5 -115.5t-116.5 -46.5q-73 0 -119.5 46t-46.5 116t46.5 116t119.5 46zM182 -319l101 981q26 20 55 20q35 0 55 -20l101 -981q5 -41 -34.5 -68t-121.5 -27q-80 0 -120.5 26t-35.5 69z" />
    <glyph glyph-name="guillemotleft" unicode="&#xab;" horiz-adv-x="1159" 
d="M627 135l-76 -53l-449 479l449 477l76 -49l-267 -428zM1077 135l-76 -53l-448 479l448 477l76 -49l-266 -428z" />
    <glyph glyph-name="periodcentered" unicode="&#xb7;" horiz-adv-x="681" 
d="M342 440q-73 0 -119.5 46t-46.5 116t46.5 116t119.5 46q69 0 116.5 -46.5t47.5 -115.5t-47.5 -115.5t-116.5 -46.5z" />
    <glyph glyph-name="guillemotright" unicode="&#xbb;" horiz-adv-x="1159" 
d="M82 135l266 426l-266 428l76 49l448 -477l-448 -479zM532 135l267 426l-267 428l76 49l449 -477l-449 -479z" />
    <glyph glyph-name="questiondown" unicode="&#xbf;" horiz-adv-x="1005" 
d="M580 1143q73 0 119 -46t46 -116t-46 -116t-119 -46q-69 0 -116.5 46.5t-47.5 115.5t47.5 115.5t116.5 46.5zM690 -414q-112 0 -216 49.5t-175.5 126t-114.5 171t-43 184.5q0 31 6 57t14 45t25.5 36.5t31.5 28.5t40 24.5t44 21t51 21.5q14 6 22 9q16 7 46.5 19t45 18
t38 17.5t34.5 19.5t26.5 21.5t22 27t11.5 31.5t5 39q0 65 -43 147q25 15 49 15q22 0 41 -15q44 -62 71.5 -144.5t27.5 -160.5q0 -24 -4.5 -45.5t-16 -39t-22.5 -31.5t-31.5 -27t-34.5 -21.5t-41.5 -19.5t-42.5 -16.5t-46.5 -16.5t-45.5 -16q-16 -6 -45 -16t-46 -16
t-40 -15.5t-37 -17.5t-27.5 -18.5t-19.5 -21.5t-6 -24q0 -29 31.5 -61t87 -61t143.5 -48t190 -19q115 0 115 -129t-121 -129z" />
    <glyph glyph-name="Agrave" unicode="&#xc0;" horiz-adv-x="1560" 
d="M737 1677q-34 0 -61 6l-391 338q47 21 129 21q78 0 139 -12l244 -347q-24 -6 -60 -6zM821 1516l522 -1317q25 -57 44.5 -83.5t57 -40.5t103.5 -14v-61h-571v61q91 0 122 12.5t31 47.5q0 28 -18 78l-111 282h-630l-103 -282q-18 -49 -18 -82q0 -31 35 -43.5t131 -12.5v-61
h-461v61q93 0 127 27t65 111l441 1204q-47 51 -139 51v62h372zM408 588h553l-289 733z" />
    <glyph glyph-name="Aacute" unicode="&#xc1;" horiz-adv-x="1560" 
d="M1114 2021l-393 -338q-27 -6 -62 -6t-59 6l244 347q62 12 139 12q88 0 131 -21zM821 1516l522 -1317q25 -57 44.5 -83.5t57 -40.5t103.5 -14v-61h-571v61q91 0 122 12.5t31 47.5q0 28 -18 78l-111 282h-630l-103 -282q-18 -49 -18 -82q0 -31 35 -43.5t131 -12.5v-61h-461
v61q93 0 127 27t65 111l441 1204q-47 51 -139 51v62h372zM408 588h553l-289 733z" />
    <glyph glyph-name="Acircumflex" unicode="&#xc2;" horiz-adv-x="1560" 
d="M821 1516l522 -1317q25 -57 44.5 -83.5t57 -40.5t103.5 -14v-61h-571v61q91 0 122 12.5t31 47.5q0 28 -18 78l-111 282h-630l-103 -282q-18 -49 -18 -82q0 -31 35 -43.5t131 -12.5v-61h-461v61q93 0 127 27t65 111l441 1204q-47 51 -139 51v62h372zM408 588h553l-289 733
z" />
    <glyph glyph-name="Atilde" unicode="&#xc3;" horiz-adv-x="1560" 
d="M373 1731q-34 -9 -70 0q8 116 60 190t153 74q52 0 175 -54.5t175 -54.5q91 0 115 84q35 9 70 0q-8 -115 -59.5 -188.5t-151.5 -73.5q-53 0 -177 54.5t-176 54.5q-89 0 -114 -86zM821 1516l522 -1317q25 -57 44.5 -83.5t57 -40.5t103.5 -14v-61h-571v61q91 0 122 12.5
t31 47.5q0 28 -18 78l-111 282h-630l-103 -282q-18 -49 -18 -82q0 -31 35 -43.5t131 -12.5v-61h-461v61q93 0 127 27t65 111l441 1204q-47 51 -139 51v62h372zM408 588h553l-289 733z" />
    <glyph glyph-name="Adieresis" unicode="&#xc4;" horiz-adv-x="1560" 
d="M496 1729q-60 0 -98 37t-38 94t38 94t98 37q55 0 93 -37.5t38 -93.5t-38 -93.5t-93 -37.5zM864 1729q-57 0 -96 37t-39 94t39 94t96 37t95 -37t38 -94t-38 -94t-95 -37zM821 1516l522 -1317q25 -57 44.5 -83.5t57 -40.5t103.5 -14v-61h-571v61q91 0 122 12.5t31 47.5
q0 28 -18 78l-111 282h-630l-103 -282q-18 -49 -18 -82q0 -31 35 -43.5t131 -12.5v-61h-461v61q93 0 127 27t65 111l441 1204q-47 51 -139 51v62h372zM408 588h553l-289 733z" />
    <glyph glyph-name="Aring" unicode="&#xc5;" horiz-adv-x="1560" 
d="M821 1516l522 -1317q25 -57 44.5 -83.5t57 -40.5t103.5 -14v-61h-571v61q91 0 122 12.5t31 47.5q0 28 -18 78l-111 282h-630l-103 -282q-18 -49 -18 -82q0 -31 35 -43.5t131 -12.5v-61h-461v61q93 0 127 27t65 111l441 1204q-47 51 -139 51v62h372zM408 588h553l-289 733
z" />
    <glyph glyph-name="AE" unicode="&#xc6;" horiz-adv-x="3000" 
d="M821 1516l522 -1317q25 -57 44.5 -83.5t57 -40.5t103.5 -14v-61h-571v61q91 0 122 12.5t31 47.5q0 28 -18 78l-111 282h-630l-103 -282q-18 -49 -18 -82q0 -31 35 -43.5t131 -12.5v-61h-461v61q93 0 127 27t65 111l441 1204q-47 51 -139 51v62h372zM2521 1409h-401v-606
h270q45 0 80 7.5t68.5 26.5t52 59t18.5 99h62v-493h-62q0 194 -219 194h-270v-590h401q44 0 87 14.5t83 44.5t65 84t25 124h62v-373h-1139v59q106 0 150 45t44 134v1040q0 89 -44 133.5t-150 44.5v60h1139v-373h-62q0 70 -25 124t-65 83.5t-83 44t-87 14.5zM408 588h553
l-289 733z" />
    <glyph glyph-name="Ccedilla" unicode="&#xc7;" horiz-adv-x="1556" 
d="M936 -20l-29 -121q157 -12 239.5 -71t82.5 -153q0 -86 -76.5 -131t-214.5 -45q-135 0 -252 49l6 86q80 -26 168 -26q63 0 98 22.5t35 65.5q0 54 -56 82.5t-161 28.5l51 215q-318 20 -501 229t-183 545q0 234 89.5 409t266.5 273t423 98q143 0 273 -33t206 -73l-17 -349
h-61q-24 172 -142.5 259t-295.5 87q-240 0 -372 -155.5t-132 -423.5q0 -353 151.5 -546t442.5 -193q228 0 424 96l35 -58q-114 -84 -233.5 -123t-264.5 -44z" />
    <glyph glyph-name="Egrave" unicode="&#xc8;" horiz-adv-x="1439" 
d="M780 1677q-34 0 -61 6l-391 338q46 21 129 21q77 0 139 -12l244 -347q-24 -6 -60 -6zM961 1409h-402v-606h270q35 0 64 4t59 16.5t50.5 33t33.5 56t13 82.5h61v-493h-61q0 194 -220 194h-270v-590h402q44 0 87 14.5t83 44.5t65 84t25 124h61v-373h-1139v59
q106 0 150.5 45t44.5 134v1040q0 89 -44.5 133.5t-150.5 44.5v60h1139v-373h-61q0 70 -25 124t-65 83.5t-83 44t-87 14.5z" />
    <glyph glyph-name="Eacute" unicode="&#xc9;" horiz-adv-x="1439" 
d="M1157 2021l-393 -338q-27 -6 -62 -6t-59 6l244 347q61 12 139 12q88 0 131 -21zM961 1409h-402v-606h270q35 0 64 4t59 16.5t50.5 33t33.5 56t13 82.5h61v-493h-61q0 194 -220 194h-270v-590h402q44 0 87 14.5t83 44.5t65 84t25 124h61v-373h-1139v59q106 0 150.5 45
t44.5 134v1040q0 89 -44.5 133.5t-150.5 44.5v60h1139v-373h-61q0 70 -25 124t-65 83.5t-83 44t-87 14.5z" />
    <glyph glyph-name="Ecircumflex" unicode="&#xca;" horiz-adv-x="1439" 
d="M961 1409h-402v-606h270q35 0 64 4t59 16.5t50.5 33t33.5 56t13 82.5h61v-493h-61q0 194 -220 194h-270v-590h402q44 0 87 14.5t83 44.5t65 84t25 124h61v-373h-1139v59q106 0 150.5 45t44.5 134v1040q0 89 -44.5 133.5t-150.5 44.5v60h1139v-373h-61q0 70 -25 124
t-65 83.5t-83 44t-87 14.5z" />
    <glyph glyph-name="Edieresis" unicode="&#xcb;" horiz-adv-x="1439" 
d="M539 1729q-60 0 -98 37t-38 94t38 94t98 37q55 0 93 -37.5t38 -93.5t-38 -93.5t-93 -37.5zM907 1729q-57 0 -96 37t-39 94t39 94t96 37t95 -37t38 -94t-38 -94t-95 -37zM961 1409h-402v-606h270q35 0 64 4t59 16.5t50.5 33t33.5 56t13 82.5h61v-493h-61q0 194 -220 194
h-270v-590h402q44 0 87 14.5t83 44.5t65 84t25 124h61v-373h-1139v59q106 0 150.5 45t44.5 134v1040q0 89 -44.5 133.5t-150.5 44.5v60h1139v-373h-61q0 70 -25 124t-65 83.5t-83 44t-87 14.5z" />
    <glyph glyph-name="Igrave" unicode="&#xcc;" horiz-adv-x="897" 
d="M508 1677q-35 0 -62 6l-391 338q46 21 129 21q78 0 140 -12l243 -347q-24 -6 -59 -6zM754 1516v-62q-66 0 -106 -10.5t-59 -35.5t-24.5 -51.5t-5.5 -72.5v-1053q0 -46 5.5 -72.5t24.5 -51.5t59 -35.5t106 -10.5v-61h-611v61q65 0 104.5 10.5t59 34.5t25.5 51.5t6 73.5
v1053q0 46 -6 73.5t-25.5 51.5t-59 34.5t-104.5 10.5v62h611z" />
    <glyph glyph-name="Iacute" unicode="&#xcd;" horiz-adv-x="897" 
d="M885 2021l-393 -338q-27 -6 -62 -6t-59 6l243 347q61 12 140 12q88 0 131 -21zM143 1454v62h611v-62q-66 0 -106 -10.5t-59 -35.5t-24.5 -51.5t-5.5 -72.5v-1053q0 -46 5.5 -72.5t24.5 -51.5t59 -35.5t106 -10.5v-61h-611v61q65 0 104.5 10.5t59 34.5t25.5 51.5t6 73.5
v1053q0 46 -6 73.5t-25.5 51.5t-59 34.5t-104.5 10.5z" />
    <glyph glyph-name="Icircumflex" unicode="&#xce;" horiz-adv-x="897" 
d="M754 1516v-62q-66 0 -106 -10.5t-59 -35.5t-24.5 -51.5t-5.5 -72.5v-1053q0 -46 5.5 -72.5t24.5 -51.5t59 -35.5t106 -10.5v-61h-611v61q65 0 104.5 10.5t59 34.5t25.5 51.5t6 73.5v1053q0 46 -6 73.5t-25.5 51.5t-59 34.5t-104.5 10.5v62h611z" />
    <glyph glyph-name="Idieresis" unicode="&#xcf;" horiz-adv-x="897" 
d="M266 1729q-60 0 -97.5 37t-37.5 94t37.5 94t97.5 37q55 0 93 -37.5t38 -93.5t-38 -93.5t-93 -37.5zM635 1729q-57 0 -96 37t-39 94t39 94t96 37t95 -37t38 -94t-38 -94t-95 -37zM143 1454v62h611v-62q-66 0 -106 -10.5t-59 -35.5t-24.5 -51.5t-5.5 -72.5v-1053
q0 -46 5.5 -72.5t24.5 -51.5t59 -35.5t106 -10.5v-61h-611v61q65 0 104.5 10.5t59 34.5t25.5 51.5t6 73.5v1053q0 46 -6 73.5t-25.5 51.5t-59 34.5t-104.5 10.5z" />
    <glyph glyph-name="Eth" unicode="&#xd0;" horiz-adv-x="1835" 
d="M831 1536q402 0 631.5 -210.5t229.5 -565.5q0 -173 -54.5 -318.5t-153 -247t-240.5 -158t-312 -56.5q-72 0 -281 10t-270 10h-238v61q106 0 150.5 44t44.5 133v1040q0 89 -44.5 132.5t-150.5 43.5v62h252q120 0 249.5 10t186.5 10zM1454 678q0 184 -51.5 326.5
t-146.5 233t-226 137t-293 46.5q-97 0 -178 -18v-1247q181 -68 373 -68q239 0 380.5 160.5t141.5 429.5z" />
    <glyph glyph-name="Ntilde" unicode="&#xd1;" horiz-adv-x="1816" 
d="M604 1731q-33 -9 -69 0q8 116 60 190t153 74q52 0 175 -54.5t175 -54.5q90 0 114 84q35 9 70 0q-8 -115 -59.5 -188.5t-151.5 -73.5q-53 0 -176.5 54.5t-175.5 54.5q-90 0 -115 -86zM1190 1516h534v-62q-69 0 -111.5 -10.5t-62 -35.5t-25 -51.5t-5.5 -72.5l-9 -1284h-215
l-866 1286l-8 -1055q0 -46 5.5 -72.5t25.5 -51.5t62.5 -35.5t111.5 -10.5v-61h-535v61q55 0 92 8t58.5 20t33.5 36t15.5 46t5.5 60l10 1069q0 88 -39.5 121t-152.5 33v62h426l856 -1266l-2 1034q-2 38 -5.5 60t-15.5 46t-33.5 36t-58.5 20t-92 8v62z" />
    <glyph glyph-name="Ograve" unicode="&#xd2;" horiz-adv-x="1742" 
d="M748 2030l243 -347q-24 -6 -59 -6t-62 6l-391 338q46 21 129 21q79 0 140 -12zM870 -20q-332 0 -529.5 211.5t-197.5 564.5q0 355 198 567.5t531 212.5q332 0 529.5 -211.5t197.5 -564.5q0 -235 -89 -411.5t-254 -272.5t-386 -96zM817 1427q-197 0 -316.5 -158
t-119.5 -421q0 -227 69 -399.5t195 -266.5t291 -94q190 0 308 160.5t118 423.5q0 342 -147.5 548.5t-397.5 206.5z" />
    <glyph glyph-name="Oacute" unicode="&#xd3;" horiz-adv-x="1742" 
d="M795 1683l243 347q61 12 140 12q88 0 131 -21l-394 -338q-27 -6 -61 -6q-35 0 -59 6zM870 -20q-332 0 -529.5 211.5t-197.5 564.5q0 355 198 567.5t531 212.5q332 0 529.5 -211.5t197.5 -564.5q0 -235 -89 -411.5t-254 -272.5t-386 -96zM817 1427q-197 0 -316.5 -158
t-119.5 -421q0 -227 69 -399.5t195 -266.5t291 -94q190 0 308 160.5t118 423.5q0 342 -147.5 548.5t-397.5 206.5z" />
    <glyph glyph-name="Ocircumflex" unicode="&#xd4;" horiz-adv-x="1742" 
d="M870 -20q-332 0 -529.5 211.5t-197.5 564.5q0 355 198 567.5t531 212.5q332 0 529.5 -211.5t197.5 -564.5q0 -235 -89 -411.5t-254 -272.5t-386 -96zM817 1427q-197 0 -316.5 -158t-119.5 -421q0 -227 69 -399.5t195 -266.5t291 -94q190 0 308 160.5t118 423.5
q0 342 -147.5 548.5t-397.5 206.5z" />
    <glyph glyph-name="Otilde" unicode="&#xd5;" horiz-adv-x="1742" 
d="M682 1817q-90 0 -115 -86q-33 -9 -69 0q8 116 60 190t153 74q52 0 175 -54.5t175 -54.5q91 0 115 84q34 9 69 0q-8 -115 -59.5 -188.5t-151.5 -73.5q-53 0 -176.5 54.5t-175.5 54.5zM870 -20q-332 0 -529.5 211.5t-197.5 564.5q0 355 198 567.5t531 212.5
q332 0 529.5 -211.5t197.5 -564.5q0 -235 -89 -411.5t-254 -272.5t-386 -96zM817 1427q-197 0 -316.5 -158t-119.5 -421q0 -227 69 -399.5t195 -266.5t291 -94q190 0 308 160.5t118 423.5q0 342 -147.5 548.5t-397.5 206.5z" />
    <glyph glyph-name="Odieresis" unicode="&#xd6;" horiz-adv-x="1742" 
d="M690 1729q-60 0 -97.5 37t-37.5 94t37.5 94t97.5 37q55 0 93 -37.5t38 -93.5t-38 -93.5t-93 -37.5zM1059 1729q-57 0 -96 37t-39 94t39 94t96 37t95 -37t38 -94t-38 -94t-95 -37zM870 -20q-332 0 -529.5 211.5t-197.5 564.5q0 355 198 567.5t531 212.5
q332 0 529.5 -211.5t197.5 -564.5q0 -235 -89 -411.5t-254 -272.5t-386 -96zM817 1427q-197 0 -316.5 -158t-119.5 -421q0 -227 69 -399.5t195 -266.5t291 -94q190 0 308 160.5t118 423.5q0 342 -147.5 548.5t-397.5 206.5z" />
    <glyph glyph-name="multiply" unicode="&#xd7;" horiz-adv-x="1228" 
d="M1053 920l-346 -347l344 -344l-93 -92l-344 344l-344 -344l-92 92l344 344l-346 347l92 92l346 -346l347 346z" />
    <glyph glyph-name="Oslash" unicode="&#xd8;" horiz-adv-x="1742" 
d="M870 -20q-332 0 -529.5 211.5t-197.5 564.5q0 355 198 567.5t531 212.5q332 0 529.5 -211.5t197.5 -564.5q0 -235 -89 -411.5t-254 -272.5t-386 -96zM817 1427q-197 0 -316.5 -158t-119.5 -421q0 -227 69 -399.5t195 -266.5t291 -94q190 0 308 160.5t118 423.5
q0 342 -147.5 548.5t-397.5 206.5z" />
    <glyph glyph-name="Ugrave" unicode="&#xd9;" horiz-adv-x="1665" 
d="M893 1677q-35 0 -62 6l-391 338q47 21 129 21q79 0 140 -12l243 -347q-24 -6 -59 -6zM1100 1516h524v-62q-68 0 -109.5 -10.5t-61 -35.5t-25 -51.5t-5.5 -72.5v-745q0 -284 -145 -421.5t-420 -137.5q-273 0 -433.5 138t-160.5 400v766q0 46 -6 73.5t-25 51.5t-58.5 34.5
t-104.5 10.5v62h610v-62q-66 0 -106 -10.5t-59 -35.5t-24.5 -51.5t-5.5 -72.5v-725q0 -205 112 -330t306 -125q204 0 300.5 114.5t96.5 324.5v741q0 46 -6 73.5t-26 51.5t-61 34.5t-107 10.5v62z" />
    <glyph glyph-name="Uacute" unicode="&#xda;" horiz-adv-x="1665" 
d="M1270 2021l-393 -338q-27 -6 -62 -6t-59 6l243 347q62 12 140 12q88 0 131 -21zM1100 1516h524v-62q-68 0 -109.5 -10.5t-61 -35.5t-25 -51.5t-5.5 -72.5v-745q0 -284 -145 -421.5t-420 -137.5q-273 0 -433.5 138t-160.5 400v766q0 46 -6 73.5t-25 51.5t-58.5 34.5
t-104.5 10.5v62h610v-62q-66 0 -106 -10.5t-59 -35.5t-24.5 -51.5t-5.5 -72.5v-725q0 -205 112 -330t306 -125q204 0 300.5 114.5t96.5 324.5v741q0 46 -6 73.5t-26 51.5t-61 34.5t-107 10.5v62z" />
    <glyph glyph-name="Ucircumflex" unicode="&#xdb;" horiz-adv-x="1665" 
d="M1100 1516h524v-62q-68 0 -109.5 -10.5t-61 -35.5t-25 -51.5t-5.5 -72.5v-745q0 -284 -145 -421.5t-420 -137.5q-273 0 -433.5 138t-160.5 400v766q0 46 -6 73.5t-25 51.5t-58.5 34.5t-104.5 10.5v62h610v-62q-66 0 -106 -10.5t-59 -35.5t-24.5 -51.5t-5.5 -72.5v-725
q0 -205 112 -330t306 -125q204 0 300.5 114.5t96.5 324.5v741q0 46 -6 73.5t-26 51.5t-61 34.5t-107 10.5v62z" />
    <glyph glyph-name="Udieresis" unicode="&#xdc;" horiz-adv-x="1665" 
d="M651 1729q-60 0 -97.5 37t-37.5 94t37.5 94t97.5 37q55 0 93 -37.5t38 -93.5t-38 -93.5t-93 -37.5zM1020 1729q-57 0 -96 37t-39 94t39 94t96 37t95 -37t38 -94t-38 -94t-95 -37zM1100 1516h524v-62q-68 0 -109.5 -10.5t-61 -35.5t-25 -51.5t-5.5 -72.5v-745
q0 -284 -145 -421.5t-420 -137.5q-273 0 -433.5 138t-160.5 400v766q0 46 -6 73.5t-25 51.5t-58.5 34.5t-104.5 10.5v62h610v-62q-66 0 -106 -10.5t-59 -35.5t-24.5 -51.5t-5.5 -72.5v-725q0 -205 112 -330t306 -125q204 0 300.5 114.5t96.5 324.5v741q0 46 -6 73.5
t-26 51.5t-61 34.5t-107 10.5v62z" />
    <glyph glyph-name="Yacute" unicode="&#xdd;" horiz-adv-x="1337" 
d="M1167 2021l-393 -338q-27 -6 -61 -6q-36 0 -60 6l244 347q61 12 139 12q88 0 131 -21zM989 1516h400v-62q-19 0 -33.5 -2.5t-29.5 -12.5t-23.5 -16.5t-24.5 -28t-23.5 -33t-29.5 -44.5l-422 -651v-435q0 -46 5.5 -72.5t24 -51.5t58.5 -35.5t106 -10.5v-61h-610v61
q65 0 104.5 10.5t59 34.5t25.5 51.5t6 73.5v394l-457 692q-31 43 -47 62.5t-40 40t-48.5 27.5t-59.5 7v62h572v-62q-164 0 -164 -68q0 -32 41 -94l352 -532l348 536q43 66 43 103q0 30 -32.5 42.5t-100.5 12.5v62z" />
    <glyph glyph-name="Thorn" unicode="&#xde;" horiz-adv-x="1454" 
d="M705 528h-146v-297q0 -46 5.5 -72.5t24.5 -51.5t59 -35.5t106 -10.5v-61h-611v61q65 0 104.5 10.5t59 34.5t25.5 51.5t6 73.5v1053q0 98 -41 134t-154 36v62h197q91 0 225.5 8t188.5 8q296 0 461 -127.5t165 -364.5q0 -238 -181 -375t-494 -137zM559 1401v-764h162
q223 0 328 85t106 269v8q0 210 -105 316t-309 106q-109 0 -182 -20z" />
    <glyph glyph-name="germandbls" unicode="&#xdf;" horiz-adv-x="1933" 
d="M434 -18q-76 0 -137.5 11t-118 28.5t-76.5 21.5l13 281h61q46 -139 108 -200t173 -61q103 0 164 45.5t61 124.5q0 68 -53 123t-176 115q-171 84 -244.5 171t-73.5 200q0 141 98.5 221t274.5 80q60 0 117.5 -8t89 -16.5t74 -22t51.5 -15.5l-13 -260h-61
q-44 126 -102.5 183t-155.5 57q-88 0 -142.5 -44.5t-54.5 -119.5q0 -74 60 -129.5t237 -146.5q136 -69 198 -146.5t62 -177.5q0 -149 -115 -232t-319 -83zM1401 -18q-76 0 -137.5 11t-118 28.5t-76.5 21.5l12 281h62q46 -140 107.5 -200.5t172.5 -60.5q103 0 164.5 45.5
t61.5 124.5q0 67 -53.5 122.5t-176.5 115.5q-170 84 -243.5 171t-73.5 200q0 141 98.5 221t274.5 80q60 0 117.5 -8t89 -16.5t73.5 -22t51 -15.5l-12 -260h-61q-44 126 -102.5 183t-155.5 57q-88 0 -142.5 -44.5t-54.5 -119.5q0 -74 60 -129.5t237 -146.5
q136 -69 198 -146.5t62 -177.5q0 -149 -115 -232t-319 -83z" />
    <glyph glyph-name="agrave" unicode="&#xe0;" horiz-adv-x="1171" 
d="M588 1292q-34 0 -58 6l-372 322q44 20 123 20q75 0 133 -12l231 -330q-24 -6 -57 -6zM1122 119l23 -35q-94 -104 -213 -104q-73 0 -123.5 37.5t-67.5 105.5q-163 -146 -362 -146q-133 0 -208 69t-75 181q0 317 639 400v67q0 164 -66.5 240t-207.5 76q-133 0 -301 -82
l-29 45q94 79 209 124.5t229 45.5q174 0 270.5 -105t96.5 -295v-501q0 -144 98 -144q42 0 88 21zM487 111q151 0 248 104v326q-160 -24 -254 -61t-133 -86.5t-39 -121.5q0 -161 178 -161z" />
    <glyph glyph-name="aacute" unicode="&#xe1;" horiz-adv-x="1171" 
d="M993 1620l-375 -322q-24 -6 -57 -6t-57 6l231 330q58 12 133 12q86 0 125 -20zM1122 119l23 -35q-94 -104 -213 -104q-73 0 -123.5 37.5t-67.5 105.5q-163 -146 -362 -146q-133 0 -208 69t-75 181q0 317 639 400v67q0 164 -66.5 240t-207.5 76q-133 0 -301 -82l-29 45
q94 79 209 124.5t229 45.5q174 0 270.5 -105t96.5 -295v-501q0 -144 98 -144q42 0 88 21zM487 111q151 0 248 104v326q-160 -24 -254 -61t-133 -86.5t-39 -121.5q0 -161 178 -161z" />
    <glyph glyph-name="acircumflex" unicode="&#xe2;" horiz-adv-x="1171" 
d="M1122 119l23 -35q-94 -104 -213 -104q-73 0 -123.5 37.5t-67.5 105.5q-163 -146 -362 -146q-133 0 -208 69t-75 181q0 317 639 400v67q0 164 -66.5 240t-207.5 76q-133 0 -301 -82l-29 45q94 79 209 124.5t229 45.5q174 0 270.5 -105t96.5 -295v-501q0 -144 98 -144
q42 0 88 21zM487 111q151 0 248 104v326q-160 -24 -254 -61t-133 -86.5t-39 -121.5q0 -161 178 -161z" />
    <glyph glyph-name="atilde" unicode="&#xe3;" horiz-adv-x="1171" 
d="M279 1343q-31 -9 -66 0q8 112 56.5 182t146.5 70q49 0 167 -52t167 -52q84 0 108 80q33 9 66 0q-5 -108 -55.5 -179t-145.5 -71q-49 0 -168 52t-168 52q-82 0 -108 -82zM1122 119l23 -35q-94 -104 -213 -104q-73 0 -123.5 37.5t-67.5 105.5q-163 -146 -362 -146
q-133 0 -208 69t-75 181q0 317 639 400v67q0 164 -66.5 240t-207.5 76q-133 0 -301 -82l-29 45q94 79 209 124.5t229 45.5q174 0 270.5 -105t96.5 -295v-501q0 -144 98 -144q42 0 88 21zM487 111q151 0 248 104v326q-160 -24 -254 -61t-133 -86.5t-39 -121.5
q0 -161 178 -161z" />
    <glyph glyph-name="adieresis" unicode="&#xe4;" horiz-adv-x="1171" 
d="M395 1341q-57 0 -93 35.5t-36 89.5t36 89.5t93 35.5q54 0 89.5 -35.5t35.5 -89.5t-35.5 -89.5t-89.5 -35.5zM748 1341q-56 0 -93 35.5t-37 89.5t37 89.5t93 35.5q54 0 90 -35.5t36 -89.5t-36 -89.5t-90 -35.5zM1122 119l23 -35q-94 -104 -213 -104q-73 0 -123.5 37.5
t-67.5 105.5q-163 -146 -362 -146q-133 0 -208 69t-75 181q0 317 639 400v67q0 164 -66.5 240t-207.5 76q-133 0 -301 -82l-29 45q94 79 209 124.5t229 45.5q174 0 270.5 -105t96.5 -295v-501q0 -144 98 -144q42 0 88 21zM487 111q151 0 248 104v326q-160 -24 -254 -61
t-133 -86.5t-39 -121.5q0 -161 178 -161z" />
    <glyph glyph-name="aring" unicode="&#xe5;" horiz-adv-x="1171" 
d="M1122 119l23 -35q-94 -104 -213 -104q-73 0 -123.5 37.5t-67.5 105.5q-163 -146 -362 -146q-133 0 -208 69t-75 181q0 317 639 400v67q0 164 -66.5 240t-207.5 76q-133 0 -301 -82l-29 45q94 79 209 124.5t229 45.5q174 0 270.5 -105t96.5 -295v-501q0 -144 98 -144
q42 0 88 21zM487 111q151 0 248 104v326q-160 -24 -254 -61t-133 -86.5t-39 -121.5q0 -161 178 -161z" />
    <glyph glyph-name="ae" unicode="&#xe6;" horiz-adv-x="2322" 
d="M1034 98q42 0 88 21l23 -35q-94 -104 -213 -104q-73 0 -123.5 37.5t-67.5 105.5q-163 -146 -362 -146q-133 0 -208 69t-75 181q0 317 639 400v67q0 164 -66.5 240t-207.5 76q-133 0 -301 -82l-29 45q94 79 209 124.5t229 45.5q174 0 270.5 -105t96.5 -295v-501
q0 -144 98 -144zM2230 690v-98h-745q2 -115 38 -207t95.5 -150t136 -89t162.5 -31q125 0 274 75l35 -43q-73 -73 -181 -120t-241 -47q-111 0 -206.5 36.5t-168 106t-114 178t-41.5 244.5q0 145 39.5 260t109.5 188.5t163.5 111.5t205.5 38q97 0 173.5 -26t125.5 -69
t81 -102.5t45 -122.5t13 -133zM1485 686h481q31 0 44 13t13 40q0 145 -66.5 226.5t-199.5 81.5q-118 0 -191.5 -87t-80.5 -274zM487 111q151 0 248 104v326q-160 -24 -254 -61t-133 -86.5t-39 -121.5q0 -161 178 -161z" />
    <glyph glyph-name="ccedilla" unicode="&#xe7;" horiz-adv-x="1071" 
d="M608 -20l-33 -142q150 -8 241 -56.5t91 -135.5q0 -48 -28.5 -82.5t-74.5 -51.5t-92 -24.5t-94 -7.5q-129 0 -233 51l8 63q22 -11 65 -20.5t85 -9.5q59 0 97 25t38 71q0 107 -207 107l55 221q-198 35 -311 182.5t-113 374.5q0 284 144.5 441t406.5 157q161 0 272 -61.5
t111 -151.5q0 -43 -25.5 -68.5t-68.5 -25.5q-33 0 -61 15.5t-46.5 39t-41.5 51t-45.5 51t-59.5 39t-82 15.5q-126 0 -209.5 -109t-83.5 -289q-4 -243 114 -388.5t318 -145.5q126 0 275 75l35 -43q-80 -80 -190.5 -123.5t-231.5 -43.5h-25z" />
    <glyph glyph-name="egrave" unicode="&#xe8;" horiz-adv-x="1150" 
d="M639 1292q-33 0 -57 6l-373 322q44 20 123 20q74 0 133 -12l231 -330q-24 -6 -57 -6zM1059 690v-98h-746q2 -115 38 -207t95.5 -150t136 -89t162.5 -31q126 0 275 75l35 -43q-73 -73 -181 -120t-241 -47q-111 0 -207 36.5t-168.5 106t-114 178t-41.5 244.5
q0 145 39.5 260t109.5 188.5t164 111.5t206 38q97 0 173.5 -26t125.5 -69t81 -102.5t45 -122.5t13 -133zM313 686h482q31 0 44 13t13 40q0 145 -66.5 226.5t-199.5 81.5q-118 0 -192 -87t-81 -274z" />
    <glyph glyph-name="eacute" unicode="&#xe9;" horiz-adv-x="1150" 
d="M1044 1620l-374 -322q-24 -6 -58 -6q-33 0 -57 6l231 330q59 12 134 12q85 0 124 -20zM1059 690v-98h-746q2 -115 38 -207t95.5 -150t136 -89t162.5 -31q126 0 275 75l35 -43q-73 -73 -181 -120t-241 -47q-111 0 -207 36.5t-168.5 106t-114 178t-41.5 244.5
q0 145 39.5 260t109.5 188.5t164 111.5t206 38q97 0 173.5 -26t125.5 -69t81 -102.5t45 -122.5t13 -133zM313 686h482q31 0 44 13t13 40q0 145 -66.5 226.5t-199.5 81.5q-118 0 -192 -87t-81 -274z" />
    <glyph glyph-name="ecircumflex" unicode="&#xea;" horiz-adv-x="1150" 
d="M1059 690v-98h-746q2 -115 38 -207t95.5 -150t136 -89t162.5 -31q126 0 275 75l35 -43q-73 -73 -181 -120t-241 -47q-111 0 -207 36.5t-168.5 106t-114 178t-41.5 244.5q0 145 39.5 260t109.5 188.5t164 111.5t206 38q97 0 173.5 -26t125.5 -69t81 -102.5t45 -122.5
t13 -133zM313 686h482q31 0 44 13t13 40q0 145 -66.5 226.5t-199.5 81.5q-118 0 -192 -87t-81 -274z" />
    <glyph glyph-name="edieresis" unicode="&#xeb;" horiz-adv-x="1150" 
d="M446 1341q-57 0 -93 35.5t-36 89.5t36 89.5t93 35.5q54 0 89.5 -35.5t35.5 -89.5t-35.5 -89.5t-89.5 -35.5zM799 1341q-56 0 -92.5 35.5t-36.5 89.5t36.5 89.5t92.5 35.5q54 0 90.5 -35.5t36.5 -89.5t-36.5 -89.5t-90.5 -35.5zM1059 690v-98h-746q2 -115 38 -207
t95.5 -150t136 -89t162.5 -31q126 0 275 75l35 -43q-73 -73 -181 -120t-241 -47q-111 0 -207 36.5t-168.5 106t-114 178t-41.5 244.5q0 145 39.5 260t109.5 188.5t164 111.5t206 38q97 0 173.5 -26t125.5 -69t81 -102.5t45 -122.5t13 -133zM313 686h482q31 0 44 13t13 40
q0 145 -66.5 226.5t-199.5 81.5q-118 0 -192 -87t-81 -274z" />
    <glyph glyph-name="igrave" unicode="&#xec;" horiz-adv-x="731" 
d="M401 1292q-33 0 -57 6l-373 322q44 20 123 20q74 0 133 -12l232 -330q-24 -6 -58 -6zM483 1143v-946q0 -39 15 -67.5t39.5 -42.5t48.5 -20t49 -6v-61h-504v61q25 0 49 6t48.5 20t39.5 42.5t15 67.5v606q0 91 -36.5 124.5t-121.5 33.5v59q131 34 358 123z" />
    <glyph glyph-name="iacute" unicode="&#xed;" horiz-adv-x="731" 
d="M807 1620l-375 -322q-24 -6 -57 -6q-34 0 -58 6l232 330q58 12 133 12q86 0 125 -20zM483 1143v-946q0 -39 15 -67.5t39.5 -42.5t48.5 -20t49 -6v-61h-504v61q25 0 49 6t48.5 20t39.5 42.5t15 67.5v606q0 91 -36.5 124.5t-121.5 33.5v59q131 34 358 123z" />
    <glyph glyph-name="icircumflex" unicode="&#xee;" horiz-adv-x="731" 
d="M358 1315q-69 0 -112 42.5t-43 108.5t43 109t112 43q66 0 110 -43t44 -109t-44 -108.5t-110 -42.5zM483 1143v-946q0 -39 15 -67.5t39.5 -42.5t48.5 -20t49 -6v-61h-504v61q25 0 49 6t48.5 20t39.5 42.5t15 67.5v606q0 91 -36.5 124.5t-121.5 33.5v59q131 34 358 123z
" />
    <glyph glyph-name="idieresis" unicode="&#xef;" horiz-adv-x="731" 
d="M334 1466q0 -54 -35.5 -89.5t-89.5 -35.5q-57 0 -93 35.5t-36 89.5t36 89.5t93 35.5q54 0 89.5 -35.5t35.5 -89.5zM561 1591q54 0 90.5 -35.5t36.5 -89.5t-36.5 -89.5t-90.5 -35.5q-56 0 -92.5 35.5t-36.5 89.5t36.5 89.5t92.5 35.5zM483 1143v-946q0 -39 15 -67.5
t39.5 -42.5t48.5 -20t49 -6v-61h-504v61q25 0 49 6t48.5 20t39.5 42.5t15 67.5v606q0 91 -36.5 124.5t-121.5 33.5v59q131 34 358 123z" />
    <glyph glyph-name="eth" unicode="&#xf0;" horiz-adv-x="1339" 
d="M1092 1632v-1313q0 -91 36 -124t121 -33v-60q-139 -36 -358 -122v174q-1 -1 -26.5 -18t-32.5 -21.5t-34.5 -22t-40.5 -24t-41.5 -21.5t-47 -22t-47.5 -17.5t-52.5 -15t-52 -8.5t-55.5 -4q-176 0 -267.5 131t-91.5 368q0 319 176.5 491.5t505.5 172.5q53 0 107 -13v162
q0 91 -36.5 124.5t-121.5 33.5v59q134 34 359 123zM602 141q160 0 289 97v712q-152 92 -262 92q-90 0 -162.5 -66.5t-111 -174.5t-38.5 -232q0 -104 13.5 -179t45.5 -133t88.5 -87t137.5 -29z" />
    <glyph glyph-name="ntilde" unicode="&#xf1;" horiz-adv-x="1437" 
d="M428 1343q-31 -9 -66 0q8 112 56.5 182t146.5 70q49 0 167 -52t167 -52q85 0 109 80q33 8 65 0q-5 -108 -55.5 -179t-145.5 -71q-49 0 -167.5 52t-167.5 52q-83 0 -109 -82zM1200 764v-567q0 -39 15 -67.5t39.5 -42.5t48.5 -20t49 -6v-61h-504v61q25 0 49 6t48 20
t39 42.5t15 67.5v522q0 142 -46 214.5t-152 72.5q-134 0 -318 -121v-688q0 -39 15 -67.5t39.5 -42.5t48.5 -20t49 -6v-61h-504v61q25 0 49 6t48.5 20t39.5 42.5t15 67.5v606q0 91 -36.5 124.5t-121.5 33.5v59q131 34 358 123v-172q68 43 109 67t97 52t105 40.5t97 12.5
q309 0 309 -379z" />
    <glyph glyph-name="ograve" unicode="&#xf2;" horiz-adv-x="1280" 
d="M485 1628l232 -330q-24 -6 -58 -6q-33 0 -57 6l-373 322q44 20 123 20q74 0 133 -12zM639 -20q-238 0 -387.5 161.5t-149.5 423.5q0 261 149 419.5t390 158.5q237 0 387 -161.5t150 -422.5q0 -262 -149 -420.5t-390 -158.5zM608 1047q-264 0 -284 -418
q-12 -251 84.5 -402t263.5 -151q264 0 284 420q12 254 -84 402.5t-264 148.5z" />
    <glyph glyph-name="oacute" unicode="&#xf3;" horiz-adv-x="1280" 
d="M575 1298l232 330q58 12 133 12q86 0 125 -20l-375 -322q-24 -6 -57 -6q-34 0 -58 6zM639 -20q-238 0 -387.5 161.5t-149.5 423.5q0 261 149 419.5t390 158.5q237 0 387 -161.5t150 -422.5q0 -262 -149 -420.5t-390 -158.5zM608 1047q-264 0 -284 -418
q-12 -251 84.5 -402t263.5 -151q264 0 284 420q12 254 -84 402.5t-264 148.5z" />
    <glyph glyph-name="ocircumflex" unicode="&#xf4;" horiz-adv-x="1280" 
d="M639 -20q-238 0 -387.5 161.5t-149.5 423.5q0 261 149 419.5t390 158.5q237 0 387 -161.5t150 -422.5q0 -262 -149 -420.5t-390 -158.5zM608 1047q-264 0 -284 -418q-12 -251 84.5 -402t263.5 -151q264 0 284 420q12 254 -84 402.5t-264 148.5z" />
    <glyph glyph-name="otilde" unicode="&#xf5;" horiz-adv-x="1280" 
d="M459 1425q-83 0 -109 -82q-30 -9 -65 0q8 112 56 182t146 70q49 0 167 -52t167 -52q85 0 109 80q33 8 65 0q-5 -109 -55 -179.5t-145 -70.5q-49 0 -168 52t-168 52zM639 -20q-238 0 -387.5 161.5t-149.5 423.5q0 261 149 419.5t390 158.5q237 0 387 -161.5t150 -422.5
q0 -262 -149 -420.5t-390 -158.5zM608 1047q-264 0 -284 -418q-12 -251 84.5 -402t263.5 -151q264 0 284 420q12 254 -84 402.5t-264 148.5z" />
    <glyph glyph-name="odieresis" unicode="&#xf6;" horiz-adv-x="1280" 
d="M467 1341q-57 0 -93 35.5t-36 89.5t36 89.5t93 35.5q54 0 89.5 -35.5t35.5 -89.5t-35.5 -89.5t-89.5 -35.5zM819 1341q-56 0 -92.5 35.5t-36.5 89.5t36.5 89.5t92.5 35.5q54 0 90.5 -35.5t36.5 -89.5t-36.5 -89.5t-90.5 -35.5zM639 -20q-238 0 -387.5 161.5t-149.5 423.5
q0 261 149 419.5t390 158.5q237 0 387 -161.5t150 -422.5q0 -262 -149 -420.5t-390 -158.5zM608 1047q-264 0 -284 -418q-12 -251 84.5 -402t263.5 -151q264 0 284 420q12 254 -84 402.5t-264 148.5z" />
    <glyph glyph-name="oslash" unicode="&#xf8;" horiz-adv-x="1280" 
d="M639 -20q-238 0 -387.5 161.5t-149.5 423.5q0 261 149 419.5t390 158.5q237 0 387 -161.5t150 -422.5q0 -262 -149 -420.5t-390 -158.5zM608 1047q-264 0 -284 -418q-12 -251 84.5 -402t263.5 -151q264 0 284 420q12 254 -84 402.5t-264 148.5z" />
    <glyph glyph-name="ugrave" unicode="&#xf9;" horiz-adv-x="1368" 
d="M702 1292q-33 0 -57 6l-373 322q44 20 123 20q75 0 133 -12l232 -330q-24 -6 -58 -6zM1120 1143v-824q0 -91 36.5 -124t121.5 -33v-60q-139 -36 -358 -122v172q-1 -1 -42 -30t-56.5 -39.5t-59 -35.5t-73 -35.5t-71.5 -21t-81 -10.5q-149 0 -230 92t-80 286l2 445
q0 91 -36 124.5t-121 33.5v59q131 34 358 123v-340l-2 -400q0 -286 186 -286q73 0 158.5 37t147.5 84v565q0 91 -36.5 124.5t-121.5 33.5v59q131 34 358 123z" />
    <glyph glyph-name="uacute" unicode="&#xfa;" horiz-adv-x="1368" 
d="M1108 1620l-375 -322q-24 -6 -57 -6q-34 0 -58 6l232 330q59 12 133 12q86 0 125 -20zM1120 1143v-824q0 -91 36.5 -124t121.5 -33v-60q-139 -36 -358 -122v172q-1 -1 -42 -30t-56.5 -39.5t-59 -35.5t-73 -35.5t-71.5 -21t-81 -10.5q-149 0 -230 92t-80 286l2 445
q0 91 -36 124.5t-121 33.5v59q131 34 358 123v-340l-2 -400q0 -286 186 -286q73 0 158.5 37t147.5 84v565q0 91 -36.5 124.5t-121.5 33.5v59q131 34 358 123z" />
    <glyph glyph-name="ucircumflex" unicode="&#xfb;" horiz-adv-x="1368" 
d="M1120 1143v-824q0 -91 36.5 -124t121.5 -33v-60q-139 -36 -358 -122v172q-1 -1 -42 -30t-56.5 -39.5t-59 -35.5t-73 -35.5t-71.5 -21t-81 -10.5q-149 0 -230 92t-80 286l2 445q0 91 -36 124.5t-121 33.5v59q131 34 358 123v-340l-2 -400q0 -286 186 -286q73 0 158.5 37
t147.5 84v565q0 91 -36.5 124.5t-121.5 33.5v59q131 34 358 123z" />
    <glyph glyph-name="udieresis" unicode="&#xfc;" horiz-adv-x="1368" 
d="M510 1341q-57 0 -93 35.5t-36 89.5t36 89.5t93 35.5q54 0 89.5 -35.5t35.5 -89.5t-35.5 -89.5t-89.5 -35.5zM862 1341q-56 0 -92.5 35.5t-36.5 89.5t36.5 89.5t92.5 35.5q54 0 90.5 -35.5t36.5 -89.5t-36.5 -89.5t-90.5 -35.5zM1120 1143v-824q0 -91 36.5 -124t121.5 -33
v-60q-139 -36 -358 -122v172q-1 -1 -42 -30t-56.5 -39.5t-59 -35.5t-73 -35.5t-71.5 -21t-81 -10.5q-149 0 -230 92t-80 286l2 445q0 91 -36 124.5t-121 33.5v59q131 34 358 123v-340l-2 -400q0 -286 186 -286q73 0 158.5 37t147.5 84v565q0 91 -36.5 124.5t-121.5 33.5v59
q131 34 358 123z" />
    <glyph glyph-name="yacute" unicode="&#xfd;" horiz-adv-x="1089" 
d="M1065 1620l-375 -322q-24 -6 -57 -6q-34 0 -58 6l232 330q58 12 133 12q86 0 125 -20zM754 1122h391v-61q-76 0 -112 -29.5t-66 -109.5l-383 -1012q-73 -194 -183.5 -283.5t-271.5 -89.5q-63 0 -102 30t-39 77q0 49 37.5 78.5t97.5 29.5q35 0 93 -7t97 -7q46 0 92 52.5
t84 141.5l-368 994q-26 72 -66 103.5t-106 31.5v61h536v-61q-161 0 -161 -72q0 -32 43 -149l229 -647l266 733q19 55 19 71q0 32 -27 48t-100 16v61z" />
    <glyph glyph-name="thorn" unicode="&#xfe;" horiz-adv-x="1337" 
d="M553 -20q-49 0 -104 10v-203q0 -39 15 -67.5t39 -42t48 -19.5t49 -6v-62h-504v62q25 0 49 6t48.5 19.5t39.5 42t15 67.5v1016q0 91 -36.5 124.5t-121.5 33.5v59q134 34 359 123v-172q126 84 201 118q120 54 227 54q176 0 267 -131.5t91 -368.5q0 -319 -176.5 -491
t-505.5 -172zM449 887v-715q151 -92 260 -92q90 0 162 66.5t110.5 174.5t38.5 232q0 104 -13.5 179t-45.5 133t-88.5 87t-137.5 29q-155 0 -286 -94z" />
    <glyph glyph-name="ydieresis" unicode="&#xff;" horiz-adv-x="1089" 
d="M467 1341q-57 0 -93 35.5t-36 89.5t36 89.5t93 35.5q54 0 89.5 -35.5t35.5 -89.5t-35.5 -89.5t-89.5 -35.5zM819 1341q-56 0 -92.5 35.5t-36.5 89.5t36.5 89.5t92.5 35.5q54 0 90.5 -35.5t36.5 -89.5t-36.5 -89.5t-90.5 -35.5zM754 1122h391v-61q-76 0 -112 -29.5
t-66 -109.5l-383 -1012q-73 -194 -183.5 -283.5t-271.5 -89.5q-63 0 -102 30t-39 77q0 49 37.5 78.5t97.5 29.5q35 0 93 -7t97 -7q46 0 92 52.5t84 141.5l-368 994q-26 72 -66 103.5t-106 31.5v61h536v-61q-161 0 -161 -72q0 -32 43 -149l229 -647l266 733q19 55 19 71
q0 32 -27 48t-100 16v61z" />
    <glyph glyph-name="dotlessi" unicode="&#x131;" horiz-adv-x="731" 
d="M483 1143v-946q0 -39 15 -67.5t39.5 -42.5t48.5 -20t49 -6v-61h-504v61q25 0 49 6t48.5 20t39.5 42.5t15 67.5v606q0 91 -36.5 124.5t-121.5 33.5v59q131 34 358 123z" />
    <glyph glyph-name="OE" unicode="&#x152;" horiz-adv-x="3182" 
d="M872 1536q332 0 529.5 -211.5t197.5 -564.5q0 -235 -89 -411.5t-254 -272.5t-386 -96q-332 0 -529.5 211.5t-197.5 564.5q0 355 198 567.5t531 212.5zM2703 1409h-401v-606h270q45 0 80 7.5t68.5 26.5t52 59t18.5 99h62v-493h-62q0 194 -219 194h-270v-590h401
q44 0 87 14.5t83 44.5t65 84t25 124h62v-373h-1139v59q106 0 150.5 45t44.5 134v1040q0 89 -44.5 133.5t-150.5 44.5v60h1139v-373h-62q0 70 -25 124t-65 83.5t-83 44t-87 14.5zM1362 672q0 342 -147.5 548.5t-397.5 206.5q-197 0 -316.5 -158t-119.5 -421q0 -227 69 -399.5
t195 -266.5t291 -94q190 0 308 160.5t118 423.5z" />
    <glyph glyph-name="oe" unicode="&#x153;" horiz-adv-x="2430" 
d="M641 1143q237 0 387 -161.5t150 -422.5q0 -262 -149 -420.5t-390 -158.5q-238 0 -387.5 161.5t-149.5 423.5q0 261 149 419.5t390 158.5zM2339 690v-98h-746q2 -115 38 -207t95.5 -150t136 -89t162.5 -31q126 0 275 75l35 -43q-73 -73 -181 -120t-241 -47
q-111 0 -207 36.5t-168.5 106t-114 178t-41.5 244.5q0 145 39.5 260t109.5 188.5t164 111.5t206 38q97 0 173.5 -26t125.5 -69t81 -102.5t45 -122.5t13 -133zM956 496q12 254 -84 402.5t-264 148.5q-264 0 -284 -418q-12 -251 84.5 -402t263.5 -151q264 0 284 420zM1593 686
h482q31 0 44 13t13 40q0 145 -66.5 226.5t-199.5 81.5q-118 0 -192 -87t-81 -274z" />
    <glyph glyph-name="Wcircumflex" unicode="&#x174;" horiz-adv-x="2252" 
d="M1923 1516h420v-62q-88 0 -121.5 -27t-62.5 -110l-459 -1317h-182l-381 1069l-373 -1069h-182l-469 1317q-27 76 -41 95q-27 35 -102 40q-22 2 -52 2v62h571v-62q-79 0 -120 -13t-41 -46q0 -29 18 -78l383 -1086l291 846q37 100 37 191q0 85 -44.5 135.5t-158.5 50.5v62
h571v-62q-82 0 -121.5 -12t-39.5 -47q0 -36 18 -78l383 -1086l373 1086q18 50 18 82q0 31 -29.5 43t-103.5 12v62z" />
    <glyph glyph-name="wcircumflex" unicode="&#x175;" horiz-adv-x="1769" 
d="M1454 1122h391v-61q-77 0 -112.5 -29t-65.5 -110l-332 -922h-157l-283 801l-289 -801h-157l-328 926q-25 72 -65.5 103.5t-106.5 31.5v61h536v-61q-161 0 -161 -72q0 -9 2 -20t7 -27t9 -28t12.5 -36.5t12.5 -37.5l215 -637l260 745q-46 113 -164 113v61h536v-61
q-161 0 -161 -72q0 -9 2 -20t7 -27t9 -28t12.5 -36.5t12.5 -37.5l215 -637l252 723q18 52 18 71q0 32 -27 48t-100 16v61z" />
    <glyph glyph-name="Ycircumflex" unicode="&#x176;" horiz-adv-x="1337" 
d="M989 1516h400v-62q-19 0 -33.5 -2.5t-29.5 -12.5t-23.5 -16.5t-24.5 -28t-23.5 -33t-29.5 -44.5l-422 -651v-435q0 -46 5.5 -72.5t24 -51.5t58.5 -35.5t106 -10.5v-61h-610v61q65 0 104.5 10.5t59 34.5t25.5 51.5t6 73.5v394l-457 692q-31 43 -47 62.5t-40 40t-48.5 27.5
t-59.5 7v62h572v-62q-164 0 -164 -68q0 -32 41 -94l352 -532l348 536q43 66 43 103q0 30 -32.5 42.5t-100.5 12.5v62z" />
    <glyph glyph-name="ycircumflex" unicode="&#x177;" horiz-adv-x="1089" 
d="M754 1122h391v-61q-76 0 -112 -29.5t-66 -109.5l-383 -1012q-73 -194 -183.5 -283.5t-271.5 -89.5q-63 0 -102 30t-39 77q0 49 37.5 78.5t97.5 29.5q35 0 93 -7t97 -7q46 0 92 52.5t84 141.5l-368 994q-26 72 -66 103.5t-106 31.5v61h536v-61q-161 0 -161 -72
q0 -32 43 -149l229 -647l266 733q19 55 19 71q0 32 -27 48t-100 16v61z" />
    <glyph glyph-name="Ydieresis" unicode="&#x178;" horiz-adv-x="1337" 
d="M549 1729q-60 0 -97.5 37t-37.5 94t37.5 94t97.5 37q55 0 93 -37.5t38 -93.5t-38 -93.5t-93 -37.5zM918 1729q-58 0 -97 37t-39 94t39 94t97 37q57 0 95 -37t38 -94t-38 -94t-95 -37zM989 1516h400v-62q-19 0 -33.5 -2.5t-29.5 -12.5t-23.5 -16.5t-24.5 -28t-23.5 -33
t-29.5 -44.5l-422 -651v-435q0 -46 5.5 -72.5t24 -51.5t58.5 -35.5t106 -10.5v-61h-610v61q65 0 104.5 10.5t59 34.5t25.5 51.5t6 73.5v394l-457 692q-31 43 -47 62.5t-40 40t-48.5 27.5t-59.5 7v62h572v-62q-164 0 -164 -68q0 -32 41 -94l352 -532l348 536q43 66 43 103
q0 30 -32.5 42.5t-100.5 12.5v62z" />
    <glyph glyph-name="gravecomb" unicode="&#x300;" 
d="M-895 1628l231 -330q-24 -6 -57 -6t-57 6l-373 322q44 20 123 20q74 0 133 -12z" />
    <glyph glyph-name="acutecomb" unicode="&#x301;" 
d="M-762 1298l232 330q58 12 133 12q86 0 125 -20l-375 -322q-24 -6 -58 -6q-33 0 -57 6z" />
    <glyph glyph-name="tildecomb" unicode="&#x303;" 
d="M-836 1425q-82 0 -108 -82q-31 -9 -66 0q5 110 55 181t148 71q49 0 167 -52t167 -52q84 0 108 80q33 9 66 0q-8 -111 -56 -180.5t-145 -69.5q-49 0 -168 52t-168 52z" />
    <glyph glyph-name="uni0308" unicode="&#x308;" 
d="M-870 1341q-57 0 -93 35.5t-36 89.5t36 89.5t93 35.5q54 0 89.5 -35.5t35.5 -89.5t-35.5 -89.5t-89.5 -35.5zM-518 1341q-56 0 -92.5 35.5t-36.5 89.5t36.5 89.5t92.5 35.5q54 0 90.5 -35.5t36.5 -89.5t-36.5 -89.5t-90.5 -35.5z" />
    <glyph glyph-name="uni0327" unicode="&#x327;" 
d="M-573 55l-41 -176q150 -8 240.5 -56.5t90.5 -135.5q0 -48 -28 -82.5t-74.5 -51.5t-92 -24.5t-93.5 -7.5q-130 0 -234 51l8 63q22 -11 65 -20.5t85 -9.5q59 0 97 25t38 71q0 106 -207 106l64 259z" />
    <glyph glyph-name="uni060C" unicode="&#x60c;" horiz-adv-x="600" 
d="M330 248q57 -5 92 -41.5t35 -91.5q0 -60 -38.5 -97.5t-99.5 -37.5q-59 0 -97 40.5t-38 110.5q0 78 46.5 163t103.5 124h119q-107 -103 -123 -170z" />
    <glyph glyph-name="uni061B" unicode="&#x61b;" horiz-adv-x="673" 
d="M336 819q-71 0 -117.5 49t-46.5 133q0 95 56 196.5t124 150.5h144q-123 -114 -146 -205q68 -4 110 -49.5t42 -112.5q0 -70 -46.5 -116t-119.5 -46zM336 303q73 0 119.5 -46t46.5 -116t-46.5 -115.5t-119.5 -45.5q-69 0 -116.5 46t-47.5 115t47.5 115.5t116.5 46.5z" />
    <glyph glyph-name="uni061F" unicode="&#x61f;" horiz-adv-x="1042" 
d="M856 1407q0 -129 -115 -129q-102 0 -190 -19t-143.5 -47.5t-87 -60.5t-31.5 -61q0 -13 6 -24t19.5 -21.5t27.5 -18.5t37 -17.5t40 -15.5t46 -16t45 -16q13 -4 45.5 -15.5t46.5 -17l42 -16.5t41.5 -19.5t35 -22t32 -27.5t22 -31.5t16 -39t4.5 -45.5q0 -78 -27.5 -160.5
t-71.5 -144.5q-18 -14 -41 -14q-26 0 -49 14q43 82 43 147q0 21 -5 39t-11.5 31.5t-22 27t-26.5 21.5t-34.5 19.5t-38 17.5t-45 18t-46.5 19q-112 46 -145 68q-80 53 -88 149q-1 13 -1 27q0 121 71 242.5t200 204.5t278 83q121 0 121 -129zM625 -20q-69 0 -116.5 46
t-47.5 115t47.5 115.5t116.5 46.5q73 0 119.5 -46t46.5 -116t-46.5 -115.5t-119.5 -45.5z" />
    <glyph glyph-name="uni0621" unicode="&#x621;" horiz-adv-x="899" 
d="M791 469l6 -4l-49 -184q-62 -29 -214 -92t-269 -117t-171 -95q-12 28 -12 76q0 101 190 185q-88 82 -88 161q0 51 41.5 126.5t101 142t130 114t123.5 47.5q38 0 60 -21.5t22 -57.5q0 -38 -23.5 -101.5t-52.5 -99.5h-6q-27 45 -76 45q-54 0 -123.5 -44.5t-69.5 -76.5
q0 -28 72.5 -72t148.5 -55q196 87 259 123z" />
    <glyph glyph-name="uni0622" unicode="&#x622;" horiz-adv-x="598" 
d="M551 1735l14 -9q-96 -155 -172 -155q-25 0 -111 13t-128 13q-38 0 -61 -9t-46 -32l-14 9q37 93 68 127t71 34q35 0 127 -12t117 -12q52 0 78.5 6.5t56.5 26.5zM254 -61h-18q0 218 -5 368l-30 959l176 188h18q0 -249 -4 -369l-24 -704q-5 -137 -17 -204t-47 -138z" />
    <glyph glyph-name="uni0623" unicode="&#x623;" horiz-adv-x="598" 
d="M500 1802l4 -2l-33 -125q-315 -151 -399 -219q-9 15 -9 51q0 67 111 131q-70 46 -70 103q0 47 46 116t110 121t111 52q26 0 40.5 -15t14.5 -39q0 -26 -15.5 -67.5t-35.5 -67.5h-4q-15 31 -52 31q-32 0 -75 -30.5t-43 -51.5q0 -23 44 -43t99 -25q126 62 156 80zM377 1454
h18q0 -249 -4 -369l-24 -704q-5 -137 -17 -204t-47 -138l-49 -100h-18q0 218 -5 368l-30 959z" />
    <glyph glyph-name="uni0624" unicode="&#x624;" horiz-adv-x="1038" 
d="M762 1214l-33 -124q-312 -150 -399 -220q-8 13 -8 52q0 68 110 131q-70 46 -70 102q0 47 46 116t110 121t111 52q26 0 40.5 -14.5t14.5 -38.5q0 -27 -15.5 -68.5t-35.5 -67.5h-4q-15 31 -51 31q-32 0 -75.5 -30.5t-43.5 -51.5q0 -23 44 -42.5t99 -24.5q126 62 156 80z
M598 807q134 0 225.5 -178t91.5 -482q0 -173 -62 -339.5t-165.5 -271.5t-214.5 -105q-194 0 -551 86v41q88 -19 275 -19q83 0 189.5 52t197 126.5t159.5 161.5t84 154q-90 -33 -215 -33q-108 0 -195.5 24t-146.5 81t-59 139q0 85 32.5 184.5t84.5 183t124.5 139.5t145.5 56z
M313 291q41 -41 137.5 -63.5t194.5 -22.5q109 0 176 26q-30 145 -110.5 253t-165.5 108q-77 0 -141.5 -88t-90.5 -213z" />
    <glyph glyph-name="uni0625" unicode="&#x625;" horiz-adv-x="598" 
d="M254 -61h-18q0 218 -5 368l-30 1163l176 189h18q0 -249 -4 -369l-24 -909q-5 -140 -16.5 -206t-47.5 -136zM514 -350l4 -2l-33 -125q-315 -151 -399 -219q-8 13 -8 51q0 68 110 131q-69 46 -69 102q0 47 45.5 116t109.5 121t111 52q26 0 40.5 -14.5t14.5 -38.5
q0 -26 -15.5 -67.5t-35.5 -67.5h-4q-15 30 -51 30q-32 0 -75.5 -30t-43.5 -51q0 -23 44 -43t99 -25q126 62 156 80z" />
    <glyph glyph-name="uni0626" unicode="&#x626;" horiz-adv-x="1400" 
d="M981 299q173 -66 257.5 -132t84.5 -149q0 -129 -99 -250.5t-267.5 -197.5t-356.5 -76q-237 0 -367.5 129t-130.5 346q0 100 31.5 204.5t75.5 154.5l29 -13q-33 -90 -33 -200q0 -396 420 -396q181 0 337 53t248 156q-22 37 -57.5 68t-92.5 59t-82.5 38.5t-91.5 34.5
q-12 5 -18 7q-81 30 -133.5 61.5t-78.5 65.5t-35 65t-9 72q0 82 66 183t160.5 183.5t204 139t190.5 56.5q53 0 77.5 -25.5t24.5 -65.5q0 -70 -63 -196h-23q-1 2 -7 12.5t-9 15t-11 13t-15.5 13t-19.5 8t-26 3.5q-58 0 -161 -43.5t-189 -112t-86 -124.5q0 -33 63.5 -71
t192.5 -89zM422 713l-33 -125q-315 -151 -399 -219q-8 13 -8 51q0 68 110 131q-69 46 -69 102q0 47 45.5 116t109.5 121t111 52q26 0 40.5 -14.5t14.5 -38.5q0 -27 -15.5 -68t-35.5 -67h-4q-15 30 -51 30q-32 0 -75.5 -30.5t-43.5 -51.5q0 -23 44 -42.5t99 -24.5
q126 62 156 80z" />
    <glyph glyph-name="uni0627" unicode="&#x627;" horiz-adv-x="598" 
d="M254 -61h-18q0 218 -5 368l-30 1163l176 189h18q0 -249 -4 -369l-24 -909q-5 -140 -16.5 -206t-47.5 -136z" />
    <glyph glyph-name="uni0628" unicode="&#x628;" horiz-adv-x="1554" 
d="M1337 922h13q35 -72 58.5 -207.5t23.5 -292.5q0 -188 -43 -295q-65 -65 -229 -106t-367 -41q-196 0 -333 27t-214 80t-110.5 122.5t-33.5 163.5q0 103 32.5 207.5t74.5 150.5l29 -12q-33 -90 -33 -201q0 -68 15 -117t55 -92t108 -69t176 -41t258 -15q319 0 502 70
q-4 155 -34.5 269t-92.5 237zM643 -373l188 109l109 -189l-188 -108z" />
    <glyph glyph-name="uni0629" unicode="&#x629;" horiz-adv-x="890" 
d="M436 1143l-151 -88l-109 188l189 109l51 -88l151 88l109 -189l-189 -108zM369 868h16q163 -102 249 -185.5t120 -170.5t34 -211q0 -153 -96 -237t-248 -84q-155 0 -248.5 83t-93.5 232q0 309 258 459q-2 42 9 114zM444 205q159 0 242 117q-19 85 -73 147.5t-171 134.5
q-113 -61 -169 -118t-56 -130q0 -69 58.5 -110t168.5 -41z" />
    <glyph glyph-name="uni062A" unicode="&#x62a;" horiz-adv-x="1554" 
d="M766 864l-152 -88l-108 189l188 108l51 -88l152 88l109 -188l-189 -109zM1337 922h13q35 -72 58.5 -207.5t23.5 -292.5q0 -188 -43 -295q-65 -65 -229 -106t-367 -41q-196 0 -333 27t-214 80t-110.5 122.5t-33.5 163.5q0 103 32.5 207.5t74.5 150.5l29 -12
q-33 -90 -33 -201q0 -68 15 -117t55 -92t108 -69t176 -41t258 -15q319 0 502 70q-4 155 -34.5 269t-92.5 237z" />
    <glyph glyph-name="uni062B" unicode="&#x62b;" horiz-adv-x="1554" 
d="M938 1190l-188 -109l-109 187l188 108zM766 874l-152 -88l-108 187l188 108l51 -88l152 88l109 -186l-189 -109zM1337 922h13q35 -72 58.5 -207.5t23.5 -292.5q0 -188 -43 -295q-65 -65 -229 -106t-367 -41q-196 0 -333 27t-214 80t-110.5 122.5t-33.5 163.5
q0 103 32.5 207.5t74.5 150.5l29 -12q-33 -90 -33 -201q0 -68 15 -117t55 -92t108 -69t176 -41t258 -15q319 0 502 70q-4 155 -34.5 269t-92.5 237z" />
    <glyph glyph-name="uni062C" unicode="&#x62c;" horiz-adv-x="1402" 
d="M1430 -694l14 -27q-149 -116 -290 -169.5t-304 -53.5q-179 0 -317.5 49.5t-225 139t-130.5 208t-44 262.5q0 109 24.5 203t81 183.5t145 163.5t220.5 138.5t303 112.5q-21 7 -87 29.5t-93.5 31t-83.5 25t-90.5 24t-79 13.5t-82.5 6q-138 0 -231 -61l-27 26
q120 246 293 246q76 0 153 -27.5t174 -75t158 -69.5q147 -50 234 -66t225 -16l6 -6l-100 -168q-53 0 -133 -14.5t-177 -44.5t-197 -72t-194 -100.5t-167 -125t-117.5 -152t-44.5 -175.5q0 -73 28 -143t91 -134.5t153 -112.5t224 -77t296 -29q229 0 392 58zM809 -313
l-109 188l189 109l108 -189z" />
    <glyph glyph-name="uni062D" unicode="&#x62d;" horiz-adv-x="1402" 
d="M1430 -694l14 -27q-149 -116 -290 -169.5t-304 -53.5q-179 0 -317.5 49.5t-225 139t-130.5 208t-44 262.5q0 109 24.5 203t81 183.5t145 163.5t220.5 138.5t303 112.5q-21 7 -87 29.5t-93.5 31t-83.5 25t-90.5 24t-79 13.5t-82.5 6q-138 0 -231 -61l-27 26
q120 246 293 246q76 0 153 -27.5t174 -75t158 -69.5q147 -50 234 -66t225 -16l6 -6l-100 -168q-53 0 -133 -14.5t-177 -44.5t-197 -72t-194 -100.5t-167 -125t-117.5 -152t-44.5 -175.5q0 -73 28 -143t91 -134.5t153 -112.5t224 -77t296 -29q229 0 392 58z" />
    <glyph glyph-name="uni062E" unicode="&#x62e;" horiz-adv-x="1402" 
d="M711 1186l-189 -109l-108 189l188 108zM1430 -694l14 -27q-149 -116 -290 -169.5t-304 -53.5q-179 0 -317.5 49.5t-225 139t-130.5 208t-44 262.5q0 109 24.5 203t81 183.5t145 163.5t220.5 138.5t303 112.5q-21 7 -87 29.5t-93.5 31t-83.5 25t-90.5 24t-79 13.5t-82.5 6
q-138 0 -231 -61l-27 26q120 246 293 246q76 0 153 -27.5t174 -75t158 -69.5q147 -50 234 -66t225 -16l6 -6l-100 -168q-53 0 -133 -14.5t-177 -44.5t-197 -72t-194 -100.5t-167 -125t-117.5 -152t-44.5 -175.5q0 -73 28 -143t91 -134.5t153 -112.5t224 -77t296 -29
q229 0 392 58z" />
    <glyph glyph-name="uni062F" unicode="&#x62f;" horiz-adv-x="987" 
d="M680 1024h10q86 -116 142.5 -322.5t52.5 -422.5q-1 -151 -104 -221t-308 -70q-412 0 -412 248q0 153 107 276l29 -12q-33 -85 -33 -140q0 -74 80 -119.5t243 -45.5q180 0 293 30q-7 171 -68.5 319.5t-183.5 315.5z" />
    <glyph glyph-name="uni0630" unicode="&#x630;" horiz-adv-x="987" 
d="M711 1333l-189 -108l-108 188l188 109zM680 1024h10q86 -116 142.5 -322.5t52.5 -422.5q-1 -151 -104 -221t-308 -70q-412 0 -412 248q0 153 107 276l29 -12q-33 -85 -33 -140q0 -74 80 -119.5t243 -45.5q180 0 293 30q-7 171 -68.5 319.5t-183.5 315.5z" />
    <glyph glyph-name="uni0631" unicode="&#x631;" horiz-adv-x="1001" 
d="M700 719h13q64 -82 135.5 -273.5t71.5 -339.5q0 -93 -38.5 -202t-99.5 -200t-144 -151.5t-165 -60.5q-194 0 -551 86v41q83 -18 275 -18q101 0 230 72t231.5 173t150.5 193q-27 99 -55 175.5t-65.5 145.5t-58 102t-69.5 107zM836 115l-2 -6q2 2 2 6z" />
    <glyph glyph-name="uni0632" unicode="&#x632;" horiz-adv-x="1001" 
d="M752 1034l-189 -108l-108 188l188 109zM700 719h13q64 -82 135.5 -273.5t71.5 -339.5q0 -93 -38.5 -202t-99.5 -200t-144 -151.5t-165 -60.5q-194 0 -551 86v41q83 -18 275 -18q101 0 230 72t231.5 173t150.5 193q-27 99 -55 175.5t-65.5 145.5t-58 102t-69.5 107z
M836 115l-2 -6q2 2 2 6z" />
    <glyph glyph-name="uni0633" unicode="&#x633;" horiz-adv-x="2289" 
d="M2195 815h13l-10 -647q0 -40 -21 -64q-35 -57 -89.5 -80.5t-152.5 -23.5q-103 0 -163 18.5t-107 65.5q-61 -84 -215 -84q-94 0 -174 39q-45 -254 -212 -399.5t-423 -145.5q-241 0 -390 131.5t-149 343.5q0 100 31.5 204.5t75.5 154.5l29 -13q-33 -90 -33 -200
q0 -191 119 -293.5t342 -102.5q192 0 327 81t191 229q-15 58 -27 102t-26 83.5t-21.5 61.5t-23.5 56t-22 46.5t-28 53.5t-30 57l122 138h13q69 -139 139 -391q48 -31 154 -31q84 0 139 14l16 305l164 148h12l-59 -441q38 -17 86 -21.5t154 -4.5q81 0 122 14l-34 449z" />
    <glyph glyph-name="uni0634" unicode="&#x634;" horiz-adv-x="2289" 
d="M1872 1227l-189 -109l-108 187l188 108zM1700 911l-152 -88l-108 187l188 108l51 -88l152 88l108 -186l-188 -109zM2195 815h13l-10 -647q0 -40 -21 -64q-35 -57 -89.5 -80.5t-152.5 -23.5q-103 0 -163 18.5t-107 65.5q-61 -84 -215 -84q-94 0 -174 39
q-45 -254 -212 -399.5t-423 -145.5q-241 0 -390 131.5t-149 343.5q0 100 31.5 204.5t75.5 154.5l29 -13q-33 -90 -33 -200q0 -191 119 -293.5t342 -102.5q192 0 327 81t191 229q-15 58 -27 102t-26 83.5t-21.5 61.5t-23.5 56t-22 46.5t-28 53.5t-30 57l122 138h13
q69 -139 139 -391q48 -31 154 -31q84 0 139 14l16 305l164 148h12l-59 -441q38 -17 86 -21.5t154 -4.5q81 0 122 14l-34 449z" />
    <glyph glyph-name="uni0635" unicode="&#x635;" horiz-adv-x="2816" 
d="M2363 801q163 0 267 -112.5t104 -274.5q0 -174 -146.5 -294t-375.5 -120h-381q-198 0 -324.5 29.5t-218.5 97.5q-25 -294 -197.5 -463.5t-449.5 -169.5q-241 0 -390 131.5t-149 343.5q0 100 31.5 204.5t75.5 154.5l29 -13q-33 -90 -33 -200q0 -191 119 -293.5t342 -102.5
q192 0 326 80t190 226q-22 140 -60.5 243.5t-103.5 214.5l129 144h12q77 -179 152.5 -266t191.5 -123q71 53 167 140t171 153.5t162 132t178 101.5t182 36zM1831 205h311q348 0 463 96q-19 136 -90 209.5t-223 73.5q-82 0 -152.5 -19.5t-135.5 -60t-115.5 -80.5t-128 -103.5
t-136.5 -105.5q74 -10 207 -10z" />
    <glyph glyph-name="uni0636" unicode="&#x636;" horiz-adv-x="2816" 
d="M2511 1130l-189 -108l-108 188l188 109zM2363 801q163 0 267 -112.5t104 -274.5q0 -174 -146.5 -294t-375.5 -120h-381q-198 0 -324.5 29.5t-218.5 97.5q-25 -294 -197.5 -463.5t-449.5 -169.5q-241 0 -390 131.5t-149 343.5q0 100 31.5 204.5t75.5 154.5l29 -13
q-33 -90 -33 -200q0 -191 119 -293.5t342 -102.5q192 0 326 80t190 226q-22 140 -60.5 243.5t-103.5 214.5l129 144h12q77 -179 152.5 -266t191.5 -123q71 53 167 140t171 153.5t162 132t178 101.5t182 36zM1831 205h311q348 0 463 96q-19 136 -90 209.5t-223 73.5
q-82 0 -152.5 -19.5t-135.5 -60t-115.5 -80.5t-128 -103.5t-136.5 -105.5q74 -10 207 -10z" />
    <glyph glyph-name="uni0637" unicode="&#x637;" horiz-adv-x="1835" 
d="M1382 801q163 0 267 -112.5t104 -274.5q0 -174 -146.5 -294t-375.5 -120h-381q-469 0 -563 35l-236 184l12 37q200 -48 394 -51q25 73 35 148.5t10 201.5v748q-51 73 -51 141q0 21 6.5 37t27.5 37l138 141h12v-103q21 -49 64.5 -95.5t86.5 -76.5v-12l-151 -162v-520
q0 -98 -3 -150.5t-21 -126.5t-54 -149q62 51 158.5 140t165.5 148.5t155 122t172.5 94.5t173.5 32zM629 205h532q348 0 463 96q-19 136 -90 209.5t-223 73.5q-83 0 -154.5 -20.5t-137 -61.5t-118 -82.5t-131 -106t-141.5 -108.5z" />
    <glyph glyph-name="uni0638" unicode="&#x638;" horiz-adv-x="1835" 
d="M1382 801q163 0 267 -112.5t104 -274.5q0 -174 -146.5 -294t-375.5 -120h-381q-469 0 -563 35l-236 184l12 37q200 -48 394 -51q25 73 35 148.5t10 201.5v748q-51 73 -51 141q0 21 6.5 37t27.5 37l138 141h12v-103q21 -49 64.5 -95.5t86.5 -76.5v-12l-151 -162v-520
q0 -98 -3 -150.5t-21 -126.5t-54 -149q62 51 158.5 140t165.5 148.5t155 122t172.5 94.5t173.5 32zM1530 1130l-189 -108l-108 188l188 109zM629 205h532q348 0 463 96q-19 136 -90 209.5t-223 73.5q-83 0 -154.5 -20.5t-137 -61.5t-118 -82.5t-131 -106t-141.5 -108.5z" />
    <glyph glyph-name="uni0639" unicode="&#x639;" horiz-adv-x="1269" 
d="M1286 -694l14 -27q-83 -65 -138 -101t-125.5 -67t-148 -43t-181.5 -12q-250 0 -401.5 131t-151.5 364q0 394 346 619q-101 69 -169.5 183t-68.5 212q0 69 34.5 142.5t91 133.5t137.5 99t167 39q106 0 186 -81.5t111 -205.5l-10 -8q-55 36 -141 59t-170 23
q-90 0 -167 -37.5t-128 -101.5q20 -56 53.5 -109.5t82.5 -104t118.5 -83.5t148.5 -39l328 106l10 -8l-39 -192q-809 -255 -809 -617q0 -139 172 -235.5t457 -96.5q228 0 391 58z" />
    <glyph glyph-name="uni063A" unicode="&#x63a;" horiz-adv-x="1269" 
d="M799 1309l-189 -109l-108 189l188 108zM1286 -694l14 -27q-83 -65 -138 -101t-125.5 -67t-148 -43t-181.5 -12q-250 0 -401.5 131t-151.5 364q0 394 346 619q-101 69 -169.5 183t-68.5 212q0 69 34.5 142.5t91 133.5t137.5 99t167 39q106 0 186 -81.5t111 -205.5l-10 -8
q-55 36 -141 59t-170 23q-90 0 -167 -37.5t-128 -101.5q20 -56 53.5 -109.5t82.5 -104t118.5 -83.5t148.5 -39l328 106l10 -8l-39 -192q-809 -255 -809 -617q0 -139 172 -235.5t457 -96.5q228 0 391 58z" />
    <glyph glyph-name="uni0640" unicode="&#x640;" horiz-adv-x="245" 
d="M0 0l-41 4v197l41 4h246l41 -4v-197l-41 -4h-246z" />
    <glyph glyph-name="uni0641" unicode="&#x641;" horiz-adv-x="1564" 
d="M1317 1538l-189 -108l-108 188l188 108zM1169 1208q135 0 226.5 -177t91.5 -480q0 -304 -177 -437.5t-536 -133.5q-207 0 -354 37.5t-232.5 122t-85.5 212.5q0 93 31 177t76 135l29 -13q-33 -85 -33 -168q0 -299 571 -299q110 0 196 9.5t151.5 29t104.5 36t91 44.5
q36 50 67 154q-95 -56 -233 -56q-67 0 -131 14.5t-118.5 42.5t-88 76.5t-33.5 110.5q0 85 32.5 184.5t84.5 183t124.5 139.5t145.5 56zM885 692q41 -41 137.5 -63.5t194.5 -22.5q107 0 176 27q-30 145 -111 252.5t-166 107.5q-77 0 -141 -88t-90 -213z" />
    <glyph glyph-name="uni0642" unicode="&#x642;" horiz-adv-x="1431" 
d="M983 1098l-152 -88l-108 188l188 109l52 -88l151 88l109 -189l-189 -108zM973 807q134 0 225.5 -177t91.5 -480q-8 -296 -184.5 -476t-464.5 -180q-241 0 -390 131.5t-149 343.5q0 100 31.5 204.5t75.5 154.5l29 -13q-33 -90 -33 -200q0 -191 119 -293.5t342 -102.5
q201 0 335 83.5t187 252.5q-93 -55 -232 -55q-67 0 -130.5 14.5t-118.5 42.5t-88 76.5t-33 110.5q0 85 32.5 184.5t84.5 183t124.5 139.5t145.5 56zM688 291q41 -41 137.5 -63.5t194.5 -22.5q109 0 176 26q-30 145 -110.5 253t-165.5 108q-77 0 -141.5 -88t-90.5 -213z" />
    <glyph glyph-name="uni0643" unicode="&#x643;" horiz-adv-x="1617" 
d="M1456 1659h19q0 -365 -17 -1221q0 -77 -10 -167.5t-29 -143.5q-58 -63 -259 -105t-412 -42q-144 0 -254.5 18t-184.5 51t-120.5 82.5t-66.5 108.5t-20 133q0 103 32.5 207.5t74.5 150.5l29 -12q-33 -90 -33 -201q0 -67 14.5 -117t52.5 -92.5t101.5 -69t163 -41
t235.5 -14.5q343 0 537 56l-29 1230zM981 885l-33 -125q-315 -151 -399 -219q-8 13 -8 51q0 68 110 131q-69 46 -69 102q0 47 45.5 116t109.5 121t111 52q26 0 40.5 -14.5t14.5 -38.5q0 -27 -15.5 -68t-35.5 -67h-4q-15 30 -51 30q-32 0 -75.5 -30.5t-43.5 -51.5
q0 -23 44 -42.5t99 -24.5q126 62 156 80z" />
    <glyph glyph-name="uni0644" unicode="&#x644;" horiz-adv-x="1507" 
d="M1444 1384v-12l-152 -162v-911q0 -213 -48 -370t-137.5 -251t-208 -139t-269.5 -45q-233 0 -380 132t-147 343q0 103 32.5 208t74.5 151l29 -13q-33 -90 -33 -200q0 -191 118 -293.5t330 -102.5q165 0 302 62.5t204 177.5l-8 1354q-43 68 -43 131q0 39 35 74l137 141h12
v-103q21 -49 65 -95.5t87 -76.5z" />
    <glyph glyph-name="uni0645" unicode="&#x645;" horiz-adv-x="1228" 
d="M852 805q83 0 161.5 -80.5t126.5 -207t48 -255.5q0 -98 -23.5 -172.5t-64.5 -150.5q-355 45 -505.5 116.5t-150.5 204.5q0 62 33 141q-48 -54 -95 -102.5t-89 -91t-55 -55.5q37 -186 81.5 -387t61 -285t16.5 -135q0 -65 -28 -110t-113 -120h-18q6 39 6 121
q0 92 -40.5 267.5t-81 347.5t-40.5 258q0 58 128.5 204t291.5 295q114 108 190.5 152.5t159.5 44.5zM1034 158v16q0 108 -25 203.5t-71 155t-102 59.5q-65 0 -143.5 -91t-135.5 -214q118 -57 477 -129z" />
    <glyph glyph-name="uni0646" unicode="&#x646;" horiz-adv-x="1351" 
d="M739 705l-188 -109l-109 188l189 109zM1147 627h12q51 -69 87 -222.5t36 -336.5q-4 -116 -50.5 -220t-128 -183t-201.5 -125t-261 -46q-241 0 -390 131.5t-149 343.5q0 100 31.5 204.5t75.5 154.5l29 -13q-33 -90 -33 -200q0 -191 119 -293.5t342 -102.5
q179 0 308.5 70.5t192.5 200.5q-11 93 -39 183.5t-52.5 142.5t-74.5 149z" />
    <glyph glyph-name="uni0647" unicode="&#x647;" horiz-adv-x="890" 
d="M369 868h16q163 -102 249 -185.5t120 -170.5t34 -211q0 -153 -96 -237t-248 -84q-155 0 -248.5 83t-93.5 232q0 309 258 459q-2 42 9 114zM444 205q159 0 242 117q-19 85 -73 147.5t-171 134.5q-113 -61 -169 -118t-56 -130q0 -69 58.5 -110t168.5 -41z" />
    <glyph glyph-name="uni0648" unicode="&#x648;" horiz-adv-x="1038" 
d="M598 807q134 0 225.5 -178t91.5 -482q0 -173 -62 -339.5t-165.5 -271.5t-214.5 -105q-194 0 -551 86v41q88 -19 275 -19q83 0 189.5 52t197 126.5t159.5 161.5t84 154q-90 -33 -215 -33q-108 0 -195.5 24t-146.5 81t-59 139q0 85 32.5 184.5t84.5 183t124.5 139.5
t145.5 56zM313 291q41 -41 137.5 -63.5t194.5 -22.5q109 0 176 26q-30 145 -110.5 253t-165.5 108q-77 0 -141.5 -88t-90.5 -213z" />
    <glyph glyph-name="uni0649" unicode="&#x649;" horiz-adv-x="1400" 
d="M981 299q173 -66 257.5 -132t84.5 -149q0 -129 -99 -250.5t-267.5 -197.5t-356.5 -76q-237 0 -367.5 129t-130.5 346q0 100 31.5 204.5t75.5 154.5l29 -13q-33 -90 -33 -200q0 -396 420 -396q181 0 337 53t248 156q-22 37 -57.5 68t-92.5 59t-82.5 38.5t-91.5 34.5
q-12 5 -18 7q-81 30 -133.5 61.5t-78.5 65.5t-35 65t-9 72q0 82 66 183t160.5 183.5t204 139t190.5 56.5q53 0 77.5 -25.5t24.5 -65.5q0 -70 -63 -196h-23q-1 2 -7 12.5t-9 15t-11 13t-15.5 13t-19.5 8t-26 3.5q-58 0 -161 -43.5t-189 -112t-86 -124.5q0 -33 63.5 -71
t192.5 -89z" />
    <glyph glyph-name="uni064A" unicode="&#x64a;" horiz-adv-x="1400" 
d="M981 299q173 -66 257.5 -132t84.5 -149q0 -129 -99 -250.5t-267.5 -197.5t-356.5 -76q-237 0 -367.5 129t-130.5 346q0 100 31.5 204.5t75.5 154.5l29 -13q-33 -90 -33 -200q0 -396 420 -396q181 0 337 53t248 156q-22 37 -57.5 68t-92.5 59t-82.5 38.5t-91.5 34.5
q-12 5 -18 7q-81 30 -133.5 61.5t-78.5 65.5t-35 65t-9 72q0 82 66 183t160.5 183.5t204 139t190.5 56.5q53 0 77.5 -25.5t24.5 -65.5q0 -70 -63 -196h-23q-1 2 -7 12.5t-9 15t-11 13t-15.5 13t-19.5 8t-26 3.5q-58 0 -161 -43.5t-189 -112t-86 -124.5q0 -33 63.5 -71
t192.5 -89zM590 -776l151 88l109 -189l-188 -108l-52 88l-151 -88l-109 188l189 109z" />
    <glyph glyph-name="uni064B" unicode="&#x64b;" 
d="M827 1735l-36 -142l-400 -209l19 127l413 226zM827 1485l-36 -142l-400 -208l19 127l413 225z" />
    <glyph glyph-name="uni064C" unicode="&#x64c;" 
d="M754 1294l-41 -118q-33 6 -78 10q-52 -73 -150 -122.5t-245 -49.5h-88q18 113 18 168q0 34 -7 43.5t-28 9.5q-37 0 -110 -29l26 119q82 33 133 33q33 0 49.5 -22t16.5 -76q0 -38 -12 -140q86 2 173 23.5t140 56.5q-135 24 -186.5 60.5t-51.5 101.5q0 87 67.5 163.5
t145.5 76.5q66 0 104 -67.5t38 -188.5q0 -35 -2 -41q14 -3 43.5 -5.5t44.5 -5.5zM385 1423q12 -46 57 -68t152 -40q-10 158 -109 158q-50 0 -100 -50z" />
    <glyph glyph-name="uni064D" unicode="&#x64d;" 
d="M827 -86l-36 -141l-400 -209l19 127l413 225zM827 -336l-36 -141l-400 -209l19 127l413 225z" />
    <glyph glyph-name="uni064E" unicode="&#x64e;" 
d="M827 1485l-36 -142l-400 -208l19 127l413 225z" />
    <glyph glyph-name="uni064F" unicode="&#x64f;" 
d="M754 1294l-41 -118l-80 6q-42 -61 -118 -116t-173 -93q-41 8 -104 28t-84 33l2 4q98 17 207 62.5t176 95.5q-121 23 -173.5 64t-52.5 108q0 84 67.5 159t145.5 75q66 0 104 -67.5t38 -188.5q0 -37 -2 -43q21 -5 88 -9zM385 1423q11 -42 57 -67.5t144 -42.5
q-3 160 -101 160q-53 0 -100 -50z" />
    <glyph glyph-name="uni0650" unicode="&#x650;" 
d="M827 -86l-36 -141l-400 -209l19 127l413 225z" />
    <glyph glyph-name="uni0651" unicode="&#x651;" 
d="M858 1554l6 -2q21 -88 21 -141q0 -105 -48 -178.5t-116 -73.5q-51 0 -92 35q-47 -129 -150 -129q-61 0 -102 44.5t-41 117.5q0 49 8 80l72 41h4q0 -91 16.5 -127.5t55.5 -36.5q35 0 51 48.5t16 153.5l72 39l6 -2q0 -83 34.5 -116.5t110.5 -38.5q11 33 11 61q0 37 -8 84
t-19 70z" />
    <glyph glyph-name="uni0652" unicode="&#x652;" 
d="M420 1432q0 111 53.5 190.5t142.5 79.5q60 0 106.5 -40.5t69.5 -103t23 -133.5q0 -97 -54.5 -148.5t-142.5 -51.5q-93 0 -145.5 54.5t-52.5 152.5zM494 1456q0 -39 35.5 -66.5t91.5 -27.5q96 0 124 72q-11 56 -46 91.5t-85 35.5q-52 0 -86 -32.5t-34 -72.5z" />
    <glyph glyph-name="uni0653" unicode="&#x653;" 
d="M836 1403l14 -8q-96 -156 -172 -156q-25 0 -111.5 13.5t-128.5 13.5q-38 0 -60.5 -9t-45.5 -32l-15 8q37 93 68.5 127.5t71.5 34.5q35 0 126.5 -12.5t116.5 -12.5q52 0 79 7t57 26z" />
    <glyph glyph-name="uni0654" unicode="&#x654;" 
d="M819 1470l4 -2l-32 -125q-317 -152 -400 -219q-8 13 -8 52q0 67 111 131q-70 46 -70 102q0 47 45.5 116t109.5 121t111 52q26 0 40.5 -14.5t14.5 -38.5q0 -27 -15.5 -68.5t-35.5 -67.5h-4q-16 31 -51 31q-32 0 -75.5 -30.5t-43.5 -51.5q0 -23 44 -42.5t100 -24.5
q129 63 155 79z" />
    <glyph glyph-name="uni0655" unicode="&#x655;" 
d="M868 307l4 -2l-32 -125q-317 -152 -400 -219q-8 13 -8 51q0 67 111 131q-70 46 -70 103q0 47 45.5 116t109.5 121t111 52q26 0 41 -15t15 -39q0 -26 -16 -67.5t-36 -67.5h-4q-15 31 -51 31q-32 0 -75.5 -30.5t-43.5 -51.5q0 -23 44.5 -43t99.5 -25q121 59 155 80z" />
    <glyph glyph-name="uni0656" unicode="&#x656;" 
 />
    <glyph glyph-name="uni0660" unicode="&#x660;" horiz-adv-x="628" 
d="M274 -20l-161 260l241 151l162 -260z" />
    <glyph glyph-name="uni0661" unicode="&#x661;" horiz-adv-x="675" 
d="M469 434q0 -43 -3 -83.5t-6 -71t-11.5 -64.5t-12.5 -53.5t-18 -49t-18 -40.5t-21 -38.5t-19.5 -32t-22 -33t-20.5 -29.5h-18q39 136 39 274q0 259 -62 609t-161 542l170 172h18q76 -199 121 -536t45 -566z" />
    <glyph glyph-name="uni0662" unicode="&#x662;" horiz-adv-x="962" 
d="M864 1546h45q0 -160 -67.5 -218t-231.5 -58q-128 0 -229 16q46 -202 71 -444.5t25 -407.5q0 -98 -11 -174.5t-35 -134.5t-41 -88t-51 -79q-9 -13 -13 -19h-19q39 136 39 274q0 259 -62 609t-161 542l125 145q139 -34 387 -34q95 0 150 14t79 57z" />
    <glyph glyph-name="uni0663" unicode="&#x663;" horiz-adv-x="1249" 
d="M1145 1536h20l-8 -530q-1 -84 -44.5 -128t-117.5 -44q-64 0 -137 31t-123 75q-72 -106 -182 -106q-62 0 -113 30q29 -274 29 -430q0 -43 -3 -83.5t-6 -71t-11.5 -64.5t-12.5 -53.5t-18 -49t-18 -40.5t-21 -38.5t-19.5 -32t-22 -33t-20.5 -29.5h-18q39 136 39 274
q0 259 -62 609t-161 542l170 172h18q70 -188 115 -496q62 -20 125 -20q13 0 67 4l13 289l155 112h21l-41 -362q98 -43 219 -43q27 0 41 2l-29 399z" />
    <glyph glyph-name="uni0664" unicode="&#x664;" horiz-adv-x="962" 
d="M956 248l7 -6l-76 -195q-143 -67 -283 -67q-181 0 -284 93t-103 224q0 109 69.5 225t192.5 195q-143 27 -243.5 124.5t-100.5 198.5q0 64 45.5 139t123.5 144t192.5 127.5t240.5 85.5l17 -14l-47 -205q-173 -40 -280.5 -102.5t-186.5 -141.5q46 -81 189 -135.5t343 -58.5
l-33 -183q-153 -40 -268 -151t-149 -236q48 -58 130.5 -95.5t186.5 -37.5q119 0 317 72z" />
    <glyph glyph-name="uni0665" unicode="&#x665;" horiz-adv-x="1155" 
d="M96 487q0 242 59 430t166.5 292t245.5 104q150 0 262.5 -109.5t171 -300.5t58.5 -436q0 -149 -66.5 -261.5t-175.5 -169t-242 -56.5q-210 0 -344.5 141t-134.5 366zM229 528q0 -158 94 -242.5t261 -84.5q286 0 354 245q-17 300 -116 473t-255 173q-151 0 -244.5 -154.5
t-93.5 -409.5z" />
    <glyph glyph-name="uni0666" unicode="&#x666;" horiz-adv-x="901" 
d="M621 1235q0 -269 39 -562.5t106 -500.5l-164 -172h-24q-76 257 -76 625q0 492 24 655q-106 -10 -327 -10q-127 0 -187.5 60t-60.5 216h45q24 -43 79 -57t150 -14h53.5h63t57.5 0.5t66 2t58 3.5t63 5.5t53 8.5q-18 -221 -18 -260z" />
    <glyph glyph-name="uni0667" unicode="&#x667;" horiz-adv-x="1110" 
d="M961 1536l88 -133q-72 -170 -145.5 -425.5t-139 -513.5t-96.5 -355l-146 -129h-22q-43 133 -105 357.5t-106.5 384.5t-111.5 340.5t-136 295.5l137 178h25q35 -71 69.5 -155t70 -194t59.5 -184t61.5 -213.5t51 -189t52.5 -203t43 -168.5q58 308 152 690.5t180 616.5h19z
" />
    <glyph glyph-name="uni0668" unicode="&#x668;" horiz-adv-x="1110" 
d="M588 1536h22q43 -133 105 -357.5t106.5 -385t111.5 -340.5t136 -295l-137 -178h-25q-35 71 -69 154.5t-70.5 194.5t-60 183.5t-61.5 214t-50.5 187.5t-52.5 203.5t-43 168.5q-58 -308 -152 -690t-180 -616h-18l-89 133q71 171 144.5 426.5t139.5 513t97 354.5z" />
    <glyph glyph-name="uni0669" unicode="&#x669;" horiz-adv-x="919" 
d="M705 1034q1 -11 18 -185.5t28 -260t36.5 -216.5t56.5 -204l-162 -168h-25q-38 135 -56.5 376.5t-18.5 465.5q-93 -17 -168 -17q-169 0 -269 72.5t-100 222.5q0 70 25.5 143.5t70 134t110.5 99.5t140 39q55 0 102 -24.5t79 -68t56.5 -93.5t39.5 -110t23.5 -108.5
t13.5 -97.5zM156 1128q111 -106 288 -106q56 0 134 12q-27 297 -197 297q-83 0 -141 -56t-84 -147z" />
    <glyph glyph-name="uni066A" unicode="&#x66a;" horiz-adv-x="1466" 
d="M270 1186l-127 223l224 127l127 -223zM1319 1516l-1020 -1516h-149l1019 1516h150zM1100 -20l-127 223l223 127l127 -224z" />
    <glyph glyph-name="uni066B" unicode="&#x66b;" horiz-adv-x="681" 
d="M342 303q71 0 117.5 -49t46.5 -133q0 -94 -56 -195.5t-124 -150.5h-144q123 114 146 205q-68 4 -110 49t-42 112q0 70 46.5 116t119.5 46z" />
    <glyph glyph-name="uni066C" unicode="&#x66c;" horiz-adv-x="681" 
d="M354 303q68 -4 110 -49.5t42 -112.5q0 -70 -46.5 -115.5t-119.5 -45.5q-71 0 -117.5 49t-46.5 133q0 94 56 195.5t124 150.5h144q-123 -114 -146 -205z" />
    <glyph glyph-name="uni066D" unicode="&#x66d;" horiz-adv-x="800" 
d="M684 264q60 -35 14 -114q-35 -54 -69 -54q-18 0 -35 10q-20 12 -23 15l-127 125l45 -172q3 -12 3 -27q0 -67 -91 -67q-92 0 -92 69q0 19 2 25l45 172l-125 -125q-5 -4 -22 -15q-17 -10 -35 -10q-35 0 -70 54q-46 78 15 114q9 7 22 10l174 48l-172 47q-12 3 -24 12
q-60 36 -15 111q34 57 72 57q17 0 35 -12q10 -5 20 -15l127 -127l-47 174q-2 6 -2 25q0 70 92 70q91 0 91 -68q0 -15 -3 -27l-45 -174l127 127q9 9 21 15q18 12 35 12q37 0 71 -57q46 -76 -14 -111q-12 -9 -25 -12l-172 -47l175 -48q13 -3 22 -10z" />
    <glyph glyph-name="uni066E" unicode="&#x66e;" horiz-adv-x="1554" 
d="M1337 922h13q35 -72 58.5 -207.5t23.5 -292.5q0 -188 -43 -295q-65 -65 -229 -106t-367 -41q-196 0 -333 27t-214 80t-110.5 122.5t-33.5 163.5q0 103 32.5 207.5t74.5 150.5l29 -12q-33 -90 -33 -201q0 -68 15 -117t55 -92t108 -69t176 -41t258 -15q319 0 502 70
q-4 155 -34.5 269t-92.5 237z" />
    <glyph glyph-name="uni066F" unicode="&#x66f;" horiz-adv-x="1431" 
d="M973 807q134 0 225.5 -177t91.5 -480q-8 -296 -184.5 -476t-464.5 -180q-241 0 -390 131.5t-149 343.5q0 100 31.5 204.5t75.5 154.5l29 -13q-33 -90 -33 -200q0 -191 119 -293.5t342 -102.5q201 0 335 83.5t187 252.5q-93 -55 -232 -55q-67 0 -130.5 14.5t-118.5 42.5
t-88 76.5t-33 110.5q0 85 32.5 184.5t84.5 183t124.5 139.5t145.5 56zM688 291q41 -41 137.5 -63.5t194.5 -22.5q109 0 176 26q-30 145 -110.5 253t-165.5 108q-77 0 -141.5 -88t-90.5 -213z" />
    <glyph glyph-name="uni0670" unicode="&#x670;" 
 />
    <glyph glyph-name="uni0671" unicode="&#x671;" horiz-adv-x="598" 
d="M479 1933q52 0 86.5 -47.5t34.5 -111.5q0 -86 -62 -155t-145 -69q-29 0 -113 13.5t-126 13.5q-38 0 -61 -9t-46 -32l-14 8q37 86 68.5 119t70.5 33q23 0 37 -2q47 98 124 168.5t146 70.5zM403 1671q82 0 125 66q-12 35 -28 51t-49 16q-44 0 -84 -27.5t-91 -93.5
q78 -12 127 -12zM377 1454h18q0 -249 -4 -369l-24 -704q-5 -137 -17 -204t-47 -138l-49 -100h-18q0 218 -5 368l-30 959z" />
    <glyph glyph-name="uni067E" unicode="&#x67e;" horiz-adv-x="1554" 
d="M1337 922h13q35 -72 58.5 -207.5t23.5 -292.5q0 -188 -43 -295q-65 -65 -229 -106t-367 -41q-196 0 -333 27t-214 80t-110.5 122.5t-33.5 163.5q0 103 32.5 207.5t74.5 150.5l29 -12q-33 -90 -33 -201q0 -68 15 -117t55 -92t108 -69t176 -41t258 -15q319 0 502 70
q-4 155 -34.5 269t-92.5 237zM782 -352l152 88l108 -189l-188 -108l-51 88l-152 -88l-108 188l188 109zM610 -668l189 109l108 -186l-188 -109z" />
    <glyph glyph-name="uni0686" unicode="&#x686;" horiz-adv-x="1402" 
d="M1430 -694l14 -27q-149 -116 -290 -169.5t-304 -53.5q-179 0 -317.5 49.5t-225 139t-130.5 208t-44 262.5q0 109 24.5 203t81 183.5t145 163.5t220.5 138.5t303 112.5q-21 7 -87 29.5t-93.5 31t-83.5 25t-90.5 24t-79 13.5t-82.5 6q-138 0 -231 -61l-27 26
q120 246 293 246q76 0 153 -27.5t174 -75t158 -69.5q147 -50 234 -66t225 -16l6 -6l-100 -168q-53 0 -133 -14.5t-177 -44.5t-197 -72t-194 -100.5t-167 -125t-117.5 -152t-44.5 -175.5q0 -73 28 -143t91 -134.5t153 -112.5t224 -77t296 -29q229 0 392 58zM967 45l108 -188
l-188 -109l-51 88l-152 -88l-109 189l189 108l51 -88zM643 -358l188 108l109 -186l-188 -109z" />
    <glyph glyph-name="uni0698" unicode="&#x698;" horiz-adv-x="1001" 
d="M786 1321l-188 -109l-109 187l189 108zM614 1006l-151 -88l-109 186l189 108l51 -88l151 88l109 -186l-188 -108zM700 719h13q64 -82 135.5 -273.5t71.5 -339.5q0 -93 -38.5 -202t-99.5 -200t-144 -151.5t-165 -60.5q-194 0 -551 86v41q83 -18 275 -18q101 0 230 72
t231.5 173t150.5 193q-27 99 -55 175.5t-65.5 145.5t-58 102t-69.5 107zM836 115l-2 -6q2 2 2 6z" />
    <glyph glyph-name="uni06A1" unicode="&#x6a1;" horiz-adv-x="1564" 
d="M1169 1208q135 0 226.5 -177t91.5 -480q0 -304 -177 -437.5t-536 -133.5q-207 0 -354 37.5t-232.5 122t-85.5 212.5q0 93 31 177t76 135l29 -13q-33 -85 -33 -168q0 -299 571 -299q110 0 196 9.5t151.5 29t104.5 36t91 44.5q36 50 67 154q-95 -56 -233 -56
q-67 0 -131 14.5t-118.5 42.5t-88 76.5t-33.5 110.5q0 85 32.5 184.5t84.5 183t124.5 139.5t145.5 56zM885 692q41 -41 137.5 -63.5t194.5 -22.5q107 0 176 27q-30 145 -111 252.5t-166 107.5q-77 0 -141 -88t-90 -213z" />
    <glyph glyph-name="uni06A4" unicode="&#x6a4;" horiz-adv-x="1564" 
d="M1352 1825l-189 -109l-108 187l188 108zM1180 1509l-152 -88l-108 187l188 108l51 -88l152 88l108 -186l-188 -109zM1169 1208q135 0 226.5 -177t91.5 -480q0 -304 -177 -437.5t-536 -133.5q-207 0 -354 37.5t-232.5 122t-85.5 212.5q0 93 31 177t76 135l29 -13
q-33 -85 -33 -168q0 -299 571 -299q110 0 196 9.5t151.5 29t104.5 36t91 44.5q36 50 67 154q-95 -56 -233 -56q-67 0 -131 14.5t-118.5 42.5t-88 76.5t-33.5 110.5q0 85 32.5 184.5t84.5 183t124.5 139.5t145.5 56zM885 692q41 -41 137.5 -63.5t194.5 -22.5q107 0 176 27
q-30 145 -111 252.5t-166 107.5q-77 0 -141 -88t-90 -213z" />
    <glyph glyph-name="uni06A9" unicode="&#x6a9;" horiz-adv-x="1771" 
d="M1833 1638l-68 -204l-739 -299q278 -328 395 -513t117 -337q0 -63 -26.5 -112t-77.5 -82t-115 -55.5t-149 -34t-168.5 -16.5t-184.5 -5q-165 0 -289 18t-204.5 50.5t-130.5 82.5t-70.5 108.5t-20.5 133.5q0 103 32.5 207.5t74.5 150.5l29 -12q-33 -90 -33 -201
q0 -68 15 -117t55 -92t108 -69t176 -41t258 -15q615 0 615 82q0 37 -97 178q-88 139 -235.5 324.5t-245.5 288.5q0 43 24.5 106t53.5 107l883 368h18z" />
    <glyph glyph-name="uni06AF" unicode="&#x6af;" horiz-adv-x="1771" 
d="M1827 1999l-33 -131l-911 -381l16 117l924 397zM1833 1638l-68 -204l-739 -299q278 -328 395 -513t117 -337q0 -63 -26.5 -112t-77.5 -82t-115 -55.5t-149 -34t-168.5 -16.5t-184.5 -5q-165 0 -289 18t-204.5 50.5t-130.5 82.5t-70.5 108.5t-20.5 133.5q0 103 32.5 207.5
t74.5 150.5l29 -12q-33 -90 -33 -201q0 -68 15 -117t55 -92t108 -69t176 -41t258 -15q615 0 615 82q0 37 -97 178q-88 139 -235.5 324.5t-245.5 288.5q0 43 24.5 106t53.5 107l883 368h18z" />
    <glyph glyph-name="uni06BA" unicode="&#x6ba;" horiz-adv-x="1351" 
d="M1147 627h12q51 -69 87 -222.5t36 -336.5q-4 -116 -50.5 -220t-128 -183t-201.5 -125t-261 -46q-241 0 -390 131.5t-149 343.5q0 100 31.5 204.5t75.5 154.5l29 -13q-33 -90 -33 -200q0 -191 119 -293.5t342 -102.5q179 0 308.5 70.5t192.5 200.5q-11 93 -39 183.5
t-52.5 142.5t-74.5 149z" />
    <glyph glyph-name="uni06CC" unicode="&#x6cc;" horiz-adv-x="1400" 
d="M981 299q173 -66 257.5 -132t84.5 -149q0 -129 -99 -250.5t-267.5 -197.5t-356.5 -76q-237 0 -367.5 129t-130.5 346q0 100 31.5 204.5t75.5 154.5l29 -13q-33 -90 -33 -200q0 -396 420 -396q181 0 337 53t248 156q-22 37 -57.5 68t-92.5 59t-82.5 38.5t-91.5 34.5
q-12 5 -18 7q-81 30 -133.5 61.5t-78.5 65.5t-35 65t-9 72q0 82 66 183t160.5 183.5t204 139t190.5 56.5q53 0 77.5 -25.5t24.5 -65.5q0 -70 -63 -196h-23q-1 2 -7 12.5t-9 15t-11 13t-15.5 13t-19.5 8t-26 3.5q-58 0 -161 -43.5t-189 -112t-86 -124.5q0 -33 63.5 -71
t192.5 -89z" />
    <glyph glyph-name="uni06F0" unicode="&#x6f0;" horiz-adv-x="628" 
d="M274 -20l-161 260l241 151l162 -260z" />
    <glyph glyph-name="uni06F1" unicode="&#x6f1;" horiz-adv-x="675" 
d="M469 434q0 -43 -3 -83.5t-6 -71t-11.5 -64.5t-12.5 -53.5t-18 -49t-18 -40.5t-21 -38.5t-19.5 -32t-22 -33t-20.5 -29.5h-18q39 136 39 274q0 259 -62 609t-161 542l170 172h18q76 -199 121 -536t45 -566z" />
    <glyph glyph-name="uni06F2" unicode="&#x6f2;" horiz-adv-x="962" 
d="M864 1546h45q0 -160 -67.5 -218t-231.5 -58q-128 0 -229 16q46 -202 71 -444.5t25 -407.5q0 -98 -11 -174.5t-35 -134.5t-41 -88t-51 -79q-9 -13 -13 -19h-19q39 136 39 274q0 259 -62 609t-161 542l125 145q139 -34 387 -34q95 0 150 14t79 57z" />
    <glyph glyph-name="uni06F3" unicode="&#x6f3;" horiz-adv-x="1249" 
d="M1145 1536h20l-8 -530q-1 -84 -44.5 -128t-117.5 -44q-64 0 -137 31t-123 75q-72 -106 -182 -106q-62 0 -113 30q29 -274 29 -430q0 -43 -3 -83.5t-6 -71t-11.5 -64.5t-12.5 -53.5t-18 -49t-18 -40.5t-21 -38.5t-19.5 -32t-22 -33t-20.5 -29.5h-18q39 136 39 274
q0 259 -62 609t-161 542l170 172h18q70 -188 115 -496q62 -20 125 -20q13 0 67 4l13 289l155 112h21l-41 -362q98 -43 219 -43q27 0 41 2l-29 399z" />
    <glyph glyph-name="uni06F4" unicode="&#x6f4;" horiz-adv-x="1228" 
d="M1204 1055l8 -6l-30 -162q-161 -52 -289.5 -68t-269.5 -16h-177q23 -238 23 -369q0 -43 -3 -83.5t-6 -71t-11.5 -64.5t-12.5 -53.5t-18 -49t-18 -40.5t-21 -38.5t-19.5 -32t-22 -33t-20.5 -29.5h-18q39 136 39 274q0 259 -62 609t-161 542l170 172h18q68 -181 125 -563
h213q-92 120 -92 225q0 76 46.5 154t129.5 131t176 53q89 0 151.5 -67.5t90.5 -176.5l-8 -6q-44 29 -114.5 47.5t-139.5 18.5q-142 0 -232 -103q29 -80 94 -154.5t156 -105.5q160 24 305 66z" />
    <glyph glyph-name="uni06F5" unicode="&#x6f5;" horiz-adv-x="1155" 
d="M522 1403h25q512 -430 512 -936q0 -123 -38.5 -229t-111.5 -172t-164 -66q-118 0 -167 100q-49 -100 -172 -100q-95 0 -167 66.5t-107.5 171.5t-35.5 229t32 242t89.5 217t126 181t152.5 155zM766 217q60 0 103.5 59.5t68.5 157.5q-12 105 -44.5 198.5t-85 176
t-110.5 150t-137 143.5q-154 -128 -243 -281.5t-89 -312.5q0 -123 53.5 -207t137.5 -84q98 0 98 129l96 53h21q0 -94 40 -138t91 -44z" />
    <glyph glyph-name="uni06F6" unicode="&#x6f6;" horiz-adv-x="972" 
d="M866 1055l8 -6l-30 -162q-149 -60 -256 -133.5t-176.5 -155.5t-110 -187t-56.5 -216.5t-16 -255.5h-18q-68 151 -68 270q0 382 267 612q-78 44 -133.5 114.5t-78 136.5t-22.5 126q0 84 52 162t142.5 127t192.5 49q86 0 149.5 -64t92.5 -180l-8 -6q-47 29 -117.5 47.5
t-136.5 18.5q-179 0 -267 -105q31 -107 112.5 -193t195.5 -114q123 66 282 115z" />
    <glyph glyph-name="uni06F7" unicode="&#x6f7;" horiz-adv-x="1110" 
d="M961 1536l88 -133q-72 -170 -145.5 -425.5t-139 -513.5t-96.5 -355l-146 -129h-22q-43 133 -105 357.5t-106.5 384.5t-111.5 340.5t-136 295.5l137 178h25q35 -71 69.5 -155t70 -194t59.5 -184t61.5 -213.5t51 -189t52.5 -203t43 -168.5q58 308 152 690.5t180 616.5h19z
" />
    <glyph glyph-name="uni06F8" unicode="&#x6f8;" horiz-adv-x="1110" 
d="M588 1536h22q43 -133 105 -357.5t106.5 -385t111.5 -340.5t136 -295l-137 -178h-25q-35 71 -69 154.5t-70.5 194.5t-60 183.5t-61.5 214t-50.5 187.5t-52.5 203.5t-43 168.5q-58 -308 -152 -690t-180 -616h-18l-89 133q71 171 144.5 426.5t139.5 513t97 354.5z" />
    <glyph glyph-name="uni06F9" unicode="&#x6f9;" horiz-adv-x="919" 
d="M705 1034q1 -11 18 -185.5t28 -260t36.5 -216.5t56.5 -204l-162 -168h-25q-38 135 -56.5 376.5t-18.5 465.5q-93 -17 -168 -17q-169 0 -269 72.5t-100 222.5q0 70 25.5 143.5t70 134t110.5 99.5t140 39q55 0 102 -24.5t79 -68t56.5 -93.5t39.5 -110t23.5 -108.5
t13.5 -97.5zM156 1128q111 -106 288 -106q56 0 134 12q-27 297 -197 297q-83 0 -141 -56t-84 -147z" />
    <glyph glyph-name="Wgrave" unicode="&#x1e80;" horiz-adv-x="2252" 
d="M1186 1677q-35 0 -62 6l-391 338q47 21 129 21q78 0 139 -12l244 -347q-24 -6 -59 -6zM1923 1516h420v-62q-88 0 -121.5 -27t-62.5 -110l-459 -1317h-182l-381 1069l-373 -1069h-182l-469 1317q-27 76 -41 95q-27 35 -102 40q-22 2 -52 2v62h571v-62q-79 0 -120 -13
t-41 -46q0 -29 18 -78l383 -1086l291 846q37 100 37 191q0 85 -44.5 135.5t-158.5 50.5v62h571v-62q-82 0 -121.5 -12t-39.5 -47q0 -36 18 -78l383 -1086l373 1086q18 50 18 82q0 31 -29.5 43t-103.5 12v62z" />
    <glyph glyph-name="wgrave" unicode="&#x1e81;" horiz-adv-x="1769" 
d="M954 1292q-33 0 -57 6l-373 322q44 20 123 20q75 0 133 -12l232 -330q-24 -6 -58 -6zM1454 1122h391v-61q-77 0 -112.5 -29t-65.5 -110l-332 -922h-157l-283 801l-289 -801h-157l-328 926q-25 72 -65.5 103.5t-106.5 31.5v61h536v-61q-161 0 -161 -72q0 -9 2 -20t7 -27
t9 -28t12.5 -36.5t12.5 -37.5l215 -637l260 745q-46 113 -164 113v61h536v-61q-161 0 -161 -72q0 -9 2 -20t7 -27t9 -28t12.5 -36.5t12.5 -37.5l215 -637l252 723q18 52 18 71q0 32 -27 48t-100 16v61z" />
    <glyph glyph-name="Wacute" unicode="&#x1e82;" horiz-adv-x="2252" 
d="M1563 2021l-394 -338q-27 -6 -61 -6q-35 0 -59 6l243 347q61 12 140 12q88 0 131 -21zM1923 1516h420v-62q-88 0 -121.5 -27t-62.5 -110l-459 -1317h-182l-381 1069l-373 -1069h-182l-469 1317q-27 76 -41 95q-27 35 -102 40q-22 2 -52 2v62h571v-62q-79 0 -120 -13
t-41 -46q0 -29 18 -78l383 -1086l291 846q37 100 37 191q0 85 -44.5 135.5t-158.5 50.5v62h571v-62q-82 0 -121.5 -12t-39.5 -47q0 -36 18 -78l383 -1086l373 1086q18 50 18 82q0 31 -29.5 43t-103.5 12v62z" />
    <glyph glyph-name="wacute" unicode="&#x1e83;" horiz-adv-x="1769" 
d="M1360 1620l-375 -322q-24 -6 -57 -6q-34 0 -58 6l232 330q58 12 133 12q86 0 125 -20zM1454 1122h391v-61q-77 0 -112.5 -29t-65.5 -110l-332 -922h-157l-283 801l-289 -801h-157l-328 926q-25 72 -65.5 103.5t-106.5 31.5v61h536v-61q-161 0 -161 -72q0 -9 2 -20t7 -27
t9 -28t12.5 -36.5t12.5 -37.5l215 -637l260 745q-46 113 -164 113v61h536v-61q-161 0 -161 -72q0 -9 2 -20t7 -27t9 -28t12.5 -36.5t12.5 -37.5l215 -637l252 723q18 52 18 71q0 32 -27 48t-100 16v61z" />
    <glyph glyph-name="Wdieresis" unicode="&#x1e84;" horiz-adv-x="2252" 
d="M944 1729q-60 0 -97.5 37t-37.5 94t37.5 94t97.5 37q55 0 93 -37.5t38 -93.5t-38 -93.5t-93 -37.5zM1313 1729q-57 0 -96 37t-39 94t39 94t96 37t95 -37t38 -94t-38 -94t-95 -37zM1923 1516h420v-62q-88 0 -121.5 -27t-62.5 -110l-459 -1317h-182l-381 1069l-373 -1069
h-182l-469 1317q-27 76 -41 95q-27 35 -102 40q-22 2 -52 2v62h571v-62q-79 0 -120 -13t-41 -46q0 -29 18 -78l383 -1086l291 846q37 100 37 191q0 85 -44.5 135.5t-158.5 50.5v62h571v-62q-82 0 -121.5 -12t-39.5 -47q0 -36 18 -78l383 -1086l373 1086q18 50 18 82
q0 31 -29.5 43t-103.5 12v62z" />
    <glyph glyph-name="wdieresis" unicode="&#x1e85;" horiz-adv-x="1769" 
d="M762 1341q-57 0 -93 35.5t-36 89.5t36 89.5t93 35.5q54 0 89.5 -35.5t35.5 -89.5t-35.5 -89.5t-89.5 -35.5zM1114 1341q-56 0 -92.5 35.5t-36.5 89.5t36.5 89.5t92.5 35.5q54 0 90.5 -35.5t36.5 -89.5t-36.5 -89.5t-90.5 -35.5zM1454 1122h391v-61q-77 0 -112.5 -29
t-65.5 -110l-332 -922h-157l-283 801l-289 -801h-157l-328 926q-25 72 -65.5 103.5t-106.5 31.5v61h536v-61q-161 0 -161 -72q0 -9 2 -20t7 -27t9 -28t12.5 -36.5t12.5 -37.5l215 -637l260 745q-46 113 -164 113v61h536v-61q-161 0 -161 -72q0 -9 2 -20t7 -27t9 -28
t12.5 -36.5t12.5 -37.5l215 -637l252 723q18 52 18 71q0 32 -27 48t-100 16v61z" />
    <glyph glyph-name="Ygrave" unicode="&#x1ef2;" horiz-adv-x="1337" 
d="M791 1677q-35 0 -62 6l-391 338q46 21 129 21q77 0 139 -12l244 -347q-24 -6 -59 -6zM989 1516h400v-62q-19 0 -33.5 -2.5t-29.5 -12.5t-23.5 -16.5t-24.5 -28t-23.5 -33t-29.5 -44.5l-422 -651v-435q0 -46 5.5 -72.5t24 -51.5t58.5 -35.5t106 -10.5v-61h-610v61
q65 0 104.5 10.5t59 34.5t25.5 51.5t6 73.5v394l-457 692q-31 43 -47 62.5t-40 40t-48.5 27.5t-59.5 7v62h572v-62q-164 0 -164 -68q0 -32 41 -94l352 -532l348 536q43 66 43 103q0 30 -32.5 42.5t-100.5 12.5v62z" />
    <glyph glyph-name="ygrave" unicode="&#x1ef3;" horiz-adv-x="1089" 
d="M659 1292q-33 0 -57 6l-373 322q44 20 123 20q74 0 133 -12l232 -330q-24 -6 -58 -6zM754 1122h391v-61q-76 0 -112 -29.5t-66 -109.5l-383 -1012q-73 -194 -183.5 -283.5t-271.5 -89.5q-63 0 -102 30t-39 77q0 49 37.5 78.5t97.5 29.5q35 0 93 -7t97 -7q46 0 92 52.5
t84 141.5l-368 994q-26 72 -66 103.5t-106 31.5v61h536v-61q-161 0 -161 -72q0 -32 43 -149l229 -647l266 733q19 55 19 71q0 32 -27 48t-100 16v61z" />
    <glyph glyph-name="endash" unicode="&#x2013;" horiz-adv-x="1202" 
d="M61 670h1080v-170h-1080v170z" />
    <glyph glyph-name="emdash" unicode="&#x2014;" horiz-adv-x="1611" 
d="M61 670h1489v-170h-1489v170z" />
    <glyph glyph-name="quoteleft" unicode="&#x2018;" horiz-adv-x="600" 
d="M330 1346q57 -4 92 -41t35 -93q0 -60 -38.5 -97.5t-99.5 -37.5q-59 0 -97 41t-38 111q0 78 46.5 163t103.5 124h119q-107 -103 -123 -170z" />
    <glyph glyph-name="quoteright" unicode="&#x2019;" horiz-adv-x="600" 
d="M270 1268q-57 5 -92 41.5t-35 91.5q0 60 38.5 97.5t99.5 37.5q59 0 97 -41t38 -111q0 -78 -46.5 -162.5t-103.5 -123.5h-119q107 103 123 170z" />
    <glyph glyph-name="quotesinglbase" unicode="&#x201a;" horiz-adv-x="600" 
d="M270 -23q-57 4 -92 41t-35 93q0 60 38.5 97.5t99.5 37.5q59 0 97 -41t38 -111q0 -78 -46.5 -163t-103.5 -124h-119q107 103 123 170z" />
    <glyph glyph-name="quotedblleft" unicode="&#x201c;" horiz-adv-x="987" 
d="M330 1346q57 -4 92 -41t35 -93q0 -60 -38.5 -97.5t-99.5 -37.5q-59 0 -97 41t-38 111q0 78 46.5 163t103.5 124h119q-107 -103 -123 -170zM717 1346q57 -4 92 -41t35 -93q0 -60 -38 -97.5t-99 -37.5q-59 0 -97.5 41t-38.5 111q0 78 46.5 163t103.5 124h119
q-107 -103 -123 -170z" />
    <glyph glyph-name="quotedblright" unicode="&#x201d;" horiz-adv-x="987" 
d="M311 1268q-57 5 -92 41.5t-35 91.5q0 60 38.5 97.5t99.5 37.5q59 0 97 -41t38 -111q0 -78 -46.5 -162.5t-103.5 -123.5h-119q107 103 123 170zM698 1268q-57 5 -92 41.5t-35 91.5q0 60 38.5 97.5t99.5 37.5q59 0 97 -41t38 -111q0 -78 -46.5 -162.5t-103.5 -123.5h-119
q107 103 123 170z" />
    <glyph glyph-name="quotedblbase" unicode="&#x201e;" horiz-adv-x="1228" 
d="M342 303q71 0 117.5 -49t46.5 -133q0 -94 -56 -195.5t-124 -150.5h-144q123 114 146 205q-68 4 -110 49t-42 112q0 70 46.5 116t119.5 46z" />
    <glyph glyph-name="bullet" unicode="&#x2022;" horiz-adv-x="874" 
d="M438 342q-117 0 -191.5 74t-74.5 186t74.5 186t191.5 74q112 0 188 -75t76 -185t-76 -185t-188 -75z" />
    <glyph glyph-name="ellipsis" unicode="&#x2026;" horiz-adv-x="1910" 
d="M342 -20q-73 0 -119.5 45.5t-46.5 115.5t46.5 116t119.5 46q69 0 116.5 -46.5t47.5 -115.5t-47.5 -115t-116.5 -46zM956 -20q-73 0 -119 45.5t-46 115.5t46 116t119 46q69 0 116.5 -46.5t47.5 -115.5t-47.5 -115t-116.5 -46zM1571 -20q-73 0 -119.5 45.5t-46.5 115.5
t46.5 116t119.5 46q69 0 116.5 -46.5t47.5 -115.5t-47.5 -115t-116.5 -46z" />
    <glyph glyph-name="guilsinglleft" unicode="&#x2039;" horiz-adv-x="708" 
d="M627 135l-76 -53l-449 479l449 477l76 -49l-267 -428z" />
    <glyph glyph-name="guilsinglright" unicode="&#x203a;" horiz-adv-x="708" 
d="M82 135l266 426l-266 428l76 49l448 -477l-448 -479z" />
    <glyph glyph-name="minus" unicode="&#x2212;" horiz-adv-x="1228" 
d="M123 639h983v-129h-983v129z" />
    <glyph glyph-name="uniFBB2" unicode="&#xfbb2;" 
d="M524 1186l-108 188l188 109l109 -189z" />
    <glyph glyph-name="uniFBB3" unicode="&#xfbb3;" 
d="M524 -479l-108 188l188 109l109 -189z" />
    <glyph glyph-name="uniFBB4" unicode="&#xfbb4;" 
d="M549 1372l-189 -108l-51 88l-151 -88l-109 188l189 109l51 -88l151 88z" />
    <glyph glyph-name="uniFBB5" unicode="&#xfbb5;" 
d="M815 -371l-188 -108l-52 88l-151 -88l-109 188l189 109l51 -88l152 88z" />
    <glyph glyph-name="uniFBB6" unicode="&#xfbb6;" 
d="M481 1677l-188 -108l-109 186l189 109zM549 1382l-189 -108l-51 88l-151 -88l-109 186l189 109l51 -88l151 88z" />
    <glyph glyph-name="uniFBB7" unicode="&#xfbb7;" 
 />
    <glyph glyph-name="uniFBB8" unicode="&#xfbb8;" 
 />
    <glyph glyph-name="uniFBB9" unicode="&#xfbb9;" 
d="M575 -391l-151 -88l-109 188l189 109l51 -88l152 88l108 -189l-188 -108zM383 -586l188 109l109 -187l-188 -108z" />
    <glyph glyph-name="uniFBBD" unicode="&#xfbbd;" 
 />
    <glyph glyph-name="uniFBBE" unicode="&#xfbbe;" 
 />
    <glyph glyph-name="uniFD3E" unicode="&#xfd3e;" horiz-adv-x="679" 
d="M563 -266q-73 42 -140 100.5t-130 141t-109 178t-74 217.5t-28 254q0 138 27.5 264t73.5 223t109 180.5t130 142t141 101.5q37 -21 55 -61q-147 -129 -224 -347t-77 -503q0 -271 77.5 -486.5t223.5 -343.5q-15 -43 -55 -61z" />
    <glyph glyph-name="uniFD3F" unicode="&#xfd3f;" horiz-adv-x="679" 
d="M96 -266q-40 18 -55 61q146 128 223.5 343.5t77.5 486.5q0 285 -77 503t-224 347q18 40 55 61q94 -54 176 -135t152.5 -192t112 -262t41.5 -322q0 -132 -28 -254t-74.5 -217.5t-109.5 -178t-130 -141t-140 -100.5z" />
    <glyph glyph-name="uni0627.short" horiz-adv-x="598" 
d="M254 -61h-18q0 218 -5 368l-30 959l176 188h18q0 -249 -4 -369l-24 -704q-5 -137 -17 -204t-47 -138z" />
    <glyph glyph-name="uniFE8E.short" horiz-adv-x="641" 
d="M641 205l41 -4v-197l-41 -4h-76q-81 0 -143 34t-98.5 93.5t-56 131t-23.5 155.5l-43 852l176 188h18q0 -249 -4 -369l-14 -849q109 -31 264 -31z" />
    <glyph glyph-name="uni0308.case" 
d="M-879 1335q-60 0 -97.5 37t-37.5 94t37.5 94t97.5 37q55 0 93 -37.5t38 -93.5t-38 -93.5t-93 -37.5zM-510 1335q-57 0 -96 37t-39 94t39 94t96 37t95 -37t38 -94t-38 -94t-95 -37z" />
    <glyph glyph-name="gravecomb.case" 
d="M-864 1636l243 -346q-24 -6 -59 -6q-34 0 -61 6l-392 338q47 21 129 21q73 0 140 -13z" />
    <glyph glyph-name="acutecomb.case" 
d="M-774 1290l244 346q67 13 139 13q88 0 131 -21l-393 -338q-27 -6 -62 -6t-59 6z" />
    <glyph glyph-name="tildecomb.case" 
d="M-844 1423q-89 0 -114 -86q-34 -9 -70 0q8 116 60 190.5t153 74.5q52 0 175 -54.5t175 -54.5q91 0 115 84q34 9 69 0q-8 -115 -59.5 -188.5t-151.5 -73.5q-53 0 -176.5 54t-175.5 54z" />
    <glyph glyph-name="uni0327.case" 
d="M-557 68l-39 -168q157 -12 239.5 -71t82.5 -153q0 -86 -76.5 -131t-214.5 -45q-135 0 -252 49l6 86q80 -26 168 -26q63 0 98 22.5t35 65.5q0 54 -56 82t-161 28l65 273z" />
    <glyph glyph-name="dotcenterar" 
d="M524 428l-108 188l188 109l109 -188z" />
    <glyph glyph-name="waslaar" 
d="M745 1602q52 0 86.5 -48t34.5 -112q0 -86 -62 -154.5t-145 -68.5q-29 0 -113 13t-126 13q-38 0 -61 -9t-46 -32l-14 8q37 86 68.5 119t70.5 33q23 0 37 -2q47 99 124.5 169.5t145.5 70.5zM670 1339q82 0 125 66q-12 35 -28.5 51.5t-49.5 16.5q-44 0 -83.5 -27.5
t-90.5 -93.5q84 -13 127 -13z" />
    <glyph glyph-name="hamzacenterar" 
 />
    <glyph glyph-name="uni0654064F" 
d="M799 2089q15 -3 88 -8l-41 -119l-80 6q-42 -61 -118 -116t-173 -93q-41 8 -104 28.5t-84 33.5l2 4q99 17 207.5 62t175.5 95q-121 23 -173.5 64t-52.5 108q0 84 67.5 159t145.5 75q66 0 104 -67.5t38 -188.5q0 -37 -2 -43zM518 2210q11 -42 57 -68t144 -43
q-3 160 -101 160q-54 0 -100 -49zM664 1391q129 63 155 79l4 -2l-32 -125q-317 -152 -400 -219q-8 13 -8 52q0 67 111 131q-70 46 -70 102q0 47 45.5 116t109.5 121t111 52q26 0 40.5 -14.5t14.5 -38.5q0 -27 -15.5 -68.5t-35.5 -67.5h-4q-16 31 -51 31q-32 0 -75.5 -30.5
t-43.5 -51.5q0 -23 44 -42.5t100 -24.5z" />
    <glyph glyph-name="uni0654064C" 
d="M799 2091q14 -3 43.5 -5t44.5 -5l-41 -119q-33 6 -78 10q-52 -73 -150 -122.5t-245 -49.5h-88q18 113 18 168q0 34 -7 43.5t-28 9.5q-40 0 -110 -28l26 118q82 33 133 33q33 0 49.5 -22t16.5 -76q0 -37 -12 -139q86 2 173 23.5t140 56.5q-135 24 -186.5 60t-51.5 101
q0 87 67.5 163.5t145.5 76.5q66 0 104 -67.5t38 -188.5q0 -35 -2 -41zM518 2210q12 -46 57.5 -68.5t151.5 -40.5q-10 158 -109 158q-51 0 -100 -49zM664 1391q129 63 155 79l4 -2l-32 -125q-317 -152 -400 -219q-8 13 -8 52q0 67 111 131q-70 46 -70 102q0 47 45.5 116
t109.5 121t111 52q26 0 40.5 -14.5t14.5 -38.5q0 -27 -15.5 -68.5t-35.5 -67.5h-4q-16 31 -51 31q-32 0 -75.5 -30.5t-43.5 -51.5q0 -23 44 -42.5t100 -24.5z" />
    <glyph glyph-name="uni0654064E" 
d="M827 2060l-36 -141l-400 -209l19 127l413 225zM664 1391q129 63 155 79l4 -2l-32 -125q-317 -152 -400 -219q-8 13 -8 52q0 67 111 131q-70 46 -70 102q0 47 45.5 116t109.5 121t111 52q26 0 40.5 -14.5t14.5 -38.5q0 -27 -15.5 -68.5t-35.5 -67.5h-4q-16 31 -51 31
q-32 0 -75.5 -30.5t-43.5 -51.5q0 -23 44 -42.5t100 -24.5z" />
    <glyph glyph-name="uni0654064B" 
d="M827 2310l-36 -141l-400 -209l19 127l413 225zM410 1837l413 225l4 -2l-36 -141l-400 -209zM664 1391q129 63 155 79l4 -2l-32 -125q-317 -152 -400 -219q-8 13 -8 52q0 67 111 131q-70 46 -70 102q0 47 45.5 116t109.5 121t111 52q26 0 40.5 -14.5t14.5 -38.5
q0 -27 -15.5 -68.5t-35.5 -67.5h-4q-16 31 -51 31q-32 0 -75.5 -30.5t-43.5 -51.5q0 -23 44 -42.5t100 -24.5z" />
    <glyph glyph-name="uni06540652" 
d="M618 1800q-93 0 -145.5 54.5t-52.5 152.5q0 111 53.5 190.5t142.5 79.5q60 0 106.5 -40.5t69.5 -102.5t23 -133q0 -97 -54.5 -149t-142.5 -52zM614 2136q-52 0 -86 -32t-34 -72q0 -39 35.5 -67t91.5 -28q96 0 124 72q-11 56 -46 91.5t-85 35.5zM819 1470l4 -2l-32 -125
q-317 -152 -400 -219q-8 13 -8 52q0 67 111 131q-70 46 -70 102q0 47 45.5 116t109.5 121t111 52q26 0 40.5 -14.5t14.5 -38.5q0 -27 -15.5 -68.5t-35.5 -67.5h-4q-16 31 -51 31q-32 0 -75.5 -30.5t-43.5 -51.5q0 -23 44 -42.5t100 -24.5q129 63 155 79z" />
    <glyph glyph-name="uni06550650" 
d="M838 -352l-33 -125q-315 -151 -399 -219q-9 15 -9 51q0 67 111 131q-70 46 -70 102q0 47 46 116t110 121t111 52q26 0 40.5 -14.5t14.5 -38.5q0 -26 -15.5 -67.5t-35.5 -67.5h-4q-15 30 -52 30q-32 0 -75 -30t-43 -51q0 -23 44 -43t99 -25q126 62 156 80zM410 -915
l413 225l4 -2l-36 -142l-400 -208z" />
    <glyph glyph-name="uni0655064D" 
d="M838 -352l-33 -125q-315 -151 -399 -219q-9 15 -9 51q0 67 111 131q-70 46 -70 102q0 47 46 116t110 121t111 52q26 0 40.5 -14.5t14.5 -38.5q0 -26 -15.5 -67.5t-35.5 -67.5h-4q-15 30 -52 30q-32 0 -75 -30t-43 -51q0 -23 44 -43t99 -25q126 62 156 80zM410 -854
l413 225l4 -2l-36 -141l-400 -209zM410 -1104l413 225l4 -2l-36 -141l-400 -209z" />
    <glyph glyph-name="uniFC63" 
 />
    <glyph glyph-name="uniFC61" 
d="M846 1817l-80 6q-42 -61 -118 -116t-173 -93q-41 8 -104 28t-84 33l2 4q98 17 207 62.5t176 95.5q-121 23 -173.5 64t-52.5 108q0 84 67.5 159t145.5 75q66 0 104 -67.5t38 -188.5q0 -37 -2 -43q21 -5 88 -9zM518 2064q11 -42 57 -67.5t144 -42.5q-3 160 -101 160
q-53 0 -100 -50zM864 1655l6 -2q21 -89 21 -142q0 -105 -48 -178t-116 -73q-52 0 -92 34q-47 -129 -150 -129q-61 0 -102 44.5t-41 117.5q0 49 8 80l72 41h4q0 -91 16.5 -127.5t55.5 -36.5q35 0 51 49t16 154l72 39l6 -2q0 -83 34.5 -117t110.5 -39q11 33 11 62
q0 37 -8 83.5t-19 69.5z" />
    <glyph glyph-name="uniFC5E" 
d="M373 1655h-88q18 113 18 168q0 34 -7 43.5t-28 9.5q-38 0 -110 -29l26 119q82 33 133 33q33 0 49.5 -22t16.5 -76q0 -38 -12 -140q86 2 173 23.5t140 56.5q-135 24 -186.5 60.5t-51.5 101.5q0 87 67.5 163.5t145.5 76.5q66 0 104 -67.5t38 -188.5q0 -35 -2 -41
q14 -3 43.5 -5.5t44.5 -5.5l-41 -118q-33 6 -78 10q-52 -73 -150 -122.5t-245 -49.5zM518 2064q12 -46 57 -68t152 -40q-10 158 -109 158q-50 0 -100 -50zM864 1655l6 -2q21 -89 21 -142q0 -105 -48 -178t-116 -73q-52 0 -92 34q-47 -129 -150 -129q-61 0 -102 44.5
t-41 117.5q0 49 8 80l72 41h4q0 -91 16.5 -127.5t55.5 -36.5q35 0 51 49t16 154l72 39l6 -2q0 -83 34.5 -117t110.5 -39q11 33 11 62q0 37 -8 83.5t-19 69.5z" />
    <glyph glyph-name="uniFC60" 
d="M821 1815l-37 -142l-399 -209l18 127l414 226zM858 1554l6 -2q21 -88 21 -141q0 -105 -48 -178.5t-116 -73.5q-51 0 -92 35q-47 -129 -150 -129q-61 0 -102 44.5t-41 117.5q0 49 8 80l72 41h4q0 -91 16.5 -127.5t55.5 -36.5q35 0 51 48.5t16 153.5l72 39l6 -2
q0 -83 34.5 -116.5t110.5 -38.5q11 33 11 61q0 37 -8 84t-19 70z" />
    <glyph glyph-name="uni0651064B" 
d="M821 2064l-37 -141l-399 -209l18 127l414 225zM821 1815l-37 -142l-399 -209l18 127l414 226zM858 1554l6 -2q21 -88 21 -141q0 -105 -48 -178.5t-116 -73.5q-51 0 -92 35q-47 -129 -150 -129q-61 0 -102 44.5t-41 117.5q0 49 8 80l72 41h4q0 -91 16.5 -127.5t55.5 -36.5
q35 0 51 48.5t16 153.5l72 39l6 -2q0 -83 34.5 -116.5t110.5 -38.5q11 33 11 61q0 37 -8 84t-19 70z" />
    <glyph glyph-name="uniFC62" 
d="M635 1604q-47 -129 -150 -129q-62 0 -102.5 44t-40.5 117q0 49 8 80l72 41h4q0 -91 16.5 -127.5t55.5 -36.5q35 0 51 49t16 154l72 39l6 -2q0 -83 34.5 -117t110.5 -39q11 33 11 62q0 37 -8 83.5t-19 69.5l92 72l6 -2q21 -88 21 -141q0 -105 -48 -178.5t-116 -73.5
q-51 0 -92 35zM410 1262l413 225l4 -2l-36 -142l-400 -208z" />
    <glyph glyph-name="uniFC5F" 
d="M635 -506q-46 -129 -150 -129q-61 0 -102 44.5t-41 117.5q0 49 8 80l72 41h4q0 -91 16.5 -127.5t55.5 -36.5q35 0 51 49t16 154l72 39l6 -2q0 -83 34.5 -117t110.5 -39q11 32 11 61q0 37 -8 84t-19 70l92 72l6 -2q21 -89 21 -142q0 -105 -48 -178.5t-116 -73.5
q-51 0 -92 35zM410 -842l413 226l4 -2l-36 -142l-400 -209zM410 -1092l413 226l4 -2l-36 -142l-400 -209z" />
    <glyph glyph-name="comp_uni0635" horiz-adv-x="3094" 
d="M2542 801q162 0 266 -112.5t104 -274.5q0 -174 -146.5 -294t-375.5 -120h-381v205h311q348 0 463 96q-19 136 -90 209.5t-223 73.5q-92 0 -171.5 -25.5t-151 -73.5t-133.5 -99.5t-152.5 -123.5t-173.5 -125l-48 70q77 55 176.5 143.5t179.5 160.5t170.5 141.5t186 109
t189.5 39.5z" />
    <glyph glyph-name="comp_stem" horiz-adv-x="692" 
d="M467 1143v-946q0 -39 15 -67.5t39 -42.5t48 -20t49 -6v-61h-503v61q25 0 49 6t48 20t39 42.5t15 67.5v606q0 91 -36 124.5t-121 33.5v59q131 34 358 123z" />
    <glyph glyph-name="serif" horiz-adv-x="692" 
d="M115 0v61q25 0 49 6t48 20t39 42.5t15 67.5h201q0 -39 15 -67.5t39 -42.5t48 -20t49 -6v-61h-503z" />
    <glyph glyph-name="serif_top" horiz-adv-x="692" 
d="M467 803h-201q0 91 -36 124.5t-121 33.5v59q131 34 358 123v-340z" />
    <glyph glyph-name="comp_arch" horiz-adv-x="2140" 
d="M1184 764v-567q0 -39 15 -67.5t39 -42.5t48 -20t49 -6v-61h-504v61q25 0 49 6t48.5 20t39.5 42.5t15 67.5v522q0 141 -46.5 214t-152.5 73q-82 0 -183 -47.5t-185 -112.5l8 96q168 109 233 141q119 60 217 60q310 0 310 -379z" />
    <glyph glyph-name="comp_bowl" horiz-adv-x="1286" 
d="M498 -20q-62 0 -121 15t-92 34l71 166q177 -115 297 -115q90 0 162.5 66.5t111 174.5t38.5 232q0 104 -13.5 179t-45.5 133t-88.5 87t-137.5 29q-172 0 -309 -113l10 95q8 5 45 29.5t61.5 39.5t69 38.5t82 37.5t87 24.5t95.5 10.5q176 0 267.5 -131.5t91.5 -368.5
q0 -319 -176.5 -491t-505.5 -172z" />
    <glyph glyph-name="newGlyph" horiz-adv-x="1228" 
d="M272 231h222q0 -46 5.5 -72.5t24 -51.5t58.5 -35.5t106 -10.5v-61h-610v61q65 0 104.5 10.5t58.5 34.5t25 51.5t6 73.5z" />
    <glyph glyph-name="comp_asterisk" horiz-adv-x="800" 
d="M379 1190l-68 252q-2 6 -2 24q0 70 92 70q91 0 91 -68q0 -14 -3 -26l-65 -252h-45z" />
  </font>
</defs>
</svg>
